<svg xmlns="http://www.w3.org/2000/svg" viewBox="0 0 270 270"><defs><style>.cls-1{fill:#fff;}</style></defs><g id="레이어_2" data-name="레이어 2"><g id="레이어_1-2" data-name="레이어 1"><path class="cls-1" d="M135,5a130,130,0,0,1,91.92,221.92A130,130,0,1,1,43.08,43.08,129.12,129.12,0,0,1,135,5m0-5A135,135,0,1,0,270,135,135,135,0,0,0,135,0Z"/><path class="cls-1" d="M88.22,119.68a6.33,6.33,0,0,0-4.65,2,6.83,6.83,0,0,0,0,9.52,6.3,6.3,0,0,0,4.65,2,6.73,6.73,0,0,0,0-13.45Z"/><path class="cls-1" d="M144.34,119.62a6.22,6.22,0,0,0-4.64,2,6.82,6.82,0,0,0,0,9.51,6.26,6.26,0,0,0,4.64,2,6.73,6.73,0,0,0,0-13.45Z"/><path class="cls-1" d="M181.77,119.68a6.32,6.32,0,0,0-4.64,2,6.83,6.83,0,0,0,0,9.52,6.29,6.29,0,0,0,4.64,2,6.73,6.73,0,0,0,0-13.45Z"/><path class="cls-1" d="M198.42,70.32H71.58A17.75,17.75,0,0,0,53.9,88v71.73a17.74,17.74,0,0,0,17.68,17.68h49.81s9.61,26.26,13.12,26.26,13.91-26.26,13.91-26.26h50a17.74,17.74,0,0,0,17.68-17.68V88A17.75,17.75,0,0,0,198.42,70.32Zm-97.37,66.22c-2.51,2.84-6.37,4-10.57,4a13.76,13.76,0,0,1-8.61-2.7h-.12v2H72.22V98.36h9.53v15.87h.12c2.57-2.2,6-3,10-3.08,3.45-.11,7,2,9.19,4.53a16.61,16.61,0,0,1,3.71,10.67C104.8,131,103.56,133.72,101.05,136.54Zm20.43,3.65h-9.71v-25.7c0-5.93-4.69-6.71-4.69-6.71V97.5s13.61.83,14.4,17.32Zm38.11-7.87a15.15,15.15,0,0,1-3.57,5,16.4,16.4,0,0,1-5.32,3.32,17.74,17.74,0,0,1-6.35,1.15,17.32,17.32,0,0,1-6.25-1.15,16.84,16.84,0,0,1-5.32-3.32,15.9,15.9,0,0,1-3.65-5,14.55,14.55,0,0,1,0-11.71,15.9,15.9,0,0,1,3.65-5,16.66,16.66,0,0,1,5.32-3.32,17.11,17.11,0,0,1,6.25-1.15,17.53,17.53,0,0,1,6.35,1.15,16.23,16.23,0,0,1,5.32,3.32,15.15,15.15,0,0,1,3.57,5,14.95,14.95,0,0,1,0,11.83Zm38.18,4.12c0,7.3-1.38,11.74-4.63,14.83-3.87,3.68-9.38,3.93-14,3.27V147c3.87.39,9.2-2.16,9.19-7.18v-1.93h-.12c-2.17,3-5.34,4.09-9.55,4.09a12.3,12.3,0,0,1-9.6-4.14q-3.45-4-3.44-10.81,0-7.59,3.83-12.06a13.15,13.15,0,0,1,10.37-4.37c3.74,0,6.09.9,8.39,3h.12v-2.27h9.46Z"/></g></g></svg>