<svg xmlns="http://www.w3.org/2000/svg" viewBox="0 0 444.5 243.98"><defs><style>.cls-1,.cls-5{opacity:0.5;}.cls-2,.cls-4,.cls-6{fill:none;stroke:#fff;}.cls-2,.cls-6{stroke-miterlimit:10;}.cls-2{stroke-width:0.5px;}.cls-3{fill:#fff;}.cls-4{stroke-linecap:round;stroke-linejoin:round;}</style></defs><g id="레이어_2" data-name="레이어 2"><g id="레이어_1-2" data-name="레이어 1"><rect class="cls-1" x="364.25" y="147.84" width="80" height="20" rx="10"/><rect class="cls-1" x="364.25" y="77.84" width="80" height="20" rx="10"/><rect class="cls-1" x="182.25" y="77.84" width="80" height="20" rx="10"/><rect class="cls-1" x="182.25" y="147.84" width="80" height="20" rx="10"/><rect class="cls-1" x="182.25" y="217.84" width="80" height="20" rx="10"/><rect class="cls-1" x="0.25" y="217.84" width="80" height="20" rx="10"/><rect class="cls-1" x="0.25" y="77.84" width="80" height="20" rx="10"/><rect class="cls-2" x="0.25" y="217.84" width="80" height="20" rx="10"/><rect class="cls-2" x="182.25" y="217.84" width="80" height="20" rx="10"/><rect class="cls-2" x="182.25" y="147.84" width="80" height="20" rx="10"/><rect class="cls-2" x="364.25" y="147.84" width="80" height="20" rx="10"/><rect class="cls-1" x="182.25" y="7.84" width="80" height="20" rx="10"/><path class="cls-3" d="M209.36,18.51a1.79,1.79,0,0,1-.69,1.49,3,3,0,0,1-1.89.54,5.49,5.49,0,0,1-1.1-.1,3.18,3.18,0,0,1-.87-.27v-1a5.72,5.72,0,0,0,.94.32,4.11,4.11,0,0,0,1.1.15,1.72,1.72,0,0,0,1.08-.28.91.91,0,0,0,.36-.75.93.93,0,0,0-.16-.56,1.59,1.59,0,0,0-.51-.42,7.22,7.22,0,0,0-.93-.41,4.49,4.49,0,0,1-.93-.47,2,2,0,0,1-.64-.67,2,2,0,0,1-.23-1,1.64,1.64,0,0,1,.64-1.38,2.62,2.62,0,0,1,1.68-.5,4.58,4.58,0,0,1,1.08.12,5.75,5.75,0,0,1,.94.31l-.34.89a5.07,5.07,0,0,0-.83-.28,3.27,3.27,0,0,0-.88-.11,1.34,1.34,0,0,0-.9.26.83.83,0,0,0-.31.68,1,1,0,0,0,.15.55,1.33,1.33,0,0,0,.48.41,6.13,6.13,0,0,0,.87.4,7.64,7.64,0,0,1,1,.5,2,2,0,0,1,.64.64A1.79,1.79,0,0,1,209.36,18.51Z"/><path class="cls-3" d="M212.58,19.68a2.55,2.55,0,0,0,.81-.13v.8a1.84,1.84,0,0,1-.46.13,2.86,2.86,0,0,1-.58.06,2.07,2.07,0,0,1-.8-.15,1.24,1.24,0,0,1-.59-.52,2,2,0,0,1-.22-1v-3H210v-.48l.79-.4.37-1.14h.65v1.21h1.54v.81H211.8v3a.85.85,0,0,0,.22.65A.76.76,0,0,0,212.58,19.68Z"/><path class="cls-3" d="M216.56,15a2.3,2.3,0,0,1,1.52.44,1.79,1.79,0,0,1,.5,1.4v3.65h-.75l-.21-.75h0a2.37,2.37,0,0,1-.73.64,2.28,2.28,0,0,1-1.07.21,1.8,1.8,0,0,1-1.21-.4,1.49,1.49,0,0,1-.48-1.23,1.44,1.44,0,0,1,.63-1.26,3.57,3.57,0,0,1,1.9-.46l.92,0v-.3a.91.91,0,0,0-1-1.08,2.61,2.61,0,0,0-.79.12,4.62,4.62,0,0,0-.73.29l-.34-.77a3.94,3.94,0,0,1,.88-.34A3.88,3.88,0,0,1,216.56,15Zm1,2.9-.72,0a2.37,2.37,0,0,0-1.27.31.88.88,0,0,0-.36.74.71.71,0,0,0,.25.61,1.09,1.09,0,0,0,.65.19,1.59,1.59,0,0,0,1-.35,1.33,1.33,0,0,0,.41-1.05Z"/><path class="cls-3" d="M221.26,12.84v3.8c0,.13,0,.29,0,.48s0,.35,0,.5h0l.31-.4c.13-.16.24-.3.34-.4l1.65-1.77h1.23l-2.17,2.31,2.31,3.08h-1.25L221.88,18l-.62.52v1.89h-1v-7.6Z"/><path class="cls-3" d="M226.34,13a.63.63,0,0,1,.42.14.56.56,0,0,1,.18.47.55.55,0,0,1-.18.46.64.64,0,0,1-.42.15.64.64,0,0,1-.43-.15.55.55,0,0,1-.18-.46.56.56,0,0,1,.18-.47A.64.64,0,0,1,226.34,13Zm.52,2.05v5.39H225.8V15.05Z"/><path class="cls-3" d="M231.25,15a2,2,0,0,1,1.44.47,2,2,0,0,1,.5,1.51v3.51h-1.05V17.08q0-1.26-1.11-1.26a1.22,1.22,0,0,0-1.13.49,2.6,2.6,0,0,0-.32,1.41v2.72h-1.06V15.05h.84l.15.72h.06a1.51,1.51,0,0,1,.72-.62A2.39,2.39,0,0,1,231.25,15Z"/><path class="cls-3" d="M236.68,15a2.2,2.2,0,0,1,.94.2,1.73,1.73,0,0,1,.71.61h0l.12-.71h.86v5.46c0,1.55-.83,2.33-2.49,2.33a7.06,7.06,0,0,1-1.07-.08,4.53,4.53,0,0,1-.9-.25v-.93a3.71,3.71,0,0,0,.94.31,5.37,5.37,0,0,0,1.09.11,1.38,1.38,0,0,0,1-.38,1.45,1.45,0,0,0,.36-1.05v-.18c0-.09,0-.2,0-.34s0-.25,0-.32h0a1.71,1.71,0,0,1-.68.61,2.16,2.16,0,0,1-.94.2,1.9,1.9,0,0,1-1.59-.74,3.19,3.19,0,0,1-.58-2,3.29,3.29,0,0,1,.58-2.06A1.88,1.88,0,0,1,236.68,15Zm.22.88a1.11,1.11,0,0,0-1,.49,2.61,2.61,0,0,0-.33,1.45,2.56,2.56,0,0,0,.33,1.43,1.13,1.13,0,0,0,1,.49,1.37,1.37,0,0,0,1.09-.41,2,2,0,0,0,.34-1.32v-.2a2.49,2.49,0,0,0-.35-1.49A1.33,1.33,0,0,0,236.9,15.83Z"/><rect class="cls-2" x="0.25" y="77.84" width="80" height="20" rx="10"/><rect class="cls-2" x="364.25" y="77.84" width="80" height="20" rx="10"/><rect class="cls-2" x="182.25" y="77.84" width="80" height="20" rx="10"/><rect class="cls-2" x="182.25" y="7.84" width="80" height="20" rx="10"/><path class="cls-3" d="M197.51,87.57h2.58v3.56a6.65,6.65,0,0,1-1.17.28,7.91,7.91,0,0,1-1.35.1,3.2,3.2,0,0,1-2.52-1,3.91,3.91,0,0,1-.87-2.7,4.13,4.13,0,0,1,.43-2,3,3,0,0,1,1.27-1.27,4.15,4.15,0,0,1,2-.45,5.22,5.22,0,0,1,1.13.12,5.85,5.85,0,0,1,1,.31l-.39.9a5.75,5.75,0,0,0-.83-.29,4.33,4.33,0,0,0-1-.11,2.7,2.7,0,0,0-1.37.33,2.27,2.27,0,0,0-.88,1,3.31,3.31,0,0,0-.3,1.46,3.71,3.71,0,0,0,.25,1.42,2,2,0,0,0,.79,1,2.58,2.58,0,0,0,1.41.35,4.87,4.87,0,0,0,.72,0l.55-.1V88.5h-1.51Z"/><path class="cls-3" d="M206.43,88.71a2.91,2.91,0,0,1-.69,2.07,2.43,2.43,0,0,1-1.86.73,2.54,2.54,0,0,1-1.3-.33,2.22,2.22,0,0,1-.89-1,3.19,3.19,0,0,1-.32-1.52,2.9,2.9,0,0,1,.68-2.07,2.43,2.43,0,0,1,1.86-.72,2.64,2.64,0,0,1,1.3.32,2.34,2.34,0,0,1,.89,1A3.19,3.19,0,0,1,206.43,88.71Zm-4,0a2.51,2.51,0,0,0,.34,1.42,1.24,1.24,0,0,0,1.1.51,1.22,1.22,0,0,0,1.09-.51,3.06,3.06,0,0,0,0-2.84,1.25,1.25,0,0,0-1.1-.49,1.22,1.22,0,0,0-1.09.49A2.48,2.48,0,0,0,202.46,88.71Z"/><path class="cls-3" d="M208.78,91.41l-2-5.39h1.12L209,89.17c.06.21.13.45.21.7s.12.46.15.63h0a3.94,3.94,0,0,1,.16-.64l.22-.69L210.88,86H212L210,91.41Z"/><path class="cls-3" d="M215,85.92a2.21,2.21,0,0,1,1.67.65,2.57,2.57,0,0,1,.61,1.79v.58h-3.62a1.82,1.82,0,0,0,.43,1.27,1.55,1.55,0,0,0,1.17.44,3.71,3.71,0,0,0,.92-.1,4.36,4.36,0,0,0,.84-.28v.88a3.42,3.42,0,0,1-.82.27,4.67,4.67,0,0,1-1,.09,2.92,2.92,0,0,1-1.38-.31,2.2,2.2,0,0,1-.94-.92,3.17,3.17,0,0,1-.33-1.52,3.55,3.55,0,0,1,.3-1.54,2.3,2.3,0,0,1,.85-1A2.41,2.41,0,0,1,215,85.92Zm0,.82a1.19,1.19,0,0,0-.92.37,1.73,1.73,0,0,0-.4,1h2.54a1.75,1.75,0,0,0-.31-1A1.07,1.07,0,0,0,215,86.74Z"/><path class="cls-3" d="M221.21,85.92a3.61,3.61,0,0,1,.59,0l-.11,1a2,2,0,0,0-.54-.07,1.51,1.51,0,0,0-.76.2,1.42,1.42,0,0,0-.57.57,1.85,1.85,0,0,0-.21.91v2.84h-1.06V86h.84l.14,1h0a2.39,2.39,0,0,1,.67-.75A1.56,1.56,0,0,1,221.21,85.92Z"/><path class="cls-3" d="M225.53,85.92a2.06,2.06,0,0,1,1.44.47,2,2,0,0,1,.5,1.51v3.51h-1.05V88.05q0-1.26-1.11-1.26a1.24,1.24,0,0,0-1.14.49,2.63,2.63,0,0,0-.31,1.41v2.72H222.8V86h.84l.15.72h.06a1.53,1.53,0,0,1,.71-.62A2.44,2.44,0,0,1,225.53,85.92Z"/><path class="cls-3" d="M231.19,85.92a2.27,2.27,0,0,1,1.51.44,1.78,1.78,0,0,1,.51,1.4v3.65h-.75l-.21-.75h0a2.39,2.39,0,0,1-.74.64,2.24,2.24,0,0,1-1.06.21,1.8,1.8,0,0,1-1.21-.4,1.49,1.49,0,0,1-.48-1.23,1.43,1.43,0,0,1,.62-1.26,3.71,3.71,0,0,1,1.91-.46l.92,0v-.3a.91.91,0,0,0-1-1.08,2.56,2.56,0,0,0-.79.12,5.29,5.29,0,0,0-.73.29l-.34-.77a4.38,4.38,0,0,1,.87-.34A4,4,0,0,1,231.19,85.92Zm1,2.9-.72,0a2.42,2.42,0,0,0-1.28.31.87.87,0,0,0-.35.74.71.71,0,0,0,.25.61,1,1,0,0,0,.65.19,1.57,1.57,0,0,0,1-.35,1.28,1.28,0,0,0,.42-1Z"/><path class="cls-3" d="M237.57,85.92a2.06,2.06,0,0,1,1.44.47,2,2,0,0,1,.5,1.51v3.51h-1V88.05q0-1.26-1.11-1.26a1.24,1.24,0,0,0-1.14.49,2.63,2.63,0,0,0-.31,1.41v2.72h-1.06V86h.84l.15.72h.06a1.53,1.53,0,0,1,.71-.62A2.44,2.44,0,0,1,237.57,85.92Z"/><path class="cls-3" d="M243.31,91.51a2.43,2.43,0,0,1-1.8-.67,2.78,2.78,0,0,1-.68-2.09,3.43,3.43,0,0,1,.33-1.62,2.13,2.13,0,0,1,.91-.92,2.92,2.92,0,0,1,1.32-.29,3.73,3.73,0,0,1,.84.09,3,3,0,0,1,.66.22l-.32.86L244,86.9a2.61,2.61,0,0,0-.6-.08c-1,0-1.46.64-1.46,1.92a2.31,2.31,0,0,0,.36,1.4,1.24,1.24,0,0,0,1.06.48,2.8,2.8,0,0,0,.79-.1,3.3,3.3,0,0,0,.64-.26v.92a2.44,2.44,0,0,1-.63.25A4,4,0,0,1,243.31,91.51Z"/><path class="cls-3" d="M248.16,85.92a2.21,2.21,0,0,1,1.67.65,2.57,2.57,0,0,1,.61,1.79v.58h-3.62a1.82,1.82,0,0,0,.43,1.27,1.55,1.55,0,0,0,1.17.44,3.71,3.71,0,0,0,.92-.1,4.36,4.36,0,0,0,.84-.28v.88a3.42,3.42,0,0,1-.82.27,4.67,4.67,0,0,1-1,.09A2.92,2.92,0,0,1,247,91.2a2.2,2.2,0,0,1-.94-.92,3.17,3.17,0,0,1-.33-1.52,3.55,3.55,0,0,1,.3-1.54,2.3,2.3,0,0,1,.85-1A2.41,2.41,0,0,1,248.16,85.92Zm0,.82a1.19,1.19,0,0,0-.92.37,1.73,1.73,0,0,0-.4,1h2.54a1.75,1.75,0,0,0-.31-1A1.07,1.07,0,0,0,248.16,86.74Z"/><path class="cls-3" d="M394.86,83.22l-2.52,7.14h-1.12l-2.51-7.14h1.11l1.53,4.48c.08.24.17.5.25.79s.14.55.18.78q.06-.34.18-.78c.08-.29.16-.55.25-.8l1.53-4.47Z"/><path class="cls-3" d="M400.24,87.66a2.91,2.91,0,0,1-.69,2.07,2.46,2.46,0,0,1-1.86.73,2.54,2.54,0,0,1-1.3-.33,2.22,2.22,0,0,1-.89-.95,3.19,3.19,0,0,1-.32-1.52,2.89,2.89,0,0,1,.68-2.07,2.43,2.43,0,0,1,1.86-.72,2.64,2.64,0,0,1,1.3.32,2.34,2.34,0,0,1,.89,1A3.19,3.19,0,0,1,400.24,87.66Zm-4,0a2.53,2.53,0,0,0,.34,1.42,1.24,1.24,0,0,0,1.1.51,1.22,1.22,0,0,0,1.09-.51,2.53,2.53,0,0,0,.35-1.42,2.48,2.48,0,0,0-.35-1.42,1.25,1.25,0,0,0-1.1-.49,1.22,1.22,0,0,0-1.09.49A2.48,2.48,0,0,0,396.27,87.66Z"/><path class="cls-3" d="M403.52,89.6a2.55,2.55,0,0,0,.81-.13v.8a2,2,0,0,1-.46.13,2.93,2.93,0,0,1-.58.06,2.09,2.09,0,0,1-.81-.15,1.17,1.17,0,0,1-.58-.52,2,2,0,0,1-.22-1v-3h-.75V85.3l.79-.4.37-1.14h.65V85h1.54v.81h-1.54v3a.89.89,0,0,0,.21.65A.77.77,0,0,0,403.52,89.6Z"/><path class="cls-3" d="M406,82.92a.63.63,0,0,1,.42.14.56.56,0,0,1,.18.47.55.55,0,0,1-.18.46.64.64,0,0,1-.42.15.64.64,0,0,1-.43-.15.55.55,0,0,1-.18-.46.56.56,0,0,1,.18-.47A.64.64,0,0,1,406,82.92Zm.52,2v5.39h-1.06V85Z"/><path class="cls-3" d="M410.86,84.87a2.06,2.06,0,0,1,1.44.47,2,2,0,0,1,.5,1.51v3.51h-1.05V87q0-1.26-1.11-1.26a1.24,1.24,0,0,0-1.14.49,2.61,2.61,0,0,0-.31,1.41v2.72h-1.06V85H409l.15.72h.06a1.53,1.53,0,0,1,.71-.62A2.44,2.44,0,0,1,410.86,84.87Z"/><path class="cls-3" d="M416.29,84.87a2.15,2.15,0,0,1,.93.2,1.74,1.74,0,0,1,.71.61H418l.11-.71H419v5.46c0,1.55-.83,2.33-2.5,2.33a6.93,6.93,0,0,1-1.06-.08,4,4,0,0,1-.9-.25V91.5a3.77,3.77,0,0,0,.93.31,5.47,5.47,0,0,0,1.1.11,1.34,1.34,0,0,0,1-.38,1.45,1.45,0,0,0,.36-1.05v-.18c0-.09,0-.2,0-.34a2.33,2.33,0,0,1,0-.32h0a1.74,1.74,0,0,1-.69.61,2.12,2.12,0,0,1-.93.2,1.91,1.91,0,0,1-1.6-.74,3.26,3.26,0,0,1-.57-2,3.36,3.36,0,0,1,.57-2.06A1.89,1.89,0,0,1,416.29,84.87Zm.22.88a1.09,1.09,0,0,0-1,.49,2.61,2.61,0,0,0-.34,1.45,2.56,2.56,0,0,0,.34,1.43,1.11,1.11,0,0,0,1,.49,1.34,1.34,0,0,0,1.08-.41,2,2,0,0,0,.34-1.32v-.2a2.42,2.42,0,0,0-.35-1.49A1.31,1.31,0,0,0,416.51,85.75Z"/><path class="cls-3" d="M387,160.21h-1.08V154h-2.14v-.93h5.36V154H387Z"/><path class="cls-3" d="M392.22,154.72a2.76,2.76,0,0,1,.59.05l-.11,1a1.9,1.9,0,0,0-.54-.07,1.44,1.44,0,0,0-.76.2,1.46,1.46,0,0,0-.56.57,1.73,1.73,0,0,0-.22.91v2.84h-1.06v-5.39h.84l.14,1h0a2.52,2.52,0,0,1,.67-.75A1.56,1.56,0,0,1,392.22,154.72Z"/><path class="cls-3" d="M395.73,154.72a2.19,2.19,0,0,1,1.67.65,2.51,2.51,0,0,1,.61,1.79v.58h-3.62a1.84,1.84,0,0,0,.44,1.27,1.51,1.51,0,0,0,1.16.44,3.73,3.73,0,0,0,.93-.1,5.07,5.07,0,0,0,.83-.28V160a3.28,3.28,0,0,1-.82.27,4.61,4.61,0,0,1-1,.09,2.92,2.92,0,0,1-1.38-.31,2.23,2.23,0,0,1-.93-.92,3.05,3.05,0,0,1-.34-1.52,3.41,3.41,0,0,1,.31-1.54,2.24,2.24,0,0,1,.85-1A2.38,2.38,0,0,1,395.73,154.72Zm0,.82a1.17,1.17,0,0,0-.91.37,1.68,1.68,0,0,0-.41,1.05H397a1.82,1.82,0,0,0-.3-1A1.09,1.09,0,0,0,395.73,155.54Z"/><path class="cls-3" d="M401.42,154.72a2.3,2.3,0,0,1,1.52.44,1.79,1.79,0,0,1,.5,1.4v3.65h-.75l-.21-.75h0a2.37,2.37,0,0,1-.73.64,2.28,2.28,0,0,1-1.07.21,1.8,1.8,0,0,1-1.21-.4,1.49,1.49,0,0,1-.48-1.23,1.44,1.44,0,0,1,.63-1.26,3.57,3.57,0,0,1,1.9-.46l.92,0v-.3a.91.91,0,0,0-1-1.08,2.61,2.61,0,0,0-.79.12,4.62,4.62,0,0,0-.73.29l-.34-.77a3.94,3.94,0,0,1,.88-.34A3.88,3.88,0,0,1,401.42,154.72Zm1,2.9-.72,0a2.37,2.37,0,0,0-1.27.31.88.88,0,0,0-.36.74.71.71,0,0,0,.25.61,1.09,1.09,0,0,0,.65.19,1.59,1.59,0,0,0,1-.35,1.33,1.33,0,0,0,.41-1Z"/><path class="cls-3" d="M408.65,158.69a1.4,1.4,0,0,1-.57,1.21,2.81,2.81,0,0,1-1.62.41,5.34,5.34,0,0,1-1-.08,3.48,3.48,0,0,1-.75-.25v-.93a5.24,5.24,0,0,0,.83.3,3.32,3.32,0,0,0,.92.14,1.6,1.6,0,0,0,.87-.19.62.62,0,0,0,.26-.51.56.56,0,0,0-.1-.33,1.31,1.31,0,0,0-.38-.3,6.13,6.13,0,0,0-.8-.35,6,6,0,0,1-.87-.41,1.68,1.68,0,0,1-.55-.5,1.28,1.28,0,0,1-.19-.73,1.22,1.22,0,0,1,.57-1.08,2.63,2.63,0,0,1,1.49-.37,4,4,0,0,1,.93.1,4.14,4.14,0,0,1,.84.28l-.35.81a5.59,5.59,0,0,0-.72-.26,2.76,2.76,0,0,0-.75-.1c-.65,0-1,.19-1,.57a.55.55,0,0,0,.11.33,1.51,1.51,0,0,0,.41.28l.79.34a5.57,5.57,0,0,1,.84.39,1.58,1.58,0,0,1,.55.5A1.26,1.26,0,0,1,408.65,158.69Z"/><path class="cls-3" d="M414.55,154.82v5.39h-.85l-.15-.71h-.05a1.49,1.49,0,0,1-.72.61,2.48,2.48,0,0,1-1,.2,2.06,2.06,0,0,1-1.45-.47,2,2,0,0,1-.5-1.49v-3.53h1.07v3.37a1.41,1.41,0,0,0,.27.94,1,1,0,0,0,.82.31,1.26,1.26,0,0,0,1.15-.49,2.57,2.57,0,0,0,.32-1.4v-2.73Z"/><path class="cls-3" d="M418.87,154.72a2.76,2.76,0,0,1,.59.05l-.11,1a1.9,1.9,0,0,0-.54-.07,1.44,1.44,0,0,0-.76.2,1.46,1.46,0,0,0-.56.57,1.73,1.73,0,0,0-.22.91v2.84h-1.06v-5.39h.84l.14,1h0a2.52,2.52,0,0,1,.67-.75A1.56,1.56,0,0,1,418.87,154.72Z"/><path class="cls-3" d="M419.64,154.82h1.14l1.12,3.06c.09.23.16.46.23.67a3.48,3.48,0,0,1,.14.64h0a4.87,4.87,0,0,1,.15-.61c.07-.24.15-.47.24-.71l1.06-3.05h1.14l-2.31,6.12a2.92,2.92,0,0,1-.78,1.22,1.77,1.77,0,0,1-1.26.45,2.63,2.63,0,0,1-.43,0l-.31-.05v-.84l.26,0,.33,0a1,1,0,0,0,.74-.27,1.78,1.78,0,0,0,.44-.69l.22-.58Z"/><path class="cls-3" d="M26.94,84.22a3.31,3.31,0,0,1,2,.51,1.86,1.86,0,0,1,.65,1.55,2,2,0,0,1-.2.92,1.77,1.77,0,0,1-.53.62,2.76,2.76,0,0,1-.67.37l2,3.17H29l-1.72-2.89H26v2.89H24.94V84.22Zm-.07.92H26v2.43h.9a1.88,1.88,0,0,0,1.21-.32,1.15,1.15,0,0,0,.38-.93,1,1,0,0,0-.4-.91A2.26,2.26,0,0,0,26.87,85.14Z"/><path class="cls-3" d="M35.9,88.66a2.91,2.91,0,0,1-.69,2.07,2.72,2.72,0,0,1-3.15.4,2.16,2.16,0,0,1-.89-.95,3.19,3.19,0,0,1-.33-1.52,2.93,2.93,0,0,1,.68-2.07,2.43,2.43,0,0,1,1.86-.72,2.67,2.67,0,0,1,1.31.32,2.4,2.4,0,0,1,.89,1A3.32,3.32,0,0,1,35.9,88.66Zm-4,0a2.53,2.53,0,0,0,.35,1.42,1.22,1.22,0,0,0,1.09.51,1.24,1.24,0,0,0,1.1-.51,2.53,2.53,0,0,0,.34-1.42,2.48,2.48,0,0,0-.34-1.42,1.25,1.25,0,0,0-1.11-.49,1.23,1.23,0,0,0-1.09.49A2.48,2.48,0,0,0,31.93,88.66Z"/><path class="cls-3" d="M41.88,86v5.39H41l-.15-.71h-.05a1.49,1.49,0,0,1-.72.61,2.48,2.48,0,0,1-1,.2A2.06,2.06,0,0,1,37.69,91a2,2,0,0,1-.5-1.49V86h1.07v3.37a1.41,1.41,0,0,0,.27.94,1,1,0,0,0,.82.31,1.26,1.26,0,0,0,1.15-.49,2.57,2.57,0,0,0,.32-1.4V86Z"/><path class="cls-3" d="M45.48,90.6a2.55,2.55,0,0,0,.81-.13v.8a1.84,1.84,0,0,1-.46.13,2.86,2.86,0,0,1-.58.06,2.16,2.16,0,0,1-.81-.15,1.21,1.21,0,0,1-.58-.52,2,2,0,0,1-.22-1v-3h-.75V86.3l.79-.4.37-1.14h.65V86h1.54v.81H44.7v3a.89.89,0,0,0,.21.65A.8.8,0,0,0,45.48,90.6Z"/><path class="cls-3" d="M49.49,85.87a2.19,2.19,0,0,1,1.67.65,2.51,2.51,0,0,1,.61,1.79v.58H48.15a1.87,1.87,0,0,0,.43,1.27,1.55,1.55,0,0,0,1.17.44,3.6,3.6,0,0,0,.92-.1,5.17,5.17,0,0,0,.84-.28v.88a3.28,3.28,0,0,1-.82.27,4.61,4.61,0,0,1-1,.09,2.92,2.92,0,0,1-1.38-.31,2.31,2.31,0,0,1-.94-.92,3.17,3.17,0,0,1-.33-1.52,3.41,3.41,0,0,1,.31-1.54,2.28,2.28,0,0,1,.84-1A2.44,2.44,0,0,1,49.49,85.87Zm0,.82a1.17,1.17,0,0,0-.91.37,1.71,1.71,0,0,0-.41,1h2.54a1.82,1.82,0,0,0-.3-1A1.09,1.09,0,0,0,49.49,86.69Z"/><path class="cls-3" d="M55.75,85.87a2.76,2.76,0,0,1,.59,0l-.11,1a1.9,1.9,0,0,0-.54-.07,1.54,1.54,0,0,0-.76.2,1.56,1.56,0,0,0-.57.57,1.85,1.85,0,0,0-.21.91v2.84H53.09V86h.84l.14,1h0a2.52,2.52,0,0,1,.67-.75A1.56,1.56,0,0,1,55.75,85.87Z"/><path class="cls-3" d="M206.59,160.21h-1.07v-7.14h4V154h-2.95v2.33h2.76v.92h-2.76Z"/><path class="cls-3" d="M212.77,154.72a2.3,2.3,0,0,1,1.52.44,1.79,1.79,0,0,1,.5,1.4v3.65H214l-.21-.75h0a2.37,2.37,0,0,1-.73.64,2.28,2.28,0,0,1-1.07.21,1.8,1.8,0,0,1-1.21-.4,1.49,1.49,0,0,1-.48-1.23,1.44,1.44,0,0,1,.63-1.26,3.57,3.57,0,0,1,1.9-.46l.92,0v-.3a.91.91,0,0,0-1-1.08,2.61,2.61,0,0,0-.79.12,4.62,4.62,0,0,0-.73.29l-.34-.77a3.94,3.94,0,0,1,.88-.34A3.88,3.88,0,0,1,212.77,154.72Zm1,2.9-.72,0a2.37,2.37,0,0,0-1.27.31.88.88,0,0,0-.36.74.71.71,0,0,0,.25.61,1.09,1.09,0,0,0,.65.19,1.59,1.59,0,0,0,1-.35,1.33,1.33,0,0,0,.41-1Z"/><path class="cls-3" d="M218.59,160.31a2.43,2.43,0,0,1-1.8-.67,2.82,2.82,0,0,1-.68-2.09,3.43,3.43,0,0,1,.33-1.62,2.08,2.08,0,0,1,.91-.92,3,3,0,0,1,1.32-.29,3.89,3.89,0,0,1,.85.09,2.73,2.73,0,0,1,.65.22l-.32.86-.59-.19a2.61,2.61,0,0,0-.6-.08c-1,0-1.46.64-1.46,1.92a2.31,2.31,0,0,0,.36,1.4,1.24,1.24,0,0,0,1.06.48,3.16,3.16,0,0,0,.79-.1,3.06,3.06,0,0,0,.64-.26V160a2.51,2.51,0,0,1-.63.25A3.89,3.89,0,0,1,218.59,160.31Z"/><path class="cls-3" d="M223.26,159.45a2.55,2.55,0,0,0,.81-.13v.8a1.84,1.84,0,0,1-.46.13,2.86,2.86,0,0,1-.58.06,2.07,2.07,0,0,1-.8-.15,1.24,1.24,0,0,1-.59-.52,2,2,0,0,1-.22-1v-3h-.75v-.48l.79-.4.37-1.14h.65v1.21H224v.81h-1.54v3a.85.85,0,0,0,.22.65A.76.76,0,0,0,223.26,159.45Z"/><path class="cls-3" d="M229.9,157.51a2.91,2.91,0,0,1-.69,2.07,2.72,2.72,0,0,1-3.15.4,2.16,2.16,0,0,1-.89-.95,3.19,3.19,0,0,1-.33-1.52,2.93,2.93,0,0,1,.68-2.07,2.43,2.43,0,0,1,1.86-.72,2.67,2.67,0,0,1,1.31.32,2.4,2.4,0,0,1,.89,1A3.32,3.32,0,0,1,229.9,157.51Zm-4,0a2.53,2.53,0,0,0,.35,1.42,1.22,1.22,0,0,0,1.09.51,1.24,1.24,0,0,0,1.1-.51,2.53,2.53,0,0,0,.34-1.42,2.46,2.46,0,0,0-.34-1.42,1.25,1.25,0,0,0-1.11-.49,1.23,1.23,0,0,0-1.09.49A2.46,2.46,0,0,0,225.93,157.51Z"/><path class="cls-3" d="M233.9,154.72a2.76,2.76,0,0,1,.59.05l-.11,1a1.9,1.9,0,0,0-.54-.07,1.44,1.44,0,0,0-.76.2,1.46,1.46,0,0,0-.56.57,1.73,1.73,0,0,0-.22.91v2.84h-1.06v-5.39h.84l.14,1h0a2.52,2.52,0,0,1,.67-.75A1.56,1.56,0,0,1,233.9,154.72Z"/><path class="cls-3" d="M234.67,154.82h1.14l1.12,3.06c.09.23.16.46.23.67a3.48,3.48,0,0,1,.14.64h0a5.08,5.08,0,0,1,.16-.61c.07-.24.14-.47.23-.71l1.06-3.05h1.14l-2.31,6.12a3,3,0,0,1-.77,1.22,1.81,1.81,0,0,1-1.27.45,2.63,2.63,0,0,1-.43,0l-.31-.05v-.84l.26,0,.33,0a1,1,0,0,0,.74-.27,1.78,1.78,0,0,0,.44-.69l.22-.58Z"/><path class="cls-3" d="M202.92,223.3H205a4.24,4.24,0,0,1,2.07.4,1.44,1.44,0,0,1,.7,1.38,1.64,1.64,0,0,1-.33,1,1.58,1.58,0,0,1-1,.53v0a2.69,2.69,0,0,1,.77.26,1.38,1.38,0,0,1,.54.53,1.86,1.86,0,0,1,.2.91,1.81,1.81,0,0,1-.68,1.51,2.94,2.94,0,0,1-1.84.53h-2.56Zm1.08,3h1.19a1.84,1.84,0,0,0,1.16-.27,1,1,0,0,0,.31-.8.85.85,0,0,0-.38-.77,2.49,2.49,0,0,0-1.21-.23H204Zm0,.88v2.38h1.31a1.75,1.75,0,0,0,1.21-.34,1.21,1.21,0,0,0,.34-.9,1.08,1.08,0,0,0-.35-.83,2,2,0,0,0-1.27-.31Z"/><path class="cls-3" d="M214,225.05v5.39h-.85l-.15-.71H213a1.49,1.49,0,0,1-.72.61,2.48,2.48,0,0,1-1,.2,2.06,2.06,0,0,1-1.45-.47,2,2,0,0,1-.5-1.49v-3.53h1.07v3.37a1.41,1.41,0,0,0,.27.94,1,1,0,0,0,.82.31,1.26,1.26,0,0,0,1.15-.49,2.57,2.57,0,0,0,.32-1.4v-2.73Z"/><path class="cls-3" d="M214.84,225.05H216l1.12,3.06c.09.23.16.46.23.67a3.48,3.48,0,0,1,.14.64h0a5.08,5.08,0,0,1,.16-.61c.07-.24.14-.47.23-.71l1.06-3h1.14l-2.31,6.12a3,3,0,0,1-.77,1.22,1.81,1.81,0,0,1-1.27.45,2.63,2.63,0,0,1-.43,0l-.31-.05v-.84l.26,0,.33,0a1,1,0,0,0,.74-.27,1.78,1.78,0,0,0,.44-.69l.22-.58Z"/><path class="cls-3" d="M222,222.84v1.83c0,.21,0,.42,0,.62s0,.36,0,.47H222a1.8,1.8,0,0,1,.62-.57,1.91,1.91,0,0,1,1-.23,2,2,0,0,1,1.57.7,4,4,0,0,1,0,4.17,2.16,2.16,0,0,1-2.57.48,2,2,0,0,1-.62-.53h-.08l-.2.66h-.78v-7.6Zm1.38,3a1.19,1.19,0,0,0-1.07.45,2.69,2.69,0,0,0-.31,1.4v.08a2.75,2.75,0,0,0,.3,1.42,1.16,1.16,0,0,0,1.1.5,1.11,1.11,0,0,0,1-.5,2.72,2.72,0,0,0,.32-1.44C224.69,226.45,224.25,225.82,223.37,225.82Z"/><path class="cls-3" d="M229.22,225a2.3,2.3,0,0,1,1.52.44,1.79,1.79,0,0,1,.5,1.4v3.65h-.75l-.21-.75h0a2.37,2.37,0,0,1-.73.64,2.28,2.28,0,0,1-1.07.21,1.8,1.8,0,0,1-1.21-.4,1.49,1.49,0,0,1-.48-1.23,1.44,1.44,0,0,1,.63-1.26,3.57,3.57,0,0,1,1.9-.46l.92,0v-.3a.91.91,0,0,0-1-1.08,2.61,2.61,0,0,0-.79.12,4.62,4.62,0,0,0-.73.29l-.34-.77a4,4,0,0,1,1.91-.47Zm1,2.9-.72,0a2.37,2.37,0,0,0-1.27.31.88.88,0,0,0-.36.74.71.71,0,0,0,.25.61,1.09,1.09,0,0,0,.65.19,1.59,1.59,0,0,0,1-.35,1.33,1.33,0,0,0,.41-1.05Z"/><path class="cls-3" d="M235,230.54a2.43,2.43,0,0,1-1.8-.67,2.82,2.82,0,0,1-.68-2.09,3.43,3.43,0,0,1,.33-1.62,2.08,2.08,0,0,1,.91-.92,3,3,0,0,1,1.32-.29,3.73,3.73,0,0,1,.84.09,2.67,2.67,0,0,1,.66.22l-.32.86-.59-.19a2.61,2.61,0,0,0-.6-.08c-1,0-1.46.64-1.46,1.92a2.31,2.31,0,0,0,.36,1.4,1.24,1.24,0,0,0,1.06.48,3.16,3.16,0,0,0,.79-.1,3.06,3.06,0,0,0,.64-.26v.92a2.51,2.51,0,0,1-.63.25A3.89,3.89,0,0,1,235,230.54Z"/><path class="cls-3" d="M238.82,222.84v3.8c0,.13,0,.29,0,.48s0,.35,0,.5h0l.31-.4c.13-.16.24-.3.34-.4l1.65-1.77h1.23l-2.17,2.31,2.31,3.08h-1.25L239.44,228l-.62.52v1.89h-1v-7.6Z"/><path class="cls-3" d="M29.89,231.36H28.82v-7.14h4v.92h-3v2.33h2.76v.92H29.89Z"/><path class="cls-3" d="M36.07,225.87a2.3,2.3,0,0,1,1.52.44,1.81,1.81,0,0,1,.5,1.4v3.65h-.75l-.21-.75h0a2.37,2.37,0,0,1-.73.64,2.28,2.28,0,0,1-1.07.21,1.8,1.8,0,0,1-1.21-.4,1.49,1.49,0,0,1-.48-1.23,1.44,1.44,0,0,1,.63-1.26,3.57,3.57,0,0,1,1.9-.46l.92,0v-.3a.91.91,0,0,0-1-1.08,2.61,2.61,0,0,0-.79.12,5.84,5.84,0,0,0-.73.29l-.34-.77A4.49,4.49,0,0,1,35,226,3.88,3.88,0,0,1,36.07,225.87Zm1,2.9-.72,0a2.37,2.37,0,0,0-1.27.31.88.88,0,0,0-.36.74.71.71,0,0,0,.25.61,1,1,0,0,0,.65.19,1.59,1.59,0,0,0,1-.35,1.32,1.32,0,0,0,.41-1Z"/><path class="cls-3" d="M42.38,225.87a2.76,2.76,0,0,1,.59,0l-.11,1a1.9,1.9,0,0,0-.54-.07,1.54,1.54,0,0,0-.76.2,1.46,1.46,0,0,0-.56.57,1.75,1.75,0,0,0-.22.91v2.84H39.72V226h.84l.14,1h0a2.52,2.52,0,0,1,.67-.75A1.56,1.56,0,0,1,42.38,225.87Z"/><path class="cls-3" d="M50,225.87a1.85,1.85,0,0,1,1.37.47,2.08,2.08,0,0,1,.46,1.51v3.51H50.78V228c0-.83-.34-1.25-1-1.25a1.18,1.18,0,0,0-1,.44,2.22,2.22,0,0,0-.31,1.28v2.9h-1V228c0-.83-.34-1.25-1-1.25a1.09,1.09,0,0,0-1,.49,2.83,2.83,0,0,0-.29,1.41v2.72H44V226h.84l.15.72H45a1.51,1.51,0,0,1,.68-.62,2.12,2.12,0,0,1,.9-.2,1.62,1.62,0,0,1,1.64.87h.08a1.64,1.64,0,0,1,.72-.66A2.32,2.32,0,0,1,50,225.87Z"/><path class="cls-4" d="M48.56,15.52l-3.78-1.21A3.46,3.46,0,0,1,42.37,11v-.26a3.16,3.16,0,0,0,1.92-2.91V3.67A3.16,3.16,0,0,0,41.13.5H39.37a3.16,3.16,0,0,0-3.16,3.17V7.84a3.16,3.16,0,0,0,1.92,2.91V11a3.46,3.46,0,0,1-2.41,3.3l-3.78,1.21a3.87,3.87,0,0,0-2.69,3.68V23h22V19.2A3.87,3.87,0,0,0,48.56,15.52Z"/><path class="cls-3" d="M30.49,32.06h-.86v-5H27.92v-.75h4.29v.75H30.49Z"/><path class="cls-3" d="M34.71,27.67a3.3,3.3,0,0,1,.47,0l-.09.8a1.54,1.54,0,0,0-.43-.06,1.18,1.18,0,0,0-.61.16,1.32,1.32,0,0,0-.45.46,1.47,1.47,0,0,0-.17.72v2.27h-.85V27.75h.67l.12.77h0a1.86,1.86,0,0,1,.53-.59A1.28,1.28,0,0,1,34.71,27.67Z"/><path class="cls-3" d="M37.49,27.67a1.8,1.8,0,0,1,1.22.36,1.41,1.41,0,0,1,.4,1.11v2.92h-.6l-.17-.59h0a2,2,0,0,1-.59.51,1.81,1.81,0,0,1-.85.16,1.48,1.48,0,0,1-1-.31,1.22,1.22,0,0,1-.38-1,1.11,1.11,0,0,1,.5-1,2.84,2.84,0,0,1,1.52-.37l.74,0V29.2a.86.86,0,0,0-.22-.67.88.88,0,0,0-.61-.19,2.23,2.23,0,0,0-.63.09,5,5,0,0,0-.58.23L36,28.05a3,3,0,0,1,.7-.27A3.18,3.18,0,0,1,37.49,27.67ZM38.27,30l-.58,0a1.84,1.84,0,0,0-1,.25.69.69,0,0,0-.28.59.59.59,0,0,0,.2.49.84.84,0,0,0,.52.15,1.23,1.23,0,0,0,.83-.28,1,1,0,0,0,.33-.84Z"/><path class="cls-3" d="M41.89,32.14a1.53,1.53,0,0,1-1.25-.56,2.47,2.47,0,0,1-.47-1.66,2.55,2.55,0,0,1,.48-1.68,1.57,1.57,0,0,1,1.26-.57,1.48,1.48,0,0,1,.8.19,1.54,1.54,0,0,1,.5.44h0c0-.07,0-.18,0-.32s0-.27,0-.38V26h.85v6.08h-.67l-.14-.57h0a1.59,1.59,0,0,1-.5.46A1.52,1.52,0,0,1,41.89,32.14Zm.2-.69A1,1,0,0,0,43,31.1a1.78,1.78,0,0,0,.26-1v-.13A2.28,2.28,0,0,0,43,28.77a1,1,0,0,0-.9-.4.89.89,0,0,0-.79.41A2.24,2.24,0,0,0,41,29.94a2.06,2.06,0,0,0,.26,1.12A.9.9,0,0,0,42.09,31.45Z"/><path class="cls-3" d="M47.07,27.67a1.75,1.75,0,0,1,1.34.53,2,2,0,0,1,.48,1.42v.47H46a1.42,1.42,0,0,0,.35,1,1.2,1.2,0,0,0,.93.36,3.29,3.29,0,0,0,.74-.08,4.1,4.1,0,0,0,.67-.23v.71a3.41,3.41,0,0,1-.66.22,4.42,4.42,0,0,1-.78.06,2.45,2.45,0,0,1-1.11-.24,1.78,1.78,0,0,1-.75-.74,2.59,2.59,0,0,1-.26-1.22,2.87,2.87,0,0,1,.24-1.23,1.82,1.82,0,0,1,.68-.77A1.89,1.89,0,0,1,47.07,27.67Zm0,.66a1,1,0,0,0-.73.29,1.4,1.4,0,0,0-.33.85h2a1.43,1.43,0,0,0-.25-.83A.85.85,0,0,0,47.07,28.33Z"/><path class="cls-3" d="M52.08,27.67a3.3,3.3,0,0,1,.47,0l-.09.8a1.54,1.54,0,0,0-.43-.06,1.18,1.18,0,0,0-.61.16,1.24,1.24,0,0,0-.45.46,1.47,1.47,0,0,0-.17.72v2.27H50V27.75h.67l.11.77h0a1.86,1.86,0,0,1,.53-.59A1.26,1.26,0,0,1,52.08,27.67Z"/><path class="cls-4" d="M48.56,155.52l-3.78-1.21a3.46,3.46,0,0,1-2.41-3.3v-.26a3.16,3.16,0,0,0,1.92-2.91v-4.17a3.16,3.16,0,0,0-3.16-3.17H39.37a3.16,3.16,0,0,0-3.16,3.17v4.17a3.16,3.16,0,0,0,1.92,2.91V151a3.46,3.46,0,0,1-2.41,3.3l-3.78,1.21a3.87,3.87,0,0,0-2.69,3.68V163h22V159.2A3.87,3.87,0,0,0,48.56,155.52Z"/><path class="cls-3" d="M7.36,172.06v-5.71h.86v5h2.44v.74Z"/><path class="cls-3" d="M12,166.11a.58.58,0,0,1,.34.11.49.49,0,0,1,.14.38.45.45,0,0,1-.14.37.54.54,0,0,1-.68,0,.43.43,0,0,1-.15-.37.46.46,0,0,1,.15-.38A.58.58,0,0,1,12,166.11Zm.42,1.64v4.31h-.85v-4.31Z"/><path class="cls-3" d="M16.51,174v-1.83c0-.1,0-.21,0-.33a2.48,2.48,0,0,1,0-.33h0a1.59,1.59,0,0,1-.5.46,1.52,1.52,0,0,1-.81.19,1.55,1.55,0,0,1-1.25-.56,3.17,3.17,0,0,1,0-3.34,1.58,1.58,0,0,1,1.26-.57,1.62,1.62,0,0,1,.81.19,1.65,1.65,0,0,1,.51.47h0l.1-.58h.69V174Zm-1.1-2.52a1,1,0,0,0,.87-.34,1.76,1.76,0,0,0,.26-1.05v-.14a2.21,2.21,0,0,0-.25-1.17,1,1,0,0,0-.89-.39.88.88,0,0,0-.79.41,2.24,2.24,0,0,0-.26,1.16,2.06,2.06,0,0,0,.26,1.12A.9.9,0,0,0,15.41,171.46Z"/><path class="cls-3" d="M22.4,167.75v4.31h-.68l-.12-.56h0A1.27,1.27,0,0,1,21,172a2,2,0,0,1-.77.15,1.62,1.62,0,0,1-1.16-.37,1.54,1.54,0,0,1-.4-1.19v-2.83h.85v2.7a1.14,1.14,0,0,0,.21.75.83.83,0,0,0,.66.25,1,1,0,0,0,.92-.39,2,2,0,0,0,.26-1.12v-2.19Z"/><path class="cls-3" d="M24.16,166.11a.52.52,0,0,1,.33.11.46.46,0,0,1,.15.38.43.43,0,0,1-.15.37.48.48,0,0,1-.33.12.55.55,0,0,1-.35-.12.45.45,0,0,1-.14-.37.49.49,0,0,1,.14-.38A.61.61,0,0,1,24.16,166.11Zm.42,1.64v4.31h-.85v-4.31Z"/><path class="cls-3" d="M27.38,172.14a1.53,1.53,0,0,1-1.25-.56,2.47,2.47,0,0,1-.48-1.66,2.55,2.55,0,0,1,.48-1.68,1.59,1.59,0,0,1,1.27-.57,1.51,1.51,0,0,1,.8.19,1.65,1.65,0,0,1,.5.44h.05c0-.07,0-.18,0-.32a2.69,2.69,0,0,1,0-.38V166h.84v6.08h-.66l-.14-.57h0a1.71,1.71,0,0,1-.5.46A1.52,1.52,0,0,1,27.38,172.14Zm.2-.69a1,1,0,0,0,.88-.35,1.78,1.78,0,0,0,.26-1v-.13a2.17,2.17,0,0,0-.25-1.16,1,1,0,0,0-.9-.4.88.88,0,0,0-.78.41,2.15,2.15,0,0,0-.26,1.16,2,2,0,0,0,.26,1.12A.9.9,0,0,0,27.58,171.45Z"/><path class="cls-3" d="M31.29,166.11a.58.58,0,0,1,.34.11.46.46,0,0,1,.14.38.42.42,0,0,1-.14.37.54.54,0,0,1-.68,0,.42.42,0,0,1-.14-.37.46.46,0,0,1,.14-.38A.58.58,0,0,1,31.29,166.11Zm.42,1.64v4.31h-.85v-4.31Z"/><path class="cls-3" d="M34.59,171.46a1.88,1.88,0,0,0,.65-.11V172a1.36,1.36,0,0,1-.37.11,2.38,2.38,0,0,1-.46,0,1.71,1.71,0,0,1-.65-.12,1,1,0,0,1-.47-.41,1.71,1.71,0,0,1-.17-.83V168.4h-.6V168l.63-.32.3-.92H34v1H35.2v.65H34v2.37a.68.68,0,0,0,.17.52A.61.61,0,0,0,34.59,171.46Z"/><path class="cls-3" d="M35.45,167.75h.91l.89,2.45.19.54a3.1,3.1,0,0,1,.11.51h0c0-.14.07-.3.13-.49s.12-.38.18-.57l.85-2.44h.91l-1.84,4.9a2.58,2.58,0,0,1-.62,1,1.44,1.44,0,0,1-1,.35h-.34l-.25-.05v-.67l.21,0,.26,0a.81.81,0,0,0,.6-.22,1.45,1.45,0,0,0,.35-.55l.17-.47Z"/><path class="cls-3" d="M44.09,166.35a2.47,2.47,0,0,1,1.64.45,1.62,1.62,0,0,1,.51,1.26,2,2,0,0,1-.21.9,1.67,1.67,0,0,1-.71.68,3,3,0,0,1-1.35.26h-.61v2.16h-.87v-5.71Zm-.06.73h-.67v2.09h.52a2.06,2.06,0,0,0,1.1-.24.92.92,0,0,0,.37-.83.94.94,0,0,0-.32-.77A1.6,1.6,0,0,0,44,167.08Z"/><path class="cls-3" d="M49.42,167.67a3.3,3.3,0,0,1,.47,0l-.08.8a1.61,1.61,0,0,0-.44-.06,1.15,1.15,0,0,0-.6.16,1.27,1.27,0,0,0-.46.46,1.47,1.47,0,0,0-.17.72v2.27h-.85v-4.31H48l.11.77h0a1.78,1.78,0,0,1,.54-.59A1.23,1.23,0,0,1,49.42,167.67Z"/><path class="cls-3" d="M54.33,169.9a2.31,2.31,0,0,1-.55,1.66,1.94,1.94,0,0,1-1.49.58,2,2,0,0,1-1-.26,1.75,1.75,0,0,1-.71-.76,2.53,2.53,0,0,1-.26-1.22,2.34,2.34,0,0,1,.54-1.65,2,2,0,0,1,1.49-.58,2.08,2.08,0,0,1,1,.26,1.86,1.86,0,0,1,.71.76A2.52,2.52,0,0,1,54.33,169.9Zm-3.17,0a2,2,0,0,0,.27,1.14,1.15,1.15,0,0,0,1.76,0,2,2,0,0,0,.27-1.14,2,2,0,0,0-.27-1.13,1,1,0,0,0-.89-.39,1,1,0,0,0-.87.39A2,2,0,0,0,51.16,169.9Z"/><path class="cls-3" d="M56.21,172.06l-1.63-4.31h.9l.89,2.52c.06.17.11.36.17.56a4,4,0,0,1,.12.51h0c0-.14.07-.31.13-.51s.13-.39.18-.56l.89-2.52h.9l-1.64,4.31Z"/><path class="cls-3" d="M59.89,166.11a.55.55,0,0,1,.33.11.46.46,0,0,1,.15.38.43.43,0,0,1-.15.37.5.5,0,0,1-.33.12.53.53,0,0,1-.35-.12.45.45,0,0,1-.14-.37.49.49,0,0,1,.14-.38A.58.58,0,0,1,59.89,166.11Zm.41,1.64v4.31h-.85v-4.31Z"/><path class="cls-3" d="M63.11,172.14a1.56,1.56,0,0,1-1.26-.56,3.17,3.17,0,0,1,0-3.34,1.57,1.57,0,0,1,1.27-.57,1.51,1.51,0,0,1,.8.19,1.78,1.78,0,0,1,.5.44h0c0-.07,0-.18,0-.32a2.87,2.87,0,0,1,0-.38V166h.85v6.08H64.6l-.15-.57h0a1.55,1.55,0,0,1-.49.46A1.52,1.52,0,0,1,63.11,172.14Zm.2-.69a1,1,0,0,0,.88-.35,1.86,1.86,0,0,0,.26-1v-.13a2.27,2.27,0,0,0-.25-1.16,1,1,0,0,0-.9-.4.86.86,0,0,0-.78.41,2.14,2.14,0,0,0-.27,1.16,2,2,0,0,0,.27,1.12A.88.88,0,0,0,63.31,171.45Z"/><path class="cls-3" d="M68.29,167.67a1.72,1.72,0,0,1,1.33.53,2,2,0,0,1,.49,1.42v.47h-2.9a1.46,1.46,0,0,0,.35,1,1.2,1.2,0,0,0,.93.36,3.22,3.22,0,0,0,.74-.08,3.8,3.8,0,0,0,.67-.23v.71a3.56,3.56,0,0,1-.65.22,4.46,4.46,0,0,1-.79.06,2.44,2.44,0,0,1-1.1-.24,1.78,1.78,0,0,1-.75-.74,2.48,2.48,0,0,1-.27-1.22,2.73,2.73,0,0,1,.25-1.23,1.82,1.82,0,0,1,.68-.77A1.89,1.89,0,0,1,68.29,167.67Zm0,.66a1,1,0,0,0-.74.29,1.4,1.4,0,0,0-.32.85h2a1.43,1.43,0,0,0-.24-.83A.85.85,0,0,0,68.29,168.33Z"/><path class="cls-3" d="M73.29,167.67a3.58,3.58,0,0,1,.48,0l-.09.8a1.59,1.59,0,0,0-.43-.06,1.16,1.16,0,0,0-.61.16,1.17,1.17,0,0,0-.45.46,1.37,1.37,0,0,0-.18.72v2.27h-.84v-4.31h.67l.11.77h0a1.9,1.9,0,0,1,.54-.59A1.23,1.23,0,0,1,73.29,167.67Z"/><path class="cls-4" d="M412.56,15.52l-3.78-1.21a3.46,3.46,0,0,1-2.41-3.3v-.26a3.16,3.16,0,0,0,1.92-2.91V3.67A3.16,3.16,0,0,0,405.13.5h-1.75a3.17,3.17,0,0,0-3.17,3.17V7.84a3.16,3.16,0,0,0,1.92,2.91V11a3.46,3.46,0,0,1-2.41,3.3l-3.78,1.21a3.87,3.87,0,0,0-2.69,3.68V23h22V19.2A3.87,3.87,0,0,0,412.56,15.52Z"/><path class="cls-3" d="M380.68,30.52a1.41,1.41,0,0,1-.56,1.19,2.36,2.36,0,0,1-1.51.43,4.91,4.91,0,0,1-.88-.07,2.8,2.8,0,0,1-.69-.22V31a3.85,3.85,0,0,0,.75.26,3.28,3.28,0,0,0,.88.12,1.38,1.38,0,0,0,.86-.23.7.7,0,0,0,.29-.6.72.72,0,0,0-.13-.44,1.21,1.21,0,0,0-.41-.34c-.19-.1-.44-.21-.74-.33a3.41,3.41,0,0,1-.74-.37,1.78,1.78,0,0,1-.52-.54,1.55,1.55,0,0,1-.18-.78,1.34,1.34,0,0,1,.51-1.11,2.16,2.16,0,0,1,1.34-.4,3.46,3.46,0,0,1,.87.1,4.71,4.71,0,0,1,.75.25l-.27.71a5.3,5.3,0,0,0-.67-.23,3.27,3.27,0,0,0-.7-.08,1.16,1.16,0,0,0-.72.2.71.71,0,0,0-.25.55.78.78,0,0,0,.12.44,1.1,1.1,0,0,0,.39.33,6.78,6.78,0,0,0,.69.32,4.48,4.48,0,0,1,.82.4,1.5,1.5,0,0,1,.52.51A1.44,1.44,0,0,1,380.68,30.52Z"/><path class="cls-3" d="M383.25,31.46a1.88,1.88,0,0,0,.65-.11V32a1.26,1.26,0,0,1-.37.11,2.38,2.38,0,0,1-.46,0,1.71,1.71,0,0,1-.65-.12,1,1,0,0,1-.47-.41,1.71,1.71,0,0,1-.17-.83V28.4h-.6V28l.63-.32.3-.92h.52v1h1.23v.65h-1.23v2.37a.68.68,0,0,0,.17.52A.61.61,0,0,0,383.25,31.46Z"/><path class="cls-3" d="M386.43,27.67a1.8,1.8,0,0,1,1.22.36,1.41,1.41,0,0,1,.4,1.11v2.92h-.6l-.17-.59h0a2,2,0,0,1-.59.51,1.81,1.81,0,0,1-.85.16,1.48,1.48,0,0,1-1-.31,1.22,1.22,0,0,1-.38-1,1.13,1.13,0,0,1,.5-1,2.84,2.84,0,0,1,1.52-.37l.74,0V29.2a.73.73,0,0,0-.83-.86,2.28,2.28,0,0,0-.63.09,5.83,5.83,0,0,0-.58.23l-.27-.61a3,3,0,0,1,.7-.27A3.18,3.18,0,0,1,386.43,27.67Zm.78,2.32-.57,0a1.78,1.78,0,0,0-1,.25.7.7,0,0,0-.29.59.59.59,0,0,0,.2.49.84.84,0,0,0,.52.15,1.23,1.23,0,0,0,.83-.28,1,1,0,0,0,.33-.84Z"/><path class="cls-3" d="M390.19,26v3c0,.11,0,.24,0,.39s0,.28,0,.4h0l.24-.32c.11-.13.2-.24.28-.32L392,27.75h1l-1.73,1.85,1.84,2.46h-1l-1.42-1.92-.5.41v1.51h-.84V26Z"/><path class="cls-3" d="M395.52,27.67a1.75,1.75,0,0,1,1.34.53,2,2,0,0,1,.49,1.42v.47h-2.9a1.46,1.46,0,0,0,.35,1,1.2,1.2,0,0,0,.93.36,3.29,3.29,0,0,0,.74-.08,3.8,3.8,0,0,0,.67-.23v.71a3.41,3.41,0,0,1-.66.22,4.42,4.42,0,0,1-.78.06,2.38,2.38,0,0,1-1.1-.24,1.73,1.73,0,0,1-.75-.74,2.48,2.48,0,0,1-.27-1.22,2.87,2.87,0,0,1,.24-1.23,1.79,1.79,0,0,1,1.7-1Zm0,.66a1,1,0,0,0-.73.29,1.4,1.4,0,0,0-.32.85h2a1.43,1.43,0,0,0-.25-.83A.84.84,0,0,0,395.52,28.33Z"/><path class="cls-3" d="M400.53,27.67a3.3,3.3,0,0,1,.47,0l-.09.8a1.49,1.49,0,0,0-.43-.06,1.18,1.18,0,0,0-.61.16,1.32,1.32,0,0,0-.45.46,1.47,1.47,0,0,0-.17.72v2.27h-.85V27.75h.67l.12.77h0a1.86,1.86,0,0,1,.53-.59A1.28,1.28,0,0,1,400.53,27.67Z"/><path class="cls-3" d="M405.67,26.26a1.61,1.61,0,0,1,1.05.33,1.12,1.12,0,0,1,.39.92,1.23,1.23,0,0,1-.32.87A3.38,3.38,0,0,1,406,29l1.42,1.37a2.57,2.57,0,0,0,.32-.57,6,6,0,0,0,.21-.68h.87a5.18,5.18,0,0,1-.33,1,3.23,3.23,0,0,1-.52.83l1.17,1.13H408l-.62-.59a3.56,3.56,0,0,1-.82.49,2.89,2.89,0,0,1-1.07.18,2.05,2.05,0,0,1-1.38-.42,1.43,1.43,0,0,1-.5-1.16,1.48,1.48,0,0,1,.32-1,2.91,2.91,0,0,1,.86-.68,4.48,4.48,0,0,1-.47-.63,1.37,1.37,0,0,1-.19-.73,1.15,1.15,0,0,1,.42-.94A1.74,1.74,0,0,1,405.67,26.26Zm-.38,3.16a2.41,2.41,0,0,0-.58.47.93.93,0,0,0-.21.62.81.81,0,0,0,.28.65,1.08,1.08,0,0,0,.75.25,1.94,1.94,0,0,0,.76-.14,2,2,0,0,0,.56-.33Zm.35-2.48a.8.8,0,0,0-.49.16.51.51,0,0,0-.2.45,1,1,0,0,0,.13.5,3,3,0,0,0,.39.49,2.55,2.55,0,0,0,.63-.48.75.75,0,0,0,.2-.52.55.55,0,0,0-.19-.44A.72.72,0,0,0,405.64,26.94Z"/><path class="cls-3" d="M416.11,26.35l-2,5.71h-.9l-2-5.71h.89l1.23,3.59c.07.19.13.4.2.63s.11.44.14.62c0-.18.08-.39.14-.62l.2-.64,1.23-3.58Z"/><path class="cls-3" d="M420.42,29.9a2.36,2.36,0,0,1-.55,1.66,2,2,0,0,1-1.49.58,2,2,0,0,1-1-.26,1.75,1.75,0,0,1-.71-.76,2.65,2.65,0,0,1-.26-1.22,2.34,2.34,0,0,1,.54-1.65,2,2,0,0,1,1.49-.58,2.12,2.12,0,0,1,1.05.26,1.86,1.86,0,0,1,.71.76A2.64,2.64,0,0,1,420.42,29.9Zm-3.18,0a2,2,0,0,0,.28,1.14,1,1,0,0,0,.87.41,1,1,0,0,0,.88-.41,2,2,0,0,0,.28-1.14,2,2,0,0,0-.28-1.13,1,1,0,0,0-.88-.39,1,1,0,0,0-.88.39A2,2,0,0,0,417.24,29.9Z"/><path class="cls-3" d="M423,31.46a1.88,1.88,0,0,0,.65-.11V32a1.26,1.26,0,0,1-.37.11,2.38,2.38,0,0,1-.46,0,1.71,1.71,0,0,1-.65-.12.91.91,0,0,1-.46-.41,1.6,1.6,0,0,1-.18-.83V28.4H421V28l.63-.32.3-.92h.52v1h1.23v.65h-1.23v2.37a.72.72,0,0,0,.17.52A.63.63,0,0,0,423,31.46Z"/><path class="cls-3" d="M426.25,27.67a1.75,1.75,0,0,1,1.34.53,2,2,0,0,1,.48,1.42v.47h-2.89a1.46,1.46,0,0,0,.35,1,1.2,1.2,0,0,0,.93.36,3.29,3.29,0,0,0,.74-.08,4.1,4.1,0,0,0,.67-.23v.71a3.41,3.41,0,0,1-.66.22,4.42,4.42,0,0,1-.78.06,2.45,2.45,0,0,1-1.11-.24,1.78,1.78,0,0,1-.75-.74,2.59,2.59,0,0,1-.26-1.22,2.87,2.87,0,0,1,.24-1.23,1.82,1.82,0,0,1,.68-.77A1.89,1.89,0,0,1,426.25,27.67Zm0,.66a1,1,0,0,0-.73.29,1.4,1.4,0,0,0-.33.85h2a1.43,1.43,0,0,0-.25-.83A.84.84,0,0,0,426.25,28.33Z"/><path class="cls-3" d="M431.26,27.67a3.3,3.3,0,0,1,.47,0l-.09.8a1.54,1.54,0,0,0-.43-.06,1.18,1.18,0,0,0-.61.16,1.32,1.32,0,0,0-.45.46,1.47,1.47,0,0,0-.17.72v2.27h-.85V27.75h.67l.11.77h0a1.86,1.86,0,0,1,.53-.59A1.26,1.26,0,0,1,431.26,27.67Z"/><path class="cls-4" d="M412.56,225.52l-3.78-1.21a3.46,3.46,0,0,1-2.41-3.3v-.26a3.16,3.16,0,0,0,1.92-2.91v-4.17a3.16,3.16,0,0,0-3.16-3.17h-1.75a3.17,3.17,0,0,0-3.17,3.17v4.17a3.16,3.16,0,0,0,1.92,2.91V221a3.46,3.46,0,0,1-2.41,3.3l-3.78,1.21a3.87,3.87,0,0,0-2.69,3.68V233h22V229.2A3.87,3.87,0,0,0,412.56,225.52Z"/><path class="cls-3" d="M375.7,242.06l-.61-1.64h-2.21l-.6,1.64h-.9l2.17-5.73h.89l2.16,5.73Zm-.85-2.4-.57-1.6a1.39,1.39,0,0,1-.09-.27c0-.11-.08-.24-.11-.36s-.07-.24-.09-.32c-.05.17-.09.34-.15.53s-.09.33-.12.42l-.58,1.6Z"/><path class="cls-3" d="M377.71,236.11a.52.52,0,0,1,.33.11.46.46,0,0,1,.15.38.43.43,0,0,1-.15.37.48.48,0,0,1-.33.12.53.53,0,0,1-.35-.12.45.45,0,0,1-.14-.37.49.49,0,0,1,.14-.38A.58.58,0,0,1,377.71,236.11Zm.41,1.64v4.31h-.84v-4.31Z"/><path class="cls-3" d="M381.58,237.67a3.3,3.3,0,0,1,.47,0l-.09.8a1.54,1.54,0,0,0-.43-.06,1.18,1.18,0,0,0-.61.16,1.32,1.32,0,0,0-.45.46,1.47,1.47,0,0,0-.17.72v2.27h-.85v-4.31h.67l.12.77h0a1.86,1.86,0,0,1,.53-.59A1.28,1.28,0,0,1,381.58,237.67Z"/><path class="cls-3" d="M384.17,242.14a1.53,1.53,0,0,1-1.25-.56,2.47,2.47,0,0,1-.48-1.66,2.55,2.55,0,0,1,.48-1.68,1.57,1.57,0,0,1,1.27-.57,1.51,1.51,0,0,1,.8.19,1.65,1.65,0,0,1,.5.44h.05c0-.07,0-.18,0-.32a2.69,2.69,0,0,1,0-.38V236h.84v6.08h-.66l-.14-.57h0a1.71,1.71,0,0,1-.5.46A1.52,1.52,0,0,1,384.17,242.14Zm.2-.69a1,1,0,0,0,.88-.35,1.78,1.78,0,0,0,.26-1v-.13a2.17,2.17,0,0,0-.25-1.16,1,1,0,0,0-.9-.4.88.88,0,0,0-.78.41,2.15,2.15,0,0,0-.26,1.16,2,2,0,0,0,.26,1.12A.9.9,0,0,0,384.37,241.45Z"/><path class="cls-3" d="M389.78,237.67a3.3,3.3,0,0,1,.47,0l-.09.8a1.54,1.54,0,0,0-.43-.06,1.18,1.18,0,0,0-.61.16,1.32,1.32,0,0,0-.45.46,1.47,1.47,0,0,0-.17.72v2.27h-.85v-4.31h.67l.12.77h0a1.86,1.86,0,0,1,.53-.59A1.28,1.28,0,0,1,389.78,237.67Z"/><path class="cls-3" d="M394.69,239.9a2.31,2.31,0,0,1-.55,1.66,2.19,2.19,0,0,1-2.52.32,1.77,1.77,0,0,1-.72-.76,2.65,2.65,0,0,1-.26-1.22,2.3,2.3,0,0,1,.55-1.65,2,2,0,0,1,1.49-.58,2.08,2.08,0,0,1,1,.26,1.86,1.86,0,0,1,.71.76A2.64,2.64,0,0,1,394.69,239.9Zm-3.17,0a2,2,0,0,0,.27,1.14,1,1,0,0,0,.88.41,1,1,0,0,0,.87-.41,2,2,0,0,0,.28-1.14,1.93,1.93,0,0,0-.28-1.13,1,1,0,0,0-.88-.39,1,1,0,0,0-.87.39A2,2,0,0,0,391.52,239.9Z"/><path class="cls-3" d="M397.91,237.67a1.56,1.56,0,0,1,1.26.56,3.17,3.17,0,0,1,0,3.34,1.56,1.56,0,0,1-1.25.57,1.67,1.67,0,0,1-.8-.17,1.79,1.79,0,0,1-.5-.43h-.05c0,.09,0,.21,0,.34s0,.24,0,.34V244h-.85v-6.23h.69l.12.58h0a1.7,1.7,0,0,1,.49-.47A1.62,1.62,0,0,1,397.91,237.67Zm-.19.7a1,1,0,0,0-.85.34,1.85,1.85,0,0,0-.26,1.06v.13a2.26,2.26,0,0,0,.24,1.15.93.93,0,0,0,.88.4.89.89,0,0,0,.79-.43,2.23,2.23,0,0,0,.25-1.13,2.07,2.07,0,0,0-.26-1.11A.88.88,0,0,0,397.72,238.37Z"/><path class="cls-3" d="M407.94,239.2a3.73,3.73,0,0,1-.3,1.55,2.27,2.27,0,0,1-.88,1,3.24,3.24,0,0,1-3,0,2.19,2.19,0,0,1-.88-1,4.26,4.26,0,0,1,0-3.09,2.14,2.14,0,0,1,.88-1,2.82,2.82,0,0,1,1.5-.37,2.76,2.76,0,0,1,1.47.37,2.2,2.2,0,0,1,.88,1A3.73,3.73,0,0,1,407.94,239.2Zm-4.41,0a2.78,2.78,0,0,0,.42,1.62,1.55,1.55,0,0,0,1.33.59,1.52,1.52,0,0,0,1.33-.59,2.78,2.78,0,0,0,.42-1.62,2.72,2.72,0,0,0-.42-1.61,1.51,1.51,0,0,0-1.32-.58,1.55,1.55,0,0,0-1.34.58A2.72,2.72,0,0,0,403.53,239.2Z"/><path class="cls-3" d="M411.23,237.67a1.56,1.56,0,0,1,1.26.56,3.17,3.17,0,0,1,0,3.34,1.56,1.56,0,0,1-1.25.57,1.67,1.67,0,0,1-.8-.17,1.79,1.79,0,0,1-.5-.43h-.06a2.66,2.66,0,0,1,0,.34c0,.13,0,.24,0,.34V244h-.85v-6.23h.69l.12.58h0a1.7,1.7,0,0,1,.49-.47A1.62,1.62,0,0,1,411.23,237.67Zm-.19.7a1,1,0,0,0-.85.34,1.85,1.85,0,0,0-.26,1.06v.13a2.26,2.26,0,0,0,.24,1.15.93.93,0,0,0,.88.4.86.86,0,0,0,.78-.43,2.13,2.13,0,0,0,.26-1.13,2.07,2.07,0,0,0-.26-1.11A.88.88,0,0,0,411,238.37Z"/><path class="cls-3" d="M415.74,237.67a1.72,1.72,0,0,1,1.33.53,2,2,0,0,1,.49,1.42v.47h-2.89a1.42,1.42,0,0,0,.35,1,1.2,1.2,0,0,0,.93.36,3.36,3.36,0,0,0,.74-.08,3.71,3.71,0,0,0,.66-.23v.71a3.11,3.11,0,0,1-.65.22,4.46,4.46,0,0,1-.79.06,2.44,2.44,0,0,1-1.1-.24,1.78,1.78,0,0,1-.75-.74,2.48,2.48,0,0,1-.27-1.22,2.87,2.87,0,0,1,.25-1.23,1.82,1.82,0,0,1,.68-.77A1.89,1.89,0,0,1,415.74,237.67Zm0,.66a1,1,0,0,0-.73.29,1.35,1.35,0,0,0-.33.85h2a1.36,1.36,0,0,0-.24-.83A.85.85,0,0,0,415.74,238.33Z"/><path class="cls-3" d="M420.75,237.67a3.43,3.43,0,0,1,.47,0l-.09.8a1.54,1.54,0,0,0-.43-.06,1.18,1.18,0,0,0-.61.16,1.17,1.17,0,0,0-.45.46,1.37,1.37,0,0,0-.17.72v2.27h-.85v-4.31h.67l.11.77h0a2,2,0,0,1,.54-.59A1.24,1.24,0,0,1,420.75,237.67Z"/><path class="cls-3" d="M423.53,237.67a1.77,1.77,0,0,1,1.21.36,1.41,1.41,0,0,1,.41,1.11v2.92h-.6l-.17-.59h0a2.09,2.09,0,0,1-.59.51,1.84,1.84,0,0,1-.85.16,1.47,1.47,0,0,1-1-.31,1.2,1.2,0,0,1-.39-1,1.13,1.13,0,0,1,.5-1,2.91,2.91,0,0,1,1.53-.37l.73,0v-.24a.72.72,0,0,0-.82-.86,2.18,2.18,0,0,0-.63.09,6,6,0,0,0-.59.23l-.27-.61a3.4,3.4,0,0,1,.7-.27A3.26,3.26,0,0,1,423.53,237.67Zm.78,2.32-.58,0a1.84,1.84,0,0,0-1,.25.69.69,0,0,0-.28.59.56.56,0,0,0,.2.49.82.82,0,0,0,.52.15,1.2,1.2,0,0,0,.82-.28,1,1,0,0,0,.34-.84Z"/><path class="cls-3" d="M428,241.46a1.88,1.88,0,0,0,.65-.11V242a1.26,1.26,0,0,1-.37.11,2.38,2.38,0,0,1-.46,0,1.71,1.71,0,0,1-.65-.12.91.91,0,0,1-.46-.41,1.6,1.6,0,0,1-.18-.83V238.4h-.6V238l.63-.32.3-.92h.52v1h1.23v.65h-1.23v2.37a.72.72,0,0,0,.17.52A.63.63,0,0,0,428,241.46Z"/><path class="cls-3" d="M433.31,239.9a2.31,2.31,0,0,1-.55,1.66,1.94,1.94,0,0,1-1.49.58,2,2,0,0,1-1-.26,1.75,1.75,0,0,1-.71-.76,2.53,2.53,0,0,1-.26-1.22,2.34,2.34,0,0,1,.54-1.65,2,2,0,0,1,1.49-.58,2.08,2.08,0,0,1,1,.26,1.86,1.86,0,0,1,.71.76A2.52,2.52,0,0,1,433.31,239.9Zm-3.17,0a2,2,0,0,0,.27,1.14,1.15,1.15,0,0,0,1.76,0,2,2,0,0,0,.27-1.14,2,2,0,0,0-.27-1.13,1,1,0,0,0-.89-.39,1,1,0,0,0-.87.39A2,2,0,0,0,430.14,239.9Z"/><path class="cls-3" d="M436.51,237.67a3.58,3.58,0,0,1,.48,0l-.09.8a1.54,1.54,0,0,0-.43-.06,1.18,1.18,0,0,0-.61.16,1.17,1.17,0,0,0-.45.46,1.37,1.37,0,0,0-.18.72v2.27h-.84v-4.31h.67l.11.77h0a1.9,1.9,0,0,1,.54-.59A1.23,1.23,0,0,1,436.51,237.67Z"/><g class="cls-5"><line class="cls-6" x1="222.37" y1="37.92" x2="222.37" y2="67.75"/><polygon class="cls-3" points="218.28 41.24 219.01 41.92 222.37 38.31 225.73 41.92 226.46 41.24 222.37 36.84 218.28 41.24"/><polygon class="cls-3" points="218.28 64.44 219.01 63.76 222.37 67.37 225.73 63.76 226.46 64.44 222.37 68.84 218.28 64.44"/></g><g class="cls-5"><line class="cls-6" x1="100.33" y1="87.84" x2="162.17" y2="87.84"/><polygon class="cls-3" points="103.65 91.93 104.33 91.2 100.72 87.84 104.33 84.48 103.65 83.75 99.25 87.84 103.65 91.93"/><polygon class="cls-3" points="158.85 91.93 158.17 91.2 161.78 87.84 158.17 84.48 158.85 83.75 163.25 87.84 158.85 91.93"/></g><g class="cls-5"><line class="cls-6" x1="103.28" y1="104.11" x2="159.22" y2="135.57"/><polygon class="cls-3" points="104.17 109.3 105.12 108.99 103.62 104.3 108.41 103.14 108.17 102.17 102.34 103.58 104.17 109.3"/><polygon class="cls-3" points="154.32 137.51 154.09 136.54 158.88 135.38 157.38 130.69 158.34 130.38 160.16 136.1 154.32 137.51"/></g><g class="cls-5"><line class="cls-6" x1="282.34" y1="157.84" x2="345.25" y2="157.84"/><polygon class="cls-3" points="285.65 161.93 286.33 161.2 282.72 157.84 286.33 154.48 285.65 153.75 281.25 157.84 285.65 161.93"/></g><line class="cls-6" x1="100.33" y1="162.84" x2="163.25" y2="162.84"/><polygon class="cls-3" points="103.65 166.93 104.33 166.2 100.72 162.84 104.33 159.48 103.65 158.75 99.25 162.84 103.65 166.93"/><g class="cls-5"><line class="cls-6" x1="99.25" y1="152.84" x2="162.17" y2="152.84"/><polygon class="cls-3" points="158.85 156.93 158.17 156.2 161.78 152.84 158.17 149.48 158.85 148.75 163.25 152.84 158.85 156.93"/></g><g class="cls-5"><line class="cls-6" x1="282.34" y1="22.84" x2="345.25" y2="22.84"/><polygon class="cls-3" points="285.65 26.93 286.33 26.2 282.72 22.84 286.33 19.48 285.65 18.75 281.25 22.84 285.65 26.93"/></g><line class="cls-6" x1="281.25" y1="12.84" x2="344.17" y2="12.84"/><polygon class="cls-3" points="340.85 16.93 340.17 16.2 343.78 12.84 340.17 9.48 340.85 8.75 345.25 12.84 340.85 16.93"/><g class="cls-5"><line class="cls-6" x1="282.34" y1="87.84" x2="344.17" y2="87.84"/><polygon class="cls-3" points="285.65 91.93 286.33 91.2 282.72 87.84 286.33 84.48 285.65 83.75 281.25 87.84 285.65 91.93"/><polygon class="cls-3" points="340.85 91.93 340.17 91.2 343.78 87.84 340.17 84.48 340.85 83.75 345.25 87.84 340.85 91.93"/></g><g class="cls-5"><line class="cls-6" x1="40.25" y1="42.92" x2="40.25" y2="67.75"/><polygon class="cls-3" points="36.16 46.24 36.89 46.92 40.25 43.31 43.61 46.92 44.34 46.24 40.25 41.84 36.16 46.24"/><polygon class="cls-3" points="36.16 64.44 36.89 63.76 40.25 67.37 43.61 63.76 44.34 64.44 40.25 68.84 36.16 64.44"/></g><g class="cls-5"><line class="cls-6" x1="228.37" y1="177.92" x2="228.37" y2="207.75"/><polygon class="cls-3" points="224.28 181.24 225.01 181.92 228.37 178.31 231.73 181.92 232.46 181.24 228.37 176.84 224.28 181.24"/><polygon class="cls-3" points="224.28 204.44 225.01 203.76 228.37 207.37 231.73 203.76 232.46 204.44 228.37 208.84 224.28 204.44"/></g><line class="cls-6" x1="216.25" y1="176.84" x2="216.25" y2="207.75"/><polygon class="cls-3" points="212.16 204.44 212.89 203.76 216.25 207.37 219.61 203.76 220.34 204.44 216.25 208.84 212.16 204.44"/><line class="cls-6" x1="410.31" y1="42.92" x2="410.31" y2="68.84"/><polygon class="cls-3" points="406.22 46.24 406.95 46.92 410.31 43.31 413.67 46.92 414.4 46.24 410.31 41.84 406.22 46.24"/><g class="cls-5"><line class="cls-6" x1="398.19" y1="41.84" x2="398.19" y2="67.75"/><polygon class="cls-3" points="394.1 64.44 394.83 63.76 398.19 67.37 401.55 63.76 402.28 64.44 398.19 68.84 394.1 64.44"/></g><g class="cls-5"><line class="cls-6" x1="342.16" y1="106.58" x2="285.28" y2="138.57"/><polygon class="cls-3" points="286.17 133.38 287.12 133.69 285.62 138.38 290.41 139.54 290.18 140.51 284.34 139.1 286.17 133.38"/></g><line class="cls-6" x1="46.31" y1="182.92" x2="46.31" y2="208.84"/><polygon class="cls-3" points="42.22 186.24 42.95 186.92 46.31 183.31 49.67 186.92 50.4 186.24 46.31 181.84 42.22 186.24"/><g class="cls-5"><line class="cls-6" x1="34.19" y1="181.84" x2="34.19" y2="207.75"/><polygon class="cls-3" points="30.1 204.44 30.83 203.76 34.19 207.37 37.55 203.76 38.28 204.44 34.19 208.84 30.1 204.44"/></g><g class="cls-5"><line class="cls-6" x1="404.25" y1="177.92" x2="404.25" y2="203.84"/><polygon class="cls-3" points="400.16 181.24 400.89 181.92 404.25 178.31 407.61 181.92 408.34 181.24 404.25 176.84 400.16 181.24"/></g></g></g></svg>