<svg xmlns="http://www.w3.org/2000/svg" viewBox="0 0 270 270"><defs><style>.cls-1{fill:#fff;}</style></defs><g id="레이어_2" data-name="레이어 2"><g id="레이어_1-2" data-name="레이어 1"><path class="cls-1" d="M135,5a130,130,0,0,1,91.92,221.92A130,130,0,1,1,43.08,43.08,129.12,129.12,0,0,1,135,5m0-5A135,135,0,1,0,270,135,135,135,0,0,0,135,0Z"/><path class="cls-1" d="M175.94,85.79V59H152.22A34.06,34.06,0,0,0,118.16,93v24.55H94.06v28h24.1v65.48h29.43V145.14h22l4.2-27.81H147.59V97.54a11.75,11.75,0,0,1,11.75-11.75Z"/></g></g></svg>