<svg id="레이어_1" data-name="레이어 1" xmlns="http://www.w3.org/2000/svg" viewBox="0 0 137 137"><defs><style>.cls-1{fill:#fff;}</style></defs><path class="cls-1" d="M131.61,129.88H6.5a1.59,1.59,0,0,1-1.6-1.59V3.17A1.59,1.59,0,0,1,6.5,1.58H131.61a1.6,1.6,0,0,1,1.6,1.59V128.29A1.6,1.6,0,0,1,131.61,129.88ZM8.1,126.69H130V4.77H8.1Z"/><path class="cls-1" d="M121.33,100.58H16.78a1.6,1.6,0,0,1-1.6-1.6V12.58a1.59,1.59,0,0,1,1.6-1.6H121.33a1.6,1.6,0,0,1,1.6,1.6V99A1.6,1.6,0,0,1,121.33,100.58ZM18.38,97.38H119.73V14.18H18.38Z"/><path class="cls-1" d="M101.11,100.06,41.73,35.63,17.92,60l-2.29-2.24,25-25.56a1.61,1.61,0,0,1,2.32,0l60.52,65.67Z"/><path class="cls-1" d="M120.23,83.64,97.1,61.76,82,76.91l-2.27-2.26L95.93,58.39a1.62,1.62,0,0,1,2.24,0l24.26,23Z"/><path class="cls-1" d="M87.13,49.77a12.61,12.61,0,1,1,12.6-12.61A12.63,12.63,0,0,1,87.13,49.77Zm0-22a9.41,9.41,0,1,0,9.41,9.41A9.42,9.42,0,0,0,87.13,27.75Z"/></svg>