<svg id="레이어_1" data-name="레이어 1" xmlns="http://www.w3.org/2000/svg" viewBox="0 0 56 56"><defs><style>.cls-1{fill:#fff;}</style></defs><polygon class="cls-1" points="5.61 0.5 0.89 0.5 0.89 55.5 55.11 55.5 55.11 50.79 5.61 50.79 5.61 0.5 5.61 0.5 5.61 0.5"/><polygon class="cls-1" points="55.11 46.07 43.32 46.07 43.32 0.5 55.11 0.5 55.11 46.07 55.11 46.07"/><polygon class="cls-1" points="38.61 46.07 26.82 46.07 26.82 16.21 38.61 16.21 38.61 46.07 38.61 46.07"/><polygon class="cls-1" points="22.11 46.07 10.32 46.07 10.32 30.36 22.11 30.36 22.11 46.07 22.11 46.07"/><polygon class="cls-1" points="35.46 11.3 35.46 0.5 24.67 0.5 28.96 4.79 10 23.75 12.22 25.96 31.17 7.01 35.46 11.3 35.46 11.3 35.46 11.3"/></svg>