<svg id="레이어_1" data-name="레이어 1" xmlns="http://www.w3.org/2000/svg" viewBox="0 0 137 137"><defs><style>.cls-1{fill:#fff;}</style></defs><path class="cls-1" d="M27.88,64.35h-19a8,8,0,0,0-8,8v54.76a8,8,0,0,0,8,8h19a8,8,0,0,0,8-7.53l.06-1.12,52.75,9.28a1,1,0,0,0,.25,0,12.12,12.12,0,0,0,8.91-3.88L133,89.24a11,11,0,0,0-8-18.62,10.93,10.93,0,0,0-5.18,1.29l-.81.44-.5-.77a36,36,0,0,0-5.91-6.87A46,46,0,0,0,84.43,53.05l-.94,0V26.44l1.13.14a40.38,40.38,0,0,0,5.24.37C108.73,27,114.56,12,115,4a2,2,0,0,0-1.81-2.11c-.17,0-1.11-.1-2.58-.1-4.79,0-21,1-28.25,14.18l-.88,1.58L80.61,16C73.33,2.83,57.14,1.81,52.35,1.81c-1.42,0-2.34.07-2.58.1A2,2,0,0,0,48,4C48.4,12,54.23,27,73.1,27a40.52,40.52,0,0,0,5.25-.37l1.12-.14V53l-.94,0A46,46,0,0,0,50.3,64.71,36.48,36.48,0,0,0,44.09,72l-.23.36-6.18,1.24a4.86,4.86,0,0,0-.54.14l-1.29.38V72.33A8,8,0,0,0,27.88,64.35Zm4,62.74a4,4,0,0,1-4,4h-19a4,4,0,0,1-4-4V72.33a4,4,0,0,1,4-4h19a4,4,0,0,1,4,4ZM84.36,21.29C89,8.34,102.08,6.05,109.45,5.84l1.31,0-.31,1.28C109.3,11.84,105,22.93,89.86,22.93a36.9,36.9,0,0,1-4.69-.31l-1.24-.16Zm-6.57,1.33a36.9,36.9,0,0,1-4.69.31C58,22.93,53.66,11.84,52.51,7.08L52.2,5.8l1.31,0c7.37.21,20.44,2.5,25.1,15.45L79,22.46ZM51.68,69c.43-.43.87-.86,1.33-1.28h0A42,42,0,0,1,81.48,57,42,42,0,0,1,110,67.68a31,31,0,0,1,5.59,6.64L116,75,93.51,95.3a6.21,6.21,0,0,1-3.81,1.25,4.51,4.51,0,0,1-1.64-.27c-3.79-1.42-7.56-3-11.75-4.72l-3-1.26L88,87.36a11.67,11.67,0,0,0-2.29-23.12,11.88,11.88,0,0,0-2.3.23l-34,6.82ZM36.51,78.2a16.67,16.67,0,0,1,2-.63l45.72-9.16a7.65,7.65,0,0,1,9,6,7.64,7.64,0,0,1-6,9L65.9,87.69a2,2,0,0,0-.33,3.84c.91.35,1.82.7,2.72,1.07,2,.82,4,1.66,6.06,2.5,4,1.66,8.15,3.38,12.29,4.94a8.49,8.49,0,0,0,3,.52h0a10.1,10.1,0,0,0,6.47-2.25l23.75-21.43.1-.1a7,7,0,0,1,9.89-.19,7,7,0,0,1,.2,9.9h0l-.09.1L94.72,129.27a8.19,8.19,0,0,1-5.43,2.45h-.18l-53.26-9.38V78.44Z"/></svg>