<svg id="레이어_1" data-name="레이어 1" xmlns="http://www.w3.org/2000/svg" viewBox="0 0 56 56"><defs><style>.cls-1{fill:#fff;}</style></defs><path class="cls-1" d="M29.82,11.2A6.92,6.92,0,0,0,16,11.2a7.08,7.08,0,0,0,2.2,5.1V13a5.11,5.11,0,0,1,3-6.48,5.05,5.05,0,0,1,6.48,3,4.86,4.86,0,0,1,0,3.52v3.27a6.87,6.87,0,0,0,2.2-5Z"/><path class="cls-1" d="M22.9.5a10.72,10.72,0,0,0-4.72,20.33V18.69a8.83,8.83,0,1,1,12.15-2.77,9.3,9.3,0,0,1-2.71,2.7v2.14A10.7,10.7,0,0,0,32.53,6.48,10.85,10.85,0,0,0,22.9.5Z"/><path class="cls-1" d="M20.07,11.2V38.7h0L17.68,28.19a2.9,2.9,0,0,0-3.4-2.14,2.84,2.84,0,0,0-2.14,3.33l3.4,15.36a2.62,2.62,0,0,0,1.07,1.64l6.29,4.84V55.5H39.39V52.73c0-4,4.53-4.34,4.53-12V30.52a3.38,3.38,0,0,0-3.4-3.4,3.44,3.44,0,0,0-2.33.88v-.31a3.43,3.43,0,0,0-5.79-2.46,3.44,3.44,0,0,0-4.09-2.58,3.36,3.36,0,0,0-2.64,3.27h-.06V11.2a2.77,2.77,0,1,0-5.54,0Z"/></svg>