<svg id="레이어_1" data-name="레이어 1" xmlns="http://www.w3.org/2000/svg" viewBox="0 0 143 143"><defs><style>.cls-1{fill:#fff;}</style></defs><path class="cls-1" d="M71.5,3.91A67.45,67.45,0,1,1,4.05,71.36,67.53,67.53,0,0,1,71.5,3.91m0-3.2a70.65,70.65,0,1,0,70.65,70.65A70.65,70.65,0,0,0,71.5.71Z"/><path class="cls-1" d="M74.08,45.91a22.57,22.57,0,0,0,2.94-.2l.64-.08V60.52l-.53,0A26.58,26.58,0,0,0,68,62.74h0l0,0a24.73,24.73,0,0,0-6.66,4.31,20.22,20.22,0,0,0-2.59,2.84L80.15,65.6c2.2-.3,6.72.55,8.53,5.86l0,.1a8,8,0,0,1-3.91,8.75l-.29.13c-.53.15-1.21.35-1.37.41s-.32.13-4.59,1l4,1.61a2.24,2.24,0,0,0,1.8,0c.79-.44,5.79-5,10.16-9.08l4.31-4.51a20.49,20.49,0,0,0-2.59-2.81,25.73,25.73,0,0,0-15.82-6.54l-.53,0V45.63l.63.08a22.57,22.57,0,0,0,2.94.2c10.58,0,13.85-8.41,14.1-12.85a1.13,1.13,0,0,0-1-1.19c-.09,0-.62-.05-1.44-.05-2.69,0-11.77.57-15.85,8l-.49.89-.49-.89c-4.08-7.38-13.16-8-15.84-8-.8,0-1.31,0-1.45.05a1.12,1.12,0,0,0-1,1.19C60.24,37.5,63.5,45.91,74.08,45.91Z"/><path class="cls-1" d="M107.5,72.13a6.17,6.17,0,0,0-4.28-1.73,6,6,0,0,0-1.59.21L96.3,76.18c-1.57,1.48-9.24,8.68-10.7,9.49a4.07,4.07,0,0,1-2,.5,4.85,4.85,0,0,1-2.07-.45L69.83,81.05,74,80.22c3-.59,7.86-1.58,8.34-1.72.24-.1,1-.32,1.39-.43A5.58,5.58,0,0,0,86.3,72.2c-1.62-4.64-5.57-4.16-5.74-4.14l-24.88,5v29l27.11,4.77.15,0a6.81,6.81,0,0,0,5-2.18l19.76-23.89A6.21,6.21,0,0,0,107.5,72.13Z"/><path class="cls-1" d="M53.18,71.21a4.46,4.46,0,0,0-4.45-4.32H38.09a4.47,4.47,0,0,0-4.47,4.47v30.7a4.48,4.48,0,0,0,4.47,4.48H48.73a4.47,4.47,0,0,0,4.45-4.21Z"/></svg>