<svg id="레이어_1" data-name="레이어 1" xmlns="http://www.w3.org/2000/svg" viewBox="0 0 143 143"><defs><style>.cls-1{fill:#fff;}</style></defs><path class="cls-1" d="M71.5,3.91A67.45,67.45,0,1,1,4.05,71.36,67.53,67.53,0,0,1,71.5,3.91m0-3.2a70.65,70.65,0,1,0,70.65,70.65A70.65,70.65,0,0,0,71.5.71Z"/><path class="cls-1" d="M70,35.75a36,36,0,0,0,1.89,72A35.3,35.3,0,0,0,96,98.5l-26-26V35.75Z"/><path class="cls-1" d="M73.8,35.75V69.87h34a35.93,35.93,0,0,0-34-34.12Z"/><path class="cls-1" d="M76.45,73.66,98.63,95.85a35.29,35.29,0,0,0,9.2-22.19Z"/></svg>