<svg id="레이어_1" data-name="레이어 1" xmlns="http://www.w3.org/2000/svg" viewBox="0 0 137 137"><defs><style>.cls-1{fill:#fff;}</style></defs><path class="cls-1" d="M36.54,63.26H28.79a5.63,5.63,0,1,1,0-11.25h7.75a1.59,1.59,0,0,1,1.6,1.6v8.06A1.59,1.59,0,0,1,36.54,63.26Zm-7.75-8a2.43,2.43,0,1,0,0,4.86h6.15V55.21Z"/><path class="cls-1" d="M79.38,63.26H36.54a1.6,1.6,0,0,1-1.6-1.59V3.3a1.6,1.6,0,0,1,1.6-1.59H79.38A1.6,1.6,0,0,1,81,3.3V61.67A1.6,1.6,0,0,1,79.38,63.26ZM38.14,60.07H77.78V4.9H38.14Z"/><path class="cls-1" d="M93.18,63.26H79.38a1.59,1.59,0,0,1-1.6-1.59v-27a1.6,1.6,0,0,1,1.6-1.6h13.8a1.6,1.6,0,0,1,1.6,1.6v27A1.6,1.6,0,0,1,93.18,63.26ZM81,60.07h10.6V36.24H81Z"/><path class="cls-1" d="M105,63.26H93.18a1.59,1.59,0,0,1-1.6-1.59V53.61a1.59,1.59,0,0,1,1.6-1.6H105a1.59,1.59,0,0,1,1.6,1.6v8.06A1.59,1.59,0,0,1,105,63.26ZM94.78,60.07h8.66V55.21H94.78Z"/><path class="cls-1" d="M112.49,70.7H28.79a13.07,13.07,0,0,1,0-26.14h7.75a1.6,1.6,0,0,1,1.6,1.6V60.07H91.58V46.16a1.6,1.6,0,0,1,1.6-1.6h19.31a1.6,1.6,0,0,1,1.6,1.6V53.6a1.6,1.6,0,0,1-1.6,1.6h-5.84v4.87h5.84a1.6,1.6,0,0,1,1.6,1.6V69.1A1.6,1.6,0,0,1,112.49,70.7ZM28.79,47.76a9.87,9.87,0,1,0,0,19.74h82.1V63.27h-5.84a1.6,1.6,0,0,1-1.6-1.6V53.6a1.6,1.6,0,0,1,1.6-1.6h5.84V47.76H94.78V61.67a1.6,1.6,0,0,1-1.6,1.59H36.54a1.6,1.6,0,0,1-1.6-1.59V47.76Z"/><path class="cls-1" d="M72.48,63.26h-29a1.6,1.6,0,0,1-1.6-1.59V10.2a1.6,1.6,0,0,1,1.6-1.6h29a1.6,1.6,0,0,1,1.6,1.6V61.67A1.6,1.6,0,0,1,72.48,63.26ZM45,60.07H70.88V11.8H45Z"/><path class="cls-1" d="M112.48,110.35H90.8A10.78,10.78,0,0,1,80.07,98.52,11.08,11.08,0,0,1,91.2,88.79h19.68V76.06a1.6,1.6,0,0,1,1.6-1.6,8.8,8.8,0,0,1,8.8,8.79v18.31A8.8,8.8,0,0,1,112.48,110.35ZM91.2,92a7.87,7.87,0,0,0-8,6.83,7.59,7.59,0,0,0,7.55,8.33h21.68a5.6,5.6,0,0,0,5.6-5.59V83.25a5.6,5.6,0,0,0-4-5.36v12.5a1.6,1.6,0,0,1-1.6,1.6Z"/><path class="cls-1" d="M112.48,135.16H28.78A13.08,13.08,0,0,1,15.72,122.1V57.64a1.6,1.6,0,0,1,3.2,0,9.88,9.88,0,0,0,9.86,9.86h83.7a1.6,1.6,0,0,1,1.6,1.6V90.39a1.6,1.6,0,0,1-1.6,1.6H91.2a7.87,7.87,0,0,0-8,6.83h0a7.59,7.59,0,0,0,7.55,8.33h21.68a1.6,1.6,0,0,1,1.6,1.6v24.81A1.6,1.6,0,0,1,112.48,135.16Zm-93.56-69V122.1A9.88,9.88,0,0,0,28.78,132h82.1V110.35H90.8A10.78,10.78,0,0,1,80.07,98.52h0A11.08,11.08,0,0,1,91.2,88.79h19.68V70.7H28.78A13,13,0,0,1,18.92,66.19Z"/><path class="cls-1" d="M91.89,103.71A4.14,4.14,0,1,1,96,99.57,4.15,4.15,0,0,1,91.89,103.71Zm0-5.08a.94.94,0,1,0,.94.94A.94.94,0,0,0,91.89,98.63Z"/></svg>