<svg xmlns="http://www.w3.org/2000/svg" viewBox="0 0 141.3 141.3"><defs><style>.cls-1{fill:#fff;}</style></defs><g id="레이어_2" data-name="레이어 2"><g id="레이어_1-2" data-name="레이어 1"><path class="cls-1" d="M70.65,3.2A67.45,67.45,0,1,1,3.2,70.65,67.52,67.52,0,0,1,70.65,3.2m0-3.2A70.65,70.65,0,1,0,141.3,70.65,70.65,70.65,0,0,0,70.65,0Z"/><path class="cls-1" d="M93.63,59.14H88.17l8.17,8.17,8.17-8.17H99.89A23,23,0,0,0,77.28,40.22v6.13A16.88,16.88,0,0,1,93.63,59.14Z"/><circle class="cls-1" cx="53.82" cy="53.82" r="14.82"/><circle class="cls-1" cx="87.49" cy="87.49" r="14.82"/><path class="cls-1" d="M46.66,82.16h5.45L43.94,74l-8.17,8.17h4.62A23,23,0,0,0,63,101.07V94.94A16.87,16.87,0,0,1,46.66,82.16Z"/></g></g></svg>