<svg id="레이어_1" data-name="레이어 1" xmlns="http://www.w3.org/2000/svg" viewBox="0 0 137 137"><defs><style>.cls-1{fill:#fff;fill-rule:evenodd;}</style></defs><path class="cls-1" d="M135.85,71.65V63.13A67.76,67.76,0,0,0,72.71,0H64.2a67.72,67.72,0,0,0-63,63.09v8.52A67.58,67.58,0,0,0,64.2,134.74h8.52A67.6,67.6,0,0,0,135.85,71.65Zm-5.31.06c0,7-2.3,13.79-4.46,19.57l-.5,1.33H104.94l.61-2.53a154.44,154.44,0,0,0,2.81-18.58l.19-1.84h22Zm-4.46-28.2c2.31,6.19,4.46,12.85,4.46,19.56v2.06h-22l-.19-1.84a154.19,154.19,0,0,0-2.81-18.58l-.61-2.54h20.64ZM95.3,11.31a56.6,56.6,0,0,1,25.5,22.5L122.73,37H103.91l-.47-1.39a76.5,76.5,0,0,0-10.6-21.13L88.26,8.3ZM70.72,4.69l2.62.74c10.45,2.94,19,12.9,24.56,28.78l1,2.74H70.72Zm0,37.48h29.89l.24,1.78c.74,5.5,1.41,11.76,2.06,17.81l.35,3.37H70.72Zm0,27.49h32.54L103,71.93c-.74,7-1.41,13.26-2.17,18.9l-.24,1.78H70.72ZM16.11,33.81a56.68,56.68,0,0,1,25.51-22.5l7-3-4.58,6.13a73.93,73.93,0,0,0-10.5,21.11L33.1,37H14.18ZM6.38,63.07c0-6.71,2.14-13.37,4.45-19.56l.5-1.34H32.1l-.65,2.56a134.26,134.26,0,0,0-2.66,16.64l-.45,3.76h-22Zm4.45,28.21C8.68,85.5,6.38,78.75,6.38,71.71v-2h22l.4,3.42a134.9,134.9,0,0,0,2.71,17l.65,2.56H11.33Zm30.79,32.2A56.7,56.7,0,0,1,16.11,101l-1.93-3.14H33.1l.47,1.42a73,73,0,0,0,10.5,21.1l4.58,6.13Zm24.57,6.61-2.62-.73c-10.45-3-18.94-12.9-24.56-28.78l-1-2.75H66.19Zm0-37.48h-29L36.79,91a155.9,155.9,0,0,1-2.9-19.1l-.24-2.27H66.19Zm0-27.48H33.65l.24-2.28a155.63,155.63,0,0,1,2.9-19.1l.38-1.58h29Zm0-28.18H38l1-2.74C44.63,18.33,53.12,8.37,63.57,5.43l2.62-.74Zm7.15,92.41-2.62.73V97.83H98.87l-1,2.75C92.29,116.46,83.79,126.41,73.34,129.36Zm22-5.88-7,3,4.58-6.13a75.66,75.66,0,0,0,10.6-21.12l.47-1.4h18.82L120.8,101A56.63,56.63,0,0,1,95.3,123.48Z"/></svg>