<svg id="레이어_1" data-name="레이어 1" xmlns="http://www.w3.org/2000/svg" viewBox="0 0 143 143"><defs><style>.cls-1{fill:#fff;}</style></defs><path class="cls-1" d="M71.5,3.91A67.45,67.45,0,1,1,4.05,71.36,67.53,67.53,0,0,1,71.5,3.91m0-3.2a70.65,70.65,0,1,0,70.65,70.65A70.65,70.65,0,0,0,71.5.71Z"/><polygon class="cls-1" points="44.67 38.7 38.83 38.7 38.83 104.86 105 104.86 105 99.02 44.67 99.02 44.67 38.7 44.67 38.7"/><polygon class="cls-1" points="50.51 59.13 61.21 59.13 61.21 93.19 50.51 93.19 50.51 59.13 50.51 59.13"/><polygon class="cls-1" points="65.1 38.7 75.81 38.7 75.81 93.19 65.1 93.19 65.1 38.7 65.1 38.7"/><polygon class="cls-1" points="79.7 59.13 90.4 59.13 90.4 93.19 79.7 93.19 79.7 59.13 79.7 59.13"/><polygon class="cls-1" points="94.29 75.67 105 75.67 105 93.19 94.29 93.19 94.29 75.67 94.29 75.67"/></svg>