<svg id="레이어_1" data-name="레이어 1" xmlns="http://www.w3.org/2000/svg" viewBox="0 0 137 137"><defs><style>.cls-1{fill:#fff;}</style></defs><path class="cls-1" d="M57.67,129.6A62.54,62.54,0,0,1,55.86,6.77l.68,3.32a59.15,59.15,0,0,0,1.72,116.18Z"/><path class="cls-1" d="M78.84,129.69l-.55-3.34A59.16,59.16,0,0,0,83.88,10.9l.88-3.27a62.54,62.54,0,0,1-5.92,122.06Z"/><path class="cls-1" d="M49.52,23.08l-2.79-1.92L55.28,8.73,40.46,4.05l1-3.22,17,5.36a1.71,1.71,0,0,1,1.09,1.07,1.73,1.73,0,0,1-.21,1.51Z"/><path class="cls-1" d="M93.3,136.12l-16.4-7a1.7,1.7,0,0,1-1-1.16,1.75,1.75,0,0,1,.35-1.49l11.17-13.3L90,115.37l-9.69,11.56L94.62,133Z"/><path class="cls-1" d="M62.13,60.62c-13.6,0-27.37-3.58-27.37-10.43S48.53,39.76,62.13,39.76s27.36,3.58,27.36,10.43S75.72,60.62,62.13,60.62Zm0-17.48c-14.64,0-24,4.18-24,7s9.35,7.05,24,7.05,24-4.17,24-7.05S76.76,43.14,62.13,43.14Z"/><path class="cls-1" d="M62.13,68.82c-13.6,0-27.37-3.59-27.37-10.43h3.38c0,2.87,9.35,7,24,7a67.61,67.61,0,0,0,11.56-1l.59,3.34A71.47,71.47,0,0,1,62.13,68.82Z"/><path class="cls-1" d="M62.13,77c-13.6,0-27.37-3.58-27.37-10.43h3.38c0,2.87,9.35,7,24,7a72.4,72.4,0,0,0,7.58-.4l.36,3.36A73.74,73.74,0,0,1,62.13,77Z"/><path class="cls-1" d="M62.13,85.2c-13.6,0-27.37-3.58-27.37-10.43h3.38c0,2.88,9.35,7,24,7,2.34,0,4.66-.11,6.9-.33l.32,3.37C67,85.09,64.58,85.2,62.13,85.2Z"/><path class="cls-1" d="M62.13,93.4c-13.6,0-27.37-3.58-27.37-10.43h3.38c0,2.87,9.35,7,24,7a68.31,68.31,0,0,0,9.09-.58l.45,3.36A73.66,73.66,0,0,1,62.13,93.4Z"/><rect class="cls-1" x="86.11" y="50.19" width="3.38" height="11.16"/><rect class="cls-1" x="34.72" y="50.75" width="3.38" height="32.77"/><path class="cls-1" d="M87.8,100.1a21,21,0,1,1,21-21A21,21,0,0,1,87.8,100.1Zm0-38.53a17.58,17.58,0,1,0,17.57,17.57A17.6,17.6,0,0,0,87.8,61.57Z"/><path class="cls-1" d="M87.8,93.17a14,14,0,1,1,14-14A14,14,0,0,1,87.8,93.17Zm0-25.94A11.91,11.91,0,1,0,99.71,79.14,11.93,11.93,0,0,0,87.8,67.23Z"/></svg>