<svg id="레이어_1" data-name="레이어 1" xmlns="http://www.w3.org/2000/svg" viewBox="0 0 56 56"><defs><style>.cls-1{fill:#fff;}</style></defs><path class="cls-1" d="M55.06,20.24A5.89,5.89,0,0,0,43.8,23.31l-9.43,4a7.31,7.31,0,0,0-4.9-3.44V13.66A5.83,5.83,0,0,0,28,2.18h0a5.83,5.83,0,0,0-1.46,11.48V23.75a7.1,7.1,0,0,0-4.9,3.44l-9.43-4A5.82,5.82,0,0,0,8.63,17,5.87,5.87,0,1,0,4.1,27.84,5.77,5.77,0,0,0,11,25.94l9.65,3.95a4.35,4.35,0,0,0-.07.95A7.2,7.2,0,0,0,22,35.23l-7.6,7.68a5.84,5.84,0,1,0,2,2L24.2,37.2a7.06,7.06,0,0,0,3.66,1h.29a7.06,7.06,0,0,0,3.66-1L39.56,45a6,6,0,0,0,.87,7.17A5.84,5.84,0,1,0,41.6,43L34,35.3a7,7,0,0,0,1.46-4.38,4.44,4.44,0,0,0-.07-1L45,26a5.89,5.89,0,0,0,6.87,1.9,6,6,0,0,0,3.15-7.68Z"/></svg>