<svg xmlns="http://www.w3.org/2000/svg" viewBox="0 0 270 270"><defs><style>.cls-1{fill:#fff;}</style></defs><g id="레이어_2" data-name="레이어 2"><g id="레이어_1-2" data-name="레이어 1"><path class="cls-1" d="M135,5a130,130,0,0,1,91.92,221.92A130,130,0,1,1,43.08,43.08,129.12,129.12,0,0,1,135,5m0-5A135,135,0,1,0,270,135,135,135,0,0,0,135,0Z"/><path class="cls-1" d="M135,174.07A39.07,39.07,0,1,1,174.08,135,39.11,39.11,0,0,1,135,174.07Zm0-65.14A26.07,26.07,0,1,0,161.07,135,26.11,26.11,0,0,0,135,108.93Z"/><path class="cls-1" d="M171.35,211.05H98.66A39.75,39.75,0,0,1,59,171.35V98.65A39.75,39.75,0,0,1,98.66,59h72.69a39.75,39.75,0,0,1,39.7,39.7v72.7A39.75,39.75,0,0,1,171.35,211.05ZM98.66,72A26.72,26.72,0,0,0,72,98.65v72.7A26.72,26.72,0,0,0,98.66,198h72.69A26.72,26.72,0,0,0,198,171.35V98.65A26.72,26.72,0,0,0,171.35,72Z"/><circle class="cls-1" cx="175.17" cy="94.17" r="8.98"/></g></g></svg>