<?xml version="1.0" encoding="utf-8"?>
<!-- Generator: Adobe Illustrator 25.2.3, SVG Export Plug-In . SVG Version: 6.00 Build 0)  -->
<svg version="1.1" id="레이어_1" xmlns="http://www.w3.org/2000/svg" xmlns:xlink="http://www.w3.org/1999/xlink" x="0px"
	 y="0px" viewBox="0 0 895.13 203.83" style="enable-background:new 0 0 895.13 203.83;" xml:space="preserve">
<style type="text/css">
	.st0{fill:none;}
	.st1{fill:#545B74;}
	.st2{fill:#868DA6;}
	.st3{fill:#2C334C;}
	.st4{fill:#404760;}
	.st5{fill:#686F88;}
	.st6{fill:url(#SVGID_1_);}
	.st7{fill:#FFFFFF;}
</style>
<g>
	<g>
		<path class="st7" d="M402.72,101.59l-21.05-55.14v55.14h-19.14V6.98h19.98l28.35,74.16L439.2,6.98h19.97v94.61h-19.14V46.45
			l-21.05,55.14H402.72z"/>
		<path class="st7" d="M530.59,101.59l-5.14-18.18h-31.82l-5.14,18.18h-20.09l30.26-94.61h21.77l30.26,94.61H530.59z M498.05,67.38
			h22.85l-11.36-40.19L498.05,67.38z"/>
		<path class="st7" d="M590.39,103.27c-21.53,0-34.09-11.84-34.09-28.47V73h19.62v2.03c0,7.3,5.38,12.32,14.47,12.32
			c8.97,0,14.35-5.02,14.35-12.32c0-6.46-4.07-10.88-12.92-12.68l-10.17-2.03c-15.91-3.11-25.6-11.72-25.6-27.63
			c0-15.07,11.36-27.39,32.41-27.39c21.05,0,32.41,12.44,32.41,26.91v1.44h-19.62v-1.44c0-6.46-4.54-10.88-12.8-10.88
			c-8.37,0-12.8,4.43-12.8,10.88c0,6.58,4.07,9.93,13.16,11.84l10.17,2.03c16.51,3.35,25.48,12.68,25.48,28.35
			C624.48,91.19,612.16,103.27,590.39,103.27z"/>
		<path class="st7" d="M667.54,103.27c-21.53,0-34.09-11.84-34.09-28.47V73h19.62v2.03c0,7.3,5.38,12.32,14.47,12.32
			c8.97,0,14.35-5.02,14.35-12.32c0-6.46-4.07-10.88-12.92-12.68l-10.17-2.03c-15.91-3.11-25.6-11.72-25.6-27.63
			c0-15.07,11.36-27.39,32.41-27.39c21.05,0,32.41,12.44,32.41,26.91v1.44h-19.62v-1.44c0-6.46-4.54-10.88-12.8-10.88
			c-8.37,0-12.8,4.43-12.8,10.88c0,6.58,4.07,9.93,13.16,11.84l10.17,2.03c16.51,3.35,25.48,12.68,25.48,28.35
			C701.63,91.19,689.31,103.27,667.54,103.27z"/>
		<path class="st7" d="M733.33,101.59h-19.62V6.98h19.62V101.59z"/>
		<path class="st7" d="M762.52,6.98l21.05,73.56l21.05-73.56h20.09l-30.26,94.61h-21.77L742.42,6.98H762.52z"/>
		<path class="st7" d="M834.04,6.98h58.73v16.39h-39.11V44.9h34.21v16.39h-34.21V85.2h39.71v16.39h-59.33V6.98z"/>
		<path class="st7" d="M378.99,174.25v27.86h-16.26v-78.44h31.63c16.36,0,25.78,9.22,25.78,25.29c0,16.16-9.42,25.29-25.78,25.29
			H378.99z M392.18,160.66c7.73,0,11.6-3.97,11.6-11.7c0-7.73-3.87-11.7-11.6-11.7h-13.19v23.4H392.18z"/>
		<path class="st7" d="M469.62,185.15c-0.5-7.93-3.67-10.91-12-10.91h-11.7v27.86h-16.26v-78.44h32.13c16.66,0,25.39,9.02,25.39,24
			c0,10.41-4.76,17.25-13.98,19.73c8.53,1.19,12,6.35,12.59,16.66l0.69,10.91c0.2,2.97,0.69,5.35,1.49,7.14h-16.46
			c-0.69-1.69-1.09-4.36-1.29-7.04L469.62,185.15z M458.91,160.66c7.44,0,11.8-3.07,11.8-11.7c0-8.53-4.36-11.7-11.8-11.7h-12.99
			v23.4H458.91z"/>
		<path class="st7" d="M552.32,192.89c-5.06,6.74-12.69,10.61-24.1,10.61c-11.5,0-19.04-3.87-24.1-10.61
			c-5.85-7.73-7.54-18.34-7.54-30.05c0-11.6,1.69-22.21,7.54-29.95c5.06-6.74,12.59-10.61,24.1-10.61c11.4,0,19.04,3.87,24.1,10.61
			c5.85,7.73,7.44,18.34,7.44,29.95C559.76,174.54,558.18,185.15,552.32,192.89z M516.92,184.36c2.38,3.57,6.15,5.45,11.3,5.45
			c5.16,0,8.92-1.88,11.3-5.45c2.78-4.07,3.87-9.92,3.87-21.52c0-11.5-1.09-17.35-3.87-21.42c-2.38-3.57-6.15-5.45-11.3-5.45
			c-5.16,0-8.92,1.88-11.3,5.45c-2.78,4.07-3.97,9.92-3.97,21.42C512.96,174.44,514.15,180.29,516.92,184.36z"/>
		<path class="st7" d="M564.62,123.67h57.91v13.59h-20.82v64.85h-16.36v-64.85h-20.72V123.67z"/>
		<path class="st7" d="M683.02,192.89c-5.06,6.74-12.69,10.61-24.1,10.61c-11.5,0-19.04-3.87-24.1-10.61
			c-5.85-7.73-7.54-18.34-7.54-30.05c0-11.6,1.69-22.21,7.54-29.95c5.06-6.74,12.59-10.61,24.1-10.61c11.4,0,19.04,3.87,24.1,10.61
			c5.85,7.73,7.44,18.34,7.44,29.95C690.46,174.54,688.87,185.15,683.02,192.89z M647.62,184.36c2.38,3.57,6.15,5.45,11.3,5.45
			c5.16,0,8.92-1.88,11.3-5.45c2.78-4.07,3.87-9.92,3.87-21.52c0-11.5-1.09-17.35-3.87-21.42c-2.38-3.57-6.15-5.45-11.3-5.45
			c-5.16,0-8.92,1.88-11.3,5.45c-2.78,4.07-3.97,9.92-3.97,21.42C643.66,174.44,644.85,180.29,647.62,184.36z"/>
		<path class="st7" d="M707.52,132.89c5.06-6.74,12.59-10.61,24.1-10.61c18.64,0,29.75,10.91,30.74,28.16h-16.26
			c-0.6-9.02-5.55-14.48-14.48-14.48c-5.16,0-8.92,1.88-11.3,5.45c-2.78,4.07-3.97,9.92-3.97,21.42c0,11.6,1.19,17.45,3.97,21.52
			c2.38,3.57,6.15,5.45,11.3,5.45c8.92,0,13.88-5.45,14.48-14.48h16.26c-0.99,17.25-12.1,28.16-30.74,28.16
			c-11.5,0-19.04-3.87-24.1-10.61c-5.85-7.73-7.54-18.34-7.54-30.05C699.98,151.24,701.67,140.63,707.52,132.89z"/>
		<path class="st7" d="M827.3,192.89c-5.06,6.74-12.69,10.61-24.1,10.61c-11.5,0-19.04-3.87-24.1-10.61
			c-5.85-7.73-7.54-18.34-7.54-30.05c0-11.6,1.69-22.21,7.54-29.95c5.06-6.74,12.59-10.61,24.1-10.61c11.4,0,19.04,3.87,24.1,10.61
			c5.85,7.73,7.44,18.34,7.44,29.95C834.74,174.54,833.15,185.15,827.3,192.89z M791.9,184.36c2.38,3.57,6.15,5.45,11.3,5.45
			c5.16,0,8.92-1.88,11.3-5.45c2.78-4.07,3.87-9.92,3.87-21.52c0-11.5-1.09-17.35-3.87-21.42c-2.38-3.57-6.15-5.45-11.3-5.45
			c-5.16,0-8.92,1.88-11.3,5.45c-2.78,4.07-3.97,9.92-3.97,21.42C787.94,174.44,789.13,180.29,791.9,184.36z"/>
		<path class="st7" d="M845.95,123.67h16.26v64.85h32.92v13.59h-49.18V123.67z"/>
	</g>
	<g>
		<path class="st7" d="M156.12,147.91c8.7-16.33,17.43-32.64,26.01-49.03c8.58-16.39,17.03-32.84,25.31-49.38
			c4.13-8.28,8.24-16.56,12.27-24.89c3.7-7.57,7.36-15.17,11.02-22.76L48.07,60.52l1.02,1.55l5.48,8.35l5.46,8.37l10.89,16.76
			l5.43,8.39l5.4,8.4l10.77,16.83l21.39,33.76l18.66,29.6C140.34,177.63,148.17,162.74,156.12,147.91z"/>
		<path class="st7" d="M248.09,24.45c4.26,8.26,8.43,16.57,12.58,24.89c4.14,8.32,8.23,16.67,12.29,25.03
			c4.07,8.36,8.11,16.73,12.14,25.11c8.05,16.76,16.02,33.55,23.87,50.41c3.91,8.43,7.84,16.86,11.69,25.33l2.9,6.34l2.87,6.36
			c1.72,3.8,3.42,7.61,5.1,11.43l0.29,0L317.92,62.21l-81.7-59.78C239.79,9.32,244.57,17.55,248.09,24.45z"/>
		<path class="st7" d="M33.82,166.39l1.49-17.18c0.49-5.73,1.01-11.45,1.54-17.17l1.57-17.17l1.63-17.16
			c0.96-10.23,1.99-20.45,3-30.68L0.73,141.14l30.36,59.48C31.92,189.2,32.87,177.8,33.82,166.39z"/>
		<path class="st7" d="M130.37,199.85l-21.84-33.47l-21.77-33.52l-10.81-16.81l-5.39-8.42l-5.36-8.43L54.52,82.32l-5.33-8.45
			l-0.69-1.1c-1.03,8.51-2.05,17.02-3.13,25.53l-2.14,17.11l-2.2,17.1c-0.73,5.7-1.47,11.4-2.23,17.09l-2.29,17.09
			c-1.55,11.39-3.12,22.78-4.8,34.15l-0.55-0.06l0.23,0.45l99.07-0.62l0.39,0L130.37,199.85z"/>
		<path class="st7" d="M324.93,188.65l-3.27-6.16l-3.24-6.17c-4.34-8.22-8.6-16.49-12.87-24.74c-8.53-16.52-16.93-33.11-25.26-49.73
			c-4.16-8.31-8.31-16.63-12.43-24.96c-4.13-8.33-8.24-16.67-12.28-25.04c-4.04-8.37-8.06-16.75-11.99-25.18
			c-3.41-7.24-6.78-14.5-10.15-21.76c-3.75,6.98-6.45,14.12-10.17,21.12c-4.37,8.16-8.65,16.35-12.92,24.56
			c-8.51,16.42-16.86,32.93-25.07,49.51c-8.21,16.58-16.28,33.23-24.37,49.86c-8.06,16.65-17.3,33.09-25.55,49.65l-0.49,0.98l0.17,0
			l195.64-1.22C328.74,195.79,326.82,192.23,324.93,188.65z"/>
	</g>
</g>
</svg>
