<svg id="레이어_1" data-name="레이어 1" xmlns="http://www.w3.org/2000/svg" xmlns:xlink="http://www.w3.org/1999/xlink" viewBox="0 0 655.63 755.69"><defs><style>.cls-1,.cls-12,.cls-3,.cls-5,.cls-7,.cls-9{fill:none;}.cls-2,.cls-4{fill:#fff;}.cls-10,.cls-2{opacity:0.2;}.cls-12,.cls-3,.cls-5,.cls-7,.cls-9{stroke:#fff;}.cls-12,.cls-3,.cls-7{stroke-miterlimit:8;}.cls-3{stroke-width:2px;}.cls-5,.cls-9{stroke-miterlimit:10;}.cls-5{stroke-width:1px;}.cls-6{opacity:0.15;}.cls-7{stroke-width:2px;}.cls-8{opacity:0.5;}.cls-9{stroke-width:2px;}.cls-11{clip-path:url(#clip-path);}.cls-12{stroke-width:1.74px;}</style><clipPath id="clip-path"><path class="cls-1" d="M60.66,549.12A102.4,102.4,0,0,0,44.5,574.45m0,0a102.15,102.15,0,1,0,16.16-25.33"/></clipPath></defs><rect class="cls-2" x="2.69" y="3.67" width="270" height="750"/><path class="cls-3" d="M137.69,280a102,102,0,1,0,102,102A102,102,0,0,0,137.69,280Z"/><path class="cls-4" d="M114,334.74a2.46,2.46,0,0,0-1.11-.78,4.42,4.42,0,0,0-1.61-.27,4.3,4.3,0,0,0-1.64.28,2.44,2.44,0,0,0-1.07.79,1.94,1.94,0,0,0-.37,1.14,1.67,1.67,0,0,0,.79,1.5,6.65,6.65,0,0,0,2.1.85l1.59.39a11.2,11.2,0,0,1,2.53.93,4.77,4.77,0,0,1,1.77,1.56,4.1,4.1,0,0,1,.67,2.39,4.56,4.56,0,0,1-.76,2.62,5,5,0,0,1-2.21,1.77,8.61,8.61,0,0,1-3.45.62,8.74,8.74,0,0,1-3.42-.61,5.09,5.09,0,0,1-2.27-1.79,5.25,5.25,0,0,1-.88-2.84h3a2.59,2.59,0,0,0,.55,1.45,2.89,2.89,0,0,0,1.25.89,4.83,4.83,0,0,0,1.75.3,4.71,4.71,0,0,0,1.78-.31,2.66,2.66,0,0,0,1.2-.86,2.09,2.09,0,0,0,.43-1.27,1.68,1.68,0,0,0-.38-1.07,2.72,2.72,0,0,0-1-.73,10.87,10.87,0,0,0-1.67-.55l-1.93-.5a7.58,7.58,0,0,1-3.35-1.67,3.78,3.78,0,0,1-1.16-2.88,4.4,4.4,0,0,1,.8-2.6,5.3,5.3,0,0,1,2.23-1.76,7.71,7.71,0,0,1,3.18-.63,7.52,7.52,0,0,1,3.16.62,5.09,5.09,0,0,1,2.15,1.73,4.55,4.55,0,0,1,.79,2.54h-2.94A2.38,2.38,0,0,0,114,334.74Z"/><path class="cls-4" d="M119,331.33h3.27l3.07,12.48h.16l3.26-12.48h3L135,343.82h.14l3.08-12.49h3.27l-4.77,16.95h-3l-3.4-11.92h-.13l-3.41,11.92h-3Z"/><path class="cls-4" d="M140.75,348.28l6-16.95h3.76l6,16.95H153.2l-4.53-13.49h-.13L144,348.28Zm12.31-6.65v2.45h-8.93v-2.45Z"/><path class="cls-4" d="M158.49,331.33h6.34a7,7,0,0,1,3.26.71,4.87,4.87,0,0,1,2,2,6,6,0,0,1,.69,2.91,5.86,5.86,0,0,1-.7,2.91,4.73,4.73,0,0,1-2.05,2,6.9,6.9,0,0,1-3.27.71h-4.21V340h3.81a4,4,0,0,0,1.85-.39,2.5,2.5,0,0,0,1.1-1.08,3.46,3.46,0,0,0,.36-1.62,3.39,3.39,0,0,0-.36-1.61,2.43,2.43,0,0,0-1.1-1.07,4,4,0,0,0-1.87-.38h-2.84v14.4h-3Z"/><path class="cls-4" d="M210.74,396.16a1.11,1.11,0,0,0,.32-.81c0-8.32-4.18-15.86-10.91-19.68l-1.46-.83,1-1.35a10,10,0,0,0,2.15-5.89,10.39,10.39,0,1,0-20.77,0,10,10,0,0,0,2.16,5.89l1,1.35-1.45.83a22.42,22.42,0,0,0-10.92,19.65,1.15,1.15,0,0,0,1.14,1.15h26.41a1.28,1.28,0,0,0,.84-.33,1.15,1.15,0,0,0,0-1.63,1.23,1.23,0,0,0-.82-.33H174.27l.21-1.68c1-7.74,5.68-14.13,12-16.29a1.14,1.14,0,0,0,.28-2,8.1,8.1,0,1,1,9.41,0,1.15,1.15,0,0,0,.27,2c7.39,2.53,12.36,10.21,12.36,19.11a1.1,1.1,0,0,0,.33.84A1.17,1.17,0,0,0,210.74,396.16Z"/><path class="cls-4" d="M103.24,396.16a1.16,1.16,0,0,0,.33-.81c0-8.32-4.19-15.86-10.92-19.68l-1.45-.83,1-1.35a10,10,0,0,0,2.16-5.89,10.39,10.39,0,1,0-20.77,0,10,10,0,0,0,2.15,5.89l1,1.35-1.46.83a22.42,22.42,0,0,0-10.92,19.65,1.16,1.16,0,0,0,1.15,1.15h26.4a1.26,1.26,0,0,0,.84-.33,1.15,1.15,0,0,0,0-1.63,1.23,1.23,0,0,0-.82-.33H66.77L67,392.5c1-7.74,5.68-14.13,12-16.29a1.13,1.13,0,0,0,.76-.92,1.15,1.15,0,0,0-.47-1.1,8.1,8.1,0,1,1,9.4,0,1.15,1.15,0,0,0,.27,2c7.4,2.53,12.36,10.21,12.36,19.11a1.15,1.15,0,0,0,2,.84Z"/><line class="cls-5" x1="113.25" y1="375.16" x2="162.13" y2="375.16"/><polygon class="cls-4" points="113.98 377.65 109.67 375.16 113.98 372.67 113.98 377.65"/><polygon class="cls-4" points="161.4 377.65 165.71 375.16 161.4 372.67 161.4 377.65"/><path class="cls-4" d="M87.06,409.84h3.17a3.47,3.47,0,0,1,1.63.36,2.41,2.41,0,0,1,1,1,3.22,3.22,0,0,1,0,2.92,2.41,2.41,0,0,1-1,1,3.54,3.54,0,0,1-1.63.35H88.1V414.2H90a2,2,0,0,0,.92-.2,1.25,1.25,0,0,0,.55-.54,1.91,1.91,0,0,0,0-1.62,1.23,1.23,0,0,0-.55-.53,2,2,0,0,0-.93-.19H88.58v7.2H87.06Z"/><path class="cls-4" d="M97.38,415.55l-.81.06a1.64,1.64,0,0,0-.85.27.75.75,0,0,0-.31.63.76.76,0,0,0,.14.46.84.84,0,0,0,.38.28,1.38,1.38,0,0,0,.55.1,1.67,1.67,0,0,0,.79-.18,1.34,1.34,0,0,0,.52-.48A1.22,1.22,0,0,0,98,416v-2a1,1,0,0,0-.13-.54.87.87,0,0,0-.39-.34,1.65,1.65,0,0,0-.63-.11,1.62,1.62,0,0,0-.57.09,1.11,1.11,0,0,0-.4.26.82.82,0,0,0-.21.4H94.18a1.92,1.92,0,0,1,.39-1,2.31,2.31,0,0,1,.92-.68,3.55,3.55,0,0,1,1.36-.24,3.7,3.7,0,0,1,1.26.21,2,2,0,0,1,1,.69,2.08,2.08,0,0,1,.38,1.29v4.25H98v-.87h0a1.58,1.58,0,0,1-.39.5,1.93,1.93,0,0,1-.63.36,2.42,2.42,0,0,1-.84.14,2.7,2.7,0,0,1-1.1-.22,1.73,1.73,0,0,1-.76-.65,1.86,1.86,0,0,1-.28-1,1.59,1.59,0,0,1,.66-1.43,3.53,3.53,0,0,1,1.71-.51l.66,0,.73,0H98l0,1Z"/><path class="cls-4" d="M100.75,420.67v-1.19h.63a1.35,1.35,0,0,0,.37,0,.59.59,0,0,0,.29-.2,1.55,1.55,0,0,0,.25-.47l.14-.34L100.13,412h1.58l1.47,4.81h.06l1.48-4.81h1.59l-2.55,7.13a2.5,2.5,0,0,1-.82,1.2,2.25,2.25,0,0,1-1.41.41A7.59,7.59,0,0,1,100.75,420.67Z"/><path class="cls-4" d="M107.56,411a.92.92,0,0,1-.32-.3.7.7,0,0,1-.12-.4.73.73,0,0,1,.12-.41.84.84,0,0,1,.32-.3.88.88,0,0,1,.43-.1.91.91,0,0,1,.43.1.75.75,0,0,1,.31.3.73.73,0,0,1,.12.41.7.7,0,0,1-.12.4.81.81,0,0,1-.31.3.92.92,0,0,1-.43.11A.89.89,0,0,1,107.56,411Zm-.32,1h1.49v6.36h-1.49Z"/><path class="cls-4" d="M111.66,418.32h-1.49V412h1.42V413h.08a1.86,1.86,0,0,1,.41-.62,1.83,1.83,0,0,1,.64-.4,2.47,2.47,0,0,1,.84-.14,2.25,2.25,0,0,1,1.15.28,1.89,1.89,0,0,1,.76.82,2.86,2.86,0,0,1,.27,1.29v4.05h-1.49V414.5a1.67,1.67,0,0,0-.15-.73,1.09,1.09,0,0,0-.43-.47,1.4,1.4,0,0,0-.66-.16,1.42,1.42,0,0,0-.7.17,1.16,1.16,0,0,0-.48.5,1.6,1.6,0,0,0-.17.78Z"/><path class="cls-4" d="M118.46,420.6a2.19,2.19,0,0,1-1-.68,1.88,1.88,0,0,1-.41-1h1.49a.82.82,0,0,0,.24.46,1.08,1.08,0,0,0,.47.27,2.29,2.29,0,0,0,.68.09,1.7,1.7,0,0,0,1.09-.32,1.23,1.23,0,0,0,.39-1v-1.21h-.08v0a2.4,2.4,0,0,1-.37.5,1.92,1.92,0,0,1-.58.36,2.11,2.11,0,0,1-.87.16,2.54,2.54,0,0,1-1.34-.36,2.6,2.6,0,0,1-.94-1.07,3.86,3.86,0,0,1-.34-1.71,4,4,0,0,1,.34-1.74,2.56,2.56,0,0,1,.94-1.1,2.49,2.49,0,0,1,1.35-.37,2.17,2.17,0,0,1,.84.15,1.84,1.84,0,0,1,.56.38,3.38,3.38,0,0,1,.38.51.41.41,0,0,0,0,.09h.07V412h1.47v6.46a2.32,2.32,0,0,1-.38,1.34,2.26,2.26,0,0,1-1,.81,4.75,4.75,0,0,1-3,0Zm2.29-3.78a1.47,1.47,0,0,0,.51-.67,2.69,2.69,0,0,0,.18-1,2.91,2.91,0,0,0-.18-1.06,1.47,1.47,0,0,0-.51-.7,1.4,1.4,0,0,0-.82-.25,1.32,1.32,0,0,0-.82.26,1.59,1.59,0,0,0-.52.71,3,3,0,0,0-.17,1,2.71,2.71,0,0,0,.18,1,1.55,1.55,0,0,0,.51.68,1.37,1.37,0,0,0,.82.24A1.39,1.39,0,0,0,120.75,416.82Z"/><path class="cls-4" d="M129.13,409.84l2.51,6.16h.1l2.53-6.16h1.87v8.48h-1.47v-5.83h-.08l-2.35,5.8h-1.09l-2.36-5.82h-.07v5.85h-1.46v-8.48Z"/><path class="cls-4" d="M137.15,418.32l3-8.48H142l3,8.48h-1.63l-2.27-6.75h-.06l-2.27,6.75Zm6.16-3.32v1.22h-4.47V415Z"/><path class="cls-4" d="M148.38,416.53h.09l2.21-6.69h1.67l-3,8.48h-1.88l-3-8.48h1.67Z"/><path class="cls-4" d="M155.84,409.84h6.75v1.29H160v7.19h-1.52v-7.19h-2.62Z"/><path class="cls-4" d="M164,418a2.69,2.69,0,0,1-1.06-1.15,3.71,3.71,0,0,1-.38-1.71,3.8,3.8,0,0,1,.38-1.73,2.74,2.74,0,0,1,1.06-1.15,3.37,3.37,0,0,1,3.22,0,2.74,2.74,0,0,1,1.06,1.15,3.8,3.8,0,0,1,.37,1.73,3.71,3.71,0,0,1-.37,1.71,2.69,2.69,0,0,1-1.06,1.15,3.37,3.37,0,0,1-3.22,0Zm2.45-1a1.78,1.78,0,0,0,.52-.75,3.45,3.45,0,0,0,0-2.14,1.66,1.66,0,0,0-.52-.75,1.25,1.25,0,0,0-.84-.28,1.27,1.27,0,0,0-.84.28,1.59,1.59,0,0,0-.52.75,3.27,3.27,0,0,0,0,2.14,1.69,1.69,0,0,0,.52.75,1.32,1.32,0,0,0,.84.27A1.3,1.3,0,0,0,166.41,417Z"/><path class="cls-4" d="M169.78,409.84h1.49v8.48h-1.49Zm1.36,4.68h.23l2.29-2.56h1.74l-2.81,3.13h-.3l-1.15,1.23Zm.55.9,1-1.05,2.85,3.95h-1.78Z"/><path class="cls-4" d="M177.2,418a2.58,2.58,0,0,1-1.06-1.13,4.11,4.11,0,0,1,0-3.45,2.71,2.71,0,0,1,1.05-1.17,3,3,0,0,1,1.58-.41,3.13,3.13,0,0,1,1.47.35,2.53,2.53,0,0,1,1,1.06,3.75,3.75,0,0,1,.39,1.8v.46h-5.21v-1h3.78a1.63,1.63,0,0,0-.19-.77,1.37,1.37,0,0,0-.5-.54,1.56,1.56,0,0,0-.76-.19,1.44,1.44,0,0,0-.8.22,1.4,1.4,0,0,0-.55.58,1.67,1.67,0,0,0-.2.8v.86a2.19,2.19,0,0,0,.2,1,1.4,1.4,0,0,0,.57.61,1.69,1.69,0,0,0,.86.21,1.71,1.71,0,0,0,.57-.08,1.43,1.43,0,0,0,.44-.24,1.1,1.1,0,0,0,.27-.34h1.46a2.27,2.27,0,0,1-.5,1,2.53,2.53,0,0,1-1,.64,3.55,3.55,0,0,1-1.3.22A3.25,3.25,0,0,1,177.2,418Z"/><path class="cls-4" d="M184.33,418.32h-1.49V412h1.42V413h.08a1.86,1.86,0,0,1,.41-.62,1.83,1.83,0,0,1,.64-.4,2.47,2.47,0,0,1,.84-.14,2.25,2.25,0,0,1,1.15.28,1.89,1.89,0,0,1,.76.82,2.86,2.86,0,0,1,.27,1.29v4.05h-1.49V414.5a1.67,1.67,0,0,0-.15-.73,1.09,1.09,0,0,0-.43-.47,1.37,1.37,0,0,0-.66-.16,1.42,1.42,0,0,0-.7.17,1.22,1.22,0,0,0-.48.5,1.73,1.73,0,0,0-.17.78Z"/><path class="cls-4" d="M84.77,429.93,84,430a1.65,1.65,0,0,0-.86.27.75.75,0,0,0-.3.64.67.67,0,0,0,.14.45.83.83,0,0,0,.37.29,1.78,1.78,0,0,0,1.34-.09,1.28,1.28,0,0,0,.52-.48,1.13,1.13,0,0,0,.19-.65v-2a1.13,1.13,0,0,0-.13-.54.85.85,0,0,0-.39-.33,1.51,1.51,0,0,0-.63-.12,1.62,1.62,0,0,0-.57.09,1,1,0,0,0-.41.27.9.9,0,0,0-.21.4H81.58a1.84,1.84,0,0,1,.39-1,2.14,2.14,0,0,1,.92-.67,3.37,3.37,0,0,1,1.36-.25,3.6,3.6,0,0,1,1.25.21,2.12,2.12,0,0,1,1,.7,2,2,0,0,1,.37,1.28v4.25H85.42v-.87h0a1.61,1.61,0,0,1-.4.5,1.88,1.88,0,0,1-.62.36,2.48,2.48,0,0,1-.85.14,2.57,2.57,0,0,1-1.1-.22,1.78,1.78,0,0,1-.76-.65,1.94,1.94,0,0,1-.27-1A1.57,1.57,0,0,1,82,429.5a3.42,3.42,0,0,1,1.7-.52l.67,0,.72,0h.32v1Z"/><path class="cls-4" d="M91.49,427.58a1.25,1.25,0,0,0-.76-.21,1.4,1.4,0,0,0-.56.1.89.89,0,0,0-.4.27.59.59,0,0,0-.14.38.56.56,0,0,0,.21.44,1.87,1.87,0,0,0,.69.29l1.08.23a2.79,2.79,0,0,1,1.35.62,1.47,1.47,0,0,1,.44,1.1,1.67,1.67,0,0,1-.34,1.05,2.1,2.1,0,0,1-.94.72,3.73,3.73,0,0,1-1.43.25,3.9,3.9,0,0,1-1.39-.22,2.14,2.14,0,0,1-.92-.67,2,2,0,0,1-.42-1h1.52a.87.87,0,0,0,.37.61,1.58,1.58,0,0,0,.84.2,2,2,0,0,0,.62-.09.93.93,0,0,0,.42-.27.61.61,0,0,0,.15-.41.56.56,0,0,0-.23-.45,1.72,1.72,0,0,0-.69-.29l-1-.21a2.55,2.55,0,0,1-1.33-.64,1.46,1.46,0,0,1-.45-1.13,1.67,1.67,0,0,1,.31-1,2,2,0,0,1,.9-.68,3.54,3.54,0,0,1,1.35-.24,3.48,3.48,0,0,1,1.31.23,2.2,2.2,0,0,1,.88.66,2,2,0,0,1,.37,1H91.85A.84.84,0,0,0,91.49,427.58Z"/><path class="cls-4" d="M100.5,429.93l-.81.06a1.64,1.64,0,0,0-.85.27.76.76,0,0,0-.31.64.73.73,0,0,0,.14.45.86.86,0,0,0,.38.29,1.6,1.6,0,0,0,.56.09,1.66,1.66,0,0,0,.78-.18,1.34,1.34,0,0,0,.52-.48,1.2,1.2,0,0,0,.18-.65v-2a1,1,0,0,0-.13-.54.85.85,0,0,0-.39-.33,1.48,1.48,0,0,0-.63-.12,1.66,1.66,0,0,0-.57.09,1,1,0,0,0-.4.27.9.9,0,0,0-.21.4H97.31a1.83,1.83,0,0,1,.38-1,2.2,2.2,0,0,1,.92-.67,3.42,3.42,0,0,1,1.37-.25,3.69,3.69,0,0,1,1.25.21,2,2,0,0,1,1.34,2v4.25h-1.43v-.87h0a1.73,1.73,0,0,1-.39.5,1.93,1.93,0,0,1-.63.36,2.47,2.47,0,0,1-.84.14,2.54,2.54,0,0,1-1.1-.22,1.73,1.73,0,0,1-.76-.65,2,2,0,0,1-.28-1,1.57,1.57,0,0,1,.66-1.42,3.42,3.42,0,0,1,1.71-.52l.67,0,.72,0h.31v1Z"/><path class="cls-4" d="M106.53,424.23h6.74v1.28h-2.61v7.19h-1.52v-7.19h-2.61Z"/><path class="cls-4" d="M113.75,426.34h1.44v1.06h.07a1.7,1.7,0,0,1,.34-.62,1.42,1.42,0,0,1,.55-.39,1.67,1.67,0,0,1,.67-.14,4.58,4.58,0,0,1,.55,0v1.37l-.32-.06-.38,0a1.57,1.57,0,0,0-.73.17,1.36,1.36,0,0,0-.52.49,1.43,1.43,0,0,0-.18.72v3.74h-1.49Z"/><path class="cls-4" d="M121.24,429.93l-.8.06a1.61,1.61,0,0,0-.85.27.76.76,0,0,0-.31.64.73.73,0,0,0,.14.45.86.86,0,0,0,.38.29,1.55,1.55,0,0,0,.55.09,1.67,1.67,0,0,0,.79-.18,1.34,1.34,0,0,0,.52-.48,1.2,1.2,0,0,0,.18-.65v-2a1,1,0,0,0-.13-.54.85.85,0,0,0-.39-.33,1.48,1.48,0,0,0-.63-.12,1.62,1.62,0,0,0-.57.09,1,1,0,0,0-.4.27.74.74,0,0,0-.21.4h-1.45a1.92,1.92,0,0,1,.39-1,2.2,2.2,0,0,1,.92-.67,3.37,3.37,0,0,1,1.36-.25,3.7,3.7,0,0,1,1.26.21,2,2,0,0,1,1.34,2v4.25h-1.43v-.87h0a1.73,1.73,0,0,1-.39.5,1.93,1.93,0,0,1-.63.36,2.47,2.47,0,0,1-.84.14,2.54,2.54,0,0,1-1.1-.22,1.67,1.67,0,0,1-.76-.65,1.86,1.86,0,0,1-.28-1,1.57,1.57,0,0,1,.66-1.42,3.42,3.42,0,0,1,1.71-.52l.66,0,.73,0h.31v1Z"/><path class="cls-4" d="M126.22,432.7h-1.49v-6.36h1.43v1.08h.08a1.72,1.72,0,0,1,.41-.62,1.88,1.88,0,0,1,.64-.4,2.42,2.42,0,0,1,.84-.14,2.39,2.39,0,0,1,1.15.28,2,2,0,0,1,.76.82,3,3,0,0,1,.26,1.29v4.05h-1.49v-3.82a1.83,1.83,0,0,0-.14-.73,1.09,1.09,0,0,0-.43-.47,1.41,1.41,0,0,0-.67-.16,1.35,1.35,0,0,0-.7.18,1.22,1.22,0,0,0-.48.5,1.73,1.73,0,0,0-.17.78Z"/><path class="cls-4" d="M135,427.58a1.27,1.27,0,0,0-.76-.21,1.4,1.4,0,0,0-.56.1.89.89,0,0,0-.4.27.54.54,0,0,0-.14.38.56.56,0,0,0,.21.44,1.87,1.87,0,0,0,.69.29l1.08.23a2.83,2.83,0,0,1,1.35.62,1.47,1.47,0,0,1,.44,1.1,1.67,1.67,0,0,1-.34,1.05,2.1,2.1,0,0,1-.94.72,3.73,3.73,0,0,1-1.43.25,3.9,3.9,0,0,1-1.39-.22,2.14,2.14,0,0,1-.92-.67,2,2,0,0,1-.42-1h1.51a.91.91,0,0,0,.38.61,1.58,1.58,0,0,0,.84.2,2,2,0,0,0,.62-.09,1,1,0,0,0,.42-.27.61.61,0,0,0,.15-.41.56.56,0,0,0-.23-.45,1.71,1.71,0,0,0-.7-.29l-1-.21a2.55,2.55,0,0,1-1.33-.64,1.46,1.46,0,0,1-.45-1.13,1.67,1.67,0,0,1,.31-1,2,2,0,0,1,.9-.68,3.54,3.54,0,0,1,1.35-.24,3.48,3.48,0,0,1,1.31.23,2.2,2.2,0,0,1,.88.66,2,2,0,0,1,.37,1h-1.42A.87.87,0,0,0,135,427.58Z"/><path class="cls-4" d="M141.12,429.93l-.81.06a1.64,1.64,0,0,0-.85.27.76.76,0,0,0-.31.64.73.73,0,0,0,.14.45.86.86,0,0,0,.38.29,1.6,1.6,0,0,0,.56.09,1.66,1.66,0,0,0,.78-.18,1.34,1.34,0,0,0,.52-.48,1.2,1.2,0,0,0,.18-.65v-2a1,1,0,0,0-.13-.54.85.85,0,0,0-.39-.33,1.48,1.48,0,0,0-.63-.12,1.66,1.66,0,0,0-.57.09,1,1,0,0,0-.4.27.9.9,0,0,0-.21.4h-1.44a1.83,1.83,0,0,1,.38-1,2.2,2.2,0,0,1,.92-.67,3.42,3.42,0,0,1,1.37-.25,3.64,3.64,0,0,1,1.25.21,2,2,0,0,1,1.34,2v4.25h-1.43v-.87h0a1.58,1.58,0,0,1-.39.5,1.93,1.93,0,0,1-.63.36,2.42,2.42,0,0,1-.84.14,2.57,2.57,0,0,1-1.1-.22A1.73,1.73,0,0,1,138,432a1.94,1.94,0,0,1-.27-1,1.55,1.55,0,0,1,.66-1.42,3.35,3.35,0,0,1,1.7-.52l.67,0,.72,0h.31l0,1Z"/><path class="cls-4" d="M145.75,432.41a2.63,2.63,0,0,1-1.05-1.16,3.7,3.7,0,0,1-.37-1.7,3.84,3.84,0,0,1,.37-1.71,2.77,2.77,0,0,1,1.06-1.16,3,3,0,0,1,1.61-.42,3.27,3.27,0,0,1,1.36.28,2.3,2.3,0,0,1,1.36,2h-1.42a1.33,1.33,0,0,0-.23-.56,1.13,1.13,0,0,0-.43-.38,1.38,1.38,0,0,0-.62-.14,1.32,1.32,0,0,0-.81.25,1.59,1.59,0,0,0-.55.71,2.85,2.85,0,0,0-.19,1.1,3,3,0,0,0,.19,1.12,1.67,1.67,0,0,0,.54.72,1.4,1.4,0,0,0,.82.25,1.25,1.25,0,0,0,.59-.13,1.13,1.13,0,0,0,.45-.36,1.37,1.37,0,0,0,.24-.58h1.42a2.51,2.51,0,0,1-.39,1.19,2.48,2.48,0,0,1-.94.81,3.18,3.18,0,0,1-1.38.28A3.06,3.06,0,0,1,145.75,432.41Z"/><path class="cls-4" d="M154.39,427.49h-3.64v-1.15h3.64Zm-1.25-2.67v6a1,1,0,0,0,.09.45.53.53,0,0,0,.24.23.88.88,0,0,0,.35.06,4.51,4.51,0,0,0,.66,0v1.23a5.48,5.48,0,0,1-.85.06,2.54,2.54,0,0,1-1-.2,1.57,1.57,0,0,1-.71-.58,1.67,1.67,0,0,1-.25-1v-6.22Z"/><path class="cls-4" d="M155.86,425.33a.84.84,0,0,1-.32-.3.7.7,0,0,1-.12-.4.73.73,0,0,1,.12-.41.81.81,0,0,1,.32-.29.9.9,0,0,1,.86,0,.76.76,0,0,1,.43.7.77.77,0,0,1-.11.4.84.84,0,0,1-.32.3.9.9,0,0,1-.86,0Zm-.32,1H157v6.36h-1.49Z"/><path class="cls-4" d="M159.63,432.41a2.69,2.69,0,0,1-1.06-1.15,3.71,3.71,0,0,1-.37-1.71,3.76,3.76,0,0,1,.37-1.72,2.71,2.71,0,0,1,1.06-1.16,3.37,3.37,0,0,1,3.22,0,2.71,2.71,0,0,1,1.06,1.16,3.76,3.76,0,0,1,.37,1.72,3.71,3.71,0,0,1-.37,1.71,2.69,2.69,0,0,1-1.06,1.15,3.37,3.37,0,0,1-3.22,0Zm2.45-1.05a1.78,1.78,0,0,0,.52-.75,3,3,0,0,0,.17-1.07,3,3,0,0,0-.17-1.07,1.66,1.66,0,0,0-.52-.75,1.24,1.24,0,0,0-.84-.28,1.27,1.27,0,0,0-.84.28,1.59,1.59,0,0,0-.52.75,3,3,0,0,0-.18,1.07,3,3,0,0,0,.18,1.07,1.64,1.64,0,0,0,.52.75,1.32,1.32,0,0,0,.84.27A1.28,1.28,0,0,0,162.08,431.36Z"/><path class="cls-4" d="M166.94,432.7h-1.49v-6.36h1.42v1.08H167a2,2,0,0,1,.41-.62,2,2,0,0,1,.64-.4,2.47,2.47,0,0,1,.84-.14,2.36,2.36,0,0,1,1.15.28,1.89,1.89,0,0,1,.76.82,2.86,2.86,0,0,1,.27,1.29v4.05h-1.49v-3.82a1.67,1.67,0,0,0-.15-.73,1.07,1.07,0,0,0-.42-.47,1.41,1.41,0,0,0-.67-.16,1.33,1.33,0,0,0-.7.18,1.16,1.16,0,0,0-.48.5,1.73,1.73,0,0,0-.17.78Z"/><path class="cls-4" d="M175.36,424.23h5.42v1.28h-3.9v2.31h3.53v1.28h-3.53v3.6h-1.52Z"/><path class="cls-4" d="M182.72,432.43a2.62,2.62,0,0,1-1.07-1.14,4.11,4.11,0,0,1,0-3.45,2.69,2.69,0,0,1,1-1.16,3,3,0,0,1,1.58-.42,3.13,3.13,0,0,1,1.47.35,2.52,2.52,0,0,1,1.05,1.07,3.85,3.85,0,0,1,.38,1.79v.46H182v-1h3.78a1.54,1.54,0,0,0-.19-.77,1.37,1.37,0,0,0-.5-.54,1.56,1.56,0,0,0-.76-.19,1.52,1.52,0,0,0-.8.22,1.46,1.46,0,0,0-.55.58,1.67,1.67,0,0,0-.2.8v.87a2.15,2.15,0,0,0,.2.95,1.53,1.53,0,0,0,.57.61,1.81,1.81,0,0,0,1.43.13,1.41,1.41,0,0,0,.44-.23,1.1,1.1,0,0,0,.27-.35h1.46a2.11,2.11,0,0,1-.5,1,2.38,2.38,0,0,1-1,.64,3.64,3.64,0,0,1-1.31.22A3.29,3.29,0,0,1,182.72,432.43Z"/><path class="cls-4" d="M189.52,432.43a2.74,2.74,0,0,1-1.07-1.14,4.21,4.21,0,0,1,0-3.45,2.71,2.71,0,0,1,1.06-1.16,2.93,2.93,0,0,1,1.57-.42,3.13,3.13,0,0,1,1.47.35,2.52,2.52,0,0,1,1,1.07,3.73,3.73,0,0,1,.39,1.79v.46h-5.21v-1h3.78a1.79,1.79,0,0,0-.19-.77,1.33,1.33,0,0,0-.51-.54,1.55,1.55,0,0,0-.75-.19,1.58,1.58,0,0,0-.81.22,1.53,1.53,0,0,0-.55.58,1.66,1.66,0,0,0-.19.8v.87a2,2,0,0,0,.2.95,1.44,1.44,0,0,0,.56.61,1.74,1.74,0,0,0,.86.22,1.7,1.7,0,0,0,.57-.09,1.15,1.15,0,0,0,.72-.58h1.45a2,2,0,0,1-.5,1,2.32,2.32,0,0,1-.95.64,3.6,3.6,0,0,1-1.31.22A3.29,3.29,0,0,1,189.52,432.43Z"/><g class="cls-6"><path class="cls-4" d="M230.87,106.45a101.9,101.9,0,0,0-16.15-25.33h0a101.75,101.75,0,1,0,16.15,25.33Z"/></g><path class="cls-7" d="M230.87,106.45a101.9,101.9,0,0,0-16.15-25.33h0a101.75,101.75,0,1,0,16.15,25.33Z"/><path class="cls-4" d="M113.62,125.39l4.15,7.51H118l4.15-7.51h3.45L119.38,136v6.34h-3V136l-6.16-10.61Z"/><path class="cls-4" d="M127.89,127.59a1.76,1.76,0,0,1-.63-.58,1.5,1.5,0,0,1,0-1.63,1.62,1.62,0,0,1,.63-.59,1.89,1.89,0,0,1,1.73,0,1.62,1.62,0,0,1,.63.59,1.56,1.56,0,0,1,0,1.63,1.76,1.76,0,0,1-.63.58,1.81,1.81,0,0,1-1.73,0Zm-.63,2h3v12.71h-3Z"/><path class="cls-4" d="M135.45,141.79a5.3,5.3,0,0,1-2.14-2.28,7.5,7.5,0,0,1-.75-3.45,7.61,7.61,0,0,1,.75-3.45,5.58,5.58,0,0,1,2.11-2.32,6,6,0,0,1,3.15-.83,6.11,6.11,0,0,1,2.94.7,5,5,0,0,1,2.1,2.13,7.6,7.6,0,0,1,.77,3.59v.92H134v-2h7.56a3.44,3.44,0,0,0-.37-1.55,2.74,2.74,0,0,0-1-1.06,2.9,2.9,0,0,0-1.51-.38,3,3,0,0,0-1.61.43,2.93,2.93,0,0,0-1.1,1.16,3.34,3.34,0,0,0-.39,1.59v1.74a4.13,4.13,0,0,0,.4,1.9,3,3,0,0,0,1.14,1.23,3.29,3.29,0,0,0,1.71.43,3.8,3.8,0,0,0,1.15-.17,2.5,2.5,0,0,0,.87-.47,2.3,2.3,0,0,0,.56-.69h2.91a4.34,4.34,0,0,1-1,1.92,4.8,4.8,0,0,1-1.9,1.28,7.18,7.18,0,0,1-2.61.45A6.54,6.54,0,0,1,135.45,141.79Z"/><path class="cls-4" d="M149.7,142.34h-3v-17h3Z"/><path class="cls-4" d="M154.59,141.78a5.16,5.16,0,0,1-1.86-2.25,8.33,8.33,0,0,1-.68-3.53,8.42,8.42,0,0,1,.68-3.53,5.16,5.16,0,0,1,1.89-2.25,4.85,4.85,0,0,1,2.68-.76,4.15,4.15,0,0,1,1.69.31,3.39,3.39,0,0,1,1.12.76,5.56,5.56,0,0,1,.74,1,.2.2,0,0,1,0,.08l.05.09h.11v-6.33h3v17h-2.92v-2h-.17l-.07.12a5.06,5.06,0,0,1-.75,1,3.39,3.39,0,0,1-1.14.76,4.1,4.1,0,0,1-1.68.31A4.86,4.86,0,0,1,154.59,141.78Zm5.15-2.17a3.22,3.22,0,0,0,1-1.45,6,6,0,0,0,.36-2.18,6.15,6.15,0,0,0-.35-2.16,3,3,0,0,0-1-1.42,2.94,2.94,0,0,0-3.28,0,3.17,3.17,0,0,0-1,1.44,6.6,6.6,0,0,0,0,4.27,3.31,3.31,0,0,0,1,1.46,2.6,2.6,0,0,0,1.64.53A2.66,2.66,0,0,0,159.74,139.61Z"/><path class="cls-4" d="M94.05,154.15h10.84v2.57h-7.8v4.62h7.06v2.55H97.09v7.21h-3Z"/><path class="cls-4" d="M113.45,165.56l-1.61.12a3.26,3.26,0,0,0-1.7.54,1.64,1.64,0,0,0-.34,2.18,1.65,1.65,0,0,0,.76.57,2.93,2.93,0,0,0,1.11.2,3.27,3.27,0,0,0,1.56-.36,2.64,2.64,0,0,0,1-1,2.48,2.48,0,0,0,.36-1.31v-4.06a2,2,0,0,0-.27-1.07,1.73,1.73,0,0,0-.78-.68,3.54,3.54,0,0,0-2.4,0,2.14,2.14,0,0,0-.8.52,1.77,1.77,0,0,0-.42.8h-2.89a3.71,3.71,0,0,1,.78-1.95,4.43,4.43,0,0,1,1.83-1.35,7.15,7.15,0,0,1,2.73-.49,7.35,7.35,0,0,1,2.51.42,3.92,3.92,0,0,1,2.68,4v8.5h-2.86v-1.74h-.1a3.46,3.46,0,0,1-.79,1,3.93,3.93,0,0,1-1.24.72,5,5,0,0,1-1.7.27,5.3,5.3,0,0,1-2.2-.44,3.42,3.42,0,0,1-1.51-1.3,3.78,3.78,0,0,1-.56-2.08,3.16,3.16,0,0,1,1.33-2.85,7,7,0,0,1,3.41-1l1.33-.07,1.44-.08.63,0,0,2Z"/><path class="cls-4" d="M120.43,158.39h2.88v2.12h.14a3.25,3.25,0,0,1,.69-1.25,2.94,2.94,0,0,1,1.09-.79,3.57,3.57,0,0,1,1.35-.26,6.28,6.28,0,0,1,1.09.08V161l-.63-.12a5.1,5.1,0,0,0-.76,0,3,3,0,0,0-1.47.35,2.56,2.56,0,0,0-1,1,2.71,2.71,0,0,0-.37,1.42v7.49h-3Z"/><path class="cls-4" d="M129.45,158.39h2.85v2.16h.15a3.39,3.39,0,0,1,1.32-1.71,3.83,3.83,0,0,1,2.18-.62,4.22,4.22,0,0,1,1.54.28,3.21,3.21,0,0,1,1.17.8,3.36,3.36,0,0,1,.72,1.25h.13a3.37,3.37,0,0,1,.84-1.23,3.91,3.91,0,0,1,1.31-.81,4.78,4.78,0,0,1,1.68-.29,4.23,4.23,0,0,1,2.07.5,3.43,3.43,0,0,1,1.4,1.49,5.17,5.17,0,0,1,.5,2.36v8.53h-3V163a2.28,2.28,0,0,0-.6-1.71,2.18,2.18,0,0,0-1.58-.58,2.45,2.45,0,0,0-1.24.3,2.05,2.05,0,0,0-.79.86,2.86,2.86,0,0,0-.28,1.27v7.94h-2.92v-8.2a2.46,2.46,0,0,0-.26-1.14,1.85,1.85,0,0,0-.76-.76,2.26,2.26,0,0,0-1.12-.27,2.21,2.21,0,0,0-1.18.33,2.35,2.35,0,0,0-.85.94,2.9,2.9,0,0,0-.31,1.36v7.74h-3Z"/><path class="cls-4" d="M150.79,156.36a1.78,1.78,0,0,1-.63-.59,1.45,1.45,0,0,1-.24-.81,1.48,1.48,0,0,1,.24-.82,1.7,1.7,0,0,1,.63-.59,1.87,1.87,0,0,1,1.72,0,1.56,1.56,0,0,1,.63.59,1.48,1.48,0,0,1,.24.82,1.45,1.45,0,0,1-.24.81,1.63,1.63,0,0,1-.63.59,1.79,1.79,0,0,1-1.72,0Zm-.63,2h3V171.1h-3Z"/><path class="cls-4" d="M159,171.1h-3V158.39h2.84v2.16H159a3.65,3.65,0,0,1,.83-1.24,3.48,3.48,0,0,1,1.27-.8,4.7,4.7,0,0,1,1.68-.29,4.48,4.48,0,0,1,2.3.57,3.78,3.78,0,0,1,1.52,1.64,5.71,5.71,0,0,1,.54,2.58v8.09h-3v-7.64a3.38,3.38,0,0,0-.29-1.45,2.18,2.18,0,0,0-.86-.94,2.7,2.7,0,0,0-1.33-.32,2.8,2.8,0,0,0-1.41.34,2.42,2.42,0,0,0-.95,1,3.32,3.32,0,0,0-.34,1.56Z"/><path class="cls-4" d="M172.6,175.67a4.43,4.43,0,0,1-2-1.36,3.8,3.8,0,0,1-.83-2.07h3a1.77,1.77,0,0,0,.47.92,2.34,2.34,0,0,0,1,.55,5,5,0,0,0,1.35.17,3.34,3.34,0,0,0,2.19-.64,2.46,2.46,0,0,0,.78-2v-2.41h-.15l0,.06a4.48,4.48,0,0,1-.74,1,3.45,3.45,0,0,1-1.16.73,4.31,4.31,0,0,1-1.73.31,5.05,5.05,0,0,1-2.68-.72,5,5,0,0,1-1.88-2.14,7.71,7.71,0,0,1-.69-3.41,8.08,8.08,0,0,1,.69-3.49A5.12,5.12,0,0,1,172,159a5.06,5.06,0,0,1,2.69-.74,4.3,4.3,0,0,1,1.68.31,3.44,3.44,0,0,1,1.13.76,6.16,6.16,0,0,1,.75,1,1.62,1.62,0,0,0,.1.18h.15v-2.09h2.94v12.92a4.62,4.62,0,0,1-.76,2.67,4.56,4.56,0,0,1-2.1,1.62,8.29,8.29,0,0,1-3.1.53A8.4,8.4,0,0,1,172.6,175.67Zm4.57-7.56a2.93,2.93,0,0,0,1-1.34,5.62,5.62,0,0,0,.35-2.08,5.75,5.75,0,0,0-.35-2.12,2.94,2.94,0,0,0-1-1.4,2.7,2.7,0,0,0-1.63-.5,2.66,2.66,0,0,0-1.65.51,3.09,3.09,0,0,0-1,1.42,5.87,5.87,0,0,0-.35,2.09,5.36,5.36,0,0,0,.36,2.05,3,3,0,0,0,1,1.36,2.77,2.77,0,0,0,1.65.48A2.82,2.82,0,0,0,177.17,168.11Z"/><g class="cls-8"><line class="cls-9" x1="254.96" y1="154.24" x2="430.5" y2="154.24"/><polygon class="cls-4" points="429.04 159.22 437.67 154.24 429.04 149.25 429.04 159.22"/></g><g class="cls-8"><line class="cls-9" x1="262.13" y1="141.72" x2="437.67" y2="141.72"/><polygon class="cls-4" points="263.59 146.7 254.96 141.72 263.59 136.73 263.59 146.7"/></g><path class="cls-4" d="M296.29,160.27h1.39v8h4.16v1.21h-5.55Z"/><path class="cls-4" d="M303.27,160.27h3.29a3.62,3.62,0,0,1,1.75.39,2.42,2.42,0,0,1,1.07,1.05,3.24,3.24,0,0,1,.36,1.54,3.18,3.18,0,0,1-.36,1.54,2.51,2.51,0,0,1-1.07,1.07,3.78,3.78,0,0,1-1.76.38H304.3v-1.19h2.11a2.23,2.23,0,0,0,1.09-.23,1.47,1.47,0,0,0,.63-.63,2.19,2.19,0,0,0,0-1.87,1.45,1.45,0,0,0-.63-.62,2.35,2.35,0,0,0-1.09-.23h-1.74v8h-1.4Z"/><path class="cls-4" d="M313.93,160.27h7.12v1.21h-2.86v8H316.8v-8h-2.87Z"/><path class="cls-4" d="M322.57,169.16a3,3,0,0,1-1.13-1.25,4.55,4.55,0,0,1,0-3.73,3,3,0,0,1,1.13-1.25,3.2,3.2,0,0,1,1.7-.45,3.16,3.16,0,0,1,1.69.45,2.9,2.9,0,0,1,1.12,1.25,4.55,4.55,0,0,1,0,3.73,2.9,2.9,0,0,1-1.12,1.25,3.16,3.16,0,0,1-1.69.45A3.2,3.2,0,0,1,322.57,169.16Zm2.72-1a2,2,0,0,0,.62-.87,3.45,3.45,0,0,0,.21-1.23,3.37,3.37,0,0,0-.21-1.23,2,2,0,0,0-.62-.88,1.76,1.76,0,0,0-2,0,2,2,0,0,0-.63.88,3.74,3.74,0,0,0,0,2.47,2,2,0,0,0,.63.87,1.56,1.56,0,0,0,1,.33A1.6,1.6,0,0,0,325.29,168.15Z"/><path class="cls-4" d="M328.82,160.27h1.36v9.2h-1.36Zm1.24,5.22h.24l2.73-2.92h1.62l-3.13,3.33h-.21l-1.24,1.23Zm.66.71.93-.95,3.19,4.22h-1.66Z"/><path class="cls-4" d="M336.66,169.17a2.85,2.85,0,0,1-1.14-1.24,4.06,4.06,0,0,1-.4-1.87,4.1,4.1,0,0,1,.4-1.86,3,3,0,0,1,1.12-1.27,3.09,3.09,0,0,1,1.67-.45,3.32,3.32,0,0,1,1.53.36A2.66,2.66,0,0,1,341,164a4.11,4.11,0,0,1,.42,2v.48h-5.49v-1H340a2,2,0,0,0-.21-.93,1.6,1.6,0,0,0-.61-.65,1.67,1.67,0,0,0-.89-.23,1.82,1.82,0,0,0-1.63,1,2.09,2.09,0,0,0-.23,1v.79a2.58,2.58,0,0,0,.24,1.16,1.69,1.69,0,0,0,.68.74,1.93,1.93,0,0,0,1,.26,2,2,0,0,0,.66-.1,1.38,1.38,0,0,0,.51-.27,1.34,1.34,0,0,0,.32-.39h1.37a2.29,2.29,0,0,1-.54,1,2.69,2.69,0,0,1-1,.66,3.8,3.8,0,0,1-1.34.23A3.39,3.39,0,0,1,336.66,169.17Z"/><path class="cls-4" d="M344.07,169.47h-1.35v-6.9H344v1.13h.08a2.1,2.1,0,0,1,.45-.65,2,2,0,0,1,.68-.42,2.59,2.59,0,0,1,.91-.15,2.5,2.5,0,0,1,1.24.3,2,2,0,0,1,.81.88,3.08,3.08,0,0,1,.29,1.42v4.39h-1.35v-4.22a2.06,2.06,0,0,0-.17-.86,1.34,1.34,0,0,0-.5-.55,1.74,1.74,0,0,0-1.62,0,1.39,1.39,0,0,0-.56.59,1.94,1.94,0,0,0-.21.93Z"/><path class="cls-4" d="M353.41,160.27h3.28a3.76,3.76,0,0,1,1.76.37,2.33,2.33,0,0,1,1.07,1,3.33,3.33,0,0,1,0,3,2.4,2.4,0,0,1-1.07,1,4,4,0,0,1-1.76.35H354.2v-1.21h2.35a2.68,2.68,0,0,0,1.1-.19,1.29,1.29,0,0,0,.62-.55,1.75,1.75,0,0,0,.2-.89,1.83,1.83,0,0,0-.2-.91,1.33,1.33,0,0,0-.63-.58,2.65,2.65,0,0,0-1.09-.2H354.8v8h-1.39Zm6.82,9.2h-1.59l-2.23-4.15H358Z"/><path class="cls-4" d="M362.45,169.17a3,3,0,0,1-1.14-1.24,4.19,4.19,0,0,1-.4-1.87,4.24,4.24,0,0,1,.4-1.86,3,3,0,0,1,2.79-1.72,3.26,3.26,0,0,1,1.53.36,2.66,2.66,0,0,1,1.11,1.14,4,4,0,0,1,.43,2v.48h-5.5v-1h4.16a2,2,0,0,0-.21-.93,1.51,1.51,0,0,0-.6-.65,1.68,1.68,0,0,0-.9-.23,1.75,1.75,0,0,0-1,.27,1.72,1.72,0,0,0-.65.71,2,2,0,0,0-.24,1v.79a2.58,2.58,0,0,0,.24,1.16,1.69,1.69,0,0,0,.68.74,2,2,0,0,0,1,.26,2,2,0,0,0,.67-.1,1.42,1.42,0,0,0,.5-.27,1.08,1.08,0,0,0,.32-.39h1.38a2.3,2.3,0,0,1-.55,1,2.69,2.69,0,0,1-1,.66,3.8,3.8,0,0,1-1.34.23A3.42,3.42,0,0,1,362.45,169.17Z"/><path class="cls-4" d="M368,162.57h1.4l1.34,5.06h.07l1.35-5.06h1.4l1.34,5h.06l1.34-5h1.4l-2,6.9h-1.38l-1.4-5h-.1l-1.39,5H370Z"/><path class="cls-4" d="M382.16,166.39l-.93.07a2.06,2.06,0,0,0-1.07.32.86.86,0,0,0-.37.76.89.89,0,0,0,.16.54,1,1,0,0,0,.46.34,1.79,1.79,0,0,0,.68.12,1.89,1.89,0,0,0,.94-.22,1.47,1.47,0,0,0,.61-.57,1.49,1.49,0,0,0,.21-.77V164.8a1.34,1.34,0,0,0-.16-.66,1,1,0,0,0-.48-.42,1.77,1.77,0,0,0-.77-.14,1.8,1.8,0,0,0-.68.11,1.21,1.21,0,0,0-.48.31,1,1,0,0,0-.26.45h-1.35a2,2,0,0,1,.43-1,2.4,2.4,0,0,1,1-.7,3.85,3.85,0,0,1,1.41-.25,4.12,4.12,0,0,1,1.27.2,2.2,2.2,0,0,1,1,.75,2.29,2.29,0,0,1,.42,1.46v4.58h-1.32v-.95h-.06a1.85,1.85,0,0,1-.4.54,2.35,2.35,0,0,1-.68.4,2.59,2.59,0,0,1-.95.16,2.7,2.7,0,0,1-1.19-.25,1.9,1.9,0,0,1-.84-.72,2,2,0,0,1-.3-1.13,1.65,1.65,0,0,1,.72-1.52,3.85,3.85,0,0,1,1.85-.54l.74-.05.8,0h.35l0,1Z"/><path class="cls-4" d="M385.84,162.57h1.31v1.1h.07a1.73,1.73,0,0,1,.38-.64,1.85,1.85,0,0,1,.61-.42,2.14,2.14,0,0,1,.76-.14,5.17,5.17,0,0,1,.57,0v1.29l-.31,0-.39,0a1.81,1.81,0,0,0-.85.2,1.46,1.46,0,0,0-.58.55,1.49,1.49,0,0,0-.22.81v4.2h-1.35Z"/><path class="cls-4" d="M391.43,169.17a2.89,2.89,0,0,1-1-1.24,5.06,5.06,0,0,1,0-3.8,2.85,2.85,0,0,1,1-1.22,2.61,2.61,0,0,1,1.49-.43,2.22,2.22,0,0,1,.94.18,1.63,1.63,0,0,1,.6.41,3.63,3.63,0,0,1,.39.53l0,.05,0,0H395v-3.42h1.36v9.2H395v-1.08h-.11l0,.06a3.55,3.55,0,0,1-.4.55,1.87,1.87,0,0,1-.62.42,2.22,2.22,0,0,1-.94.18A2.61,2.61,0,0,1,391.43,169.17Zm2.76-1a2,2,0,0,0,.62-.86A3.52,3.52,0,0,0,395,166a3.47,3.47,0,0,0-.21-1.26,1.76,1.76,0,0,0-.61-.83,1.79,1.79,0,0,0-2,0,1.89,1.89,0,0,0-.62.85,3.56,3.56,0,0,0-.2,1.23,3.49,3.49,0,0,0,.21,1.25,1.85,1.85,0,0,0,.62.86,1.54,1.54,0,0,0,1,.32A1.58,1.58,0,0,0,394.19,168.15Z"/><path class="cls-4" d="M294.63,126.54h5.71v1.2H296v2.79h3.9v1.2H296v4h-1.39Z"/><path class="cls-4" d="M305.13,132.66l-.93.06a2.09,2.09,0,0,0-1.07.32.87.87,0,0,0-.37.76.92.92,0,0,0,.16.55,1.07,1.07,0,0,0,.46.34,2.06,2.06,0,0,0,.68.11,1.89,1.89,0,0,0,.94-.22,1.47,1.47,0,0,0,.61-.57,1.49,1.49,0,0,0,.21-.77v-2.18a1.24,1.24,0,0,0-.16-.66,1.07,1.07,0,0,0-.47-.42,2.17,2.17,0,0,0-1.45,0,1.29,1.29,0,0,0-.49.31,1,1,0,0,0-.25.45h-1.36a2,2,0,0,1,.43-1,2.31,2.31,0,0,1,1-.7,3.65,3.65,0,0,1,1.41-.26,3.8,3.8,0,0,1,1.27.21,2.11,2.11,0,0,1,1,.74,2.3,2.3,0,0,1,.42,1.46v4.58h-1.32v-.94h-.05a1.93,1.93,0,0,1-1.09.93,2.56,2.56,0,0,1-.95.16,2.7,2.7,0,0,1-1.19-.25,2,2,0,0,1-.84-.72,2,2,0,0,1-.3-1.13,1.65,1.65,0,0,1,.72-1.52,3.89,3.89,0,0,1,1.86-.54l.73,0,.8,0,.35,0,0,1Z"/><path class="cls-4" d="M308.81,128.83h1.31v1.1h.07a1.73,1.73,0,0,1,.38-.64,2,2,0,0,1,.61-.42,2.14,2.14,0,0,1,.76-.14,5.35,5.35,0,0,1,.58,0v1.3l-.32-.06-.39,0a1.8,1.8,0,0,0-.84.2,1.53,1.53,0,0,0-.81,1.36v4.2h-1.35Z"/><path class="cls-4" d="M313.53,128.83h1.3V130h.08a1.87,1.87,0,0,1,.71-.9,2.14,2.14,0,0,1,1.17-.32,2.18,2.18,0,0,1,.82.15,1.64,1.64,0,0,1,.62.41,2,2,0,0,1,.41.66h.08a2,2,0,0,1,.46-.65,2.09,2.09,0,0,1,.71-.42,2.56,2.56,0,0,1,.89-.15,2.24,2.24,0,0,1,1.12.27,1.82,1.82,0,0,1,.75.8,2.81,2.81,0,0,1,.27,1.3v4.62h-1.36v-4.49a1.29,1.29,0,0,0-.36-1,1.32,1.32,0,0,0-.93-.32,1.58,1.58,0,0,0-.74.17,1.26,1.26,0,0,0-.47.5,1.64,1.64,0,0,0-.17.74v4.4h-1.34v-4.58a1.28,1.28,0,0,0-.16-.65,1,1,0,0,0-.44-.43,1.4,1.4,0,0,0-.66-.15,1.32,1.32,0,0,0-.7.19,1.41,1.41,0,0,0-.52.56,1.79,1.79,0,0,0-.19.81v4.25h-1.35Z"/><path class="cls-4" d="M324.82,127.66a.86.86,0,0,1-.31-.29.72.72,0,0,1-.12-.4.75.75,0,0,1,.12-.41.86.86,0,0,1,.31-.29.88.88,0,0,1,.43-.1.84.84,0,0,1,.73.39.75.75,0,0,1,.12.41.72.72,0,0,1-.12.4.86.86,0,0,1-.31.29.78.78,0,0,1-.42.11A.79.79,0,0,1,324.82,127.66Zm-.26,1.17h1.36v6.9h-1.36Z"/><path class="cls-4" d="M328.92,135.73h-1.35v-6.9h1.3V130H329a2.1,2.1,0,0,1,.45-.65,2,2,0,0,1,.68-.42,2.59,2.59,0,0,1,.91-.15,2.5,2.5,0,0,1,1.24.3,2.06,2.06,0,0,1,.82.88,3.24,3.24,0,0,1,.29,1.42v4.39H332v-4.22a2.06,2.06,0,0,0-.17-.86,1.34,1.34,0,0,0-.5-.55,1.61,1.61,0,0,0-.78-.18,1.63,1.63,0,0,0-.84.2,1.52,1.52,0,0,0-.56.59,1.94,1.94,0,0,0-.21.93Z"/><path class="cls-4" d="M336.35,138.21a2.33,2.33,0,0,1-1-.71,1.89,1.89,0,0,1-.44-1.1h1.38a1,1,0,0,0,.28.54,1.33,1.33,0,0,0,.56.32,2.46,2.46,0,0,0,.8.11,1.91,1.91,0,0,0,1.29-.38,1.41,1.41,0,0,0,.47-1.16v-1.36h-.09l0,0a2.89,2.89,0,0,1-.39.54,2,2,0,0,1-.62.41,2.37,2.37,0,0,1-1,.18,2.77,2.77,0,0,1-1.48-.41,2.63,2.63,0,0,1-1-1.17,4.16,4.16,0,0,1-.38-1.84,4.26,4.26,0,0,1,.38-1.86,2.68,2.68,0,0,1,2.52-1.61,2.22,2.22,0,0,1,.94.18,1.76,1.76,0,0,1,.6.41,3.23,3.23,0,0,1,.41.53.41.41,0,0,0,.05.09h.09v-1.12H341v7a2.54,2.54,0,0,1-.39,1.44,2.43,2.43,0,0,1-1.1.86,4.49,4.49,0,0,1-1.61.28A4.23,4.23,0,0,1,336.35,138.21Zm2.49-4a1.73,1.73,0,0,0,.61-.78,3.16,3.16,0,0,0,.21-1.21,3.3,3.3,0,0,0-.21-1.23,1.71,1.71,0,0,0-.61-.82,1.67,1.67,0,0,0-1-.29,1.64,1.64,0,0,0-1,.3,1.86,1.86,0,0,0-.61.83,3.3,3.3,0,0,0-.21,1.21,3.12,3.12,0,0,0,.21,1.19,1.76,1.76,0,0,0,.62.79,1.83,1.83,0,0,0,2,0Z"/><path class="cls-4" d="M345.92,126.54h1.39v8h4.17v1.2h-5.56Z"/><path class="cls-4" d="M352.9,126.54h3.29a3.62,3.62,0,0,1,1.75.38,2.42,2.42,0,0,1,1.07,1,3.5,3.5,0,0,1,0,3.09,2.54,2.54,0,0,1-1.07,1.06,3.63,3.63,0,0,1-1.76.39h-2.25v-1.19h2.12a2.21,2.21,0,0,0,1.08-.24,1.42,1.42,0,0,0,.63-.63,2.19,2.19,0,0,0,0-1.87,1.45,1.45,0,0,0-.63-.62,2.35,2.35,0,0,0-1.09-.23H354.3v8h-1.4Z"/><path class="cls-4" d="M363.56,126.54h7.12v1.2h-2.86v8h-1.39v-8h-2.87Z"/><path class="cls-4" d="M372.2,135.42a3,3,0,0,1-1.13-1.25,4.18,4.18,0,0,1-.4-1.86,4.25,4.25,0,0,1,.4-1.87,3,3,0,0,1,1.13-1.25,3.2,3.2,0,0,1,1.7-.45,3.16,3.16,0,0,1,1.69.45,2.9,2.9,0,0,1,1.12,1.25,4.12,4.12,0,0,1,.4,1.87,4,4,0,0,1-.4,1.86,2.9,2.9,0,0,1-1.12,1.25,3.16,3.16,0,0,1-1.69.45A3.2,3.2,0,0,1,372.2,135.42Zm2.72-1a2,2,0,0,0,.62-.87,3.71,3.71,0,0,0,0-2.46,2,2,0,0,0-.62-.88,1.6,1.6,0,0,0-1-.33,1.56,1.56,0,0,0-1,.33,1.92,1.92,0,0,0-.63.88,3.71,3.71,0,0,0,0,2.46,1.89,1.89,0,0,0,.63.87,1.56,1.56,0,0,0,1,.33A1.6,1.6,0,0,0,374.92,134.41Z"/><path class="cls-4" d="M378.45,126.54h1.36v9.19h-1.36Zm1.24,5.21h.24l2.73-2.92h1.62l-3.13,3.33h-.21l-1.24,1.23Zm.66.71.93-1,3.19,4.22h-1.66Z"/><path class="cls-4" d="M386.29,135.43a2.8,2.8,0,0,1-1.14-1.24,4,4,0,0,1-.4-1.86,4.15,4.15,0,0,1,.4-1.87,3,3,0,0,1,2.79-1.72,3.18,3.18,0,0,1,1.53.37,2.69,2.69,0,0,1,1.11,1.13,4.14,4.14,0,0,1,.42,2v.48h-5.49v-1h4.16a2,2,0,0,0-.21-.94,1.59,1.59,0,0,0-.61-.65,1.86,1.86,0,0,0-1.86,0,1.88,1.88,0,0,0-.66.71,2.13,2.13,0,0,0-.23,1v.78a2.58,2.58,0,0,0,.24,1.16,1.77,1.77,0,0,0,.68.75,2,2,0,0,0,1,.25,2.29,2.29,0,0,0,.66-.09,1.76,1.76,0,0,0,.51-.27,1.66,1.66,0,0,0,.32-.39h1.37a2.31,2.31,0,0,1-.54,1,2.69,2.69,0,0,1-1,.66,3.8,3.8,0,0,1-1.34.23A3.39,3.39,0,0,1,386.29,135.43Z"/><path class="cls-4" d="M393.7,135.73h-1.35v-6.9h1.3V130h.08a2.1,2.1,0,0,1,.45-.65,2,2,0,0,1,.68-.42,2.59,2.59,0,0,1,.91-.15,2.5,2.5,0,0,1,1.24.3,2.06,2.06,0,0,1,.82.88,3.24,3.24,0,0,1,.28,1.42v4.39h-1.35v-4.22a2.06,2.06,0,0,0-.17-.86,1.34,1.34,0,0,0-.5-.55,1.61,1.61,0,0,0-.78-.18,1.63,1.63,0,0,0-.84.2,1.45,1.45,0,0,0-.56.59,1.94,1.94,0,0,0-.21.93Z"/><g class="cls-8"><line class="cls-9" x1="285.51" y1="388.24" x2="430.5" y2="388.24"/><polygon class="cls-4" points="429.04 393.23 437.67 388.24 429.04 383.25 429.04 393.23"/></g><g class="cls-8"><line class="cls-9" x1="292.69" y1="375.72" x2="437.67" y2="375.72"/><polygon class="cls-4" points="294.15 380.71 285.51 375.72 294.15 370.73 294.15 380.71"/></g><path class="cls-4" d="M313.64,403.42h-1.39v-9.2h1.39Z"/><path class="cls-4" d="M316.76,403.42h-1.35v-6.9h1.3v1.13h.08a2,2,0,0,1,.45-.65,2,2,0,0,1,.68-.42,2.59,2.59,0,0,1,.91-.15,2.5,2.5,0,0,1,1.24.3,2,2,0,0,1,.82.88,3.21,3.21,0,0,1,.29,1.42v4.39h-1.36V399.2a2.06,2.06,0,0,0-.17-.86,1.34,1.34,0,0,0-.5-.55,1.61,1.61,0,0,0-.78-.19,1.64,1.64,0,0,0-.84.21,1.45,1.45,0,0,0-.56.59,1.94,1.94,0,0,0-.21.93Z"/><path class="cls-4" d="M326,397.6h-3.77v-1.08H326Zm-1.4-2.73v6.52a1.16,1.16,0,0,0,.11.57.58.58,0,0,0,.29.27,1,1,0,0,0,.42.08l.68,0v1.17a5.35,5.35,0,0,1-.84.06,2.37,2.37,0,0,1-1-.21,1.64,1.64,0,0,1-.73-.62,1.74,1.74,0,0,1-.28-1v-6.8Z"/><path class="cls-4" d="M328.52,403.12a3,3,0,0,1-1.14-1.24A4.19,4.19,0,0,1,327,400a4.24,4.24,0,0,1,.4-1.86,3,3,0,0,1,1.12-1.27,3.09,3.09,0,0,1,1.67-.45,3.26,3.26,0,0,1,1.53.36,2.66,2.66,0,0,1,1.11,1.14,4,4,0,0,1,.43,2v.48h-5.5v-1h4.16a2.06,2.06,0,0,0-.21-.94,1.54,1.54,0,0,0-.6-.64,1.68,1.68,0,0,0-.9-.24,1.75,1.75,0,0,0-1,.27,1.81,1.81,0,0,0-.65.72,2,2,0,0,0-.24,1v.79a2.58,2.58,0,0,0,.24,1.16,1.71,1.71,0,0,0,.69.74,1.89,1.89,0,0,0,1,.26,2,2,0,0,0,.66-.1,1.38,1.38,0,0,0,.51-.27,1.08,1.08,0,0,0,.32-.39h1.38a2.3,2.3,0,0,1-.55,1,2.55,2.55,0,0,1-1,.65,3.59,3.59,0,0,1-1.34.24A3.42,3.42,0,0,1,328.52,403.12Z"/><path class="cls-4" d="M334.58,396.52h1.31v1.1H336a1.78,1.78,0,0,1,1-1.06,2,2,0,0,1,.75-.14,5.35,5.35,0,0,1,.58,0v1.29l-.32-.05-.39,0a1.8,1.8,0,0,0-.84.2,1.49,1.49,0,0,0-.59.55,1.58,1.58,0,0,0-.22.8v4.21h-1.35Z"/><path class="cls-4" d="M340.31,403.12a2.93,2.93,0,0,1-1.15-1.24,4.19,4.19,0,0,1-.39-1.87,4.24,4.24,0,0,1,.39-1.86,3,3,0,0,1,1.12-1.27,3.12,3.12,0,0,1,1.67-.45,3.26,3.26,0,0,1,1.53.36,2.63,2.63,0,0,1,1.12,1.14,4.11,4.11,0,0,1,.42,2v.48h-5.49v-1h4.16a2,2,0,0,0-.22-.94,1.54,1.54,0,0,0-.6-.64,1.68,1.68,0,0,0-.9-.24,1.77,1.77,0,0,0-1,.27,1.81,1.81,0,0,0-.65.72,2.23,2.23,0,0,0-.24,1v.79a2.45,2.45,0,0,0,.25,1.16,1.74,1.74,0,0,0,.68.74,1.89,1.89,0,0,0,1,.26,2,2,0,0,0,.67-.1,1.26,1.26,0,0,0,.5-.27,1.23,1.23,0,0,0,.33-.39h1.37a2.29,2.29,0,0,1-.54,1,2.55,2.55,0,0,1-1,.65,3.65,3.65,0,0,1-1.35.24A3.36,3.36,0,0,1,340.31,403.12Z"/><path class="cls-4" d="M349.8,397.74a1.45,1.45,0,0,0-.87-.24,1.85,1.85,0,0,0-.69.12,1.17,1.17,0,0,0-.47.33.7.7,0,0,0-.17.47.64.64,0,0,0,.26.53,2,2,0,0,0,.82.35l1.1.25a3,3,0,0,1,1.42.68,1.6,1.6,0,0,1,.46,1.19,1.9,1.9,0,0,1-.33,1.1,2.22,2.22,0,0,1-1,.76,3.86,3.86,0,0,1-1.5.28,3.8,3.8,0,0,1-1.42-.24,2.19,2.19,0,0,1-.95-.69,2.31,2.31,0,0,1-.44-1.1h1.39a1,1,0,0,0,.44.71,1.75,1.75,0,0,0,1,.23,2.22,2.22,0,0,0,.77-.12,1.1,1.1,0,0,0,.5-.33.74.74,0,0,0,.18-.49A.71.71,0,0,0,350,401a1.93,1.93,0,0,0-.81-.34l-1.07-.24a2.68,2.68,0,0,1-1.41-.69,1.63,1.63,0,0,1-.48-1.2,1.86,1.86,0,0,1,.33-1.08,2.25,2.25,0,0,1,.94-.73,3.6,3.6,0,0,1,1.4-.26,3.38,3.38,0,0,1,1.32.24,2.17,2.17,0,0,1,.9.69,2.06,2.06,0,0,1,.39,1h-1.3A1.07,1.07,0,0,0,349.8,397.74Z"/><path class="cls-4" d="M356.22,397.6h-3.77v-1.08h3.77Zm-1.41-2.73v6.52a1.15,1.15,0,0,0,.12.57.61.61,0,0,0,.28.27,1.1,1.1,0,0,0,.43.08l.67,0v1.17a5.13,5.13,0,0,1-.83.06,2.37,2.37,0,0,1-1-.21,1.64,1.64,0,0,1-.73-.62,1.74,1.74,0,0,1-.28-1v-6.8Z"/><path class="cls-4" d="M360.83,394.22h3.28a3.74,3.74,0,0,1,1.75.38,2.57,2.57,0,0,1,1.08,1.06,3.56,3.56,0,0,1,0,3.08,2.51,2.51,0,0,1-1.08,1.06,3.62,3.62,0,0,1-1.75.39h-2.26V399H364a2.19,2.19,0,0,0,1.08-.23,1.37,1.37,0,0,0,.63-.63,2.19,2.19,0,0,0,0-1.87,1.35,1.35,0,0,0-.63-.62,2.32,2.32,0,0,0-1.09-.23h-1.74v8h-1.39Z"/><path class="cls-4" d="M372,400.34l-.93.07a2.09,2.09,0,0,0-1.07.32.86.86,0,0,0-.37.76.89.89,0,0,0,.16.54,1,1,0,0,0,.46.34,1.79,1.79,0,0,0,.68.12,2,2,0,0,0,.94-.22,1.47,1.47,0,0,0,.61-.57,1.51,1.51,0,0,0,.21-.77v-2.18a1.24,1.24,0,0,0-.16-.66,1,1,0,0,0-.47-.42,1.81,1.81,0,0,0-.78-.14,1.75,1.75,0,0,0-.67.11,1.27,1.27,0,0,0-.49.3,1.1,1.1,0,0,0-.25.46h-1.36a2,2,0,0,1,.43-1,2.4,2.4,0,0,1,1-.7,3.85,3.85,0,0,1,1.41-.25,4.07,4.07,0,0,1,1.27.2,2.18,2.18,0,0,1,1,.74,2.34,2.34,0,0,1,.42,1.47v4.58h-1.32v-.95h-.05a2.27,2.27,0,0,1-.41.54,2.22,2.22,0,0,1-.68.4,2.56,2.56,0,0,1-.95.16,2.7,2.7,0,0,1-1.19-.25,2,2,0,0,1-.84-.72,2,2,0,0,1-.3-1.13A1.65,1.65,0,0,1,369,400a3.89,3.89,0,0,1,1.86-.54l.73-.05.8,0h.35l0,1Z"/><path class="cls-4" d="M375.5,406v-1.13h.61a1.69,1.69,0,0,0,.43-.05.67.67,0,0,0,.34-.24,2.26,2.26,0,0,0,.32-.61l.17-.45-2.53-7h1.45l1.74,5.35h.07l1.75-5.35h1.45l-2.84,7.81a2.67,2.67,0,0,1-.85,1.25,2.23,2.23,0,0,1-1.39.42A6.91,6.91,0,0,1,375.5,406Z"/><path class="cls-4" d="M382.42,396.52h1.3v1.13h.08a1.82,1.82,0,0,1,.71-.9,2.14,2.14,0,0,1,1.17-.32,2.35,2.35,0,0,1,.82.14,1.79,1.79,0,0,1,.62.42,1.72,1.72,0,0,1,.41.66h.08a1.88,1.88,0,0,1,.46-.65,2.19,2.19,0,0,1,.71-.42,2.57,2.57,0,0,1,.9-.15,2.23,2.23,0,0,1,1.11.27,1.8,1.8,0,0,1,.75.79,2.87,2.87,0,0,1,.27,1.3v4.63h-1.36v-4.49a1.29,1.29,0,0,0-.36-1,1.32,1.32,0,0,0-.93-.33,1.47,1.47,0,0,0-.74.18,1.26,1.26,0,0,0-.47.5,1.61,1.61,0,0,0-.17.74v4.4h-1.34v-4.58a1.25,1.25,0,0,0-.16-.65,1,1,0,0,0-.44-.43,1.29,1.29,0,0,0-.66-.16,1.32,1.32,0,0,0-.7.2,1.43,1.43,0,0,0-.51.55,1.74,1.74,0,0,0-.2.82v4.25h-1.35Z"/><path class="cls-4" d="M394.68,403.12a2.85,2.85,0,0,1-1.14-1.24,4.06,4.06,0,0,1-.4-1.87,4.1,4.1,0,0,1,.4-1.86,3,3,0,0,1,1.12-1.27,3.09,3.09,0,0,1,1.67-.45,3.29,3.29,0,0,1,1.53.36,2.66,2.66,0,0,1,1.11,1.14,4.11,4.11,0,0,1,.42,2v.48H393.9v-1h4.16a2.06,2.06,0,0,0-.21-.94,1.51,1.51,0,0,0-.61-.64,1.67,1.67,0,0,0-.89-.24,1.75,1.75,0,0,0-1,.27,1.91,1.91,0,0,0-.66.72,2.09,2.09,0,0,0-.23,1v.79a2.58,2.58,0,0,0,.24,1.16,1.74,1.74,0,0,0,.68.74,2,2,0,0,0,1,.26,2,2,0,0,0,.66-.1,1.38,1.38,0,0,0,.51-.27,1.2,1.2,0,0,0,.32-.39h1.38a2.41,2.41,0,0,1-.55,1,2.55,2.55,0,0,1-1,.65,3.59,3.59,0,0,1-1.34.24A3.39,3.39,0,0,1,394.68,403.12Z"/><path class="cls-4" d="M402.09,403.42h-1.35v-6.9H402v1.13h.08a2,2,0,0,1,.45-.65,2,2,0,0,1,.68-.42,2.59,2.59,0,0,1,.91-.15,2.5,2.5,0,0,1,1.24.3,2,2,0,0,1,.82.88,3.21,3.21,0,0,1,.29,1.42v4.39h-1.36V399.2a2.06,2.06,0,0,0-.17-.86,1.34,1.34,0,0,0-.5-.55,1.74,1.74,0,0,0-1.62,0,1.45,1.45,0,0,0-.56.59,1.94,1.94,0,0,0-.21.93Z"/><path class="cls-4" d="M411.37,397.6H407.6v-1.08h3.77Zm-1.4-2.73v6.52a1.16,1.16,0,0,0,.11.57.58.58,0,0,0,.29.27,1,1,0,0,0,.42.08l.68,0v1.17a5.35,5.35,0,0,1-.84.06,2.37,2.37,0,0,1-1-.21,1.64,1.64,0,0,1-.73-.62,1.74,1.74,0,0,1-.28-1v-6.8Z"/><path class="cls-4" d="M330.74,418.71a3,3,0,0,1-1.13-1.25,4.55,4.55,0,0,1,0-3.73,2.92,2.92,0,0,1,1.13-1.25,3.4,3.4,0,0,1,3.38,0,2.86,2.86,0,0,1,1.13,1.25,4.55,4.55,0,0,1,0,3.73,2.92,2.92,0,0,1-1.13,1.25,3.47,3.47,0,0,1-3.38,0Zm2.72-1a2,2,0,0,0,.62-.87,3.71,3.71,0,0,0,.2-1.24,3.59,3.59,0,0,0-.2-1.22,2,2,0,0,0-.62-.88,1.6,1.6,0,0,0-1-.33,1.66,1.66,0,0,0-1,.32,2,2,0,0,0-.62.88,3.74,3.74,0,0,0,0,2.47,2,2,0,0,0,.62.87,1.8,1.8,0,0,0,2,0Z"/><path class="cls-4" d="M338.35,419H337v-6.9h1.3v1.13h.09a2.13,2.13,0,0,1,.44-.65,2,2,0,0,1,.68-.42,2.59,2.59,0,0,1,.91-.15,2.47,2.47,0,0,1,1.24.3,2,2,0,0,1,.82.88,3.21,3.21,0,0,1,.29,1.42V419H341.4V414.8a1.91,1.91,0,0,0-.17-.86,1.27,1.27,0,0,0-.5-.55,1.72,1.72,0,0,0-1.61,0,1.41,1.41,0,0,0-.57.59,1.93,1.93,0,0,0-.2.93Z"/><path class="cls-4" d="M352.4,411.52a1.54,1.54,0,0,0-.66-.46,2.72,2.72,0,0,0-.94-.16,2.43,2.43,0,0,0-1,.18,1.52,1.52,0,0,0-.64.48,1.17,1.17,0,0,0-.23.7,1,1,0,0,0,.47.9,4.17,4.17,0,0,0,1.2.49l.89.23a6.29,6.29,0,0,1,1.29.47,2.75,2.75,0,0,1,1,.82,2.13,2.13,0,0,1,.39,1.3,2.57,2.57,0,0,1-.4,1.4,2.75,2.75,0,0,1-1.18.95,5,5,0,0,1-3.61,0,2.85,2.85,0,0,1-1.19-.93,2.77,2.77,0,0,1-.47-1.44h1.4a1.4,1.4,0,0,0,.32.81,1.64,1.64,0,0,0,.72.5,2.87,2.87,0,0,0,1,.16,2.84,2.84,0,0,0,1-.18,1.75,1.75,0,0,0,.73-.53,1.23,1.23,0,0,0,.26-.77,1,1,0,0,0-.22-.65,1.67,1.67,0,0,0-.59-.43,5.44,5.44,0,0,0-.94-.31l-1.08-.3a4.09,4.09,0,0,1-1.78-.91,2,2,0,0,1-.61-1.52A2.35,2.35,0,0,1,348,411a2.85,2.85,0,0,1,1.17-.93,4.4,4.4,0,0,1,3.32,0,2.73,2.73,0,0,1,1.14.91,2.32,2.32,0,0,1,.42,1.31h-1.35A1.36,1.36,0,0,0,352.4,411.52Z"/><path class="cls-4" d="M358.79,413.2H355v-1.08h3.77Zm-1.41-2.73V417a1.08,1.08,0,0,0,.12.56.58.58,0,0,0,.28.28,1.1,1.1,0,0,0,.43.08l.67,0v1.17a5.17,5.17,0,0,1-.84.06,2.4,2.4,0,0,1-1-.21,1.68,1.68,0,0,1-1-1.64v-6.79Z"/><path class="cls-4" d="M363.49,415.94l-.93.07a2.19,2.19,0,0,0-1.07.31.89.89,0,0,0-.37.76.9.9,0,0,0,.16.55,1,1,0,0,0,.46.34,1.83,1.83,0,0,0,.68.12,2,2,0,0,0,.94-.22,1.47,1.47,0,0,0,.61-.57,1.51,1.51,0,0,0,.21-.77v-2.18a1.3,1.3,0,0,0-.16-.67,1,1,0,0,0-.47-.41,1.81,1.81,0,0,0-.78-.14,1.75,1.75,0,0,0-.67.11,1.27,1.27,0,0,0-.49.3,1.1,1.1,0,0,0-.25.46H360a2,2,0,0,1,.43-1,2.4,2.4,0,0,1,1-.7,3.66,3.66,0,0,1,1.41-.25,4.07,4.07,0,0,1,1.27.2,2.18,2.18,0,0,1,1,.74,2.34,2.34,0,0,1,.42,1.47V419h-1.32v-.95h0a1.85,1.85,0,0,1-.41.53,2.05,2.05,0,0,1-.68.41,2.52,2.52,0,0,1-.95.16,2.7,2.7,0,0,1-1.19-.25,2,2,0,0,1-.84-.72,2.07,2.07,0,0,1-.3-1.13,1.65,1.65,0,0,1,.72-1.52,3.89,3.89,0,0,1,1.86-.54l.73-.05.8,0h.36v1Z"/><path class="cls-4" d="M367.17,409.82h1.35V419h-1.35Zm1.24,5.21h.23l2.74-2.91H373l-3.13,3.33h-.22l-1.23,1.23Zm.65.72.94-.95,3.18,4.22h-1.65Z"/><path class="cls-4" d="M374.33,411a.89.89,0,0,1-.32-.29.75.75,0,0,1-.12-.4.75.75,0,0,1,.12-.41.89.89,0,0,1,.32-.29.86.86,0,0,1,.84,0,.79.79,0,0,1,.31.29.75.75,0,0,1,.12.41.75.75,0,0,1-.12.4.79.79,0,0,1-.31.29.86.86,0,0,1-.84,0Zm-.27,1.17h1.36V419h-1.36Z"/><path class="cls-4" d="M378.43,419h-1.36v-6.9h1.3v1.13h.09a2.13,2.13,0,0,1,.44-.65,2,2,0,0,1,.69-.42,2.74,2.74,0,0,1,2.14.15,2,2,0,0,1,.82.88,3.21,3.21,0,0,1,.29,1.42V419h-1.36V414.8a1.91,1.91,0,0,0-.17-.86,1.21,1.21,0,0,0-.5-.55,1.61,1.61,0,0,0-.78-.19,1.63,1.63,0,0,0-.83.21,1.41,1.41,0,0,0-.57.59,2.06,2.06,0,0,0-.2.93Z"/><path class="cls-4" d="M385.85,421.5a2.44,2.44,0,0,1-1-.71,2,2,0,0,1-.44-1.11h1.38a1.07,1.07,0,0,0,.28.55,1.33,1.33,0,0,0,.56.32,2.78,2.78,0,0,0,.81.11,2,2,0,0,0,1.29-.38,1.41,1.41,0,0,0,.46-1.17v-1.35h-.09l0,0a2.66,2.66,0,0,1-.39.54,1.91,1.91,0,0,1-.62.41,2.51,2.51,0,0,1-1,.17,2.76,2.76,0,0,1-1.48-.4,2.88,2.88,0,0,1-1-1.17,4.17,4.17,0,0,1-.37-1.84,4.26,4.26,0,0,1,.37-1.86,2.68,2.68,0,0,1,2.53-1.61,2.2,2.2,0,0,1,.93.18,1.9,1.9,0,0,1,.61.4,4.58,4.58,0,0,1,.4.53.47.47,0,0,1,.05.1h.09v-1.12h1.33v7a2.42,2.42,0,0,1-.4,1.44,2.26,2.26,0,0,1-1.1.86,4.24,4.24,0,0,1-1.61.29A4.46,4.46,0,0,1,385.85,421.5Zm2.49-4a1.66,1.66,0,0,0,.61-.78,3.17,3.17,0,0,0,.21-1.22,3.29,3.29,0,0,0-.2-1.22,1.73,1.73,0,0,0-.61-.82,1.74,1.74,0,0,0-2,0,1.81,1.81,0,0,0-.62.83,3.21,3.21,0,0,0-.2,1.2,3.09,3.09,0,0,0,.21,1.19,1.77,1.77,0,0,0,.61.8,1.67,1.67,0,0,0,1,.28A1.7,1.7,0,0,0,388.34,417.52Z"/><path class="cls-4" d="M326.21,428.75a1,1,0,0,1-.33-.33.82.82,0,0,1-.11-.44.86.86,0,0,1,.11-.45,1,1,0,0,1,.33-.33.93.93,0,0,1,.46-.12.89.89,0,0,1,.45.12.9.9,0,0,1,.45.78.83.83,0,0,1-.12.44.87.87,0,0,1-.33.33.89.89,0,0,1-.45.12A.93.93,0,0,1,326.21,428.75Zm0,4.6a1,1,0,0,1-.33-.33.82.82,0,0,1-.11-.44.88.88,0,0,1,.11-.45,1,1,0,0,1,.33-.33.93.93,0,0,1,.46-.12.89.89,0,0,1,.45.12.87.87,0,0,1,.33.33.89.89,0,0,1,.12.45.83.83,0,0,1-.12.44.87.87,0,0,1-.33.33.9.9,0,0,1-.45.13A.94.94,0,0,1,326.21,433.35Z"/><path class="cls-4" d="M334.19,425.42l2.92,7.13h.1l2.92-7.13h1.7v9.2H340.5V428h-.09l-2.7,6.62H336.6L333.9,428h-.07v6.65h-1.34v-9.2Z"/><path class="cls-4" d="M343,434.62l3.3-9.2h1.62l3.31,9.2h-1.49l-2.59-7.52h-.07l-2.6,7.52Zm6.5-3.6v1.17h-4.78V431Z"/><path class="cls-4" d="M354.8,432.9h.1l2.56-7.48H359l-3.31,9.2H354l-3.3-9.2h1.51Z"/><path class="cls-4" d="M362.85,425.42H370v1.21h-2.86v8h-1.4v-8h-2.87Z"/><path class="cls-4" d="M371.5,434.31a3,3,0,0,1-1.13-1.25,4.55,4.55,0,0,1,0-3.73,2.92,2.92,0,0,1,1.13-1.25,3.4,3.4,0,0,1,3.38,0,2.86,2.86,0,0,1,1.13,1.25,4.55,4.55,0,0,1,0,3.73,2.92,2.92,0,0,1-1.13,1.25,3.47,3.47,0,0,1-3.38,0Zm2.71-1a2,2,0,0,0,.63-.87,3.69,3.69,0,0,0,.2-1.23,3.6,3.6,0,0,0-.2-1.23,1.92,1.92,0,0,0-.63-.88,1.55,1.55,0,0,0-1-.33,1.66,1.66,0,0,0-1,.32,2,2,0,0,0-.62.88,3.58,3.58,0,0,0,0,2.47,1.93,1.93,0,0,0,.62.87,1.6,1.6,0,0,0,1,.32A1.55,1.55,0,0,0,374.21,433.3Z"/><path class="cls-4" d="M377.75,425.42h1.35v9.2h-1.35Zm1.24,5.21h.23l2.74-2.91h1.62l-3.13,3.33h-.22L379,432.28Zm.65.72.94-1,3.19,4.22h-1.66Z"/><path class="cls-4" d="M385.58,434.32a3,3,0,0,1-1.14-1.24,4.19,4.19,0,0,1-.39-1.87,4.24,4.24,0,0,1,.39-1.86,3.08,3.08,0,0,1,1.12-1.27,3.12,3.12,0,0,1,1.67-.45,3.26,3.26,0,0,1,1.53.36,2.63,2.63,0,0,1,1.12,1.14,4.11,4.11,0,0,1,.42,2v.48h-5.49v-1H389a2,2,0,0,0-.22-.94,1.54,1.54,0,0,0-.6-.64,1.68,1.68,0,0,0-.9-.23,1.76,1.76,0,0,0-1,.26,1.81,1.81,0,0,0-.65.72,2.23,2.23,0,0,0-.24,1v.79a2.58,2.58,0,0,0,.25,1.16,1.68,1.68,0,0,0,.68.74,1.89,1.89,0,0,0,1,.26,2,2,0,0,0,.67-.1,1.26,1.26,0,0,0,.5-.27,1.23,1.23,0,0,0,.33-.39h1.37a2.29,2.29,0,0,1-.54,1,2.55,2.55,0,0,1-1,.65,3.65,3.65,0,0,1-1.35.23A3.41,3.41,0,0,1,385.58,434.32Z"/><path class="cls-4" d="M393,434.62h-1.36v-6.9h1.3v1.13H393a2,2,0,0,1,.45-.65,1.87,1.87,0,0,1,.68-.42,2.54,2.54,0,0,1,.9-.15,2.45,2.45,0,0,1,1.24.3,2,2,0,0,1,.82.88,3.21,3.21,0,0,1,.29,1.42v4.39h-1.35V430.4a1.91,1.91,0,0,0-.18-.86,1.21,1.21,0,0,0-.5-.55,1.61,1.61,0,0,0-.78-.19,1.63,1.63,0,0,0-.83.21,1.41,1.41,0,0,0-.57.59,2.06,2.06,0,0,0-.2.93Z"/><path class="cls-4" d="M320.27,360.43h7.13v1.2h-2.86v8h-1.4v-8h-2.87Z"/><path class="cls-4" d="M328.92,369.31a2.92,2.92,0,0,1-1.13-1.25,4,4,0,0,1-.4-1.86,4.12,4.12,0,0,1,.4-1.87,2.92,2.92,0,0,1,1.13-1.25,3.4,3.4,0,0,1,3.38,0,2.86,2.86,0,0,1,1.13,1.25,4.25,4.25,0,0,1,.4,1.87,4.18,4.18,0,0,1-.4,1.86,2.86,2.86,0,0,1-1.13,1.25,3.4,3.4,0,0,1-3.38,0Zm2.71-1a1.89,1.89,0,0,0,.63-.87,3.88,3.88,0,0,0,0-2.46,2,2,0,0,0-.63-.88,1.55,1.55,0,0,0-1-.33,1.61,1.61,0,0,0-1,.33,1.91,1.91,0,0,0-.62.88,3.55,3.55,0,0,0,0,2.46,1.88,1.88,0,0,0,.62.87,1.61,1.61,0,0,0,1,.33A1.55,1.55,0,0,0,331.63,368.3Z"/><path class="cls-4" d="M335.17,360.43h1.35v9.19h-1.35Zm1.24,5.21h.23l2.74-2.92H341l-3.13,3.33h-.22l-1.23,1.23Zm.65.71.94-1,3.18,4.22h-1.65Z"/><path class="cls-4" d="M343,369.32a2.92,2.92,0,0,1-1.14-1.24,4.18,4.18,0,0,1-.39-1.86,4.28,4.28,0,0,1,.39-1.87,3.19,3.19,0,0,1,4.32-1.35,2.71,2.71,0,0,1,1.12,1.13,4.14,4.14,0,0,1,.42,2v.48h-5.49v-1h4.16a1.88,1.88,0,0,0-.22-.93,1.57,1.57,0,0,0-.6-.65,1.82,1.82,0,0,0-2.52.75,2.14,2.14,0,0,0-.24,1v.78a2.45,2.45,0,0,0,.25,1.16,1.71,1.71,0,0,0,.68.75,2,2,0,0,0,1,.25,2.31,2.31,0,0,0,.67-.09,1.58,1.58,0,0,0,.5-.27,1.49,1.49,0,0,0,.33-.39h1.37a2.31,2.31,0,0,1-.54,1,2.69,2.69,0,0,1-1,.66,3.86,3.86,0,0,1-1.35.23A3.42,3.42,0,0,1,343,369.32Z"/><path class="cls-4" d="M350.42,369.62h-1.36v-6.9h1.3v1.13h.09a2.1,2.1,0,0,1,.45-.65,1.87,1.87,0,0,1,.68-.42,2.5,2.5,0,0,1,.9-.15,2.45,2.45,0,0,1,1.24.3,2,2,0,0,1,.82.88,3.24,3.24,0,0,1,.29,1.42v4.39h-1.35V365.4a1.91,1.91,0,0,0-.18-.86,1.21,1.21,0,0,0-.5-.55,1.8,1.8,0,0,0-1.61,0,1.47,1.47,0,0,0-.57.59,2.06,2.06,0,0,0-.2.93Z"/><path class="cls-4" d="M364.47,362.12a1.54,1.54,0,0,0-.66-.46,2.93,2.93,0,0,0-1.91,0,1.52,1.52,0,0,0-.64.49,1.14,1.14,0,0,0-.23.69,1,1,0,0,0,.48.9,3.74,3.74,0,0,0,1.19.49l.9.24a6.13,6.13,0,0,1,1.29.46,2.8,2.8,0,0,1,1,.82,2.15,2.15,0,0,1,.39,1.3,2.47,2.47,0,0,1-.4,1.4,2.67,2.67,0,0,1-1.17,1,4.51,4.51,0,0,1-1.84.34,4.45,4.45,0,0,1-1.78-.33,2.69,2.69,0,0,1-1.18-.93,2.64,2.64,0,0,1-.48-1.44h1.4a1.4,1.4,0,0,0,.32.81,1.64,1.64,0,0,0,.72.5,3,3,0,0,0,2.05,0,1.76,1.76,0,0,0,.72-.52,1.28,1.28,0,0,0,.26-.78.94.94,0,0,0-.22-.64,1.6,1.6,0,0,0-.59-.44,6.71,6.71,0,0,0-.93-.31l-1.09-.29a4.1,4.1,0,0,1-1.77-.91,2,2,0,0,1-.62-1.53,2.29,2.29,0,0,1,.43-1.38,2.73,2.73,0,0,1,1.17-.93,4.38,4.38,0,0,1,3.31,0,2.67,2.67,0,0,1,1.14.91,2.44,2.44,0,0,1,.43,1.31h-1.36A1.35,1.35,0,0,0,364.47,362.12Z"/><path class="cls-4" d="M370.86,363.81h-3.77v-1.09h3.77Zm-1.4-2.74v6.52a1.16,1.16,0,0,0,.11.57.61.61,0,0,0,.28.27,1.1,1.1,0,0,0,.43.08l.67,0v1.17a5.13,5.13,0,0,1-.83.06,2.37,2.37,0,0,1-1-.21,1.64,1.64,0,0,1-.73-.62,1.72,1.72,0,0,1-.28-1v-6.8Z"/><path class="cls-4" d="M375.57,366.55l-.94.06a2,2,0,0,0-1.06.32.88.88,0,0,0-.38.76.92.92,0,0,0,.17.55,1,1,0,0,0,.46.34,2,2,0,0,0,.67.11,1.89,1.89,0,0,0,.94-.22,1.56,1.56,0,0,0,.62-.57,1.49,1.49,0,0,0,.21-.77V365a1.24,1.24,0,0,0-.16-.66.92.92,0,0,0-.47-.42,2.17,2.17,0,0,0-1.45,0,1.18,1.18,0,0,0-.48.31.94.94,0,0,0-.26.45h-1.35a1.8,1.8,0,0,1,.43-1,2.28,2.28,0,0,1,1-.7,3.67,3.67,0,0,1,1.42-.26,3.79,3.79,0,0,1,1.26.21,2.11,2.11,0,0,1,1,.74,2.3,2.3,0,0,1,.42,1.46v4.58h-1.32v-.94h0a2,2,0,0,1-.41.53,2,2,0,0,1-.68.4,2.52,2.52,0,0,1-.95.16,2.7,2.7,0,0,1-1.19-.25,1.88,1.88,0,0,1-.83-.72,2,2,0,0,1-.31-1.13,1.64,1.64,0,0,1,.73-1.52,3.85,3.85,0,0,1,1.85-.54l.74-.05.79,0h.36l0,1C376.18,366.5,375.92,366.52,375.57,366.55Z"/><path class="cls-4" d="M379.24,360.43h1.36v9.19h-1.36Zm1.24,5.21h.23l2.74-2.92h1.62l-3.13,3.33h-.22l-1.23,1.23Zm.66.71.93-1,3.19,4.22H383.6Z"/><path class="cls-4" d="M386.4,361.55a.89.89,0,0,1-.32-.29.8.8,0,0,1-.11-.4.84.84,0,0,1,.11-.41.89.89,0,0,1,.32-.29.93.93,0,0,1,.84,0,.82.82,0,0,1,.32.29.84.84,0,0,1,.11.41.8.8,0,0,1-.11.4.82.82,0,0,1-.32.29.86.86,0,0,1-.84,0Zm-.26,1.17h1.35v6.9h-1.35Z"/><path class="cls-4" d="M390.5,369.62h-1.36v-6.9h1.31v1.13h.08a2.1,2.1,0,0,1,.45-.65,1.87,1.87,0,0,1,.68-.42,2.54,2.54,0,0,1,.9-.15,2.45,2.45,0,0,1,1.24.3,2,2,0,0,1,.82.88,3.24,3.24,0,0,1,.29,1.42v4.39h-1.35V365.4a1.91,1.91,0,0,0-.18-.86,1.21,1.21,0,0,0-.5-.55,1.8,1.8,0,0,0-1.61,0,1.39,1.39,0,0,0-.56.59,1.94,1.94,0,0,0-.21.93Z"/><path class="cls-4" d="M397.93,372.1a2.42,2.42,0,0,1-1.05-.71,2,2,0,0,1-.44-1.1h1.38a1.17,1.17,0,0,0,.28.54,1.4,1.4,0,0,0,.56.32,2.48,2.48,0,0,0,.81.11,2,2,0,0,0,1.29-.38,1.4,1.4,0,0,0,.46-1.16v-1.36h-.09v0a2.52,2.52,0,0,1-.4.54,2,2,0,0,1-.61.41,2.37,2.37,0,0,1-1,.18,2.74,2.74,0,0,1-1.48-.41,2.63,2.63,0,0,1-1-1.17,4.16,4.16,0,0,1-.38-1.84,4.26,4.26,0,0,1,.37-1.86,2.85,2.85,0,0,1,1-1.2,2.78,2.78,0,0,1,1.49-.41,2.25,2.25,0,0,1,.94.18,1.86,1.86,0,0,1,.6.41,3.19,3.19,0,0,1,.4.53l.06.09h.09v-1.12h1.32v7a2.47,2.47,0,0,1-.4,1.44,2.38,2.38,0,0,1-1.1.86,4.41,4.41,0,0,1-1.61.28A4.14,4.14,0,0,1,397.93,372.1Zm2.48-4a1.68,1.68,0,0,0,.62-.78,3.16,3.16,0,0,0,.21-1.21,3.3,3.3,0,0,0-.21-1.23,1.78,1.78,0,0,0-.61-.82,1.79,1.79,0,0,0-2,0,1.88,1.88,0,0,0-.62.83,3.53,3.53,0,0,0-.2,1.21,3.12,3.12,0,0,0,.21,1.19,1.74,1.74,0,0,0,.61.79,1.68,1.68,0,0,0,1,.29A1.63,1.63,0,0,0,400.41,368.12Z"/><g class="cls-10"><rect class="cls-4" x="452.94" y="354.39" width="200" height="55.17"/></g><path class="cls-4" d="M534.21,378a2.28,2.28,0,0,0-.9-.63,3.71,3.71,0,0,0-1.29-.21,3.4,3.4,0,0,0-1.33.24,2,2,0,0,0-.89.66,1.6,1.6,0,0,0-.31,1,1.38,1.38,0,0,0,.65,1.23,5.55,5.55,0,0,0,1.64.68l1.23.32a8.21,8.21,0,0,1,1.77.64,3.78,3.78,0,0,1,1.33,1.12,3,3,0,0,1,.53,1.79,3.37,3.37,0,0,1-.56,1.91,3.7,3.7,0,0,1-1.6,1.32,6.23,6.23,0,0,1-2.52.47,6.11,6.11,0,0,1-2.44-.45,3.82,3.82,0,0,1-1.63-1.28,3.62,3.62,0,0,1-.65-2h1.92a2,2,0,0,0,.43,1.11,2.38,2.38,0,0,0,1,.68,3.9,3.9,0,0,0,1.37.23,3.8,3.8,0,0,0,1.43-.26,2.26,2.26,0,0,0,1-.72,1.66,1.66,0,0,0,.36-1.06,1.37,1.37,0,0,0-.3-.89,2.3,2.3,0,0,0-.81-.59,8.27,8.27,0,0,0-1.28-.43l-1.49-.4a5.51,5.51,0,0,1-2.43-1.25,2.76,2.76,0,0,1-.86-2.09,3.2,3.2,0,0,1,.59-1.9,3.94,3.94,0,0,1,1.61-1.27,5.92,5.92,0,0,1,4.55,0,3.6,3.6,0,0,1,1.56,1.24,3.25,3.25,0,0,1,.59,1.8h-1.86A1.82,1.82,0,0,0,534.21,378Z"/><path class="cls-4" d="M543,380.29H537.8v-1.48H543Zm-1.93-3.75v8.95a1.69,1.69,0,0,0,.15.78.88.88,0,0,0,.4.37,1.43,1.43,0,0,0,.58.11c.16,0,.47,0,.93,0v1.6a6.69,6.69,0,0,1-1.15.08,3.32,3.32,0,0,1-1.39-.28,2.36,2.36,0,0,1-1-.85,2.47,2.47,0,0,1-.38-1.39v-9.33Z"/><path class="cls-4" d="M549.44,384.05l-1.28.09a2.91,2.91,0,0,0-1.47.44,1.2,1.2,0,0,0-.51,1,1.16,1.16,0,0,0,.23.75,1.38,1.38,0,0,0,.63.47,2.6,2.6,0,0,0,.92.16,2.68,2.68,0,0,0,1.3-.3,2.26,2.26,0,0,0,.84-.78,2.09,2.09,0,0,0,.29-1.06v-3a1.79,1.79,0,0,0-.22-.92,1.35,1.35,0,0,0-.65-.57,2.58,2.58,0,0,0-1.06-.19,2.67,2.67,0,0,0-.93.15,1.7,1.7,0,0,0-.66.42,1.42,1.42,0,0,0-.36.63h-1.85a2.69,2.69,0,0,1,.59-1.4,3.28,3.28,0,0,1,1.34-1,5.09,5.09,0,0,1,1.94-.35,5.56,5.56,0,0,1,1.74.28,3,3,0,0,1,1.4,1,3.2,3.2,0,0,1,.57,2v6.28h-1.81V387h-.07a2.69,2.69,0,0,1-.56.73,2.79,2.79,0,0,1-.93.55,3.56,3.56,0,0,1-1.31.22,3.74,3.74,0,0,1-1.63-.34,2.58,2.58,0,0,1-1.15-1,2.79,2.79,0,0,1-.42-1.55,2.29,2.29,0,0,1,1-2.09,5.36,5.36,0,0,1,2.54-.74l1-.06,1.1-.06.49,0,0,1.36Z"/><path class="cls-4" d="M554.48,375.65h1.86v12.62h-1.86Zm1.7,7.16h.32l3.76-4h2.22l-4.29,4.56h-.3l-1.69,1.7Zm.9,1,1.28-1.31,4.38,5.79h-2.27Z"/><path class="cls-4" d="M565.24,387.86a4,4,0,0,1-1.57-1.7,5.71,5.71,0,0,1-.54-2.56,5.83,5.83,0,0,1,.54-2.56,4.09,4.09,0,0,1,3.83-2.36,4.46,4.46,0,0,1,2.1.5,3.6,3.6,0,0,1,1.53,1.56,5.57,5.57,0,0,1,.58,2.7v.66h-7.54v-1.39h5.71a2.85,2.85,0,0,0-.29-1.29,2.23,2.23,0,0,0-.83-.89,2.4,2.4,0,0,0-1.23-.32,2.46,2.46,0,0,0-1.33.37,2.5,2.5,0,0,0-.9,1,2.87,2.87,0,0,0-.32,1.33V384a3.57,3.57,0,0,0,.33,1.6,2.38,2.38,0,0,0,.94,1,2.67,2.67,0,0,0,1.4.35,3,3,0,0,0,.92-.13,2.27,2.27,0,0,0,.69-.37,1.72,1.72,0,0,0,.44-.54h1.89a3.2,3.2,0,0,1-.75,1.36,3.68,3.68,0,0,1-1.36.9,5.11,5.11,0,0,1-1.84.31A4.65,4.65,0,0,1,565.24,387.86Z"/><path class="cls-4" d="M573.55,378.81h1.8v1.51h.1a2.38,2.38,0,0,1,.53-.88,2.26,2.26,0,0,1,.84-.58,2.7,2.7,0,0,1,1-.19,6.52,6.52,0,0,1,.79,0v1.77l-.43-.07a3.32,3.32,0,0,0-.53,0,2.49,2.49,0,0,0-1.17.27,2,2,0,0,0-.8.76,2.08,2.08,0,0,0-.29,1.1v5.77h-1.87Z"/><g class="cls-10"><rect class="cls-4" x="452.94" y="588.4" width="200" height="55.17"/></g><path class="cls-4" d="M522.65,600.85h1.72v9.84h5.13v1.49h-6.85Z"/><path class="cls-4" d="M531.45,602.24a1.06,1.06,0,0,1-.39-.37.86.86,0,0,1-.15-.49.91.91,0,0,1,.15-.5,1.12,1.12,0,0,1,.39-.36,1.14,1.14,0,0,1,.52-.13,1.18,1.18,0,0,1,.52.13,1,1,0,0,1,.38.36.91.91,0,0,1,.15.5.86.86,0,0,1-.15.49,1,1,0,0,1-.38.37,1.06,1.06,0,0,1-.52.13A1,1,0,0,1,531.45,602.24Zm-.33,1.44h1.67v8.5h-1.67Z"/><path class="cls-4" d="M540.56,610.85h-.09a.59.59,0,0,1,0,.08,4.42,4.42,0,0,1-.5.68,2.46,2.46,0,0,1-.75.51,2.75,2.75,0,0,1-1.17.22,3.19,3.19,0,0,1-1.83-.53,3.52,3.52,0,0,1-1.27-1.53,5.61,5.61,0,0,1-.46-2.34,5.46,5.46,0,0,1,.47-2.34,3.45,3.45,0,0,1,1.27-1.51,3.3,3.3,0,0,1,1.84-.52,2.9,2.9,0,0,1,1.16.21,2.4,2.4,0,0,1,.74.51,4.32,4.32,0,0,1,.48.66l0,0,0,.06h.13v-1.38h1.63v11.68h-1.67Zm-1-.3a2.31,2.31,0,0,0,.76-1,4.49,4.49,0,0,0,.26-1.57,4.36,4.36,0,0,0-.25-1.56,2.22,2.22,0,0,0-.76-1,2.18,2.18,0,0,0-2.43,0,2.26,2.26,0,0,0-.75,1,4.21,4.21,0,0,0-.26,1.52,4.36,4.36,0,0,0,.26,1.54,2.42,2.42,0,0,0,.76,1.06,1.94,1.94,0,0,0,1.22.39A1.92,1.92,0,0,0,539.58,610.55Z"/><path class="cls-4" d="M549.66,603.68h1.66v8.5h-1.63v-1.47h-.09a2.53,2.53,0,0,1-.55.81,2.46,2.46,0,0,1-.87.56,2.87,2.87,0,0,1-1.12.21,2.81,2.81,0,0,1-1.46-.37,2.48,2.48,0,0,1-1-1.09,4,4,0,0,1-.35-1.75v-5.4h1.67v5.2a2.14,2.14,0,0,0,.22,1,1.69,1.69,0,0,0,.61.66,1.76,1.76,0,0,0,.89.23,2.07,2.07,0,0,0,1-.24,2,2,0,0,0,.75-.72,2.24,2.24,0,0,0,.29-1.16Z"/><path class="cls-4" d="M553.68,602.24a1.06,1.06,0,0,1-.39-.37.93.93,0,0,1-.14-.49,1,1,0,0,1,.14-.5,1.12,1.12,0,0,1,.39-.36,1.18,1.18,0,0,1,.52-.13,1.14,1.14,0,0,1,.52.13,1,1,0,0,1,.39.36,1,1,0,0,1,.14.5.93.93,0,0,1-.14.49,1,1,0,0,1-.39.37,1,1,0,0,1-.52.13A1.06,1.06,0,0,1,553.68,602.24Zm-.32,1.44H555v8.5h-1.67Z"/><path class="cls-4" d="M558.41,611.81a3.44,3.44,0,0,1-1.26-1.53,6.18,6.18,0,0,1,0-4.68,3.52,3.52,0,0,1,1.27-1.51,3.32,3.32,0,0,1,1.84-.52,2.86,2.86,0,0,1,1.16.21,2.29,2.29,0,0,1,.74.51,3.77,3.77,0,0,1,.49.66l0,0a.33.33,0,0,1,0,.06h.09v-4.21h1.67v11.33h-1.64v-1.33h-.12a.56.56,0,0,1-.05.08,4.38,4.38,0,0,1-.49.68,2.46,2.46,0,0,1-.75.51,2.81,2.81,0,0,1-1.17.22A3.23,3.23,0,0,1,558.41,611.81Zm3.4-1.26a2.24,2.24,0,0,0,.76-1,4.27,4.27,0,0,0,.26-1.57,4.36,4.36,0,0,0-.25-1.56,2.15,2.15,0,0,0-.76-1,2.16,2.16,0,0,0-2.42,0,2.21,2.21,0,0,0-.76,1,4.21,4.21,0,0,0-.25,1.52,4.15,4.15,0,0,0,.26,1.54,2.27,2.27,0,0,0,.76,1.06,2.09,2.09,0,0,0,2.4,0Z"/><path class="cls-4" d="M567,602.24a1.06,1.06,0,0,1-.39-.37.85.85,0,0,1-.14-.49.9.9,0,0,1,.14-.5,1.12,1.12,0,0,1,.39-.36,1.1,1.1,0,0,1,1,0,1.12,1.12,0,0,1,.39.36,1,1,0,0,1,.14.5.93.93,0,0,1-.14.49,1.06,1.06,0,0,1-.39.37,1.1,1.1,0,0,1-1,0Zm-.32,1.44h1.67v8.5h-1.67Z"/><path class="cls-4" d="M574.31,605h-4.64v-1.33h4.64Zm-1.73-3.37v8a1.5,1.5,0,0,0,.14.7.82.82,0,0,0,.35.34,1.4,1.4,0,0,0,.53.09l.83,0v1.44a7.82,7.82,0,0,1-1,.07,3,3,0,0,1-1.25-.26,2.14,2.14,0,0,1-.9-.76,2.26,2.26,0,0,1-.34-1.25v-8.38Z"/><path class="cls-4" d="M576.08,615.33v-1.4h.75a2,2,0,0,0,.53-.06.79.79,0,0,0,.42-.3,2.62,2.62,0,0,0,.39-.74l.21-.56-3.11-8.61h1.78l2.15,6.59h.08l2.16-6.59h1.78l-3.5,9.63a3.41,3.41,0,0,1-1,1.54,2.78,2.78,0,0,1-1.71.51Q576.4,615.36,576.08,615.33Z"/><path class="cls-4" d="M523.21,620.07h4a4.6,4.6,0,0,1,2.16.47,3.09,3.09,0,0,1,1.32,1.31,4.3,4.3,0,0,1,0,3.79,3.09,3.09,0,0,1-1.32,1.31,4.49,4.49,0,0,1-2.17.48h-2.78V626h2.61a2.8,2.8,0,0,0,1.34-.28,1.83,1.83,0,0,0,.78-.78,2.5,2.5,0,0,0,.25-1.15,2.44,2.44,0,0,0-.25-1.15,1.76,1.76,0,0,0-.78-.77,2.8,2.8,0,0,0-1.34-.28h-2.15v9.85h-1.72Z"/><path class="cls-4" d="M532.86,622.9h1.62v1.36h.08a2.13,2.13,0,0,1,.48-.79,1.93,1.93,0,0,1,.75-.51,2.41,2.41,0,0,1,.93-.18,5.33,5.33,0,0,1,.71,0v1.59l-.39-.07-.48,0a2.21,2.21,0,0,0-1,.24,1.86,1.86,0,0,0-.73.69,1.91,1.91,0,0,0-.26,1v5.18h-1.67Z"/><path class="cls-4" d="M539.91,631a3.73,3.73,0,0,1-1.4-1.54,5.64,5.64,0,0,1,0-4.6,3.7,3.7,0,0,1,1.4-1.55,4.23,4.23,0,0,1,4.17,0,3.67,3.67,0,0,1,1.39,1.55,5.64,5.64,0,0,1,0,4.6,3.71,3.71,0,0,1-1.39,1.54,4.3,4.3,0,0,1-4.17,0Zm3.34-1.25a2.35,2.35,0,0,0,.77-1.08,4.27,4.27,0,0,0,.25-1.51,4.33,4.33,0,0,0-.25-1.52,2.46,2.46,0,0,0-.77-1.08,2,2,0,0,0-1.25-.41,2,2,0,0,0-1.26.4,2.45,2.45,0,0,0-.78,1.09,4.54,4.54,0,0,0,0,3,2.37,2.37,0,0,0,.78,1.08,2.17,2.17,0,0,0,2.51,0Z"/><path class="cls-4" d="M551.51,631.4h-1.79l-3.08-8.5h1.79l2.14,6.53h.09l2.15-6.53h1.79Z"/><path class="cls-4" d="M556.29,621.46a1.12,1.12,0,0,1-.39-.36.86.86,0,0,1-.15-.49.89.89,0,0,1,.15-.5,1.12,1.12,0,0,1,.39-.36,1,1,0,0,1,.52-.13,1.06,1.06,0,0,1,.52.13,1,1,0,0,1,.38.36.89.89,0,0,1,.15.5.86.86,0,0,1-.15.49,1,1,0,0,1-.38.36,1.07,1.07,0,0,1-.52.14A1,1,0,0,1,556.29,621.46ZM556,622.9h1.67v8.5H556Z"/><path class="cls-4" d="M561,631a3.64,3.64,0,0,1-1.27-1.53,5.61,5.61,0,0,1-.46-2.34,5.46,5.46,0,0,1,.47-2.34,3.45,3.45,0,0,1,1.27-1.51,3.3,3.3,0,0,1,1.84-.53A2.89,2.89,0,0,1,564,623a2.1,2.1,0,0,1,.74.51,3.74,3.74,0,0,1,.48.66l0,.05,0,0h.09v-4.21h1.67V631.4h-1.63v-1.32h-.13a.43.43,0,0,1,0,.07,3.63,3.63,0,0,1-.5.68,2.2,2.2,0,0,1-.75.52,2.75,2.75,0,0,1-1.17.22A3.27,3.27,0,0,1,561,631Zm3.4-1.27a2.26,2.26,0,0,0,.76-1,4.41,4.41,0,0,0,.26-1.57,4.31,4.31,0,0,0-.25-1.55,2.22,2.22,0,0,0-.76-1,2.2,2.2,0,0,0-2.43,0,2.32,2.32,0,0,0-.75,1,4.25,4.25,0,0,0-.26,1.52,4.32,4.32,0,0,0,.26,1.54,2.45,2.45,0,0,0,.76,1.07,2.08,2.08,0,0,0,2.41,0Z"/><path class="cls-4" d="M570.75,631a3.58,3.58,0,0,1-1.4-1.53,5.06,5.06,0,0,1-.49-2.3,5.15,5.15,0,0,1,.49-2.3,3.75,3.75,0,0,1,1.38-1.56,3.81,3.81,0,0,1,2.06-.56,4,4,0,0,1,1.88.45,3.33,3.33,0,0,1,1.38,1.4,5.14,5.14,0,0,1,.52,2.43v.59h-6.78v-1.25h5.13a2.42,2.42,0,0,0-.26-1.16,1.91,1.91,0,0,0-.74-.8,2.32,2.32,0,0,0-2.3,0,2.22,2.22,0,0,0-.81.88,2.52,2.52,0,0,0-.29,1.19v1a3.19,3.19,0,0,0,.3,1.44,2.12,2.12,0,0,0,.84.91,2.36,2.36,0,0,0,1.26.32,2.62,2.62,0,0,0,.82-.12,1.88,1.88,0,0,0,.63-.33,1.62,1.62,0,0,0,.39-.48h1.7a3,3,0,0,1-.67,1.21,3.15,3.15,0,0,1-1.23.81,4.53,4.53,0,0,1-1.65.28A4.29,4.29,0,0,1,570.75,631Z"/><path class="cls-4" d="M578.22,622.9h1.62v1.36h.08a2.27,2.27,0,0,1,.48-.79,1.93,1.93,0,0,1,.75-.51,2.41,2.41,0,0,1,.93-.18,5.33,5.33,0,0,1,.71,0v1.59l-.39-.07-.48,0a2.21,2.21,0,0,0-1,.24,1.86,1.86,0,0,0-.73.69,1.91,1.91,0,0,0-.26,1v5.18h-1.67Z"/><g class="cls-10"><rect class="cls-4" x="452.94" y="120.39" width="200" height="55.17"/></g><path class="cls-4" d="M522.65,132.84h1.72v9.85h5.13v1.48h-6.85Z"/><path class="cls-4" d="M531.45,134.23a1.12,1.12,0,0,1-.39-.36.89.89,0,0,1,0-1,1,1,0,0,1,.39-.36,1,1,0,0,1,.52-.13,1.06,1.06,0,0,1,.52.13.88.88,0,0,1,.38.36.89.89,0,0,1,0,1,1,1,0,0,1-.38.36,1.07,1.07,0,0,1-.52.14A1,1,0,0,1,531.45,134.23Zm-.33,1.44h1.67v8.5h-1.67Z"/><path class="cls-4" d="M540.56,142.85h-.09a.43.43,0,0,1,0,.07,3.63,3.63,0,0,1-.5.68,2.15,2.15,0,0,1-.75.51,2.74,2.74,0,0,1-1.17.23,3.27,3.27,0,0,1-1.83-.53,3.64,3.64,0,0,1-1.27-1.53,5.68,5.68,0,0,1-.46-2.34,5.46,5.46,0,0,1,.47-2.34,3.48,3.48,0,0,1,1.27-1.52,3.38,3.38,0,0,1,1.84-.52,2.73,2.73,0,0,1,1.16.22,2.23,2.23,0,0,1,.74.5,5.6,5.6,0,0,1,.48.66.33.33,0,0,0,0,.06l0,.05h.13v-1.38h1.63v11.69h-1.67Zm-1-.31a2.31,2.31,0,0,0,.76-1,4.41,4.41,0,0,0,.26-1.57,4.31,4.31,0,0,0-.25-1.55,2.2,2.2,0,0,0-.76-1,2.18,2.18,0,0,0-2.43,0,2.32,2.32,0,0,0-.75,1,4.21,4.21,0,0,0-.26,1.52,4.32,4.32,0,0,0,.26,1.54,2.51,2.51,0,0,0,.76,1.07,2.12,2.12,0,0,0,2.41,0Z"/><path class="cls-4" d="M549.66,135.67h1.66v8.5h-1.63V142.7h-.09a2.69,2.69,0,0,1-.55.82,2.77,2.77,0,0,1-.87.56,3.06,3.06,0,0,1-1.12.2,2.81,2.81,0,0,1-1.46-.37,2.43,2.43,0,0,1-1-1.09,4,4,0,0,1-.35-1.74v-5.41h1.67v5.2a2.11,2.11,0,0,0,.22,1,1.56,1.56,0,0,0,.61.66,1.67,1.67,0,0,0,.89.24,2.08,2.08,0,0,0,1-.25,2,2,0,0,0,.75-.72,2.19,2.19,0,0,0,.29-1.16Z"/><path class="cls-4" d="M553.68,134.23a1.12,1.12,0,0,1-.39-.36,1,1,0,0,1,.39-1.35,1.06,1.06,0,0,1,.52-.13,1,1,0,0,1,.52.13.9.9,0,0,1,.39.36.95.95,0,0,1,0,1,1.12,1.12,0,0,1-.91.5A1.07,1.07,0,0,1,553.68,134.23Zm-.32,1.44H555v8.5h-1.67Z"/><path class="cls-4" d="M558.41,143.81a3.55,3.55,0,0,1-1.26-1.53,5.52,5.52,0,0,1-.46-2.34,5.46,5.46,0,0,1,.46-2.34,3.55,3.55,0,0,1,1.27-1.52,3.4,3.4,0,0,1,1.84-.52,2.7,2.7,0,0,1,1.16.22,2.13,2.13,0,0,1,.74.5,4.71,4.71,0,0,1,.49.66l0,.06,0,.05h.09v-4.21h1.67v11.33h-1.64v-1.32h-.12l-.05.07a3.6,3.6,0,0,1-.49.68,2.15,2.15,0,0,1-.75.51,2.81,2.81,0,0,1-1.17.23A3.3,3.3,0,0,1,558.41,143.81Zm3.4-1.27a2.24,2.24,0,0,0,.76-1,4.2,4.2,0,0,0,.26-1.57,4.31,4.31,0,0,0-.25-1.55,2.13,2.13,0,0,0-.76-1,2.16,2.16,0,0,0-2.42,0,2.26,2.26,0,0,0-.76,1,4.21,4.21,0,0,0-.25,1.52,4.11,4.11,0,0,0,.26,1.54,2.35,2.35,0,0,0,.76,1.07,2.11,2.11,0,0,0,2.4,0Z"/><path class="cls-4" d="M567,134.23a1.12,1.12,0,0,1-.39-.36.87.87,0,0,1-.14-.49.88.88,0,0,1,.14-.5,1,1,0,0,1,.39-.36,1.11,1.11,0,0,1,1,0,1,1,0,0,1,.39,1.35,1.12,1.12,0,0,1-.39.36,1,1,0,0,1-1,0Zm-.32,1.44h1.67v8.5h-1.67Z"/><path class="cls-4" d="M574.31,137h-4.64v-1.34h4.64Zm-1.73-3.37v8a1.47,1.47,0,0,0,.14.7.76.76,0,0,0,.35.34,1.4,1.4,0,0,0,.53.09l.83,0v1.44a6.41,6.41,0,0,1-1,.07,3,3,0,0,1-1.25-.25,2.17,2.17,0,0,1-.9-.77,2.24,2.24,0,0,1-.34-1.25v-8.37Z"/><path class="cls-4" d="M576.08,147.32v-1.4h.75a2,2,0,0,0,.53-.06.92.92,0,0,0,.42-.3,2.7,2.7,0,0,0,.39-.75l.21-.55-3.11-8.62h1.78l2.15,6.59h.08l2.16-6.59h1.78l-3.5,9.63a3.41,3.41,0,0,1-1,1.54,2.78,2.78,0,0,1-1.71.52A7,7,0,0,1,576.08,147.32Z"/><path class="cls-4" d="M523.21,152.06h4a4.48,4.48,0,0,1,2.16.48,3,3,0,0,1,1.32,1.3,4.32,4.32,0,0,1,0,3.8,3.07,3.07,0,0,1-1.32,1.3,4.49,4.49,0,0,1-2.17.48h-2.78V158h2.61a2.8,2.8,0,0,0,1.34-.29,1.83,1.83,0,0,0,.78-.78,2.77,2.77,0,0,0,0-2.3,1.76,1.76,0,0,0-.78-.77,2.8,2.8,0,0,0-1.34-.28h-2.15v9.86h-1.72Z"/><path class="cls-4" d="M532.86,154.9h1.62v1.35h.08a2.21,2.21,0,0,1,.48-.79,2.17,2.17,0,0,1,.75-.51,2.41,2.41,0,0,1,.93-.18,5.33,5.33,0,0,1,.71,0v1.59l-.39-.06a2.74,2.74,0,0,0-.48,0,2.22,2.22,0,0,0-1,.25,1.84,1.84,0,0,0-.73.68,1.92,1.92,0,0,0-.26,1v5.18h-1.67Z"/><path class="cls-4" d="M539.91,163a3.73,3.73,0,0,1-1.4-1.54,5.64,5.64,0,0,1,0-4.6,3.61,3.61,0,0,1,1.4-1.54,4.23,4.23,0,0,1,4.17,0,3.59,3.59,0,0,1,1.39,1.54,5.64,5.64,0,0,1,0,4.6,3.71,3.71,0,0,1-1.39,1.54,4.23,4.23,0,0,1-4.17,0Zm3.34-1.24a2.46,2.46,0,0,0,.77-1.08,4.75,4.75,0,0,0,0-3,2.46,2.46,0,0,0-.77-1.08,2.17,2.17,0,0,0-2.51,0,2.48,2.48,0,0,0-.78,1.08,4.57,4.57,0,0,0,0,3,2.48,2.48,0,0,0,.78,1.08,2.21,2.21,0,0,0,2.51,0Z"/><path class="cls-4" d="M551.51,163.4h-1.79l-3.08-8.5h1.79l2.14,6.53h.09l2.15-6.53h1.79Z"/><path class="cls-4" d="M556.29,153.46a1.06,1.06,0,0,1-.39-.37.86.86,0,0,1-.15-.49.89.89,0,0,1,.15-.5,1.12,1.12,0,0,1,.39-.36,1.14,1.14,0,0,1,.52-.13,1.18,1.18,0,0,1,.52.13,1,1,0,0,1,.38.36.89.89,0,0,1,.15.5.86.86,0,0,1-.15.49,1,1,0,0,1-.38.37,1.06,1.06,0,0,1-.52.13A1,1,0,0,1,556.29,153.46ZM556,154.9h1.67v8.5H556Z"/><path class="cls-4" d="M561,163a3.52,3.52,0,0,1-1.27-1.53,5.61,5.61,0,0,1-.46-2.34,5.46,5.46,0,0,1,.47-2.34,3.45,3.45,0,0,1,1.27-1.51,3.3,3.3,0,0,1,1.84-.52A2.9,2.9,0,0,1,564,155a2.4,2.4,0,0,1,.74.51,3.74,3.74,0,0,1,.48.66l0,.05,0,.06h.09v-4.22h1.67V163.4h-1.63v-1.33h-.13l0,.08a4.42,4.42,0,0,1-.5.68,2.34,2.34,0,0,1-.75.51,2.75,2.75,0,0,1-1.17.22A3.19,3.19,0,0,1,561,163Zm3.4-1.26a2.31,2.31,0,0,0,.76-1.05,4.49,4.49,0,0,0,.26-1.57,4.36,4.36,0,0,0-.25-1.56,2.22,2.22,0,0,0-.76-1,2,2,0,0,0-1.2-.36,1.94,1.94,0,0,0-1.23.38,2.26,2.26,0,0,0-.75,1,4.21,4.21,0,0,0-.26,1.52,4.36,4.36,0,0,0,.26,1.54,2.42,2.42,0,0,0,.76,1.06,1.94,1.94,0,0,0,1.22.39A1.92,1.92,0,0,0,564.42,161.77Z"/><path class="cls-4" d="M570.75,163a3.58,3.58,0,0,1-1.4-1.53,5,5,0,0,1-.49-2.3,5.15,5.15,0,0,1,.49-2.3,3.75,3.75,0,0,1,1.38-1.56,3.8,3.8,0,0,1,2.06-.55,4.1,4.1,0,0,1,1.88.44,3.35,3.35,0,0,1,1.38,1.41,5.07,5.07,0,0,1,.52,2.42v.59h-6.78V158.4h5.13a2.45,2.45,0,0,0-.26-1.16,1.88,1.88,0,0,0-.74-.79,2.29,2.29,0,0,0-2.3,0,2.28,2.28,0,0,0-.81.88,2.55,2.55,0,0,0-.29,1.19v1a3.15,3.15,0,0,0,.3,1.43,2.15,2.15,0,0,0,.84.92,2.46,2.46,0,0,0,1.26.32,2.35,2.35,0,0,0,.82-.13,1.88,1.88,0,0,0,.63-.33,1.62,1.62,0,0,0,.39-.48h1.7a2.88,2.88,0,0,1-.67,1.21,3.15,3.15,0,0,1-1.23.81,4.53,4.53,0,0,1-1.65.29A4.2,4.2,0,0,1,570.75,163Z"/><path class="cls-4" d="M578.22,154.9h1.62v1.35h.08a2.36,2.36,0,0,1,.48-.79,2.17,2.17,0,0,1,.75-.51,2.41,2.41,0,0,1,.93-.18,5.33,5.33,0,0,1,.71,0v1.59l-.39-.06a2.74,2.74,0,0,0-.48,0,2.22,2.22,0,0,0-1,.25,1.84,1.84,0,0,0-.73.68,1.92,1.92,0,0,0-.26,1v5.18h-1.67Z"/><g class="cls-6"><g class="cls-11"><line class="cls-12" x1="400.97" y1="505.28" x2="190.58" y2="725.35"/><line class="cls-12" x1="396.41" y1="505.3" x2="186.02" y2="725.36"/><line class="cls-12" x1="391.86" y1="505.32" x2="181.47" y2="725.38"/><line class="cls-12" x1="387.3" y1="505.34" x2="176.92" y2="725.4"/><line class="cls-12" x1="382.75" y1="505.36" x2="172.36" y2="725.42"/><line class="cls-12" x1="378.2" y1="505.37" x2="167.81" y2="725.44"/><line class="cls-12" x1="373.64" y1="505.39" x2="163.25" y2="725.45"/><line class="cls-12" x1="369.09" y1="505.41" x2="158.7" y2="725.47"/><line class="cls-12" x1="364.53" y1="505.43" x2="154.14" y2="725.49"/><line class="cls-12" x1="359.98" y1="505.45" x2="149.59" y2="725.51"/><line class="cls-12" x1="355.42" y1="505.47" x2="145.03" y2="725.53"/><line class="cls-12" x1="350.87" y1="505.48" x2="140.48" y2="725.54"/><line class="cls-12" x1="346.31" y1="505.5" x2="135.93" y2="725.56"/><line class="cls-12" x1="341.76" y1="505.52" x2="131.37" y2="725.58"/><line class="cls-12" x1="337.21" y1="505.54" x2="126.82" y2="725.6"/><line class="cls-12" x1="332.65" y1="505.56" x2="122.26" y2="725.62"/><line class="cls-12" x1="328.1" y1="505.57" x2="117.71" y2="725.63"/><line class="cls-12" x1="323.54" y1="505.59" x2="113.15" y2="725.65"/><line class="cls-12" x1="318.99" y1="505.61" x2="108.6" y2="725.67"/><line class="cls-12" x1="314.43" y1="505.63" x2="104.05" y2="725.69"/><line class="cls-12" x1="309.88" y1="505.65" x2="99.49" y2="725.71"/><line class="cls-12" x1="305.33" y1="505.66" x2="94.94" y2="725.72"/><line class="cls-12" x1="300.77" y1="505.68" x2="90.38" y2="725.74"/><line class="cls-12" x1="296.22" y1="505.7" x2="85.83" y2="725.76"/><line class="cls-12" x1="291.66" y1="505.72" x2="81.27" y2="725.78"/><line class="cls-12" x1="287.11" y1="505.74" x2="76.72" y2="725.8"/><line class="cls-12" x1="282.55" y1="505.75" x2="72.16" y2="725.82"/><line class="cls-12" x1="278" y1="505.77" x2="67.61" y2="725.83"/><line class="cls-12" x1="273.44" y1="505.79" x2="63.06" y2="725.85"/><line class="cls-12" x1="268.89" y1="505.81" x2="58.5" y2="725.87"/><line class="cls-12" x1="264.34" y1="505.83" x2="53.95" y2="725.89"/><line class="cls-12" x1="259.78" y1="505.84" x2="49.39" y2="725.91"/><line class="cls-12" x1="255.23" y1="505.86" x2="44.84" y2="725.92"/><line class="cls-12" x1="250.67" y1="505.88" x2="40.28" y2="725.94"/><line class="cls-12" x1="246.12" y1="505.9" x2="35.73" y2="725.96"/><line class="cls-12" x1="241.56" y1="505.92" x2="31.18" y2="725.98"/><line class="cls-12" x1="237.01" y1="505.94" x2="26.62" y2="726"/><line class="cls-12" x1="232.46" y1="505.95" x2="22.07" y2="726.01"/><line class="cls-12" x1="227.9" y1="505.97" x2="17.51" y2="726.03"/><line class="cls-12" x1="223.35" y1="505.99" x2="12.96" y2="726.05"/><line class="cls-12" x1="218.79" y1="506.01" x2="8.4" y2="726.07"/><line class="cls-12" x1="214.24" y1="506.03" x2="3.85" y2="726.09"/><line class="cls-12" x1="209.68" y1="506.04" x2="-0.7" y2="726.1"/><line class="cls-12" x1="205.13" y1="506.06" x2="-5.26" y2="726.12"/><line class="cls-12" x1="200.58" y1="506.08" x2="-9.81" y2="726.14"/><line class="cls-12" x1="196.02" y1="506.1" x2="-14.37" y2="726.16"/><line class="cls-12" x1="191.47" y1="506.12" x2="-18.92" y2="726.18"/><line class="cls-12" x1="186.91" y1="506.13" x2="-23.48" y2="726.19"/><line class="cls-12" x1="182.36" y1="506.15" x2="-28.03" y2="726.21"/><line class="cls-12" x1="177.8" y1="506.17" x2="-32.59" y2="726.23"/><line class="cls-12" x1="173.25" y1="506.19" x2="-37.14" y2="726.25"/><line class="cls-12" x1="168.69" y1="506.21" x2="-41.69" y2="726.27"/><line class="cls-12" x1="164.14" y1="506.22" x2="-46.25" y2="726.29"/><line class="cls-12" x1="159.59" y1="506.24" x2="-50.8" y2="726.3"/><line class="cls-12" x1="155.03" y1="506.26" x2="-55.36" y2="726.32"/><line class="cls-12" x1="150.48" y1="506.28" x2="-59.91" y2="726.34"/><line class="cls-12" x1="145.92" y1="506.3" x2="-64.47" y2="726.36"/><line class="cls-12" x1="141.37" y1="506.31" x2="-69.02" y2="726.38"/><line class="cls-12" x1="136.81" y1="506.33" x2="-73.57" y2="726.39"/><line class="cls-12" x1="132.26" y1="506.35" x2="-78.13" y2="726.41"/><line class="cls-12" x1="127.71" y1="506.37" x2="-82.68" y2="726.43"/><line class="cls-12" x1="123.15" y1="506.39" x2="-87.24" y2="726.45"/><line class="cls-12" x1="118.6" y1="506.4" x2="-91.79" y2="726.47"/><line class="cls-12" x1="114.04" y1="506.42" x2="-96.35" y2="726.48"/><line class="cls-12" x1="109.49" y1="506.44" x2="-100.9" y2="726.5"/><line class="cls-12" x1="104.93" y1="506.46" x2="-105.45" y2="726.52"/><line class="cls-12" x1="100.38" y1="506.48" x2="-110.01" y2="726.54"/><line class="cls-12" x1="95.83" y1="506.5" x2="-114.56" y2="726.56"/><line class="cls-12" x1="91.27" y1="506.51" x2="-119.12" y2="726.57"/><line class="cls-12" x1="86.72" y1="506.53" x2="-123.67" y2="726.59"/><line class="cls-12" x1="82.16" y1="506.55" x2="-128.23" y2="726.61"/><line class="cls-12" x1="77.61" y1="506.57" x2="-132.78" y2="726.63"/><line class="cls-12" x1="73.05" y1="506.59" x2="-137.34" y2="726.65"/><line class="cls-12" x1="68.5" y1="506.6" x2="-141.89" y2="726.66"/><line class="cls-12" x1="63.94" y1="506.62" x2="-146.44" y2="726.68"/></g></g><path class="cls-4" d="M91.69,593.4h3v14.38h7.48v2.57H91.69Z"/><path class="cls-4" d="M105.16,595.6a1.76,1.76,0,0,1-.63-.58,1.5,1.5,0,0,1,0-1.63,1.7,1.7,0,0,1,.63-.59,1.81,1.81,0,0,1,.87-.21,1.85,1.85,0,0,1,.86.21,1.6,1.6,0,0,1,.62.59,1.5,1.5,0,0,1,0,1.63,1.65,1.65,0,0,1-.62.58,1.75,1.75,0,0,1-.86.22A1.71,1.71,0,0,1,105.16,595.6Zm-.63,2h3v12.71h-3Z"/><path class="cls-4" d="M118.86,608.35h-.11a.63.63,0,0,1-.07.12,4.4,4.4,0,0,1-.75,1,3.39,3.39,0,0,1-1.14.76,4.11,4.11,0,0,1-1.69.31,4.8,4.8,0,0,1-2.7-.78,5.16,5.16,0,0,1-1.86-2.25,8.33,8.33,0,0,1-.68-3.53,8.42,8.42,0,0,1,.68-3.53,5.16,5.16,0,0,1,1.89-2.25,5,5,0,0,1,2.68-.76,4.18,4.18,0,0,1,1.69.31,3.39,3.39,0,0,1,1.12.76,5.52,5.52,0,0,1,.73,1l.06.08a.36.36,0,0,0,0,.09h.17v-2.09h2.92v17.48h-3Zm-1.31-.73a3.22,3.22,0,0,0,1-1.45,6,6,0,0,0,.36-2.18,5.92,5.92,0,0,0-.36-2.16,3,3,0,0,0-1-1.42,2.72,2.72,0,0,0-1.64-.49,2.66,2.66,0,0,0-1.65.51,3.17,3.17,0,0,0-1,1.44,6.6,6.6,0,0,0,0,4.27,3.31,3.31,0,0,0,1,1.46,2.54,2.54,0,0,0,1.64.53A2.66,2.66,0,0,0,117.55,607.62Z"/><path class="cls-4" d="M132.82,597.64h3v12.71h-2.89V608.1h-.13a3.69,3.69,0,0,1-.83,1.26,3.91,3.91,0,0,1-1.3.85,4.54,4.54,0,0,1-1.69.31,4.27,4.27,0,0,1-2.22-.57,4,4,0,0,1-1.49-1.64,5.85,5.85,0,0,1-.53-2.58v-8.09h3v7.64a2.94,2.94,0,0,0,.31,1.39,2.18,2.18,0,0,0,.84.91,2.37,2.37,0,0,0,1.26.33,2.7,2.7,0,0,0,1.32-.34,2.63,2.63,0,0,0,1-1,3,3,0,0,0,.38-1.59Z"/><path class="cls-4" d="M139.31,595.6a1.76,1.76,0,0,1-.63-.58,1.5,1.5,0,0,1,0-1.63,1.7,1.7,0,0,1,.63-.59,1.87,1.87,0,0,1,1.72,0,1.56,1.56,0,0,1,.63.59,1.56,1.56,0,0,1,0,1.63,1.61,1.61,0,0,1-.63.58,1.79,1.79,0,0,1-1.72,0Zm-.63,2h3v12.71h-3Z"/><path class="cls-4" d="M146.55,609.79a5.24,5.24,0,0,1-1.87-2.25A8.49,8.49,0,0,1,144,604a8.27,8.27,0,0,1,.68-3.53,5.21,5.21,0,0,1,1.88-2.25,5,5,0,0,1,2.69-.76,4.18,4.18,0,0,1,1.69.31,3.39,3.39,0,0,1,1.12.76,5.52,5.52,0,0,1,.73,1l0,.08,0,.09H153V593.4h3v17h-2.92v-2h-.18l-.06.12a5.06,5.06,0,0,1-.75,1,3.39,3.39,0,0,1-1.14.76,4.15,4.15,0,0,1-1.69.31A4.8,4.8,0,0,1,146.55,609.79Zm5.14-2.17a3.16,3.16,0,0,0,1-1.45,6,6,0,0,0,.35-2.18,5.93,5.93,0,0,0-.35-2.16,3,3,0,0,0-1-1.42,2.94,2.94,0,0,0-3.28,0,3.17,3.17,0,0,0-1,1.44,6.6,6.6,0,0,0,0,4.27,3.31,3.31,0,0,0,1,1.46,2.54,2.54,0,0,0,1.64.53A2.61,2.61,0,0,0,151.69,607.62Z"/><path class="cls-4" d="M159.64,595.6A1.76,1.76,0,0,1,159,595a1.5,1.5,0,0,1,0-1.63,1.7,1.7,0,0,1,.63-.59,1.86,1.86,0,0,1,.87-.21,1.79,1.79,0,0,1,.86.21,1.63,1.63,0,0,1,.63.59,1.56,1.56,0,0,1,0,1.63,1.78,1.78,0,0,1-1.49.8A1.76,1.76,0,0,1,159.64,595.6Zm-.63,2h3v12.71h-3Z"/><path class="cls-4" d="M171.19,599.94H163.9v-2.3h7.29Zm-2.5-5.35v11.94a1.89,1.89,0,0,0,.18.9,1.07,1.07,0,0,0,.47.45,2,2,0,0,0,.71.14c.23,0,.67,0,1.31-.06v2.44a10.73,10.73,0,0,1-1.69.12,5,5,0,0,1-2-.39,3.12,3.12,0,0,1-1.41-1.17,3.32,3.32,0,0,1-.51-1.94V594.59Z"/><path class="cls-4" d="M173.73,615.06v-2.39h.51l.75,0a3.13,3.13,0,0,0,.75-.08,1.13,1.13,0,0,0,.57-.39,2.94,2.94,0,0,0,.52-1l.26-.68-4.62-13h3.17l2.93,9.61h.14l2.95-9.61h3.17l-5.1,14.26a5,5,0,0,1-1.64,2.39,4.52,4.52,0,0,1-2.82.83A15.37,15.37,0,0,1,173.73,615.06Z"/><path class="cls-4" d="M115.08,622.16h6.34a6.81,6.81,0,0,1,3.25.72,4.87,4.87,0,0,1,2,2,6.13,6.13,0,0,1,.68,2.91,6,6,0,0,1-.69,2.92,4.88,4.88,0,0,1-2,2,6.92,6.92,0,0,1-3.27.72h-4.22v-2.51H121a4,4,0,0,0,1.86-.39,2.63,2.63,0,0,0,1.1-1.09,3.9,3.9,0,0,0,0-3.23,2.53,2.53,0,0,0-1.1-1.07,4.15,4.15,0,0,0-1.87-.38h-2.84v14.4h-3Z"/><path class="cls-4" d="M131.88,638.54a5.45,5.45,0,0,1-2.13-2.3,7.5,7.5,0,0,1-.75-3.43,7.59,7.59,0,0,1,.75-3.45,5.53,5.53,0,0,1,2.13-2.31,6.71,6.71,0,0,1,6.43,0,5.51,5.51,0,0,1,2.12,2.31,7.58,7.58,0,0,1,.74,3.45,7.5,7.5,0,0,1-.74,3.43,5.43,5.43,0,0,1-2.12,2.3,6.71,6.71,0,0,1-6.43,0Zm4.9-2.11a3.34,3.34,0,0,0,1-1.5,6.18,6.18,0,0,0,.34-2.13,6.3,6.3,0,0,0-.34-2.15,3.34,3.34,0,0,0-1-1.5,2.82,2.82,0,0,0-3.37,0,3.35,3.35,0,0,0-1,1.5,6.06,6.06,0,0,0-.36,2.15,6,6,0,0,0,.36,2.13,3.35,3.35,0,0,0,1,1.5,2.86,2.86,0,0,0,3.37,0Z"/><path class="cls-4" d="M145.84,638.54a5.45,5.45,0,0,1-2.13-2.3,7.5,7.5,0,0,1-.75-3.43,7.59,7.59,0,0,1,.75-3.45,5.53,5.53,0,0,1,2.13-2.31,6.71,6.71,0,0,1,6.43,0,5.45,5.45,0,0,1,2.12,2.31,7.59,7.59,0,0,1,.75,3.45,7.5,7.5,0,0,1-.75,3.43,5.37,5.37,0,0,1-2.12,2.3,6.71,6.71,0,0,1-6.43,0Zm4.9-2.11a3.26,3.26,0,0,0,1-1.5,6.18,6.18,0,0,0,.35-2.13,6.3,6.3,0,0,0-.35-2.15,3.26,3.26,0,0,0-1-1.5,2.56,2.56,0,0,0-1.68-.56,2.61,2.61,0,0,0-1.69.56,3.35,3.35,0,0,0-1,1.5,6.06,6.06,0,0,0-.35,2.15,6,6,0,0,0,.35,2.13,3.35,3.35,0,0,0,1,1.5,2.66,2.66,0,0,0,1.69.55A2.61,2.61,0,0,0,150.74,636.43Z"/><path class="cls-4" d="M160.45,639.11h-3v-17h3Z"/><path class="cls-3" d="M60.66,549.12A102.4,102.4,0,0,0,44.5,574.45m0,0a102.15,102.15,0,1,0,16.16-25.33"/><g class="cls-8"><line class="cls-9" x1="254.96" y1="622.24" x2="430.5" y2="622.24"/><polygon class="cls-4" points="429.04 627.23 437.67 622.25 429.04 617.26 429.04 627.23"/></g><g class="cls-8"><line class="cls-9" x1="262.13" y1="609.72" x2="437.67" y2="609.72"/><polygon class="cls-4" points="263.59 614.71 254.96 609.72 263.59 604.74 263.59 614.71"/></g><path class="cls-4" d="M299.29,628.2h1.39v8h4.17v1.2h-5.56Z"/><path class="cls-4" d="M306.27,628.2h3.29a3.62,3.62,0,0,1,1.75.38,2.49,2.49,0,0,1,1.08,1,3.59,3.59,0,0,1,0,3.09,2.63,2.63,0,0,1-1.08,1.06,3.62,3.62,0,0,1-1.75.39H307.3V633h2.12a2.33,2.33,0,0,0,1.08-.23,1.44,1.44,0,0,0,.63-.64,2.19,2.19,0,0,0,0-1.87,1.4,1.4,0,0,0-.63-.62,2.35,2.35,0,0,0-1.09-.23h-1.74v8h-1.4Z"/><path class="cls-4" d="M316.93,628.2h7.12v1.2h-2.86v8H319.8v-8h-2.87Z"/><path class="cls-4" d="M325.58,637.08a2.94,2.94,0,0,1-1.14-1.25A4.18,4.18,0,0,1,324,634a4.25,4.25,0,0,1,.4-1.87,2.94,2.94,0,0,1,1.14-1.25,3.4,3.4,0,0,1,3.38,0,2.9,2.9,0,0,1,1.12,1.25,4.12,4.12,0,0,1,.4,1.87,4,4,0,0,1-.4,1.86,2.9,2.9,0,0,1-1.12,1.25,3.4,3.4,0,0,1-3.38,0Zm2.71-1a1.88,1.88,0,0,0,.62-.87,3.71,3.71,0,0,0,0-2.46,2,2,0,0,0-.62-.88,1.6,1.6,0,0,0-1-.33,1.58,1.58,0,0,0-1,.33,1.92,1.92,0,0,0-.63.88,3.71,3.71,0,0,0,0,2.46,1.89,1.89,0,0,0,.63.87,1.58,1.58,0,0,0,1,.33A1.6,1.6,0,0,0,328.29,636.07Z"/><path class="cls-4" d="M331.82,628.2h1.36v9.19h-1.36Zm1.24,5.21h.24l2.73-2.92h1.62l-3.13,3.33h-.21l-1.24,1.23Zm.66.71.93-1,3.19,4.22h-1.66Z"/><path class="cls-4" d="M339.66,637.09a2.8,2.8,0,0,1-1.14-1.24,4,4,0,0,1-.4-1.86,4.15,4.15,0,0,1,.4-1.87,3,3,0,0,1,2.79-1.72,3.15,3.15,0,0,1,1.53.37A2.69,2.69,0,0,1,344,631.9a4.13,4.13,0,0,1,.43,2v.48h-5.5v-1H343a2,2,0,0,0-.21-.94,1.64,1.64,0,0,0-.6-.65,1.8,1.8,0,0,0-.9-.23,1.75,1.75,0,0,0-1,.27,1.88,1.88,0,0,0-.66.71,2.13,2.13,0,0,0-.23,1v.78a2.58,2.58,0,0,0,.24,1.16,1.77,1.77,0,0,0,.68.75,2,2,0,0,0,1,.25,2.29,2.29,0,0,0,.66-.09,1.76,1.76,0,0,0,.51-.27,1.45,1.45,0,0,0,.32-.39h1.38a2.44,2.44,0,0,1-.55,1,2.69,2.69,0,0,1-1,.66,3.8,3.8,0,0,1-1.34.23A3.39,3.39,0,0,1,339.66,637.09Z"/><path class="cls-4" d="M347.07,637.39h-1.35v-6.9H347v1.13h.08a2.29,2.29,0,0,1,.45-.65,2,2,0,0,1,.68-.42,2.59,2.59,0,0,1,.91-.15,2.5,2.5,0,0,1,1.24.3,2.06,2.06,0,0,1,.82.88,3.24,3.24,0,0,1,.29,1.42v4.39h-1.36v-4.22a2.09,2.09,0,0,0-.17-.86,1.27,1.27,0,0,0-.5-.55,1.61,1.61,0,0,0-.78-.18,1.57,1.57,0,0,0-.83.2,1.47,1.47,0,0,0-.57.59,1.94,1.94,0,0,0-.21.93Z"/><path class="cls-4" d="M356.41,628.2h3.29a3.84,3.84,0,0,1,1.75.36,2.33,2.33,0,0,1,1.07,1,3,3,0,0,1,.36,1.51,3.13,3.13,0,0,1-.35,1.5,2.39,2.39,0,0,1-1.07,1,4.07,4.07,0,0,1-1.77.35H357.2v-1.2h2.35a2.67,2.67,0,0,0,1.1-.2,1.29,1.29,0,0,0,.62-.55,1.75,1.75,0,0,0,.2-.89,1.83,1.83,0,0,0-.2-.91,1.33,1.33,0,0,0-.63-.58,2.62,2.62,0,0,0-1.09-.2h-1.74v8h-1.4Zm6.82,9.19h-1.59l-2.23-4.15H361Z"/><path class="cls-4" d="M365.45,637.09a2.92,2.92,0,0,1-1.14-1.24,4.18,4.18,0,0,1-.39-1.86,4.28,4.28,0,0,1,.39-1.87,3.05,3.05,0,0,1,1.12-1.26,3,3,0,0,1,1.67-.46,3.15,3.15,0,0,1,1.53.37,2.71,2.71,0,0,1,1.12,1.13,4.14,4.14,0,0,1,.42,2v.48h-5.5v-1h4.17a2,2,0,0,0-.22-.94,1.57,1.57,0,0,0-.6-.65,1.82,1.82,0,0,0-2.52.75,2.14,2.14,0,0,0-.24,1v.78a2.58,2.58,0,0,0,.24,1.16,1.79,1.79,0,0,0,.69.75,2,2,0,0,0,1,.25,2.31,2.31,0,0,0,.67-.09,1.7,1.7,0,0,0,.5-.27,1.49,1.49,0,0,0,.33-.39h1.37a2.31,2.31,0,0,1-.54,1,2.82,2.82,0,0,1-1,.66,3.8,3.8,0,0,1-1.34.23A3.42,3.42,0,0,1,365.45,637.09Z"/><path class="cls-4" d="M371,630.49h1.4l1.34,5.06h.07l1.35-5.06h1.4l1.34,5h.07l1.33-5h1.4l-2,6.9h-1.38l-1.4-5h-.1l-1.39,5H373Z"/><path class="cls-4" d="M385.16,634.32l-.93.06a2.09,2.09,0,0,0-1.07.32.87.87,0,0,0-.37.76.92.92,0,0,0,.16.55,1.07,1.07,0,0,0,.46.34,2,2,0,0,0,.68.11,1.89,1.89,0,0,0,.94-.22,1.47,1.47,0,0,0,.61-.57,1.49,1.49,0,0,0,.21-.77v-2.17a1.26,1.26,0,0,0-.16-.67,1.07,1.07,0,0,0-.47-.42,2.17,2.17,0,0,0-1.45,0,1.29,1.29,0,0,0-.49.31,1.13,1.13,0,0,0-.26.45h-1.35a2,2,0,0,1,.43-1,2.31,2.31,0,0,1,1-.7,3.65,3.65,0,0,1,1.41-.26,3.85,3.85,0,0,1,1.27.21,2.11,2.11,0,0,1,1,.74,2.3,2.3,0,0,1,.42,1.46v4.58h-1.32v-.94h-.05a1.93,1.93,0,0,1-1.09.93,2.56,2.56,0,0,1-.95.16,2.7,2.7,0,0,1-1.19-.25,2,2,0,0,1-.84-.72,2,2,0,0,1-.3-1.13,1.65,1.65,0,0,1,.72-1.52,3.88,3.88,0,0,1,1.85-.54l.74,0,.8,0,.35,0,0,1Z"/><path class="cls-4" d="M388.84,630.49h1.31v1.1h.07a1.73,1.73,0,0,1,.38-.64,2,2,0,0,1,.61-.42,2.14,2.14,0,0,1,.76-.14,5.35,5.35,0,0,1,.58,0v1.3l-.32-.06-.39,0a1.84,1.84,0,0,0-.85.2,1.55,1.55,0,0,0-.8,1.36v4.2h-1.35Z"/><path class="cls-4" d="M394.43,637.09a2.83,2.83,0,0,1-1-1.24,5,5,0,0,1,0-3.79,2.8,2.8,0,0,1,1-1.23,2.71,2.71,0,0,1,1.49-.43,2.22,2.22,0,0,1,.94.18,1.76,1.76,0,0,1,.6.41,3.78,3.78,0,0,1,.4.54l0,0a.05.05,0,0,1,0,0H398V628.2h1.35v9.19H398v-1.07h-.11l0,0a3.49,3.49,0,0,1-.4.56,1.91,1.91,0,0,1-.61.41,2.3,2.3,0,0,1-.95.18A2.61,2.61,0,0,1,394.43,637.09Zm2.76-1a1.86,1.86,0,0,0,.62-.86,3.52,3.52,0,0,0,.21-1.27,3.47,3.47,0,0,0-.21-1.26,1.76,1.76,0,0,0-.61-.83,1.67,1.67,0,0,0-1-.29,1.62,1.62,0,0,0-1,.3,1.85,1.85,0,0,0-.61.85,3.37,3.37,0,0,0-.21,1.23,3.45,3.45,0,0,0,.21,1.25,2,2,0,0,0,.62.87,1.55,1.55,0,0,0,1,.31A1.58,1.58,0,0,0,397.19,636.07Z"/><path class="cls-4" d="M278.22,578.92h1.39v8h4.16v1.2h-5.55Z"/><path class="cls-4" d="M285.36,580.05a.84.84,0,0,1-.32-.3.69.69,0,0,1-.12-.39A.73.73,0,0,1,285,579a.81.81,0,0,1,.32-.29.86.86,0,0,1,.84,0,.75.75,0,0,1,.32.29.81.81,0,0,1,.11.41.79.79,0,0,1-.43.69.86.86,0,0,1-.84,0Zm-.26,1.17h1.35v6.89H285.1Z"/><path class="cls-4" d="M292.75,587h-.07a.21.21,0,0,1,0,.06,2.88,2.88,0,0,1-.4.55,1.82,1.82,0,0,1-.61.42,2.27,2.27,0,0,1-.95.18,2.73,2.73,0,0,1-1.49-.43,2.94,2.94,0,0,1-1-1.24,5.06,5.06,0,0,1,0-3.8,2.93,2.93,0,0,1,1-1.23,2.73,2.73,0,0,1,1.5-.42,2.43,2.43,0,0,1,.94.17,1.91,1.91,0,0,1,.6.41,3.74,3.74,0,0,1,.39.54l0,0,0,.05h.1v-1.12h1.33v9.48h-1.36Zm-.79-.25a1.82,1.82,0,0,0,.61-.85,3.56,3.56,0,0,0,.21-1.27,3.49,3.49,0,0,0-.2-1.27,1.81,1.81,0,0,0-.62-.83,1.64,1.64,0,0,0-1-.29,1.61,1.61,0,0,0-1,.31,1.84,1.84,0,0,0-.61.84,3.4,3.4,0,0,0-.2,1.24,3.52,3.52,0,0,0,.21,1.25,2,2,0,0,0,.61.86,1.56,1.56,0,0,0,1,.31A1.62,1.62,0,0,0,292,586.79Z"/><path class="cls-4" d="M300.14,581.22h1.34v6.89h-1.32v-1.19h-.07a2.15,2.15,0,0,1-.45.66,2.24,2.24,0,0,1-.7.46,2.42,2.42,0,0,1-.91.16,2.31,2.31,0,0,1-1.19-.3,1.89,1.89,0,0,1-.79-.88,3.08,3.08,0,0,1-.29-1.42v-4.38h1.36v4.22a1.73,1.73,0,0,0,.18.81,1.26,1.26,0,0,0,.49.53,1.35,1.35,0,0,0,.73.19,1.58,1.58,0,0,0,1.38-.78,1.75,1.75,0,0,0,.24-.94Z"/><path class="cls-4" d="M303.4,580.05a.84.84,0,0,1-.32-.3.69.69,0,0,1-.12-.39.73.73,0,0,1,.12-.41.81.81,0,0,1,.32-.29.86.86,0,0,1,.84,0,.75.75,0,0,1,.32.29.81.81,0,0,1,.11.41.79.79,0,0,1-.43.69.86.86,0,0,1-.84,0Zm-.26,1.17h1.35v6.89h-1.35Z"/><path class="cls-4" d="M307.24,587.82a2.89,2.89,0,0,1-1-1.24,5.06,5.06,0,0,1,0-3.8,2.93,2.93,0,0,1,1-1.23,2.73,2.73,0,0,1,1.5-.42,2.43,2.43,0,0,1,.94.17,1.91,1.91,0,0,1,.6.41,3.74,3.74,0,0,1,.39.54l0,0,0,.05h.07v-3.42h1.36v9.19h-1.33V587h-.1l0,.06a2.88,2.88,0,0,1-.4.55,1.82,1.82,0,0,1-.61.42,2.24,2.24,0,0,1-.95.18A2.67,2.67,0,0,1,307.24,587.82Zm2.76-1a1.82,1.82,0,0,0,.61-.85,3.56,3.56,0,0,0,.21-1.27,3.49,3.49,0,0,0-.2-1.27,1.86,1.86,0,0,0-.61-.83,1.69,1.69,0,0,0-1-.29,1.61,1.61,0,0,0-1,.31,1.84,1.84,0,0,0-.61.84,3.4,3.4,0,0,0-.2,1.24,3.52,3.52,0,0,0,.21,1.25,2,2,0,0,0,.61.86,1.56,1.56,0,0,0,1,.31A1.6,1.6,0,0,0,310,586.79Z"/><path class="cls-4" d="M314.17,580.05a.81.81,0,0,1-.31-.3.69.69,0,0,1-.12-.39.73.73,0,0,1,.12-.41.78.78,0,0,1,.31-.29.89.89,0,0,1,.43-.11.88.88,0,0,1,.42.11.78.78,0,0,1,.31.29.72.72,0,0,1,.11.41.68.68,0,0,1-.11.39.81.81,0,0,1-.31.3.88.88,0,0,1-.42.11A.89.89,0,0,1,314.17,580.05Zm-.26,1.17h1.35v6.89h-1.35Z"/><path class="cls-4" d="M320.14,582.3h-3.77v-1.08h3.77Zm-1.41-2.73v6.51a1.1,1.1,0,0,0,.12.57.58.58,0,0,0,.28.28,1.11,1.11,0,0,0,.43.07c.12,0,.34,0,.67,0v1.16a5.17,5.17,0,0,1-.84.06,2.51,2.51,0,0,1-1-.2,1.79,1.79,0,0,1-.74-.62,1.85,1.85,0,0,1-.27-1v-6.79Z"/><path class="cls-4" d="M321.57,590.67v-1.13h.61a1.8,1.8,0,0,0,.43,0,.74.74,0,0,0,.34-.25,2,2,0,0,0,.32-.6l.17-.45-2.53-7h1.45l1.74,5.34h.07l1.75-5.34h1.45L324.53,589a2.65,2.65,0,0,1-.85,1.25,2.18,2.18,0,0,1-1.38.42A6.78,6.78,0,0,1,321.57,590.67Z"/><path class="cls-4" d="M336.48,580.62a1.46,1.46,0,0,0-.66-.46,2.45,2.45,0,0,0-.93-.16,2.4,2.4,0,0,0-1,.18,1.48,1.48,0,0,0-.65.48,1.17,1.17,0,0,0-.23.7,1,1,0,0,0,.48.89,3.74,3.74,0,0,0,1.19.5l.9.23a6.14,6.14,0,0,1,1.29.47,2.7,2.7,0,0,1,1,.82,2.11,2.11,0,0,1,.39,1.3,2.44,2.44,0,0,1-.4,1.39,2.67,2.67,0,0,1-1.17,1,5,5,0,0,1-3.62,0,2.71,2.71,0,0,1-1.18-.94,2.63,2.63,0,0,1-.48-1.43h1.4a1.4,1.4,0,0,0,.32.81,1.62,1.62,0,0,0,.72.49,2.87,2.87,0,0,0,1,.17,2.69,2.69,0,0,0,1.05-.19,1.68,1.68,0,0,0,.72-.52,1.24,1.24,0,0,0,.26-.78,1,1,0,0,0-.22-.64,1.59,1.59,0,0,0-.59-.43,6.61,6.61,0,0,0-.93-.32l-1.08-.29a4,4,0,0,1-1.78-.91,2,2,0,0,1-.62-1.52,2.29,2.29,0,0,1,.43-1.38,2.73,2.73,0,0,1,1.17-.93,4.26,4.26,0,0,1,3.31,0,2.67,2.67,0,0,1,1.14.91,2.38,2.38,0,0,1,.43,1.31h-1.36A1.22,1.22,0,0,0,336.48,580.62Z"/><path class="cls-4" d="M344,581.22h1.35v6.89h-1.32v-1.19H344a2,2,0,0,1-.46.66,2.09,2.09,0,0,1-.69.46,2.47,2.47,0,0,1-.92.16,2.3,2.3,0,0,1-1.18-.3,2,2,0,0,1-.8-.88,3.21,3.21,0,0,1-.28-1.42v-4.38H341v4.22a1.73,1.73,0,0,0,.18.81,1.28,1.28,0,0,0,.5.53,1.34,1.34,0,0,0,.72.19,1.66,1.66,0,0,0,.78-.19,1.72,1.72,0,0,0,.61-.59,1.75,1.75,0,0,0,.23-.94Z"/><path class="cls-4" d="M347,581.22h1.33v1.12h.11s0,0,0-.05a.05.05,0,0,0,0,0,3.78,3.78,0,0,1,.4-.54,2.17,2.17,0,0,1,.6-.41,2.39,2.39,0,0,1,.94-.17,2.7,2.7,0,0,1,1.49.42,2.79,2.79,0,0,1,1,1.23,5.06,5.06,0,0,1,0,3.8,2.8,2.8,0,0,1-1,1.24,2.68,2.68,0,0,1-1.49.43,2.19,2.19,0,0,1-1-.19,1.93,1.93,0,0,1-.61-.42,3.41,3.41,0,0,1-.4-.57h0v0h-.08v3.66H347Zm1.54,4.72a1.83,1.83,0,0,0,.62.85,1.58,1.58,0,0,0,1,.3,1.56,1.56,0,0,0,1-.31,1.88,1.88,0,0,0,.61-.86,3.52,3.52,0,0,0,.21-1.25,3.62,3.62,0,0,0-.2-1.24,1.84,1.84,0,0,0-.61-.84,1.61,1.61,0,0,0-1-.31,1.65,1.65,0,0,0-1,.29,1.86,1.86,0,0,0-.61.83,3.48,3.48,0,0,0-.21,1.27A3.56,3.56,0,0,0,348.56,585.94Z"/><path class="cls-4" d="M354.68,581.22H356v1.12h.11l0-.05,0,0a3.15,3.15,0,0,1,.4-.54,2,2,0,0,1,.6-.41,2.39,2.39,0,0,1,.94-.17,2.72,2.72,0,0,1,1.49.42,2.86,2.86,0,0,1,1,1.23,5.06,5.06,0,0,1,0,3.8,2.8,2.8,0,0,1-1,1.24,2.71,2.71,0,0,1-1.49.43,2.13,2.13,0,0,1-1-.19,1.82,1.82,0,0,1-.61-.42,3.41,3.41,0,0,1-.4-.57h0v0H356v3.66h-1.36Zm1.54,4.72a1.83,1.83,0,0,0,.62.85,1.56,1.56,0,0,0,1,.3,1.6,1.6,0,0,0,1-.31,2,2,0,0,0,.61-.86,3.52,3.52,0,0,0,.21-1.25,3.62,3.62,0,0,0-.2-1.24,1.79,1.79,0,0,0-.62-.84,1.56,1.56,0,0,0-1-.31,1.65,1.65,0,0,0-1,.29,1.86,1.86,0,0,0-.61.83,3.48,3.48,0,0,0-.21,1.27A3.56,3.56,0,0,0,356.22,585.94Z"/><path class="cls-4" d="M363.69,588.11h-1.35v-9.19h1.35Z"/><path class="cls-4" d="M365.45,590.67v-1.13h.61a1.74,1.74,0,0,0,.43,0,.7.7,0,0,0,.34-.25,2,2,0,0,0,.32-.6l.17-.45-2.53-7h1.45l1.74,5.34h.07l1.75-5.34h1.45L368.42,589a2.72,2.72,0,0,1-.85,1.25,2.23,2.23,0,0,1-1.39.42A6.91,6.91,0,0,1,365.45,590.67Z"/><path class="cls-4" d="M378.76,582.3H375v-1.08h3.77Zm-1.4-2.73v6.51a1.22,1.22,0,0,0,.11.57.6.6,0,0,0,.29.28,1.09,1.09,0,0,0,.42.07c.12,0,.35,0,.68,0v1.16a5.35,5.35,0,0,1-.84.06,2.53,2.53,0,0,1-1-.2,1.76,1.76,0,0,1-.73-.62,1.85,1.85,0,0,1-.28-1v-6.79Z"/><path class="cls-4" d="M381.59,588.11h-1.36v-9.19h1.34v3.43h.08a2.09,2.09,0,0,1,.45-.66,1.91,1.91,0,0,1,.67-.42,2.93,2.93,0,0,1,.93-.14,2.62,2.62,0,0,1,1.25.29,2,2,0,0,1,.82.88,3.22,3.22,0,0,1,.29,1.43v4.38H384.7v-4.22a2.06,2.06,0,0,0-.17-.86,1.21,1.21,0,0,0-.51-.54,1.52,1.52,0,0,0-.79-.19,1.81,1.81,0,0,0-.85.2,1.52,1.52,0,0,0-.58.6,1.89,1.89,0,0,0-.21.92Z"/><path class="cls-4" d="M387.7,581.22H389v1.1h.07a1.81,1.81,0,0,1,.39-.64,1.52,1.52,0,0,1,.61-.42,1.86,1.86,0,0,1,.75-.14,5.22,5.22,0,0,1,.58,0v1.29a1.8,1.8,0,0,0-.32-.05l-.39,0a1.68,1.68,0,0,0-.84.2,1.42,1.42,0,0,0-.59.55,1.57,1.57,0,0,0-.21.8v4.2H387.7Z"/><path class="cls-4" d="M393.42,587.81a3,3,0,0,1-1.13-1.25,4.55,4.55,0,0,1,0-3.73,3,3,0,0,1,1.13-1.26,3.47,3.47,0,0,1,3.38,0,3,3,0,0,1,1.13,1.26,4.55,4.55,0,0,1,0,3.73,3,3,0,0,1-1.13,1.25,3.47,3.47,0,0,1-3.38,0Zm2.71-1a2,2,0,0,0,.63-.88,3.88,3.88,0,0,0,0-2.46,2,2,0,0,0-.63-.88,1.55,1.55,0,0,0-1-.32,1.6,1.6,0,0,0-1,.32,2,2,0,0,0-.62.88,3.55,3.55,0,0,0,0,2.46,2,2,0,0,0,.62.88,1.66,1.66,0,0,0,1,.32A1.6,1.6,0,0,0,396.13,586.8Z"/><path class="cls-4" d="M404.05,581.22h1.34v6.89h-1.32v-1.19H404a2.15,2.15,0,0,1-.45.66,2.24,2.24,0,0,1-.7.46,2.45,2.45,0,0,1-.91.16,2.31,2.31,0,0,1-1.19-.3,2,2,0,0,1-.8-.88,3.21,3.21,0,0,1-.28-1.42v-4.38H401v4.22a1.73,1.73,0,0,0,.18.81,1.28,1.28,0,0,0,.5.53,1.35,1.35,0,0,0,.73.19,1.58,1.58,0,0,0,1.38-.78,1.75,1.75,0,0,0,.24-.94Z"/><path class="cls-4" d="M408.42,590.6a2.51,2.51,0,0,1-1.05-.71,2,2,0,0,1-.44-1.11h1.38a1.08,1.08,0,0,0,.28.54,1.3,1.3,0,0,0,.56.33,2.78,2.78,0,0,0,.81.11,2,2,0,0,0,1.29-.38,1.42,1.42,0,0,0,.46-1.17v-1.35h-.09l0,0a2.34,2.34,0,0,1-.39.53,1.81,1.81,0,0,1-.61.41,2.37,2.37,0,0,1-1,.18,2.71,2.71,0,0,1-1.48-.4,2.74,2.74,0,0,1-1-1.17,4.07,4.07,0,0,1-.38-1.85,4.24,4.24,0,0,1,.37-1.85,2.7,2.7,0,0,1,2.53-1.61,2.34,2.34,0,0,1,.93.17,2.09,2.09,0,0,1,.61.41,3.19,3.19,0,0,1,.4.53l.06.1h.09v-1.12h1.32v7a2.42,2.42,0,0,1-.4,1.44,2.32,2.32,0,0,1-1.1.86,4.25,4.25,0,0,1-1.61.28A4.37,4.37,0,0,1,408.42,590.6Zm2.48-4a1.74,1.74,0,0,0,.62-.78,3.21,3.21,0,0,0,.21-1.22,3.3,3.3,0,0,0-.21-1.23,1.83,1.83,0,0,0-.61-.82,1.67,1.67,0,0,0-1-.29,1.62,1.62,0,0,0-1,.3,1.91,1.91,0,0,0-.62.84,3.43,3.43,0,0,0-.2,1.2,3.09,3.09,0,0,0,.21,1.19,1.77,1.77,0,0,0,.61.8,1.67,1.67,0,0,0,1,.28A1.7,1.7,0,0,0,410.9,586.62Z"/><path class="cls-4" d="M416.06,588.11H414.7v-9.19H416v3.43h.09a1.89,1.89,0,0,1,1.11-1.08,2.93,2.93,0,0,1,.93-.14,2.62,2.62,0,0,1,1.25.29,2,2,0,0,1,.82.88,3.22,3.22,0,0,1,.29,1.43v4.38h-1.36v-4.22A2.06,2.06,0,0,0,419,583a1.21,1.21,0,0,0-.51-.54,1.5,1.5,0,0,0-.78-.19,1.85,1.85,0,0,0-.86.2,1.52,1.52,0,0,0-.58.6,1.89,1.89,0,0,0-.21.92Z"/><path class="cls-4" d="M270.7,594.52l2.92,7.12h.1l2.92-7.12h1.7v9.19H277v-6.63h-.09l-2.7,6.62h-1.11l-2.7-6.64h-.08v6.65H269v-9.19Z"/><path class="cls-4" d="M279.51,603.71l3.3-9.19h1.62l3.31,9.19h-1.49l-2.59-7.51h-.07l-2.6,7.51Zm6.5-3.6v1.17h-4.78v-1.17Z"/><path class="cls-4" d="M291.31,602h.1l2.56-7.48h1.51l-3.31,9.19h-1.62l-3.3-9.19h1.51Z"/><path class="cls-4" d="M299.36,594.52h7.13v1.2h-2.86v8h-1.4v-8h-2.87Z"/><path class="cls-4" d="M308,603.41a3,3,0,0,1-1.13-1.25,4.1,4.1,0,0,1-.4-1.86,4.16,4.16,0,0,1,.4-1.88,3,3,0,0,1,1.13-1.25,3.47,3.47,0,0,1,3.38,0,3,3,0,0,1,1.13,1.25,4.3,4.3,0,0,1,.4,1.88,4.24,4.24,0,0,1-.4,1.86,3,3,0,0,1-1.13,1.25,3.47,3.47,0,0,1-3.38,0Zm2.71-1a2,2,0,0,0,.63-.88,3.88,3.88,0,0,0,0-2.46,2,2,0,0,0-.63-.88,1.55,1.55,0,0,0-1-.33,1.61,1.61,0,0,0-1,.33,2,2,0,0,0-.62.88,3.55,3.55,0,0,0,0,2.46,2,2,0,0,0,.62.88,1.66,1.66,0,0,0,1,.32A1.6,1.6,0,0,0,310.72,602.4Z"/><path class="cls-4" d="M314.26,594.52h1.35v9.19h-1.35Zm1.24,5.21h.23l2.74-2.91h1.62L317,600.14h-.22l-1.23,1.24Zm.65.72.94-1,3.18,4.22h-1.65Z"/><path class="cls-4" d="M322.09,603.41a3,3,0,0,1-1.14-1.23,4.65,4.65,0,0,1,0-3.73,3,3,0,0,1,1.12-1.27,3.12,3.12,0,0,1,1.67-.45,3.26,3.26,0,0,1,1.53.36,2.68,2.68,0,0,1,1.12,1.14,4.09,4.09,0,0,1,.42,2v.48h-5.5v-1h4.17a2,2,0,0,0-.22-.94,1.63,1.63,0,0,0-.6-.65,1.88,1.88,0,0,0-1.87,0,1.85,1.85,0,0,0-.65.71,2.14,2.14,0,0,0-.24,1v.79a2.48,2.48,0,0,0,.25,1.16,1.68,1.68,0,0,0,.68.74,2,2,0,0,0,1,.26,2,2,0,0,0,.67-.1,1.58,1.58,0,0,0,.5-.27,1.23,1.23,0,0,0,.33-.39h1.37a2.4,2.4,0,0,1-.54,1,2.52,2.52,0,0,1-1,.65,3.56,3.56,0,0,1-1.34.23A3.32,3.32,0,0,1,322.09,603.41Z"/><path class="cls-4" d="M329.51,603.71h-1.36v-6.89h1.3v1.12h.09a2.06,2.06,0,0,1,.45-.64,1.87,1.87,0,0,1,.68-.42,2.5,2.5,0,0,1,.9-.15,2.55,2.55,0,0,1,1.24.29,2,2,0,0,1,.82.89,3.21,3.21,0,0,1,.29,1.42v4.38h-1.36v-4.22a1.87,1.87,0,0,0-.17-.85,1.17,1.17,0,0,0-.5-.55,1.5,1.5,0,0,0-.78-.19,1.73,1.73,0,0,0-.83.2,1.5,1.5,0,0,0-.57.6,2,2,0,0,0-.2.92Z"/><path class="cls-4" d="M340,603.41a3,3,0,0,1-1.13-1.25,4.1,4.1,0,0,1-.4-1.86,4.16,4.16,0,0,1,.4-1.88,3,3,0,0,1,1.13-1.25,3.47,3.47,0,0,1,3.38,0,3,3,0,0,1,1.13,1.25,4.3,4.3,0,0,1,.39,1.88,4.24,4.24,0,0,1-.39,1.86,3,3,0,0,1-1.13,1.25,3.47,3.47,0,0,1-3.38,0Zm2.71-1a1.89,1.89,0,0,0,.62-.88,3.71,3.71,0,0,0,0-2.46,1.89,1.89,0,0,0-.62-.88,1.58,1.58,0,0,0-1-.33,1.6,1.6,0,0,0-1,.33,2,2,0,0,0-.63.88,3.71,3.71,0,0,0,0,2.46,2,2,0,0,0,.63.88,1.65,1.65,0,0,0,1,.32A1.63,1.63,0,0,0,342.67,602.4Z"/><path class="cls-4" d="M346.21,596.82h1.31v1.1h.07a1.65,1.65,0,0,1,.38-.64,1.59,1.59,0,0,1,.61-.42,1.93,1.93,0,0,1,.75-.15,5.11,5.11,0,0,1,.58,0V598l-.31-.06-.39,0a1.7,1.7,0,0,0-.85.2,1.49,1.49,0,0,0-.59.55,1.54,1.54,0,0,0-.21.8v4.2h-1.35Z"/><path class="cls-4" d="M355.32,603.41a3,3,0,0,1-1.13-1.25,4.1,4.1,0,0,1-.4-1.86,4.16,4.16,0,0,1,.4-1.88,3,3,0,0,1,1.13-1.25,3.47,3.47,0,0,1,3.38,0,3,3,0,0,1,1.13,1.25,4.3,4.3,0,0,1,.4,1.88,4.24,4.24,0,0,1-.4,1.86,3,3,0,0,1-1.13,1.25,3.47,3.47,0,0,1-3.38,0Zm2.71-1a1.89,1.89,0,0,0,.62-.88,3.71,3.71,0,0,0,0-2.46,1.89,1.89,0,0,0-.62-.88,1.55,1.55,0,0,0-1-.33,1.61,1.61,0,0,0-1,.33,2,2,0,0,0-.63.88,3.71,3.71,0,0,0,0,2.46,2,2,0,0,0,.63.88,1.66,1.66,0,0,0,1,.32A1.6,1.6,0,0,0,358,602.4Z"/><path class="cls-4" d="M364.79,597.9H361v-1.08h3.77Zm-1.4-2.73v6.51a1.11,1.11,0,0,0,.11.57.63.63,0,0,0,.28.28,1.11,1.11,0,0,0,.43.07l.67,0v1.16a5.17,5.17,0,0,1-.84.06,2.51,2.51,0,0,1-1-.2,1.7,1.7,0,0,1-.73-.62,1.77,1.77,0,0,1-.28-1v-6.79Z"/><path class="cls-4" d="M367.61,603.71h-1.35v-9.19h1.34v3.42h.08a2.13,2.13,0,0,1,.44-.65,2,2,0,0,1,.68-.42,2.82,2.82,0,0,1,.92-.14A2.59,2.59,0,0,1,371,597a2,2,0,0,1,.83.88,3.23,3.23,0,0,1,.28,1.43v4.38h-1.35v-4.22a1.91,1.91,0,0,0-.18-.86,1.14,1.14,0,0,0-.5-.54,1.52,1.52,0,0,0-.79-.19,1.81,1.81,0,0,0-.85.2,1.46,1.46,0,0,0-.58.6,1.79,1.79,0,0,0-.22.92Z"/><path class="cls-4" d="M375,603.41a2.91,2.91,0,0,1-1.15-1.23,4.65,4.65,0,0,1,0-3.73,3,3,0,0,1,1.12-1.27,3.12,3.12,0,0,1,1.67-.45,3.26,3.26,0,0,1,1.53.36,2.63,2.63,0,0,1,1.12,1.14,4.09,4.09,0,0,1,.42,2v.48h-5.49v-1h4.16a2,2,0,0,0-.22-.94,1.63,1.63,0,0,0-.6-.65,1.88,1.88,0,0,0-1.87,0,1.85,1.85,0,0,0-.65.71,2.28,2.28,0,0,0-.24,1v.79a2.61,2.61,0,0,0,.25,1.16,1.74,1.74,0,0,0,.68.74,2,2,0,0,0,1,.26,2,2,0,0,0,.67-.1,1.58,1.58,0,0,0,.5-.27,1.23,1.23,0,0,0,.33-.39h1.37a2.4,2.4,0,0,1-.54,1,2.55,2.55,0,0,1-1,.65,3.65,3.65,0,0,1-1.35.23A3.26,3.26,0,0,1,375,603.41Z"/><path class="cls-4" d="M381,596.82h1.31v1.1h.08a1.65,1.65,0,0,1,.38-.64,1.52,1.52,0,0,1,.61-.42,1.93,1.93,0,0,1,.75-.15,5.11,5.11,0,0,1,.58,0V598l-.32-.06-.38,0a1.7,1.7,0,0,0-.85.2,1.42,1.42,0,0,0-.59.55,1.54,1.54,0,0,0-.21.8v4.2H381Z"/><path class="cls-4" d="M388.56,594.52h7.12v1.2h-2.86v8h-1.39v-8h-2.87Z"/><path class="cls-4" d="M397.2,603.41a3.11,3.11,0,0,1-1.13-1.25,4.24,4.24,0,0,1-.4-1.86,4.3,4.3,0,0,1,.4-1.88,3.11,3.11,0,0,1,1.13-1.25,3.29,3.29,0,0,1,1.7-.44,3.25,3.25,0,0,1,1.69.44,3,3,0,0,1,1.12,1.25,4.16,4.16,0,0,1,.4,1.88,4.1,4.1,0,0,1-.4,1.86,3,3,0,0,1-1.12,1.25,3.25,3.25,0,0,1-1.69.44A3.29,3.29,0,0,1,397.2,603.41Zm2.72-1a2,2,0,0,0,.62-.88,3.71,3.71,0,0,0,0-2.46,2,2,0,0,0-.62-.88,1.6,1.6,0,0,0-1-.33,1.56,1.56,0,0,0-1,.33,2,2,0,0,0-.63.88,3.71,3.71,0,0,0,0,2.46,2,2,0,0,0,.63.88,1.61,1.61,0,0,0,1,.32A1.65,1.65,0,0,0,399.92,602.4Z"/><path class="cls-4" d="M403.45,594.52h1.36v9.19h-1.36Zm1.24,5.21h.24l2.73-2.91h1.62l-3.13,3.32h-.21l-1.24,1.24Zm.66.72.93-1,3.19,4.22h-1.66Z"/><path class="cls-4" d="M411.29,603.41a2.83,2.83,0,0,1-1.14-1.23,4.55,4.55,0,0,1,0-3.73,3,3,0,0,1,1.12-1.27,3.09,3.09,0,0,1,1.67-.45,3.29,3.29,0,0,1,1.53.36,2.66,2.66,0,0,1,1.11,1.14,4.09,4.09,0,0,1,.42,2v.48h-5.49v-1h4.16a2.06,2.06,0,0,0-.21-.94,1.66,1.66,0,0,0-.61-.65,1.86,1.86,0,0,0-1.86,0,2,2,0,0,0-.66.71,2.13,2.13,0,0,0-.23,1v.79a2.61,2.61,0,0,0,.24,1.16,1.74,1.74,0,0,0,.68.74,2,2,0,0,0,1,.26,2,2,0,0,0,.66-.1,1.76,1.76,0,0,0,.51-.27,1.34,1.34,0,0,0,.32-.39h1.37a2.4,2.4,0,0,1-.54,1,2.55,2.55,0,0,1-1,.65,3.59,3.59,0,0,1-1.34.23A3.3,3.3,0,0,1,411.29,603.41Z"/><path class="cls-4" d="M418.7,603.71h-1.35v-6.89h1.3v1.12h.08a2.06,2.06,0,0,1,.45-.64,2,2,0,0,1,.68-.42A2.81,2.81,0,0,1,422,597a2,2,0,0,1,.81.89,3.08,3.08,0,0,1,.29,1.42v4.38h-1.35v-4.22a2,2,0,0,0-.17-.85,1.28,1.28,0,0,0-.5-.55,1.52,1.52,0,0,0-.79-.19,1.73,1.73,0,0,0-.83.2,1.48,1.48,0,0,0-.56.6,1.89,1.89,0,0,0-.21.92Z"/><path class="cls-4" d="M428.2,598a1.46,1.46,0,0,0-.88-.24,1.83,1.83,0,0,0-.68.12,1.12,1.12,0,0,0-.48.33.69.69,0,0,0-.16.47.64.64,0,0,0,.25.53,2.18,2.18,0,0,0,.82.35l1.11.25a2.82,2.82,0,0,1,1.41.68,1.58,1.58,0,0,1,.47,1.18,1.85,1.85,0,0,1-.34,1.11,2.24,2.24,0,0,1-1,.76,3.79,3.79,0,0,1-1.5.27,4,4,0,0,1-1.42-.23,2.19,2.19,0,0,1-.95-.69,2.34,2.34,0,0,1-.43-1.1h1.39a1,1,0,0,0,.43.7,1.72,1.72,0,0,0,1,.24,2.16,2.16,0,0,0,.76-.12,1.19,1.19,0,0,0,.51-.33.8.8,0,0,0,.17-.5.66.66,0,0,0-.26-.55,1.93,1.93,0,0,0-.8-.35l-1.08-.23a2.83,2.83,0,0,1-1.41-.69,1.63,1.63,0,0,1-.48-1.2,1.76,1.76,0,0,1,.34-1.08,2.12,2.12,0,0,1,.94-.73,3.35,3.35,0,0,1,1.39-.26,3.43,3.43,0,0,1,1.33.24,2.09,2.09,0,0,1,.9.69,2,2,0,0,1,.39,1h-1.3A1.12,1.12,0,0,0,428.2,598Z"/></svg>