<svg id="레이어_1" data-name="레이어 1" xmlns="http://www.w3.org/2000/svg" xmlns:xlink="http://www.w3.org/1999/xlink" viewBox="0 0 1457.24 399.52"><defs><style>.cls-1,.cls-11,.cls-13,.cls-6,.cls-7,.cls-8{fill:none;}.cls-2,.cls-4{fill:#fff;}.cls-2,.cls-3{opacity:0.2;}.cls-5{opacity:0.5;}.cls-11,.cls-13,.cls-6,.cls-7,.cls-8{stroke:#fff;}.cls-6,.cls-8{stroke-miterlimit:10;}.cls-6,.cls-7{stroke-width:2px;}.cls-11,.cls-13,.cls-7{stroke-miterlimit:8;}.cls-9{opacity:0.15;}.cls-10{clip-path:url(#clip-path);}.cls-11{stroke-width:1.74px;}.cls-12{clip-path:url(#clip-path-2);}.cls-13{stroke-width:1.74px;}</style><clipPath id="clip-path"><path class="cls-1" d="M874.58,73a102,102,0,0,0-16.17,25.36m0,0A102.14,102.14,0,1,0,967.88,39.06a103.78,103.78,0,0,0-16.17-1.27A101.89,101.89,0,0,0,874.58,73"/></clipPath><clipPath id="clip-path-2"><path class="cls-1" d="M1582.6,191.91a101.93,101.93,0,0,0-16.16,25.33m0,0a102.15,102.15,0,1,0,16.16-25.33"/></clipPath></defs><rect class="cls-2" x="377.97" y="7.04" width="707.9" height="265.75"/><g class="cls-3"><rect class="cls-4" x="632.85" y="343.22" width="200" height="55.17"/></g><g class="cls-3"><rect class="cls-4" x="2.32" y="112.33" width="200" height="55.17"/></g><g class="cls-5"><line class="cls-6" x1="213.01" y1="146.7" x2="388.55" y2="146.7"/><polygon class="cls-4" points="387.09 151.68 395.72 146.7 387.09 141.71 387.09 151.68"/></g><g class="cls-5"><line class="cls-6" x1="220.18" y1="134.18" x2="395.72" y2="134.18"/><polygon class="cls-4" points="221.64 139.16 213.01 134.18 221.64 129.19 221.64 139.16"/></g><path class="cls-7" d="M732.85,37.79a102.13,102.13,0,0,0-16.17,203,102.84,102.84,0,0,0,32.35,0,102.14,102.14,0,0,0-16.18-203Z"/><path class="cls-4" d="M709.11,92.62a2.48,2.48,0,0,0-1.11-.79,4.42,4.42,0,0,0-1.61-.27,4.3,4.3,0,0,0-1.64.28,2.39,2.39,0,0,0-1.07.79,1.88,1.88,0,0,0-.37,1.15,1.66,1.66,0,0,0,.78,1.5,6.81,6.81,0,0,0,2.11.85l1.59.39a11,11,0,0,1,2.53.93A4.77,4.77,0,0,1,712.09,99a4.15,4.15,0,0,1,.68,2.39A4.6,4.6,0,0,1,712,104a5,5,0,0,1-2.21,1.77,8.57,8.57,0,0,1-3.45.63,8.67,8.67,0,0,1-3.42-.62,5,5,0,0,1-2.27-1.79,5.21,5.21,0,0,1-.89-2.85h3a2.54,2.54,0,0,0,.54,1.46,3,3,0,0,0,1.26.89,4.83,4.83,0,0,0,1.75.3,4.92,4.92,0,0,0,1.78-.31,2.66,2.66,0,0,0,1.2-.86,2.11,2.11,0,0,0,.43-1.27,1.69,1.69,0,0,0-.37-1.07,2.86,2.86,0,0,0-1-.74,10.87,10.87,0,0,0-1.67-.55l-1.93-.5a7.57,7.57,0,0,1-3.36-1.67A3.84,3.84,0,0,1,700.21,94a4.36,4.36,0,0,1,.81-2.6,5.29,5.29,0,0,1,2.22-1.76,7.8,7.8,0,0,1,3.19-.63,7.52,7.52,0,0,1,3.16.62,5,5,0,0,1,2.15,1.73,4.5,4.5,0,0,1,.8,2.54H709.6A2.36,2.36,0,0,0,709.11,92.62Z"/><path class="cls-4" d="M714.12,89.2h3.27l3.08,12.49h.16l3.26-12.49h3l3.28,12.5h.14l3.08-12.5h3.28l-4.78,17h-3l-3.39-11.93h-.14l-3.41,11.93h-3Z"/><path class="cls-4" d="M735.92,106.17l6-17h3.76l6,17h-3.26l-4.54-13.51h-.14l-4.53,13.51Zm12.33-6.65V102h-8.94V99.52Z"/><path class="cls-4" d="M753.68,89.2H760a7,7,0,0,1,3.26.71,4.9,4.9,0,0,1,2,2,6,6,0,0,1,.69,2.92,6,6,0,0,1-.7,2.91,4.75,4.75,0,0,1-2.06,2,6.87,6.87,0,0,1-3.27.72h-4.22V97.92h3.81a4,4,0,0,0,1.86-.4,2.45,2.45,0,0,0,1.1-1.08,3.82,3.82,0,0,0,0-3.24,2.43,2.43,0,0,0-1.1-1.07,4.15,4.15,0,0,0-1.87-.38h-2.84v14.42h-3.05Z"/><path class="cls-4" d="M806,154.12a1.12,1.12,0,0,0,.33-.82,22.45,22.45,0,0,0-10.93-19.7l-1.45-.83,1-1.36a10,10,0,0,0,2.16-5.89,10.4,10.4,0,0,0-20.8,0,10,10,0,0,0,2.16,5.89l1,1.36-1.46.83A22.44,22.44,0,0,0,767,153.28a1.14,1.14,0,0,0,1.14,1.14H794.6a1.21,1.21,0,0,0,.84-.33,1.11,1.11,0,0,0,.34-.81,1.15,1.15,0,0,0-.34-.82,1.28,1.28,0,0,0-.82-.33H769.48l.21-1.68c1-7.75,5.68-14.15,12-16.31a1.17,1.17,0,0,0,.77-.93,1.13,1.13,0,0,0-.48-1.09,8.11,8.11,0,1,1,9.42,0,1.15,1.15,0,0,0,.27,2c7.4,2.53,12.38,10.22,12.38,19.14a1.16,1.16,0,0,0,.32.84A1.19,1.19,0,0,0,806,154.12Z"/><path class="cls-4" d="M698.36,154.12a1.2,1.2,0,0,0,.33-.82,22.45,22.45,0,0,0-10.93-19.7l-1.46-.83,1-1.36a10,10,0,0,0,2.15-5.89,10.4,10.4,0,1,0-20.79,0,10,10,0,0,0,2.15,5.89l1,1.36-1.45.83a22.42,22.42,0,0,0-10.93,19.68,1.14,1.14,0,0,0,1.14,1.14H687a1.23,1.23,0,0,0,.84-.33,1.11,1.11,0,0,0,.34-.81,1.15,1.15,0,0,0-.34-.82,1.28,1.28,0,0,0-.82-.33H661.84l.22-1.68c1-7.75,5.68-14.15,12-16.31a1.14,1.14,0,0,0,.76-.93,1.12,1.12,0,0,0-.47-1.09,8.12,8.12,0,1,1,9.41,0,1.15,1.15,0,0,0,.27,2c7.41,2.53,12.38,10.22,12.38,19.14a1.21,1.21,0,0,0,.33.84A1.19,1.19,0,0,0,698.36,154.12Z"/><line class="cls-8" x1="708.38" y1="133.09" x2="757.33" y2="133.09"/><polygon class="cls-4" points="709.11 135.58 704.79 133.09 709.11 130.59 709.11 135.58"/><polygon class="cls-4" points="756.6 135.58 760.91 133.09 756.6 130.59 756.6 135.58"/><path class="cls-4" d="M682.16,167.81h3.17a3.41,3.41,0,0,1,1.63.36,2.4,2.4,0,0,1,1,1,3,3,0,0,1,.34,1.45,2.9,2.9,0,0,1-.35,1.46,2.44,2.44,0,0,1-1,1,3.48,3.48,0,0,1-1.64.36H683.2v-1.26h1.91A2,2,0,0,0,686,172a1.33,1.33,0,0,0,.55-.55,1.73,1.73,0,0,0,.18-.81,1.66,1.66,0,0,0-.18-.8,1.3,1.3,0,0,0-.55-.54,2,2,0,0,0-.94-.19h-1.42v7.21h-1.52Z"/><path class="cls-4" d="M692.49,173.53l-.81.06a1.48,1.48,0,0,0-.85.27.73.73,0,0,0-.31.63.76.76,0,0,0,.14.46.84.84,0,0,0,.38.28,1.4,1.4,0,0,0,.56.1,1.66,1.66,0,0,0,.78-.18,1.28,1.28,0,0,0,.52-.48,1.25,1.25,0,0,0,.18-.65v-2a1,1,0,0,0-.14-.53.77.77,0,0,0-.39-.34,1.69,1.69,0,0,0-1.2,0,1.11,1.11,0,0,0-.4.26,1,1,0,0,0-.21.4h-1.45a2,2,0,0,1,.39-1,2.29,2.29,0,0,1,.92-.67,3.42,3.42,0,0,1,1.37-.25,3.64,3.64,0,0,1,1.25.21,2,2,0,0,1,1,.7,2,2,0,0,1,.38,1.28v4.26h-1.43v-.87h0a1.45,1.45,0,0,1-.39.5,2,2,0,0,1-.62.36,2.77,2.77,0,0,1-2-.08,1.67,1.67,0,0,1-.76-.65,1.87,1.87,0,0,1-.28-1.05,1.58,1.58,0,0,1,.66-1.42,3.53,3.53,0,0,1,1.71-.51l.67,0,.72,0h.32v1Z"/><path class="cls-4" d="M695.87,178.66v-1.2h.63a1.38,1.38,0,0,0,.38,0,.61.61,0,0,0,.29-.19,1.62,1.62,0,0,0,.25-.48l.14-.34-2.32-6.49h1.59l1.47,4.81h.06l1.48-4.81h1.59l-2.55,7.14a2.53,2.53,0,0,1-.83,1.19,2.23,2.23,0,0,1-1.41.42A7.51,7.51,0,0,1,695.87,178.66Z"/><path class="cls-4" d="M702.68,168.92a.81.81,0,0,1-.31-.3.7.7,0,0,1-.12-.4.73.73,0,0,1,.12-.41.81.81,0,0,1,.31-.3.92.92,0,0,1,.44-.1.94.94,0,0,1,.43.1.81.81,0,0,1,.31.3.73.73,0,0,1,.12.41.7.7,0,0,1-.12.4.81.81,0,0,1-.31.3,1,1,0,0,1-.43.11A.93.93,0,0,1,702.68,168.92Zm-.31,1h1.49v6.36h-1.49Z"/><path class="cls-4" d="M706.79,176.3h-1.5v-6.36h1.43V171h.08a1.77,1.77,0,0,1,.41-.62,1.85,1.85,0,0,1,.64-.41,2.47,2.47,0,0,1,.84-.14,2.33,2.33,0,0,1,1.15.28,1.91,1.91,0,0,1,.76.83,2.86,2.86,0,0,1,.27,1.29v4.05h-1.49v-3.82a1.61,1.61,0,0,0-.15-.73,1,1,0,0,0-.43-.47,1.27,1.27,0,0,0-.66-.16,1.32,1.32,0,0,0-.7.17,1.11,1.11,0,0,0-.48.5,1.6,1.6,0,0,0-.17.78Z"/><path class="cls-4" d="M713.6,178.59a2.36,2.36,0,0,1-1-.68,1.84,1.84,0,0,1-.41-1h1.49a.84.84,0,0,0,.23.46,1.18,1.18,0,0,0,.48.27,2.29,2.29,0,0,0,.68.09,1.69,1.69,0,0,0,1.09-.32,1.23,1.23,0,0,0,.39-1v-1.21h-.07l0,0a2.4,2.4,0,0,1-.37.5,2,2,0,0,1-.58.37,2.26,2.26,0,0,1-.87.15,2.43,2.43,0,0,1-2.28-1.43,3.86,3.86,0,0,1-.34-1.71,4.08,4.08,0,0,1,.34-1.75,2.55,2.55,0,0,1,.94-1.1,2.58,2.58,0,0,1,1.35-.37,2,2,0,0,1,.84.16,1.58,1.58,0,0,1,.56.38,2.44,2.44,0,0,1,.38.5l0,.09h.07v-1H718v6.46a2.3,2.3,0,0,1-.37,1.34,2.34,2.34,0,0,1-1.06.81,4.13,4.13,0,0,1-1.55.27A4.34,4.34,0,0,1,713.6,178.59Zm2.29-3.79a1.4,1.4,0,0,0,.51-.67,2.69,2.69,0,0,0,.18-1,3.1,3.1,0,0,0-.17-1.06,1.46,1.46,0,0,0-.52-.7,1.47,1.47,0,0,0-1.64,0,1.59,1.59,0,0,0-.52.71,3.12,3.12,0,0,0-.17,1.05,2.74,2.74,0,0,0,.18,1,1.48,1.48,0,0,0,.51.68,1.37,1.37,0,0,0,.82.24A1.39,1.39,0,0,0,715.89,174.8Z"/><path class="cls-4" d="M724.28,167.81,726.8,174h.1l2.53-6.17h1.87v8.49h-1.47v-5.84h-.08l-2.35,5.82h-1.1L724,170.44h-.08v5.86h-1.46v-8.49Z"/><path class="cls-4" d="M732.32,176.3l3-8.49h1.88l3,8.49h-1.63l-2.27-6.75h-.07L734,176.3Zm6.16-3.33v1.23H734V173Z"/><path class="cls-4" d="M743.56,174.51h.09l2.21-6.7h1.68l-3,8.49h-1.88l-3-8.49h1.68Z"/><path class="cls-4" d="M751,167.81h6.76v1.29h-2.62v7.2h-1.52v-7.2H751Z"/><path class="cls-4" d="M759.16,176a2.63,2.63,0,0,1-1.06-1.15,4.08,4.08,0,0,1,0-3.44,2.71,2.71,0,0,1,1.06-1.16,3.37,3.37,0,0,1,3.22,0,2.77,2.77,0,0,1,1.06,1.16,4.08,4.08,0,0,1,0,3.44,2.69,2.69,0,0,1-1.06,1.15,3.37,3.37,0,0,1-3.22,0Zm2.46-1a1.76,1.76,0,0,0,.51-.75,3,3,0,0,0,.17-1.07,3,3,0,0,0-.17-1.07,1.73,1.73,0,0,0-.51-.76,1.42,1.42,0,0,0-1.69,0,1.77,1.77,0,0,0-.53.76,3.2,3.2,0,0,0-.17,1.07,3.25,3.25,0,0,0,.17,1.07,1.8,1.8,0,0,0,.53.75,1.46,1.46,0,0,0,1.69,0Z"/><path class="cls-4" d="M765,167.81h1.5v8.49H765Zm1.36,4.69h.24l2.29-2.56h1.75l-2.82,3.12h-.3l-1.15,1.23Zm.56.9,1-1.05,2.85,4H769Z"/><path class="cls-4" d="M772.42,176a2.6,2.6,0,0,1-1.07-1.13,4.23,4.23,0,0,1,0-3.46,2.71,2.71,0,0,1,1.06-1.16,2.93,2.93,0,0,1,1.57-.42,3.14,3.14,0,0,1,1.48.35,2.56,2.56,0,0,1,1,1.07,3.75,3.75,0,0,1,.39,1.8v.46h-5.21v-1h3.78a1.67,1.67,0,0,0-.19-.78,1.24,1.24,0,0,0-.51-.53A1.44,1.44,0,0,0,774,171a1.58,1.58,0,0,0-.81.21,1.61,1.61,0,0,0-.55.58,1.71,1.71,0,0,0-.19.8v.87a2.06,2.06,0,0,0,.2,1,1.4,1.4,0,0,0,.57.61,1.67,1.67,0,0,0,.85.21,1.81,1.81,0,0,0,.58-.08,1.27,1.27,0,0,0,.43-.24,1,1,0,0,0,.28-.34h1.46a2.27,2.27,0,0,1-.5,1,2.42,2.42,0,0,1-1,.64,3.55,3.55,0,0,1-1.3.22A3.2,3.2,0,0,1,772.42,176Z"/><path class="cls-4" d="M779.55,176.3h-1.49v-6.36h1.43V171h.08a1.64,1.64,0,0,1,.41-.62,1.85,1.85,0,0,1,.64-.41,2.47,2.47,0,0,1,.84-.14,2.36,2.36,0,0,1,1.15.28,1.91,1.91,0,0,1,.76.83,2.86,2.86,0,0,1,.27,1.29v4.05h-1.49v-3.82a1.61,1.61,0,0,0-.15-.73,1,1,0,0,0-.43-.47,1.3,1.3,0,0,0-.67-.16,1.35,1.35,0,0,0-.7.17,1.22,1.22,0,0,0-.48.5,1.73,1.73,0,0,0-.17.78Z"/><path class="cls-4" d="M679.87,187.93l-.81.06a1.45,1.45,0,0,0-.85.27.73.73,0,0,0-.31.63.76.76,0,0,0,.14.46.84.84,0,0,0,.38.28,1.4,1.4,0,0,0,.56.1,1.66,1.66,0,0,0,.78-.18,1.34,1.34,0,0,0,.52-.48,1.25,1.25,0,0,0,.18-.65v-2a1,1,0,0,0-.13-.53.87.87,0,0,0-.39-.34,1.48,1.48,0,0,0-.63-.12,1.42,1.42,0,0,0-.57.1,1,1,0,0,0-.4.26.78.78,0,0,0-.21.4h-1.45a2,2,0,0,1,.39-1,2.22,2.22,0,0,1,.92-.67,3.37,3.37,0,0,1,1.36-.25,3.7,3.7,0,0,1,1.26.21,2,2,0,0,1,1,.7,2,2,0,0,1,.38,1.28v4.26h-1.43v-.87h0a1.58,1.58,0,0,1-.39.5,1.93,1.93,0,0,1-.63.36,2.48,2.48,0,0,1-.85.14,2.6,2.6,0,0,1-1.1-.22,1.7,1.7,0,0,1-.75-.65,1.87,1.87,0,0,1-.28-1.05,1.58,1.58,0,0,1,.66-1.42,3.53,3.53,0,0,1,1.71-.51l.67,0,.72,0h.31l0,1Z"/><path class="cls-4" d="M686.6,185.57a1.29,1.29,0,0,0-.76-.21,1.7,1.7,0,0,0-.57.1,1,1,0,0,0-.39.27.55.55,0,0,0-.15.38.54.54,0,0,0,.22.44,1.6,1.6,0,0,0,.69.29l1.08.23a2.75,2.75,0,0,1,1.34.62,1.47,1.47,0,0,1,.44,1.11,1.73,1.73,0,0,1-.33,1,2.13,2.13,0,0,1-.95.72,4.23,4.23,0,0,1-2.81,0,2.08,2.08,0,0,1-.93-.66,2,2,0,0,1-.42-1h1.52a.81.81,0,0,0,.38.6,1.44,1.44,0,0,0,.83.21,1.74,1.74,0,0,0,.63-.1,1,1,0,0,0,.42-.26.6.6,0,0,0,.14-.41.57.57,0,0,0-.22-.46,1.72,1.72,0,0,0-.7-.28l-1-.22a2.59,2.59,0,0,1-1.33-.63,1.47,1.47,0,0,1-.45-1.14,1.63,1.63,0,0,1,.31-1,2,2,0,0,1,.9-.69,3.91,3.91,0,0,1,2.67,0,2.1,2.1,0,0,1,.87.66,1.94,1.94,0,0,1,.38,1H687A.91.91,0,0,0,686.6,185.57Z"/><path class="cls-4" d="M695.61,187.93l-.8.06a1.51,1.51,0,0,0-.86.27.74.74,0,0,0-.3.63.76.76,0,0,0,.13.46.9.9,0,0,0,.38.28,1.43,1.43,0,0,0,.56.1,1.61,1.61,0,0,0,.78-.18,1.37,1.37,0,0,0,.53-.48,1.25,1.25,0,0,0,.18-.65v-2a1,1,0,0,0-.13-.53.87.87,0,0,0-.39-.34,1.48,1.48,0,0,0-.63-.12,1.42,1.42,0,0,0-.57.1,1.07,1.07,0,0,0-.41.26,1,1,0,0,0-.21.4h-1.44a1.79,1.79,0,0,1,.39-1,2.22,2.22,0,0,1,.92-.67,3.37,3.37,0,0,1,1.36-.25,3.7,3.7,0,0,1,1.26.21,2,2,0,0,1,1.34,2v4.26h-1.43v-.87h0a1.61,1.61,0,0,1-.4.5,1.78,1.78,0,0,1-.62.36,2.48,2.48,0,0,1-.85.14,2.57,2.57,0,0,1-1.1-.22,1.73,1.73,0,0,1-.76-.65,2,2,0,0,1-.27-1.05,1.58,1.58,0,0,1,.66-1.42,3.53,3.53,0,0,1,1.71-.51l.66,0,.72,0h.32v1Z"/><path class="cls-4" d="M701.65,182.21h6.76v1.29h-2.62v7.2h-1.52v-7.2h-2.62Z"/><path class="cls-4" d="M708.88,184.34h1.45v1.06h.06a1.77,1.77,0,0,1,.35-.63,1.5,1.5,0,0,1,.54-.39,1.72,1.72,0,0,1,.68-.14,3.1,3.1,0,0,1,.54,0v1.37l-.31-.06-.38,0a1.53,1.53,0,0,0-.74.18,1.21,1.21,0,0,0-.51.49,1.33,1.33,0,0,0-.19.71v3.75h-1.49Z"/><path class="cls-4" d="M716.39,187.93l-.81.06a1.48,1.48,0,0,0-.85.27.75.75,0,0,0-.31.63.76.76,0,0,0,.14.46.84.84,0,0,0,.38.28,1.4,1.4,0,0,0,.56.1,1.66,1.66,0,0,0,.78-.18,1.28,1.28,0,0,0,.52-.48,1.25,1.25,0,0,0,.18-.65v-2a1,1,0,0,0-.14-.53.77.77,0,0,0-.39-.34,1.69,1.69,0,0,0-1.2,0,1.11,1.11,0,0,0-.4.26,1,1,0,0,0-.21.4h-1.45a2,2,0,0,1,.39-1,2.29,2.29,0,0,1,.92-.67,3.42,3.42,0,0,1,1.37-.25,3.6,3.6,0,0,1,1.25.21,2,2,0,0,1,1,.7,2,2,0,0,1,.38,1.28v4.26H717v-.87h0a1.45,1.45,0,0,1-.39.5,2,2,0,0,1-.62.36,2.77,2.77,0,0,1-2-.08,1.67,1.67,0,0,1-.76-.65,1.87,1.87,0,0,1-.28-1.05,1.58,1.58,0,0,1,.66-1.42,3.53,3.53,0,0,1,1.71-.51l.67,0,.72,0h.32v1Z"/><path class="cls-4" d="M721.37,190.7h-1.49v-6.36h1.43v1.08h.07a1.79,1.79,0,0,1,.42-.62,1.85,1.85,0,0,1,.64-.41,2.47,2.47,0,0,1,.84-.14,2.36,2.36,0,0,1,1.15.28,1.91,1.91,0,0,1,.76.83,2.86,2.86,0,0,1,.27,1.29v4H724v-3.82a1.61,1.61,0,0,0-.15-.73,1,1,0,0,0-.43-.47,1.3,1.3,0,0,0-.67-.16,1.35,1.35,0,0,0-.7.17,1.22,1.22,0,0,0-.48.5,1.73,1.73,0,0,0-.17.78Z"/><path class="cls-4" d="M730.12,185.57a1.27,1.27,0,0,0-.76-.21,1.6,1.6,0,0,0-.56.1,1.08,1.08,0,0,0-.4.27.54.54,0,0,0-.14.38.56.56,0,0,0,.21.44,1.72,1.72,0,0,0,.69.29l1.08.23a2.79,2.79,0,0,1,1.35.62,1.51,1.51,0,0,1,.44,1.11,1.73,1.73,0,0,1-.33,1,2.19,2.19,0,0,1-1,.72,3.73,3.73,0,0,1-1.43.25,3.65,3.65,0,0,1-1.39-.23,2.13,2.13,0,0,1-.93-.66,2.1,2.1,0,0,1-.41-1h1.51a.87.87,0,0,0,.38.6,1.47,1.47,0,0,0,.84.21,1.72,1.72,0,0,0,.62-.1,1,1,0,0,0,.42-.26.61.61,0,0,0,.15-.41.58.58,0,0,0-.23-.46,1.73,1.73,0,0,0-.69-.28l-1-.22a2.62,2.62,0,0,1-1.34-.63,1.54,1.54,0,0,1-.45-1.14,1.63,1.63,0,0,1,.32-1,2,2,0,0,1,.9-.69,3.54,3.54,0,0,1,1.35-.24,3.48,3.48,0,0,1,1.31.23,2.13,2.13,0,0,1,.88.66,1.93,1.93,0,0,1,.37,1h-1.42A.84.84,0,0,0,730.12,185.57Z"/><path class="cls-4" d="M736.29,187.93l-.81.06a1.45,1.45,0,0,0-.85.27.73.73,0,0,0-.31.63.76.76,0,0,0,.14.46.84.84,0,0,0,.38.28,1.35,1.35,0,0,0,.55.1,1.67,1.67,0,0,0,.79-.18,1.34,1.34,0,0,0,.52-.48,1.25,1.25,0,0,0,.18-.65v-2a1,1,0,0,0-.13-.53.87.87,0,0,0-.39-.34,1.48,1.48,0,0,0-.63-.12,1.42,1.42,0,0,0-.57.1,1,1,0,0,0-.4.26.78.78,0,0,0-.21.4h-1.45a2,2,0,0,1,.39-1,2.22,2.22,0,0,1,.92-.67,3.37,3.37,0,0,1,1.36-.25,3.7,3.7,0,0,1,1.26.21,2,2,0,0,1,1,.7,2,2,0,0,1,.38,1.28v4.26h-1.43v-.87h0a1.58,1.58,0,0,1-.39.5,1.93,1.93,0,0,1-.63.36,2.48,2.48,0,0,1-.85.14,2.6,2.6,0,0,1-1.1-.22,1.7,1.7,0,0,1-.75-.65,1.87,1.87,0,0,1-.28-1.05,1.58,1.58,0,0,1,.66-1.42,3.53,3.53,0,0,1,1.71-.51l.66,0,.73,0H737v1Z"/><path class="cls-4" d="M740.93,190.41a2.77,2.77,0,0,1-1.06-1.16,3.84,3.84,0,0,1-.37-1.71,3.77,3.77,0,0,1,.38-1.71,2.71,2.71,0,0,1,1.06-1.16,3,3,0,0,1,1.6-.42,3.32,3.32,0,0,1,1.37.28,2.43,2.43,0,0,1,1,.8,2.35,2.35,0,0,1,.4,1.2h-1.42a1.54,1.54,0,0,0-.23-.56,1.21,1.21,0,0,0-.43-.38,1.38,1.38,0,0,0-.62-.14,1.44,1.44,0,0,0-.82.25,1.67,1.67,0,0,0-.54.72,3.15,3.15,0,0,0,0,2.21,1.51,1.51,0,0,0,.54.73,1.4,1.4,0,0,0,.82.25,1.38,1.38,0,0,0,.59-.13,1.15,1.15,0,0,0,.45-.37,1.32,1.32,0,0,0,.24-.58h1.42a2.45,2.45,0,0,1-.4,1.2,2.24,2.24,0,0,1-.94.8,3,3,0,0,1-1.38.29A3,3,0,0,1,740.93,190.41Z"/><path class="cls-4" d="M749.57,185.49h-3.64v-1.15h3.64Zm-1.25-2.68v6a1,1,0,0,0,.09.45.46.46,0,0,0,.24.22.8.8,0,0,0,.36.07l.65,0v1.23a5.35,5.35,0,0,1-.84.06,2.56,2.56,0,0,1-1-.2,1.54,1.54,0,0,1-.7-.58,1.69,1.69,0,0,1-.26-1v-6.22Z"/><path class="cls-4" d="M751.05,183.32a.84.84,0,0,1-.32-.3.7.7,0,0,1-.12-.4.73.73,0,0,1,.12-.41.84.84,0,0,1,.32-.3.88.88,0,0,1,.43-.1.91.91,0,0,1,.43.1.84.84,0,0,1,.32.3.81.81,0,0,1,.11.41.77.77,0,0,1-.11.4.84.84,0,0,1-.32.3.92.92,0,0,1-.43.11A.89.89,0,0,1,751.05,183.32Zm-.32,1h1.49v6.36h-1.49Z"/><path class="cls-4" d="M754.83,190.41a2.71,2.71,0,0,1-1.07-1.15,4.18,4.18,0,0,1,0-3.44,2.79,2.79,0,0,1,1.07-1.16,3.35,3.35,0,0,1,3.21,0,2.79,2.79,0,0,1,1.07,1.16,4.18,4.18,0,0,1,0,3.44,2.71,2.71,0,0,1-1.07,1.15,3.35,3.35,0,0,1-3.21,0Zm2.45-1a1.78,1.78,0,0,0,.52-.75,3.29,3.29,0,0,0,.17-1.07,3.2,3.2,0,0,0-.17-1.07,1.75,1.75,0,0,0-.52-.76,1.33,1.33,0,0,0-.84-.28,1.36,1.36,0,0,0-.85.28,1.75,1.75,0,0,0-.52.76,3,3,0,0,0-.18,1.07,3,3,0,0,0,.18,1.07,1.78,1.78,0,0,0,.52.75,1.35,1.35,0,0,0,.85.27A1.32,1.32,0,0,0,757.28,189.36Z"/><path class="cls-4" d="M762.14,190.7h-1.49v-6.36h1.43v1.08h.07a1.79,1.79,0,0,1,.42-.62,1.76,1.76,0,0,1,.64-.41,2.47,2.47,0,0,1,.84-.14,2.36,2.36,0,0,1,1.15.28,2,2,0,0,1,.76.83,2.86,2.86,0,0,1,.27,1.29v4h-1.49v-3.82a1.61,1.61,0,0,0-.15-.73,1,1,0,0,0-.43-.47,1.3,1.3,0,0,0-.67-.16,1.35,1.35,0,0,0-.7.17,1.22,1.22,0,0,0-.48.5,1.73,1.73,0,0,0-.17.78Z"/><path class="cls-4" d="M770.57,182.21H776v1.29h-3.91v2.31h3.54v1.28h-3.54v3.61h-1.52Z"/><path class="cls-4" d="M777.94,190.42a2.6,2.6,0,0,1-1.07-1.13,4.23,4.23,0,0,1,0-3.46,2.75,2.75,0,0,1,1-1.16,3,3,0,0,1,1.58-.42,3.1,3.1,0,0,1,1.47.35,2.52,2.52,0,0,1,1,1.07,3.75,3.75,0,0,1,.39,1.8v.46H777.2v-1H781a1.67,1.67,0,0,0-.19-.78,1.24,1.24,0,0,0-.51-.53,1.44,1.44,0,0,0-.75-.19,1.58,1.58,0,0,0-.81.21,1.61,1.61,0,0,0-.55.58,1.72,1.72,0,0,0-.2.8v.87a2.19,2.19,0,0,0,.2,1,1.48,1.48,0,0,0,.58.61,1.67,1.67,0,0,0,.85.21,1.81,1.81,0,0,0,.58-.08,1.37,1.37,0,0,0,.43-.24,1,1,0,0,0,.28-.34h1.46a2.27,2.27,0,0,1-.5,1,2.42,2.42,0,0,1-1,.64,3.58,3.58,0,0,1-1.3.22A3.2,3.2,0,0,1,777.94,190.42Z"/><path class="cls-4" d="M784.75,190.42a2.66,2.66,0,0,1-1.07-1.13,4.23,4.23,0,0,1,0-3.46,2.71,2.71,0,0,1,1.06-1.16,2.93,2.93,0,0,1,1.57-.42,3.14,3.14,0,0,1,1.48.35,2.5,2.5,0,0,1,1,1.07,3.75,3.75,0,0,1,.39,1.8v.46H784v-1h3.78a1.55,1.55,0,0,0-.19-.78,1.24,1.24,0,0,0-.51-.53,1.42,1.42,0,0,0-.75-.19,1.58,1.58,0,0,0-.81.21,1.61,1.61,0,0,0-.55.58,1.71,1.71,0,0,0-.19.8v.87a2.06,2.06,0,0,0,.2,1,1.4,1.4,0,0,0,.57.61,1.67,1.67,0,0,0,.85.21,1.77,1.77,0,0,0,.58-.08,1.43,1.43,0,0,0,.44-.24,1.1,1.1,0,0,0,.27-.34h1.46a2.16,2.16,0,0,1-.5,1,2.46,2.46,0,0,1-.95.64,3.64,3.64,0,0,1-1.31.22A3.25,3.25,0,0,1,784.75,190.42Z"/><g class="cls-9"><path class="cls-4" d="M607.3,98.33A102.32,102.32,0,0,0,591.13,73h0A101.89,101.89,0,0,0,514,37.79a103.91,103.91,0,0,0-16.18,1.27A102.1,102.1,0,1,0,607.3,98.33Z"/></g><path class="cls-7" d="M607.3,98.33A102.32,102.32,0,0,0,591.13,73h0A101.89,101.89,0,0,0,514,37.79a103.91,103.91,0,0,0-16.18,1.27A102.1,102.1,0,1,0,607.3,98.33Z"/><path class="cls-4" d="M489.9,117.3l4.16,7.52h.17l4.16-7.52h3.45l-6.18,10.63v6.34h-3v-6.34l-6.17-10.63Z"/><path class="cls-4" d="M504.19,119.51a1.73,1.73,0,0,1-.64-.59,1.43,1.43,0,0,1-.24-.81,1.51,1.51,0,0,1,.24-.82,1.65,1.65,0,0,1,.64-.59,1.87,1.87,0,0,1,1.72,0,1.56,1.56,0,0,1,.63.59,1.51,1.51,0,0,1,.24.82,1.43,1.43,0,0,1-.24.81,1.63,1.63,0,0,1-.63.59,1.79,1.79,0,0,1-1.72,0Zm-.64,2h3v12.73h-3Z"/><path class="cls-4" d="M511.75,133.72a5.3,5.3,0,0,1-2.14-2.28,8.31,8.31,0,0,1,0-6.9,5.55,5.55,0,0,1,2.11-2.33,6,6,0,0,1,3.16-.83,6.14,6.14,0,0,1,2.94.7,5,5,0,0,1,2.1,2.13,7.49,7.49,0,0,1,.78,3.6v.92H510.26v-2h7.57a3.29,3.29,0,0,0-.37-1.55,2.7,2.7,0,0,0-1-1.07,3.07,3.07,0,0,0-4.22,1.21,3.25,3.25,0,0,0-.4,1.6v1.74a4.26,4.26,0,0,0,.4,1.9,3,3,0,0,0,1.14,1.23,3.35,3.35,0,0,0,1.72.43,3.51,3.51,0,0,0,1.15-.17,2.59,2.59,0,0,0,.87-.47,2.3,2.3,0,0,0,.56-.69h2.91a4.33,4.33,0,0,1-1,1.92,4.91,4.91,0,0,1-1.91,1.28,7.22,7.22,0,0,1-2.61.45A6.45,6.45,0,0,1,511.75,133.72Z"/><path class="cls-4" d="M526,134.27h-3v-17h3Z"/><path class="cls-4" d="M530.92,133.72a5.26,5.26,0,0,1-1.87-2.26,8.48,8.48,0,0,1-.68-3.53,8.34,8.34,0,0,1,.69-3.54,5.16,5.16,0,0,1,1.89-2.25,4.85,4.85,0,0,1,2.68-.76,4.11,4.11,0,0,1,1.69.31,3.29,3.29,0,0,1,1.12.76,4.92,4.92,0,0,1,.74,1l.05.07,0,.09h.12V117.3h3v17h-2.92v-2h-.18a.67.67,0,0,1-.06.12,5.06,5.06,0,0,1-.75,1,3.6,3.6,0,0,1-1.14.76,4.18,4.18,0,0,1-1.69.32A4.83,4.83,0,0,1,530.92,133.72Zm5.15-2.18a3.24,3.24,0,0,0,1-1.45,6.31,6.31,0,0,0,.35-2.18,6,6,0,0,0-.35-2.17,3,3,0,0,0-1-1.41,2.7,2.7,0,0,0-1.63-.5,2.61,2.61,0,0,0-1.66.52,3.14,3.14,0,0,0-1,1.43,6.1,6.1,0,0,0-.35,2.13,6,6,0,0,0,.36,2.15,3.31,3.31,0,0,0,1,1.46,2.55,2.55,0,0,0,1.65.53A2.61,2.61,0,0,0,536.07,131.54Z"/><path class="cls-4" d="M470.3,146.1h10.86v2.57h-7.82v4.62h7.07v2.57h-7.07v7.21h-3Z"/><path class="cls-4" d="M489.73,157.52l-1.61.13a3.18,3.18,0,0,0-1.71.53,1.66,1.66,0,0,0-.34,2.19,1.7,1.7,0,0,0,.76.57,2.93,2.93,0,0,0,1.11.19,3.28,3.28,0,0,0,1.57-.36,2.67,2.67,0,0,0,1-1,2.43,2.43,0,0,0,.37-1.31l0-4.07a2.16,2.16,0,0,0-.26-1.08,1.71,1.71,0,0,0-.78-.67,3,3,0,0,0-1.26-.23,3.25,3.25,0,0,0-1.14.18,2.12,2.12,0,0,0-.81.53,1.72,1.72,0,0,0-.42.8h-2.89a3.64,3.64,0,0,1,.78-1.95,4.3,4.3,0,0,1,1.84-1.35,6.88,6.88,0,0,1,2.72-.49,7.65,7.65,0,0,1,2.52.41,4.18,4.18,0,0,1,1.92,1.4,4.11,4.11,0,0,1,.76,2.57v8.51H491v-1.75h-.1a3.38,3.38,0,0,1-.79,1,4,4,0,0,1-1.25.72,5,5,0,0,1-1.7.27,5.3,5.3,0,0,1-2.2-.44,3.51,3.51,0,0,1-1.52-1.3,3.9,3.9,0,0,1-.55-2.09,3.16,3.16,0,0,1,1.33-2.85,7,7,0,0,1,3.41-1l1.33-.07,1.45-.08.63,0,0,2Z"/><path class="cls-4" d="M496.71,150.34h2.89v2.13h.14a3.43,3.43,0,0,1,.68-1.25,3,3,0,0,1,1.1-.79,3.4,3.4,0,0,1,1.36-.27,7.41,7.41,0,0,1,1.08.08V153a3.21,3.21,0,0,0-.63-.12,5.17,5.17,0,0,0-.76-.06,3,3,0,0,0-1.47.36,2.56,2.56,0,0,0-1,1,2.71,2.71,0,0,0-.37,1.42v7.5h-3Z"/><path class="cls-4" d="M505.74,150.34h2.86v2.17h.15a3.42,3.42,0,0,1,1.32-1.72,3.82,3.82,0,0,1,2.18-.61,4.07,4.07,0,0,1,1.55.28,3.09,3.09,0,0,1,1.17.8,3.29,3.29,0,0,1,.72,1.25h.13a3.41,3.41,0,0,1,.84-1.24,3.85,3.85,0,0,1,1.32-.81,4.68,4.68,0,0,1,1.67-.28,4.27,4.27,0,0,1,2.08.5,3.46,3.46,0,0,1,1.4,1.48,5.25,5.25,0,0,1,.5,2.37v8.54h-3V155a2.29,2.29,0,0,0-.61-1.71,2.16,2.16,0,0,0-1.57-.58,2.49,2.49,0,0,0-1.25.3,2,2,0,0,0-.79.86,2.86,2.86,0,0,0-.27,1.27v7.95h-2.93v-8.21a2.34,2.34,0,0,0-.27-1.14,1.77,1.77,0,0,0-.75-.76,2.3,2.3,0,0,0-1.13-.27,2.21,2.21,0,0,0-1.18.33,2.36,2.36,0,0,0-.85.94,2.9,2.9,0,0,0-.31,1.36v7.75h-3Z"/><path class="cls-4" d="M527.11,148.31a1.78,1.78,0,0,1-.63-.59,1.43,1.43,0,0,1-.24-.81,1.48,1.48,0,0,1,.24-.82,1.7,1.7,0,0,1,.63-.59,1.89,1.89,0,0,1,1.73,0,1.59,1.59,0,0,1,.86,1.41,1.5,1.5,0,0,1-.23.81,1.63,1.63,0,0,1-.63.59,1.81,1.81,0,0,1-1.73,0Zm-.63,2h3v12.73h-3Z"/><path class="cls-4" d="M535.32,163.07h-3V150.34h2.85v2.17h.16a3.53,3.53,0,0,1,.82-1.25,3.81,3.81,0,0,1,1.28-.8,4.7,4.7,0,0,1,1.68-.28,4.58,4.58,0,0,1,2.3.56,3.8,3.8,0,0,1,1.52,1.65,5.71,5.71,0,0,1,.54,2.58v8.1h-3v-7.65a3.23,3.23,0,0,0-.3-1.45,2,2,0,0,0-.85-.94,2.61,2.61,0,0,0-1.34-.32,2.77,2.77,0,0,0-1.4.34,2.3,2.3,0,0,0-1,1,3.32,3.32,0,0,0-.35,1.56Z"/><path class="cls-4" d="M549,167.64a4.42,4.42,0,0,1-2-1.35,3.76,3.76,0,0,1-.83-2.08h3a1.74,1.74,0,0,0,.48.92,2.17,2.17,0,0,0,1,.55,4.6,4.6,0,0,0,1.35.18,3.35,3.35,0,0,0,2.19-.65,2.45,2.45,0,0,0,.78-2v-2.42h-.15l0,.05a4.09,4.09,0,0,1-.75,1,3.4,3.4,0,0,1-1.15.73,4.38,4.38,0,0,1-1.73.31,5.09,5.09,0,0,1-2.69-.72,5,5,0,0,1-1.88-2.14,7.72,7.72,0,0,1-.69-3.42,8.08,8.08,0,0,1,.69-3.49,4.85,4.85,0,0,1,4.57-2.94,4.18,4.18,0,0,1,1.69.31,3.43,3.43,0,0,1,1.12.75,6.15,6.15,0,0,1,.76,1l.1.18h.15v-2.1h2.94v12.94a4.35,4.35,0,0,1-2.87,4.3,8.46,8.46,0,0,1-3.1.53A8.17,8.17,0,0,1,549,167.64Zm4.57-7.56a3,3,0,0,0,1-1.34,5.68,5.68,0,0,0,.35-2.09,6,6,0,0,0-.35-2.12,3,3,0,0,0-1-1.41,2.76,2.76,0,0,0-1.63-.49,2.71,2.71,0,0,0-1.66.51,3.11,3.11,0,0,0-1,1.42,5.91,5.91,0,0,0-.35,2.09,5.42,5.42,0,0,0,.36,2.06,3.1,3.1,0,0,0,1,1.36,2.73,2.73,0,0,0,1.65.48A2.79,2.79,0,0,0,553.52,160.08Z"/><path class="cls-4" d="M254.34,152.63h1.4v8h4.16v1.2h-5.56Z"/><path class="cls-4" d="M261.32,152.63h3.29a3.62,3.62,0,0,1,1.75.38,2.49,2.49,0,0,1,1.08,1.05,3.59,3.59,0,0,1,0,3.09,2.63,2.63,0,0,1-1.08,1.06,3.62,3.62,0,0,1-1.75.39h-2.26v-1.19h2.12a2.21,2.21,0,0,0,1.08-.24,1.37,1.37,0,0,0,.63-.63,2.19,2.19,0,0,0,0-1.87,1.4,1.4,0,0,0-.63-.62,2.35,2.35,0,0,0-1.09-.23h-1.74v8h-1.4Z"/><path class="cls-4" d="M272,152.63h7.12v1.2h-2.85v8h-1.4v-8H272Z"/><path class="cls-4" d="M280.63,161.51a2.86,2.86,0,0,1-1.13-1.25,4,4,0,0,1-.4-1.86,4.12,4.12,0,0,1,.4-1.87,2.86,2.86,0,0,1,1.13-1.25,3.4,3.4,0,0,1,3.38,0,2.92,2.92,0,0,1,1.13,1.25,4.25,4.25,0,0,1,.39,1.87,4.18,4.18,0,0,1-.39,1.86,2.92,2.92,0,0,1-1.13,1.25,3.4,3.4,0,0,1-3.38,0Zm2.71-1a1.88,1.88,0,0,0,.62-.87,3.71,3.71,0,0,0,0-2.46,2,2,0,0,0-.62-.88,1.6,1.6,0,0,0-1-.33,1.58,1.58,0,0,0-1,.33,1.92,1.92,0,0,0-.63.88,3.71,3.71,0,0,0,0,2.46,1.89,1.89,0,0,0,.63.87,1.58,1.58,0,0,0,1,.33A1.6,1.6,0,0,0,283.34,160.5Z"/><path class="cls-4" d="M286.88,152.63h1.35v9.19h-1.35Zm1.23,5.21h.24l2.73-2.92h1.62l-3.13,3.33h-.21l-1.24,1.23Zm.66.71.93-1,3.19,4.22h-1.66Z"/><path class="cls-4" d="M294.71,161.52a2.86,2.86,0,0,1-1.14-1.24,4.18,4.18,0,0,1-.4-1.86,4.28,4.28,0,0,1,.4-1.87,3,3,0,0,1,2.79-1.72,3.15,3.15,0,0,1,1.53.37,2.69,2.69,0,0,1,1.11,1.13,4,4,0,0,1,.43,2v.48h-5.5v-1h4.16a2,2,0,0,0-.21-.94,1.57,1.57,0,0,0-.6-.65,1.77,1.77,0,0,0-.9-.23,1.75,1.75,0,0,0-1,.27,1.88,1.88,0,0,0-.66.71,2.13,2.13,0,0,0-.23,1v.78a2.58,2.58,0,0,0,.24,1.16,1.77,1.77,0,0,0,.68.75,2,2,0,0,0,1,.25,2.24,2.24,0,0,0,.66-.09,1.76,1.76,0,0,0,.51-.27,1.45,1.45,0,0,0,.32-.39h1.38a2.44,2.44,0,0,1-.55,1,2.69,2.69,0,0,1-1,.66,3.8,3.8,0,0,1-1.34.23A3.42,3.42,0,0,1,294.71,161.52Z"/><path class="cls-4" d="M302.12,161.82h-1.35v-6.9h1.3v1.13h.09a2.07,2.07,0,0,1,.44-.65,2,2,0,0,1,.68-.42,2.59,2.59,0,0,1,.91-.15,2.47,2.47,0,0,1,1.24.3,2.06,2.06,0,0,1,.82.88,3.24,3.24,0,0,1,.29,1.42v4.39h-1.36V157.6a2.06,2.06,0,0,0-.17-.86,1.27,1.27,0,0,0-.5-.55,1.8,1.8,0,0,0-1.61,0,1.47,1.47,0,0,0-.57.59,1.94,1.94,0,0,0-.21.93Z"/><path class="cls-4" d="M311.46,152.63h3.29a3.84,3.84,0,0,1,1.75.36,2.41,2.41,0,0,1,1.08,1,3.41,3.41,0,0,1,0,3,2.34,2.34,0,0,1-1.07,1,4.07,4.07,0,0,1-1.77.35h-2.49v-1.2h2.35a2.67,2.67,0,0,0,1.1-.2,1.36,1.36,0,0,0,.63-.55,1.86,1.86,0,0,0,.19-.89,1.94,1.94,0,0,0-.19-.91,1.4,1.4,0,0,0-.64-.58,2.62,2.62,0,0,0-1.09-.2h-1.74v8h-1.4Zm6.82,9.19h-1.59l-2.23-4.15H316Z"/><path class="cls-4" d="M320.5,161.52a2.92,2.92,0,0,1-1.14-1.24,4.18,4.18,0,0,1-.39-1.86,4.28,4.28,0,0,1,.39-1.87,3,3,0,0,1,2.79-1.72,3.15,3.15,0,0,1,1.53.37,2.71,2.71,0,0,1,1.12,1.13,4.14,4.14,0,0,1,.42,2v.48h-5.49v-1h4.16a1.92,1.92,0,0,0-.22-.94,1.57,1.57,0,0,0-.6-.65,1.82,1.82,0,0,0-2.52.75,2.14,2.14,0,0,0-.24,1v.78a2.45,2.45,0,0,0,.25,1.16,1.71,1.71,0,0,0,.68.75,2,2,0,0,0,1,.25,2.31,2.31,0,0,0,.67-.09,1.58,1.58,0,0,0,.5-.27,1.49,1.49,0,0,0,.33-.39h1.37a2.31,2.31,0,0,1-.54,1,2.65,2.65,0,0,1-1,.66,3.76,3.76,0,0,1-1.34.23A3.42,3.42,0,0,1,320.5,161.52Z"/><path class="cls-4" d="M326,154.92h1.4l1.34,5.06h.07l1.35-5.06h1.4l1.34,5H333l1.33-5h1.4l-2,6.9h-1.38l-1.4-5h-.1l-1.39,5H328Z"/><path class="cls-4" d="M340.21,158.75l-.93.06a2.09,2.09,0,0,0-1.07.32.87.87,0,0,0-.37.76.92.92,0,0,0,.16.55,1.07,1.07,0,0,0,.46.34,2.06,2.06,0,0,0,.68.11,1.89,1.89,0,0,0,.94-.22,1.47,1.47,0,0,0,.61-.57,1.49,1.49,0,0,0,.21-.77v-2.18a1.24,1.24,0,0,0-.16-.66,1,1,0,0,0-.47-.42,2.17,2.17,0,0,0-1.45,0,1.29,1.29,0,0,0-.49.31,1,1,0,0,0-.25.45h-1.36a2,2,0,0,1,.43-1,2.31,2.31,0,0,1,1-.7,3.65,3.65,0,0,1,1.41-.26,3.8,3.8,0,0,1,1.27.21,2.11,2.11,0,0,1,1,.74,2.3,2.3,0,0,1,.42,1.46v4.58h-1.32v-.94h-.05a1.85,1.85,0,0,1-.41.53,2,2,0,0,1-.68.4,2.56,2.56,0,0,1-1,.16,2.7,2.7,0,0,1-1.19-.25,2,2,0,0,1-.84-.72,2,2,0,0,1-.3-1.13,1.65,1.65,0,0,1,.72-1.52,3.89,3.89,0,0,1,1.86-.54l.73,0,.8,0,.36,0v1Z"/><path class="cls-4" d="M343.89,154.92h1.31V156h.07a1.78,1.78,0,0,1,1-1.06,2,2,0,0,1,.75-.14,5.35,5.35,0,0,1,.58,0v1.29l-.32,0-.39,0a1.8,1.8,0,0,0-.84.2,1.45,1.45,0,0,0-.59.56,1.52,1.52,0,0,0-.21.8v4.2h-1.36Z"/><path class="cls-4" d="M349.48,161.52a2.83,2.83,0,0,1-1-1.24,4.6,4.6,0,0,1-.37-1.9,4.39,4.39,0,0,1,.38-1.89,2.8,2.8,0,0,1,1-1.23,2.71,2.71,0,0,1,1.49-.43,2.22,2.22,0,0,1,.94.18,1.76,1.76,0,0,1,.6.41,3.78,3.78,0,0,1,.4.54l0,0,0,0H353v-3.41h1.35v9.19h-1.32v-1.07H353l0,.05a3.49,3.49,0,0,1-.4.56,1.91,1.91,0,0,1-.61.41,2.27,2.27,0,0,1-.95.18A2.61,2.61,0,0,1,349.48,161.52Zm2.76-1a1.92,1.92,0,0,0,.62-.86,3.52,3.52,0,0,0,.21-1.27,3.47,3.47,0,0,0-.21-1.26,1.76,1.76,0,0,0-.61-.83,1.79,1.79,0,0,0-2,0,1.85,1.85,0,0,0-.61.85,3.37,3.37,0,0,0-.21,1.23,3.49,3.49,0,0,0,.21,1.25,2,2,0,0,0,.62.87,1.55,1.55,0,0,0,1,.31A1.58,1.58,0,0,0,352.24,160.5Z"/><path class="cls-4" d="M252.68,119.2h5.71v1.21h-4.31v2.78H258v1.2h-3.9v4h-1.4Z"/><path class="cls-4" d="M263.19,125.32l-.94.07a2,2,0,0,0-1.06.32.87.87,0,0,0-.38.76.89.89,0,0,0,.17.54,1,1,0,0,0,.46.34,1.74,1.74,0,0,0,.67.12,1.89,1.89,0,0,0,.94-.22,1.47,1.47,0,0,0,.61-.57,1.41,1.41,0,0,0,.22-.77v-2.18a1.24,1.24,0,0,0-.16-.66.92.92,0,0,0-.47-.42,1.8,1.8,0,0,0-.77-.14,1.76,1.76,0,0,0-.68.11,1.16,1.16,0,0,0-.48.3,1,1,0,0,0-.26.46H259.7a1.92,1.92,0,0,1,.42-1,2.47,2.47,0,0,1,1-.7,3.87,3.87,0,0,1,1.42-.25,4.05,4.05,0,0,1,1.26.2,2.25,2.25,0,0,1,1,.74,2.34,2.34,0,0,1,.42,1.47v4.58H263.9v-1h0a1.89,1.89,0,0,1-.41.54,2.22,2.22,0,0,1-.68.4,2.52,2.52,0,0,1-.95.16,2.7,2.7,0,0,1-1.19-.25,1.88,1.88,0,0,1-.83-.72,2,2,0,0,1-.31-1.13,1.64,1.64,0,0,1,.73-1.52,3.85,3.85,0,0,1,1.85-.54l.74,0,.79,0H264l0,1Z"/><path class="cls-4" d="M266.86,121.5h1.31v1.1h.07a1.9,1.9,0,0,1,.39-.64,1.75,1.75,0,0,1,.61-.42,2,2,0,0,1,.75-.14,5.22,5.22,0,0,1,.58,0v1.29l-.32,0a2.56,2.56,0,0,0-.39,0,1.8,1.8,0,0,0-.84.2,1.49,1.49,0,0,0-.59.55,1.58,1.58,0,0,0-.21.81v4.2h-1.36Z"/><path class="cls-4" d="M271.58,121.5h1.3v1.13H273a1.87,1.87,0,0,1,.71-.9,2.14,2.14,0,0,1,1.17-.32,2.35,2.35,0,0,1,.82.14,1.93,1.93,0,0,1,.63.42,2.1,2.1,0,0,1,.41.66h.07a2,2,0,0,1,.46-.65,2.19,2.19,0,0,1,.71-.42,2.57,2.57,0,0,1,.9-.15,2.23,2.23,0,0,1,1.11.27,1.8,1.8,0,0,1,.75.79,2.87,2.87,0,0,1,.27,1.3v4.63h-1.36v-4.49a1.2,1.2,0,0,0-1.28-1.33,1.49,1.49,0,0,0-.75.18,1.26,1.26,0,0,0-.47.5,1.61,1.61,0,0,0-.17.74v4.4H275.6v-4.58a1.25,1.25,0,0,0-.16-.65,1,1,0,0,0-.44-.43,1.29,1.29,0,0,0-.66-.16,1.32,1.32,0,0,0-.7.2,1.39,1.39,0,0,0-.51.56,1.68,1.68,0,0,0-.2.81v4.25h-1.35Z"/><path class="cls-4" d="M282.87,120.33a1,1,0,0,1-.31-.29.72.72,0,0,1-.12-.4.75.75,0,0,1,.12-.41,1,1,0,0,1,.31-.29.91.91,0,0,1,.43-.1.87.87,0,0,1,.42.1.79.79,0,0,1,.31.29.75.75,0,0,1,.12.41.72.72,0,0,1-.12.4.79.79,0,0,1-.31.29.78.78,0,0,1-.42.11A.81.81,0,0,1,282.87,120.33Zm-.26,1.17H284v6.9h-1.36Z"/><path class="cls-4" d="M287,128.4h-1.36v-6.9h1.3v1.13H287a2.26,2.26,0,0,1,.44-.65,2,2,0,0,1,.68-.42,2.59,2.59,0,0,1,.91-.15,2.47,2.47,0,0,1,1.24.3,2,2,0,0,1,.82.88,3.21,3.21,0,0,1,.29,1.42v4.39H290v-4.22a2.06,2.06,0,0,0-.17-.86,1.27,1.27,0,0,0-.5-.55,1.72,1.72,0,0,0-1.61,0,1.41,1.41,0,0,0-.57.59,1.93,1.93,0,0,0-.2.93Z"/><path class="cls-4" d="M294.4,130.88a2.38,2.38,0,0,1-1-.71,2,2,0,0,1-.44-1.1h1.38a1.08,1.08,0,0,0,.28.54,1.33,1.33,0,0,0,.56.32,2.76,2.76,0,0,0,.8.11,2,2,0,0,0,1.3-.38,1.43,1.43,0,0,0,.46-1.16v-1.36h-.09l0,0a3.74,3.74,0,0,1-.39.54,2,2,0,0,1-.62.41,2.51,2.51,0,0,1-1,.17,2.76,2.76,0,0,1-1.48-.4,2.81,2.81,0,0,1-1-1.17,4.17,4.17,0,0,1-.37-1.84,4.26,4.26,0,0,1,.37-1.86,2.68,2.68,0,0,1,2.52-1.61,2.22,2.22,0,0,1,.94.18,1.74,1.74,0,0,1,.6.4,3.83,3.83,0,0,1,.41.54.41.41,0,0,1,.05.09h.09V121.5H299v7a2.55,2.55,0,0,1-.4,1.45,2.43,2.43,0,0,1-1.1.86,4.79,4.79,0,0,1-3.14,0Zm2.49-4a1.66,1.66,0,0,0,.61-.78,3.17,3.17,0,0,0,.21-1.22,3.51,3.51,0,0,0-.2-1.22,1.79,1.79,0,0,0-.62-.82,1.57,1.57,0,0,0-1-.29,1.67,1.67,0,0,0-1,.3,1.86,1.86,0,0,0-.61.83,3.25,3.25,0,0,0-.21,1.2,3.14,3.14,0,0,0,.21,1.2,1.83,1.83,0,0,0,.62.79,1.68,1.68,0,0,0,1,.29A1.71,1.71,0,0,0,296.89,126.9Z"/><path class="cls-4" d="M304,119.2h1.4v8h4.16v1.21H304Z"/><path class="cls-4" d="M311,119.2h3.28a3.74,3.74,0,0,1,1.75.38,2.57,2.57,0,0,1,1.08,1.06,3.56,3.56,0,0,1,0,3.08,2.59,2.59,0,0,1-1.08,1.07,3.74,3.74,0,0,1-1.75.38H312V124h2.12a2.19,2.19,0,0,0,1.08-.23,1.37,1.37,0,0,0,.63-.63,2.19,2.19,0,0,0,0-1.87,1.35,1.35,0,0,0-.63-.62,2.32,2.32,0,0,0-1.09-.23h-1.74v8H311Z"/><path class="cls-4" d="M321.61,119.2h7.13v1.21h-2.86v8h-1.4v-8h-2.87Z"/><path class="cls-4" d="M330.26,128.09a2.86,2.86,0,0,1-1.13-1.25,4.55,4.55,0,0,1,0-3.73,2.86,2.86,0,0,1,1.13-1.25,3.4,3.4,0,0,1,3.38,0,2.92,2.92,0,0,1,1.13,1.25,4.65,4.65,0,0,1,0,3.73,2.92,2.92,0,0,1-1.13,1.25,3.4,3.4,0,0,1-3.38,0Zm2.71-1a1.86,1.86,0,0,0,.62-.87,3.45,3.45,0,0,0,.21-1.23,3.37,3.37,0,0,0-.21-1.23,1.84,1.84,0,0,0-.62-.88,1.6,1.6,0,0,0-1-.33,1.65,1.65,0,0,0-1,.32,2,2,0,0,0-.63.88,3.74,3.74,0,0,0,0,2.47,2,2,0,0,0,.63.87,1.79,1.79,0,0,0,2,0Z"/><path class="cls-4" d="M336.51,119.2h1.35v9.2h-1.35Zm1.24,5.22H338l2.73-2.92h1.62l-3.13,3.33H339l-1.24,1.23Zm.65.71.93-.95,3.19,4.22h-1.66Z"/><path class="cls-4" d="M344.34,128.1a3,3,0,0,1-1.14-1.24,4.19,4.19,0,0,1-.4-1.87,4.24,4.24,0,0,1,.4-1.86,3,3,0,0,1,2.79-1.72,3.26,3.26,0,0,1,1.53.36,2.66,2.66,0,0,1,1.11,1.14,4,4,0,0,1,.43,2v.48h-5.5v-1h4.16a2,2,0,0,0-.21-.93,1.51,1.51,0,0,0-.6-.65,1.68,1.68,0,0,0-.9-.23,1.83,1.83,0,0,0-1,.26,1.81,1.81,0,0,0-.65.72,2,2,0,0,0-.24,1v.79a2.58,2.58,0,0,0,.24,1.16,1.65,1.65,0,0,0,.69.74,1.89,1.89,0,0,0,1,.26,2,2,0,0,0,.66-.1,1.38,1.38,0,0,0,.51-.27,1.08,1.08,0,0,0,.32-.39H349a2.3,2.3,0,0,1-.55,1,2.69,2.69,0,0,1-1,.66,3.8,3.8,0,0,1-1.34.23A3.42,3.42,0,0,1,344.34,128.1Z"/><path class="cls-4" d="M351.75,128.4H350.4v-6.9h1.3v1.13h.09a2.26,2.26,0,0,1,.44-.65,2,2,0,0,1,.68-.42,2.59,2.59,0,0,1,.91-.15,2.47,2.47,0,0,1,1.24.3,2.06,2.06,0,0,1,.82.88,3.21,3.21,0,0,1,.29,1.42v4.39h-1.36v-4.22a2.06,2.06,0,0,0-.17-.86,1.27,1.27,0,0,0-.5-.55,1.72,1.72,0,0,0-1.61,0,1.41,1.41,0,0,0-.57.59,1.94,1.94,0,0,0-.21.93Z"/><path class="cls-4" d="M746,295.2h-1.4V286H746Z"/><path class="cls-4" d="M749.08,295.2h-1.36v-6.9H749v1.13h.09a2.26,2.26,0,0,1,.44-.65,2,2,0,0,1,.69-.42,2.74,2.74,0,0,1,2.14.15,2,2,0,0,1,.82.88,3.24,3.24,0,0,1,.29,1.42v4.39h-1.36V291a1.94,1.94,0,0,0-.17-.86,1.21,1.21,0,0,0-.5-.55,1.8,1.8,0,0,0-1.61,0,1.47,1.47,0,0,0-.57.59,2.06,2.06,0,0,0-.2.93Z"/><path class="cls-4" d="M758.35,289.39h-3.77V288.3h3.77Zm-1.4-2.74v6.52a1.25,1.25,0,0,0,.11.57.62.62,0,0,0,.29.27,1.1,1.1,0,0,0,.43.08l.67,0v1.17a5.35,5.35,0,0,1-.84.06,2.4,2.4,0,0,1-1-.21,1.69,1.69,0,0,1-.73-.62,1.79,1.79,0,0,1-.28-1v-6.8Z"/><path class="cls-4" d="M760.83,294.9a2.92,2.92,0,0,1-1.14-1.24,4.18,4.18,0,0,1-.39-1.86,4.28,4.28,0,0,1,.39-1.87,3,3,0,0,1,2.8-1.72,3.14,3.14,0,0,1,1.52.37,2.66,2.66,0,0,1,1.12,1.13,4.14,4.14,0,0,1,.42,2v.48h-5.49v-1h4.16a1.92,1.92,0,0,0-.22-.94,1.57,1.57,0,0,0-.6-.65,1.82,1.82,0,0,0-2.52.75,2.28,2.28,0,0,0-.24,1v.78a2.58,2.58,0,0,0,.25,1.16,1.77,1.77,0,0,0,.68.75,2,2,0,0,0,1,.26,2.3,2.3,0,0,0,.67-.1,1.58,1.58,0,0,0,.5-.27,1.49,1.49,0,0,0,.33-.39h1.37a2.31,2.31,0,0,1-.54,1,2.69,2.69,0,0,1-1,.66,3.86,3.86,0,0,1-1.35.23A3.42,3.42,0,0,1,760.83,294.9Z"/><path class="cls-4" d="M766.89,288.3h1.31v1.1h.08a1.73,1.73,0,0,1,.38-.64,1.75,1.75,0,0,1,.61-.42,2,2,0,0,1,.75-.14,5.22,5.22,0,0,1,.58,0v1.3l-.32-.06-.38,0a1.81,1.81,0,0,0-.85.2,1.45,1.45,0,0,0-.59.56,1.52,1.52,0,0,0-.21.8v4.2h-1.36Z"/><path class="cls-4" d="M772.62,294.9a2.8,2.8,0,0,1-1.14-1.24,4,4,0,0,1-.4-1.86,4.15,4.15,0,0,1,.4-1.87,3,3,0,0,1,2.79-1.72,3.18,3.18,0,0,1,1.53.37,2.69,2.69,0,0,1,1.11,1.13,4.14,4.14,0,0,1,.42,2v.48h-5.49v-1H776a2,2,0,0,0-.21-.94,1.59,1.59,0,0,0-.61-.65,1.86,1.86,0,0,0-1.86,0,1.88,1.88,0,0,0-.66.71,2.13,2.13,0,0,0-.23,1v.78a2.58,2.58,0,0,0,.24,1.16,1.77,1.77,0,0,0,.68.75,2,2,0,0,0,1,.26,2.28,2.28,0,0,0,.66-.1,1.76,1.76,0,0,0,.51-.27,1.66,1.66,0,0,0,.32-.39h1.38a2.44,2.44,0,0,1-.55,1,2.69,2.69,0,0,1-1,.66,3.8,3.8,0,0,1-1.34.23A3.39,3.39,0,0,1,772.62,294.9Z"/><path class="cls-4" d="M782.12,289.52a1.48,1.48,0,0,0-.88-.24,1.83,1.83,0,0,0-.68.12,1.21,1.21,0,0,0-.48.33.78.78,0,0,0-.17.48.66.66,0,0,0,.26.52,1.9,1.9,0,0,0,.82.35l1.11.25a3,3,0,0,1,1.41.68,1.62,1.62,0,0,1,.47,1.19,1.85,1.85,0,0,1-.34,1.11,2.22,2.22,0,0,1-1,.75,3.62,3.62,0,0,1-1.5.28,3.8,3.8,0,0,1-1.42-.24,2,2,0,0,1-1-.69,2.2,2.2,0,0,1-.43-1.1h1.39a1,1,0,0,0,.43.71,1.81,1.81,0,0,0,1,.23,2.49,2.49,0,0,0,.76-.11,1.19,1.19,0,0,0,.51-.33.82.82,0,0,0,.17-.5.71.71,0,0,0-.26-.56,2.08,2.08,0,0,0-.8-.34l-1.08-.24a2.75,2.75,0,0,1-1.41-.68,1.67,1.67,0,0,1-.48-1.21,1.81,1.81,0,0,1,.33-1.07,2.26,2.26,0,0,1,.94-.74,3.6,3.6,0,0,1,1.4-.26,3.46,3.46,0,0,1,1.33.25,2.22,2.22,0,0,1,.9.68,2.19,2.19,0,0,1,.39,1.05h-1.3A1.11,1.11,0,0,0,782.12,289.52Z"/><path class="cls-4" d="M788.53,289.39h-3.77V288.3h3.77Zm-1.4-2.74v6.52a1.25,1.25,0,0,0,.11.57.62.62,0,0,0,.29.27,1.08,1.08,0,0,0,.42.08l.68,0v1.17a5.35,5.35,0,0,1-.84.06,2.37,2.37,0,0,1-1-.21,1.69,1.69,0,0,1-.73-.62,1.79,1.79,0,0,1-.28-1v-6.8Z"/><path class="cls-4" d="M793.14,286h3.28a3.66,3.66,0,0,1,1.76.38,2.47,2.47,0,0,1,1.07,1.05,3.5,3.5,0,0,1,0,3.09,2.54,2.54,0,0,1-1.07,1.06,3.66,3.66,0,0,1-1.76.39h-2.26v-1.19h2.12a2.35,2.35,0,0,0,1.09-.23,1.55,1.55,0,0,0,.63-.64,2.29,2.29,0,0,0,0-1.87,1.51,1.51,0,0,0-.63-.62,2.35,2.35,0,0,0-1.09-.23h-1.74v8h-1.4Z"/><path class="cls-4" d="M804.29,292.13l-.94.06a2,2,0,0,0-1.06.32.88.88,0,0,0-.38.76.92.92,0,0,0,.17.55,1,1,0,0,0,.46.34,2,2,0,0,0,.67.11,1.87,1.87,0,0,0,.94-.22,1.48,1.48,0,0,0,.83-1.34v-2.17a1.26,1.26,0,0,0-.16-.67,1,1,0,0,0-.47-.42,2.17,2.17,0,0,0-1.45,0,1.25,1.25,0,0,0-.48.31.92.92,0,0,0-.26.46H800.8a1.94,1.94,0,0,1,.43-1,2.28,2.28,0,0,1,1-.7,3.67,3.67,0,0,1,1.42-.26,3.79,3.79,0,0,1,1.26.21,2.11,2.11,0,0,1,1,.74,2.3,2.3,0,0,1,.42,1.46v4.58H805v-.94h0a1.85,1.85,0,0,1-.41.53,1.94,1.94,0,0,1-.68.4,2.52,2.52,0,0,1-1,.16,2.73,2.73,0,0,1-1.19-.25,1.88,1.88,0,0,1-.83-.72,2,2,0,0,1-.31-1.13,1.64,1.64,0,0,1,.73-1.52,3.85,3.85,0,0,1,1.85-.54l.74,0,.79,0,.36,0,0,1Z"/><path class="cls-4" d="M807.82,297.76v-1.14h.6a1.78,1.78,0,0,0,.44-.05.76.76,0,0,0,.34-.24,2.13,2.13,0,0,0,.31-.61l.17-.45-2.52-7h1.45l1.73,5.35h.08l1.74-5.35h1.45l-2.84,7.81a2.63,2.63,0,0,1-.85,1.26,2.24,2.24,0,0,1-1.38.41A7.21,7.21,0,0,1,807.82,297.76Z"/><path class="cls-4" d="M814.73,288.3H816v1.13h.09a1.74,1.74,0,0,1,.71-.89,2,2,0,0,1,1.17-.33,2.09,2.09,0,0,1,.81.15,1.76,1.76,0,0,1,.63.41,2.23,2.23,0,0,1,.41.66h.07a2,2,0,0,1,.47-.65,2,2,0,0,1,.7-.42,2.57,2.57,0,0,1,.9-.15,2.29,2.29,0,0,1,1.12.27,1.75,1.75,0,0,1,.74.8,2.81,2.81,0,0,1,.27,1.3v4.62h-1.35v-4.49a1.29,1.29,0,0,0-.36-1,1.36,1.36,0,0,0-.93-.32,1.53,1.53,0,0,0-.74.17,1.22,1.22,0,0,0-.48.5,1.64,1.64,0,0,0-.16.74v4.4h-1.35v-4.58a1.38,1.38,0,0,0-.15-.65,1.1,1.1,0,0,0-.45-.43,1.38,1.38,0,0,0-.65-.15,1.35,1.35,0,0,0-.71.19,1.46,1.46,0,0,0-.51.56,1.67,1.67,0,0,0-.19.81v4.25h-1.36Z"/><path class="cls-4" d="M827,294.9a2.92,2.92,0,0,1-1.14-1.24,4.18,4.18,0,0,1-.39-1.86,4.28,4.28,0,0,1,.39-1.87,3.05,3.05,0,0,1,1.12-1.26,3,3,0,0,1,1.67-.46,3.15,3.15,0,0,1,1.53.37,2.77,2.77,0,0,1,1.12,1.13,4.14,4.14,0,0,1,.42,2v.48h-5.5v-1h4.17a2,2,0,0,0-.22-.94,1.57,1.57,0,0,0-.6-.65,1.82,1.82,0,0,0-2.52.75,2.14,2.14,0,0,0-.24,1v.78a2.58,2.58,0,0,0,.24,1.16,1.79,1.79,0,0,0,.69.75,2,2,0,0,0,1,.26,2.3,2.3,0,0,0,.67-.1,1.7,1.7,0,0,0,.5-.27,1.49,1.49,0,0,0,.33-.39h1.37a2.31,2.31,0,0,1-.54,1,2.65,2.65,0,0,1-1,.66,3.76,3.76,0,0,1-1.34.23A3.42,3.42,0,0,1,827,294.9Z"/><path class="cls-4" d="M834.41,295.2h-1.36v-6.9h1.3v1.13h.09a2.26,2.26,0,0,1,.44-.65,2,2,0,0,1,.68-.42,2.59,2.59,0,0,1,.91-.15,2.47,2.47,0,0,1,1.24.3,2,2,0,0,1,.82.88,3.24,3.24,0,0,1,.29,1.42v4.39h-1.36V291a1.94,1.94,0,0,0-.17-.86,1.27,1.27,0,0,0-.5-.55,1.8,1.8,0,0,0-1.61,0,1.47,1.47,0,0,0-.57.59,2.06,2.06,0,0,0-.2.93Z"/><path class="cls-4" d="M843.68,289.39h-3.77V288.3h3.77Zm-1.4-2.74v6.52a1.25,1.25,0,0,0,.11.57.62.62,0,0,0,.29.27,1.1,1.1,0,0,0,.43.08l.67,0v1.17a5.35,5.35,0,0,1-.84.06,2.4,2.4,0,0,1-1-.21,1.69,1.69,0,0,1-.73-.62,1.79,1.79,0,0,1-.28-1v-6.8Z"/><path class="cls-4" d="M849.4,294.89a3,3,0,0,1-1.13-1.25,4.18,4.18,0,0,1-.4-1.86,4.25,4.25,0,0,1,.4-1.87,3,3,0,0,1,1.13-1.25,3.2,3.2,0,0,1,1.7-.45,3.16,3.16,0,0,1,1.69.45,3,3,0,0,1,1.12,1.25,4.12,4.12,0,0,1,.4,1.87,4,4,0,0,1-.4,1.86,2.9,2.9,0,0,1-1.12,1.25,3.16,3.16,0,0,1-1.69.45A3.2,3.2,0,0,1,849.4,294.89Zm2.72-1a2,2,0,0,0,.62-.87,3.71,3.71,0,0,0,0-2.46,2,2,0,0,0-.62-.88,1.6,1.6,0,0,0-1-.33,1.56,1.56,0,0,0-1,.33,1.92,1.92,0,0,0-.63.88,3.71,3.71,0,0,0,0,2.46,1.89,1.89,0,0,0,.63.87,1.56,1.56,0,0,0,1,.33A1.6,1.6,0,0,0,852.12,293.88Z"/><path class="cls-4" d="M857,295.2h-1.36v-6.9H857v1.13H857a2.1,2.1,0,0,1,.45-.65,1.87,1.87,0,0,1,.68-.42,2.5,2.5,0,0,1,.9-.15,2.45,2.45,0,0,1,1.24.3,2,2,0,0,1,.82.88,3.24,3.24,0,0,1,.29,1.42v4.39h-1.35V291a1.94,1.94,0,0,0-.18-.86,1.21,1.21,0,0,0-.5-.55,1.8,1.8,0,0,0-1.61,0,1.47,1.47,0,0,0-.57.59,2.06,2.06,0,0,0-.2.93Z"/><path class="cls-4" d="M871.06,287.71a1.48,1.48,0,0,0-.66-.47,2.69,2.69,0,0,0-.94-.15,2.57,2.57,0,0,0-1,.17,1.5,1.5,0,0,0-.65.49,1.14,1.14,0,0,0-.23.69,1,1,0,0,0,.48.9,3.74,3.74,0,0,0,1.19.49l.9.24a6.14,6.14,0,0,1,1.29.47,2.67,2.67,0,0,1,1,.81,2.15,2.15,0,0,1,.39,1.3,2.47,2.47,0,0,1-.4,1.4,2.67,2.67,0,0,1-1.17,1,4.51,4.51,0,0,1-1.84.34,4.45,4.45,0,0,1-1.78-.33,2.69,2.69,0,0,1-1.18-.93,2.64,2.64,0,0,1-.48-1.44h1.4a1.4,1.4,0,0,0,.32.81,1.64,1.64,0,0,0,.72.5,3,3,0,0,0,2.05,0,1.76,1.76,0,0,0,.72-.52,1.28,1.28,0,0,0,.26-.78.94.94,0,0,0-.22-.64,1.48,1.48,0,0,0-.59-.43,5.54,5.54,0,0,0-.93-.32l-1.09-.29a4.1,4.1,0,0,1-1.77-.91,2,2,0,0,1-.62-1.53,2.29,2.29,0,0,1,.43-1.38,2.73,2.73,0,0,1,1.17-.93,4,4,0,0,1,1.67-.33,3.91,3.91,0,0,1,1.64.33,2.58,2.58,0,0,1,1.14.9,2.44,2.44,0,0,1,.43,1.32h-1.36A1.22,1.22,0,0,0,871.06,287.71Z"/><path class="cls-4" d="M877.45,289.39h-3.77V288.3h3.77Zm-1.4-2.74v6.52a1.13,1.13,0,0,0,.11.57.61.61,0,0,0,.28.27,1.1,1.1,0,0,0,.43.08l.67,0v1.17a5.13,5.13,0,0,1-.83.06,2.37,2.37,0,0,1-1-.21,1.64,1.64,0,0,1-.73-.62,1.72,1.72,0,0,1-.28-1v-6.8Z"/><path class="cls-4" d="M882.16,292.13l-.94.06a2,2,0,0,0-1.06.32.88.88,0,0,0-.38.76.86.86,0,0,0,.17.55,1,1,0,0,0,.46.34,2,2,0,0,0,.67.11,1.89,1.89,0,0,0,.94-.22,1.48,1.48,0,0,0,.83-1.34v-2.17a1.26,1.26,0,0,0-.16-.67,1,1,0,0,0-.47-.42,2.17,2.17,0,0,0-1.45,0,1.18,1.18,0,0,0-.48.31.92.92,0,0,0-.26.46h-1.35a1.86,1.86,0,0,1,.43-1,2.28,2.28,0,0,1,1-.7,3.67,3.67,0,0,1,1.42-.26,3.79,3.79,0,0,1,1.26.21,2.11,2.11,0,0,1,1,.74,2.3,2.3,0,0,1,.42,1.46v4.58h-1.32v-.94h0a1.85,1.85,0,0,1-.41.53,2,2,0,0,1-.68.4,2.52,2.52,0,0,1-1,.16,2.7,2.7,0,0,1-1.19-.25,1.88,1.88,0,0,1-.83-.72,2,2,0,0,1-.31-1.13,1.64,1.64,0,0,1,.73-1.52,3.85,3.85,0,0,1,1.85-.54l.74,0,.79,0,.36,0,0,1Z"/><path class="cls-4" d="M885.83,286h1.36v9.19h-1.36Zm1.24,5.21h.23L890,288.3h1.62l-3.13,3.33h-.22l-1.23,1.23Zm.66.71.93-.95,3.19,4.22h-1.66Z"/><path class="cls-4" d="M893,287.13a.89.89,0,0,1-.32-.29.71.71,0,0,1-.11-.4.69.69,0,0,1,.11-.4.84.84,0,0,1,.32-.3.93.93,0,0,1,.84,0,.79.79,0,0,1,.43.7.8.8,0,0,1-.11.4.82.82,0,0,1-.32.29.86.86,0,0,1-.84,0Zm-.26,1.17h1.35v6.9h-1.35Z"/><path class="cls-4" d="M897.09,295.2h-1.36v-6.9H897v1.13h.08a2.1,2.1,0,0,1,.45-.65,1.87,1.87,0,0,1,.68-.42,2.54,2.54,0,0,1,.9-.15,2.45,2.45,0,0,1,1.24.3,2,2,0,0,1,.82.88,3.1,3.1,0,0,1,.29,1.42v4.39h-1.35V291a1.94,1.94,0,0,0-.18-.86,1.21,1.21,0,0,0-.5-.55,1.8,1.8,0,0,0-1.61,0,1.39,1.39,0,0,0-.56.59,1.94,1.94,0,0,0-.21.93Z"/><path class="cls-4" d="M904.52,297.68a2.42,2.42,0,0,1-1-.71,2,2,0,0,1-.44-1.1h1.38a1.17,1.17,0,0,0,.28.54,1.4,1.4,0,0,0,.56.32,2.52,2.52,0,0,0,.81.11,2,2,0,0,0,1.29-.38,1.4,1.4,0,0,0,.46-1.16v-1.36h-.09v0a2.52,2.52,0,0,1-.4.54,2,2,0,0,1-.61.41,2.37,2.37,0,0,1-1,.18,2.72,2.72,0,0,1-1.48-.41,2.63,2.63,0,0,1-1-1.17,4.16,4.16,0,0,1-.38-1.84,4.29,4.29,0,0,1,.37-1.86,2.85,2.85,0,0,1,1-1.2,2.75,2.75,0,0,1,1.49-.41,2.17,2.17,0,0,1,.93.18,1.81,1.81,0,0,1,.61.41,3.19,3.19,0,0,1,.4.53l.06.09h.09V288.3h1.32v7.05a2.47,2.47,0,0,1-.4,1.44,2.38,2.38,0,0,1-1.1.86,4.41,4.41,0,0,1-1.61.28A4.14,4.14,0,0,1,904.52,297.68Zm2.48-4a1.68,1.68,0,0,0,.62-.78,3.16,3.16,0,0,0,.21-1.21,3.3,3.3,0,0,0-.21-1.23,1.78,1.78,0,0,0-.61-.82,1.67,1.67,0,0,0-1-.29,1.62,1.62,0,0,0-1,.3,1.88,1.88,0,0,0-.62.83,3.53,3.53,0,0,0-.2,1.21,3.12,3.12,0,0,0,.21,1.19,1.74,1.74,0,0,0,.61.79,1.68,1.68,0,0,0,1,.29A1.61,1.61,0,0,0,907,293.7Z"/><path class="cls-4" d="M744.89,304.93a.92.92,0,0,1-.33-.32.9.9,0,0,1,0-.9.87.87,0,0,1,.33-.33.9.9,0,0,1,.9,0,.87.87,0,0,1,.33.33.9.9,0,0,1,0,.9.92.92,0,0,1-.33.32.84.84,0,0,1-.9,0Zm0,4.61a1,1,0,0,1-.33-.33.9.9,0,0,1,0-.9.87.87,0,0,1,.33-.33.9.9,0,0,1,.9,0,.87.87,0,0,1,.33.33.9.9,0,0,1,0,.9,1,1,0,0,1-.33.33.9.9,0,0,1-.9,0Z"/><path class="cls-4" d="M752.86,301.61l2.92,7.12h.11l2.91-7.12h1.7v9.19h-1.33v-6.64h-.09l-2.7,6.63h-1.1l-2.71-6.64h-.07v6.65h-1.34v-9.19Z"/><path class="cls-4" d="M761.67,310.8l3.31-9.19h1.62l3.3,9.19h-1.49l-2.59-7.52h-.07l-2.6,7.52Zm6.51-3.6v1.17H763.4V307.2Z"/><path class="cls-4" d="M773.47,309.08h.1l2.56-7.47h1.51l-3.31,9.19h-1.61l-3.31-9.19h1.51Z"/><path class="cls-4" d="M781.53,301.61h7.12v1.2h-2.86v8H784.4v-8h-2.87Z"/><path class="cls-4" d="M790.17,310.49a2.92,2.92,0,0,1-1.13-1.25,4,4,0,0,1-.4-1.86,4.12,4.12,0,0,1,.4-1.87,2.92,2.92,0,0,1,1.13-1.25,3.4,3.4,0,0,1,3.38,0,2.86,2.86,0,0,1,1.13,1.25,4.12,4.12,0,0,1,.4,1.87,4,4,0,0,1-.4,1.86,2.86,2.86,0,0,1-1.13,1.25,3.4,3.4,0,0,1-3.38,0Zm2.72-1a2,2,0,0,0,.62-.87,3.88,3.88,0,0,0,0-2.46,2,2,0,0,0-.62-.88,1.76,1.76,0,0,0-2,0,2,2,0,0,0-.62.88,3.71,3.71,0,0,0,0,2.46,2,2,0,0,0,.62.87,1.76,1.76,0,0,0,2,0Z"/><path class="cls-4" d="M796.42,301.61h1.36v9.19h-1.36Zm1.24,5.21h.23l2.74-2.92h1.62l-3.13,3.33h-.22l-1.23,1.23Zm.66.71.93-.95,3.19,4.22h-1.66Z"/><path class="cls-4" d="M804.26,310.5a2.8,2.8,0,0,1-1.14-1.24,4,4,0,0,1-.4-1.86,4.15,4.15,0,0,1,.4-1.87,2.92,2.92,0,0,1,1.12-1.26,3,3,0,0,1,1.67-.46,3.14,3.14,0,0,1,1.52.37,2.66,2.66,0,0,1,1.12,1.13,4.14,4.14,0,0,1,.42,2v.48h-5.49v-1h4.16a1.89,1.89,0,0,0-.22-.94,1.57,1.57,0,0,0-.6-.65,1.77,1.77,0,0,0-.9-.23,1.79,1.79,0,0,0-1,.27,1.85,1.85,0,0,0-.65.71,2.12,2.12,0,0,0-.23,1v.79a2.58,2.58,0,0,0,.24,1.16,1.77,1.77,0,0,0,.68.75,2,2,0,0,0,1,.26,2.3,2.3,0,0,0,.67-.1,1.76,1.76,0,0,0,.51-.27,1.66,1.66,0,0,0,.32-.39h1.37a2.31,2.31,0,0,1-.54,1,2.69,2.69,0,0,1-1,.66,3.82,3.82,0,0,1-1.35.23A3.36,3.36,0,0,1,804.26,310.5Z"/><path class="cls-4" d="M811.67,310.8h-1.36v-6.9h1.31V305h.08a2.1,2.1,0,0,1,.45-.65,1.87,1.87,0,0,1,.68-.42,2.55,2.55,0,0,1,.91-.15,2.44,2.44,0,0,1,1.23.3,2,2,0,0,1,.82.88,3.1,3.1,0,0,1,.29,1.42v4.39h-1.35v-4.22a1.91,1.91,0,0,0-.18-.86,1.21,1.21,0,0,0-.5-.55,1.58,1.58,0,0,0-.78-.18,1.62,1.62,0,0,0-.83.2,1.39,1.39,0,0,0-.56.59,1.94,1.94,0,0,0-.21.93Z"/><path class="cls-4" d="M638.83,292H646v1.2h-2.86v8H641.7v-8h-2.87Z"/><path class="cls-4" d="M647.48,300.89a2.94,2.94,0,0,1-1.14-1.25,4.18,4.18,0,0,1-.4-1.86,4.25,4.25,0,0,1,.4-1.87,3,3,0,0,1,1.14-1.25,3.4,3.4,0,0,1,3.38,0,3,3,0,0,1,1.12,1.25,4.12,4.12,0,0,1,.4,1.87,4,4,0,0,1-.4,1.86,2.9,2.9,0,0,1-1.12,1.25,3.4,3.4,0,0,1-3.38,0Zm2.71-1a1.88,1.88,0,0,0,.62-.87,3.71,3.71,0,0,0,0-2.46,2,2,0,0,0-.62-.88,1.6,1.6,0,0,0-1-.33,1.58,1.58,0,0,0-1,.33,1.92,1.92,0,0,0-.63.88,3.71,3.71,0,0,0,0,2.46,1.89,1.89,0,0,0,.63.87,1.58,1.58,0,0,0,1,.33A1.6,1.6,0,0,0,650.19,299.88Z"/><path class="cls-4" d="M653.72,292h1.36v9.19h-1.36Zm1.24,5.21h.24l2.73-2.92h1.62l-3.13,3.33h-.21L655,298.86Zm.66.71.93-.95,3.19,4.22h-1.66Z"/><path class="cls-4" d="M661.56,300.9a2.8,2.8,0,0,1-1.14-1.24,4,4,0,0,1-.4-1.86,4.15,4.15,0,0,1,.4-1.87,3,3,0,0,1,2.79-1.72,3.15,3.15,0,0,1,1.53.37,2.69,2.69,0,0,1,1.11,1.13,4.13,4.13,0,0,1,.43,2v.48h-5.5v-1h4.16a2,2,0,0,0-.21-.94,1.59,1.59,0,0,0-.61-.65,1.86,1.86,0,0,0-1.86,0,1.88,1.88,0,0,0-.66.71,2.13,2.13,0,0,0-.23,1v.78a2.58,2.58,0,0,0,.24,1.16,1.77,1.77,0,0,0,.68.75,2,2,0,0,0,1,.26,2.28,2.28,0,0,0,.66-.1,1.76,1.76,0,0,0,.51-.27,1.45,1.45,0,0,0,.32-.39h1.38a2.44,2.44,0,0,1-.55,1,2.69,2.69,0,0,1-1,.66,3.8,3.8,0,0,1-1.34.23A3.39,3.39,0,0,1,661.56,300.9Z"/><path class="cls-4" d="M669,301.2h-1.35v-6.9h1.3v1.13H669a2.29,2.29,0,0,1,.45-.65,2,2,0,0,1,.68-.42,2.59,2.59,0,0,1,.91-.15,2.5,2.5,0,0,1,1.24.3,2.06,2.06,0,0,1,.82.88,3.24,3.24,0,0,1,.29,1.42v4.39H672V297a2.09,2.09,0,0,0-.17-.86,1.27,1.27,0,0,0-.5-.55,1.61,1.61,0,0,0-.78-.18,1.57,1.57,0,0,0-.83.2,1.47,1.47,0,0,0-.57.59,1.94,1.94,0,0,0-.21.93Z"/><path class="cls-4" d="M683,293.71a1.59,1.59,0,0,0-.66-.47,2.77,2.77,0,0,0-.94-.15,2.63,2.63,0,0,0-1,.17,1.46,1.46,0,0,0-.64.49,1.08,1.08,0,0,0-.23.69,1,1,0,0,0,.47.9,3.9,3.9,0,0,0,1.2.49l.89.24a6.14,6.14,0,0,1,1.29.47,2.62,2.62,0,0,1,1,.81,2.15,2.15,0,0,1,.39,1.3,2.48,2.48,0,0,1-.41,1.4,2.67,2.67,0,0,1-1.17,1,5,5,0,0,1-3.61,0,2.72,2.72,0,0,1-1.19-.93,2.63,2.63,0,0,1-.47-1.44h1.4a1.39,1.39,0,0,0,.31.81,1.73,1.73,0,0,0,.73.5,2.82,2.82,0,0,0,1,.17,2.89,2.89,0,0,0,1-.19,1.64,1.64,0,0,0,.72-.52,1.22,1.22,0,0,0,.26-.78,1,1,0,0,0-.21-.64,1.64,1.64,0,0,0-.59-.43,5.37,5.37,0,0,0-.94-.32l-1.08-.29a4.2,4.2,0,0,1-1.78-.91,2,2,0,0,1-.62-1.53,2.35,2.35,0,0,1,.43-1.38,2.85,2.85,0,0,1,1.17-.93,4,4,0,0,1,1.67-.33,4,4,0,0,1,1.65.33,2.61,2.61,0,0,1,1.13.9,2.29,2.29,0,0,1,.43,1.32h-1.35A1.36,1.36,0,0,0,683,293.71Z"/><path class="cls-4" d="M689.41,295.39h-3.77V294.3h3.77Zm-1.4-2.74v6.52a1.25,1.25,0,0,0,.11.57.62.62,0,0,0,.29.27,1.1,1.1,0,0,0,.43.08l.67,0v1.17a5.35,5.35,0,0,1-.84.06,2.4,2.4,0,0,1-1-.21,1.75,1.75,0,0,1-.73-.62,1.79,1.79,0,0,1-.28-1v-6.8Z"/><path class="cls-4" d="M694.12,298.13l-.93.06a2.06,2.06,0,0,0-1.07.32.87.87,0,0,0-.37.76.92.92,0,0,0,.16.55,1,1,0,0,0,.46.34,2,2,0,0,0,.68.11,1.89,1.89,0,0,0,.94-.22,1.53,1.53,0,0,0,.61-.57,1.49,1.49,0,0,0,.21-.77v-2.17a1.35,1.35,0,0,0-.16-.67,1,1,0,0,0-.48-.42,1.93,1.93,0,0,0-.77-.14,2,2,0,0,0-.68.11,1.33,1.33,0,0,0-.48.31,1,1,0,0,0-.26.46h-1.35a2,2,0,0,1,.43-1,2.31,2.31,0,0,1,1-.7,3.65,3.65,0,0,1,1.41-.26,3.85,3.85,0,0,1,1.27.21,2.11,2.11,0,0,1,1,.74,2.3,2.3,0,0,1,.42,1.46v4.58h-1.32v-.94h-.06a1.69,1.69,0,0,1-.41.53,2,2,0,0,1-.67.4,2.59,2.59,0,0,1-1,.16,2.7,2.7,0,0,1-1.19-.25,1.85,1.85,0,0,1-.84-.72,2,2,0,0,1-.3-1.13,1.65,1.65,0,0,1,.72-1.52,3.85,3.85,0,0,1,1.85-.54l.74,0,.8,0,.35,0,0,1Z"/><path class="cls-4" d="M697.8,292h1.35v9.19H697.8Zm1.24,5.21h.23L702,294.3h1.62l-3.13,3.33h-.21L699,298.86Zm.65.71.93-.95,3.19,4.22h-1.66Z"/><path class="cls-4" d="M705,293.13a.86.86,0,0,1-.31-.29.72.72,0,0,1-.12-.4.7.7,0,0,1,.12-.4.81.81,0,0,1,.31-.3.91.91,0,0,1,.43-.1.87.87,0,0,1,.42.1.75.75,0,0,1,.31.3.7.7,0,0,1,.12.4.72.72,0,0,1-.12.4.79.79,0,0,1-.31.29.78.78,0,0,1-.42.11A.81.81,0,0,1,705,293.13Zm-.26,1.17h1.36v6.9h-1.36Z"/><path class="cls-4" d="M709.05,301.2H707.7v-6.9H709v1.13h.08a2.29,2.29,0,0,1,.45-.65,2,2,0,0,1,.68-.42,2.59,2.59,0,0,1,.91-.15,2.5,2.5,0,0,1,1.24.3,2.06,2.06,0,0,1,.82.88,3.24,3.24,0,0,1,.29,1.42v4.39h-1.36V297a2.09,2.09,0,0,0-.17-.86,1.27,1.27,0,0,0-.5-.55,1.8,1.8,0,0,0-1.61,0,1.47,1.47,0,0,0-.57.59,1.94,1.94,0,0,0-.21.93Z"/><path class="cls-4" d="M716.48,303.68a2.38,2.38,0,0,1-1-.71,2,2,0,0,1-.44-1.1h1.38a1,1,0,0,0,.28.54,1.33,1.33,0,0,0,.56.32,2.46,2.46,0,0,0,.8.11,2,2,0,0,0,1.3-.38,1.43,1.43,0,0,0,.46-1.16v-1.36h-.09l0,0a2.89,2.89,0,0,1-.39.54,2,2,0,0,1-.62.41,2.37,2.37,0,0,1-1,.18,2.77,2.77,0,0,1-1.48-.41,2.69,2.69,0,0,1-1-1.17,4.16,4.16,0,0,1-.38-1.84,4.29,4.29,0,0,1,.38-1.86,2.68,2.68,0,0,1,2.52-1.61,2.22,2.22,0,0,1,.94.18,1.76,1.76,0,0,1,.6.41,3.23,3.23,0,0,1,.41.53l.05.09h.09V294.3h1.33v7.05a2.54,2.54,0,0,1-.4,1.44,2.43,2.43,0,0,1-1.1.86,4.49,4.49,0,0,1-1.61.28A4.23,4.23,0,0,1,716.48,303.68Zm2.49-4a1.66,1.66,0,0,0,.61-.78,3.16,3.16,0,0,0,.21-1.21,3.3,3.3,0,0,0-.21-1.23,1.71,1.71,0,0,0-.61-.82,1.64,1.64,0,0,0-1-.29,1.67,1.67,0,0,0-1,.3,1.86,1.86,0,0,0-.61.83,3.3,3.3,0,0,0-.21,1.21,3.12,3.12,0,0,0,.21,1.19,1.76,1.76,0,0,0,.62.79,1.68,1.68,0,0,0,1,.29A1.63,1.63,0,0,0,719,299.7Z"/><path class="cls-4" d="M714.12,366.81a2.08,2.08,0,0,0-.9-.64,3.71,3.71,0,0,0-1.29-.21,3.43,3.43,0,0,0-1.33.24,2,2,0,0,0-.88.66,1.61,1.61,0,0,0-.32,1,1.4,1.4,0,0,0,.65,1.23,5.73,5.73,0,0,0,1.65.68l1.22.32a8.21,8.21,0,0,1,1.77.64,3.71,3.71,0,0,1,1.33,1.13,2.94,2.94,0,0,1,.53,1.78,3.4,3.4,0,0,1-.55,1.92,3.78,3.78,0,0,1-1.61,1.31,6.92,6.92,0,0,1-5,0,3.8,3.8,0,0,1-1.63-1.28,3.67,3.67,0,0,1-.65-2h1.92a1.9,1.9,0,0,0,.44,1.11,2.28,2.28,0,0,0,1,.68,3.94,3.94,0,0,0,1.37.23,3.89,3.89,0,0,0,1.44-.26,2.38,2.38,0,0,0,1-.71,1.7,1.7,0,0,0,.35-1.07,1.37,1.37,0,0,0-.29-.88,2.32,2.32,0,0,0-.81-.6,9.68,9.68,0,0,0-1.29-.43l-1.48-.4a5.55,5.55,0,0,1-2.44-1.25,2.75,2.75,0,0,1-.85-2.09,3.1,3.1,0,0,1,.59-1.89,3.79,3.79,0,0,1,1.6-1.28,5.94,5.94,0,0,1,4.56,0,3.63,3.63,0,0,1,1.55,1.24,3.17,3.17,0,0,1,.59,1.8h-1.85A1.84,1.84,0,0,0,714.12,366.81Z"/><path class="cls-4" d="M722.89,369.11h-5.17v-1.48h5.17ZM721,365.36v8.95a1.68,1.68,0,0,0,.16.78.82.82,0,0,0,.39.37,1.48,1.48,0,0,0,.59.11c.16,0,.47,0,.92,0v1.61a7.88,7.88,0,0,1-1.15.07,3.24,3.24,0,0,1-1.38-.28,2.33,2.33,0,0,1-1-.85,2.45,2.45,0,0,1-.38-1.39v-9.33Z"/><path class="cls-4" d="M729.35,372.88l-1.28.08a2.84,2.84,0,0,0-1.46.44,1.18,1.18,0,0,0-.52,1,1.22,1.22,0,0,0,.23.75,1.32,1.32,0,0,0,.63.47,2.86,2.86,0,0,0,2.22-.14,2.12,2.12,0,0,0,.84-.78,2.09,2.09,0,0,0,.29-1.06v-3a1.79,1.79,0,0,0-.22-.92,1.35,1.35,0,0,0-.65-.57,2.53,2.53,0,0,0-1-.19,2.69,2.69,0,0,0-.94.15,1.87,1.87,0,0,0-.66.42,1.41,1.41,0,0,0-.35.63h-1.86a2.69,2.69,0,0,1,.59-1.4,3.28,3.28,0,0,1,1.34-1,5.09,5.09,0,0,1,1.94-.35,5.56,5.56,0,0,1,1.74.28,3,3,0,0,1,1.4,1,3.14,3.14,0,0,1,.58,2v6.28h-1.81V375.8h-.08a2.69,2.69,0,0,1-.56.73,2.79,2.79,0,0,1-.93.55,3.51,3.51,0,0,1-1.3.22,3.79,3.79,0,0,1-1.64-.34,2.61,2.61,0,0,1-1.14-1,2.79,2.79,0,0,1-.42-1.55,2.28,2.28,0,0,1,1-2.09,5.4,5.4,0,0,1,2.54-.74l1-.06,1.09-.06.49,0,0,1.36Z"/><path class="cls-4" d="M734.4,364.47h1.86v12.62H734.4Zm1.7,7.16h.32l3.75-4h2.22l-4.29,4.56h-.3l-1.69,1.7Zm.9,1,1.28-1.31,4.37,5.79h-2.27Z"/><path class="cls-4" d="M745.15,376.68a3.9,3.9,0,0,1-1.56-1.7,5.58,5.58,0,0,1-.55-2.56,5.7,5.7,0,0,1,.55-2.56,4.18,4.18,0,0,1,1.53-1.74,4.3,4.3,0,0,1,2.3-.62,4.45,4.45,0,0,1,2.09.5,3.68,3.68,0,0,1,1.54,1.56,5.69,5.69,0,0,1,.57,2.7v.66h-7.54v-1.39h5.72a2.73,2.73,0,0,0-.3-1.29,2.16,2.16,0,0,0-.83-.89,2.35,2.35,0,0,0-1.23-.32,2.48,2.48,0,0,0-1.33.37,2.65,2.65,0,0,0-.9,1,2.87,2.87,0,0,0-.32,1.33v1.07a3.57,3.57,0,0,0,.33,1.6,2.39,2.39,0,0,0,.94,1,2.67,2.67,0,0,0,1.4.35,2.92,2.92,0,0,0,.92-.13,2.07,2.07,0,0,0,.69-.37,1.91,1.91,0,0,0,.45-.54h1.88a3.29,3.29,0,0,1-.74,1.36,3.8,3.8,0,0,1-1.37.9,5.11,5.11,0,0,1-1.84.31A4.65,4.65,0,0,1,745.15,376.68Z"/><path class="cls-4" d="M753.47,367.63h1.8v1.51h.1a2.36,2.36,0,0,1,.52-.88,2.44,2.44,0,0,1,.84-.58,2.73,2.73,0,0,1,1-.19,6.69,6.69,0,0,1,.8,0v1.77c-.11,0-.25-.05-.44-.07a5.11,5.11,0,0,0-.53,0,2.45,2.45,0,0,0-1.16.27,2.12,2.12,0,0,0-.81.76,2.18,2.18,0,0,0-.29,1.1v5.77h-1.86Z"/><g class="cls-5"><line class="cls-6" x1="726.59" y1="337.75" x2="726.59" y2="260.76"/><polygon class="cls-4" points="731.58 262.22 726.59 253.59 721.61 262.22 731.58 262.22"/><line class="cls-6" x1="739.11" y1="330.57" x2="739.11" y2="253.59"/><polygon class="cls-4" points="744.1 329.11 739.11 337.75 734.13 329.11 744.1 329.11"/></g><g class="cls-3"><rect class="cls-4" x="1254.91" y="115.96" width="200" height="55.17"/></g><path class="cls-4" d="M1324.62,128.41h1.72v9.85h5.13v1.48h-6.85Z"/><path class="cls-4" d="M1333.42,129.8a1.12,1.12,0,0,1-.39-.36.93.93,0,0,1-.14-.49,1,1,0,0,1,.14-.5,1.12,1.12,0,0,1,.39-.36,1.06,1.06,0,0,1,.52-.13,1,1,0,0,1,.52.13,1,1,0,0,1,.39.36,1,1,0,0,1,.14.5.93.93,0,0,1-.14.49,1,1,0,0,1-.39.36,1,1,0,0,1-.52.14A1,1,0,0,1,1333.42,129.8Zm-.32,1.45h1.67v8.49h-1.67Z"/><path class="cls-4" d="M1342.54,138.42h-.09s0,.06,0,.07a3.6,3.6,0,0,1-.49.68,2.31,2.31,0,0,1-.75.52,2.81,2.81,0,0,1-1.17.22,3.3,3.3,0,0,1-1.84-.53,3.44,3.44,0,0,1-1.26-1.53,6.18,6.18,0,0,1,0-4.68,3.52,3.52,0,0,1,1.27-1.51,3.32,3.32,0,0,1,1.84-.52,2.86,2.86,0,0,1,1.16.21,2.14,2.14,0,0,1,.74.51,3.77,3.77,0,0,1,.49.66l0,0,0,.05h.12v-1.37h1.64v11.68h-1.67Zm-1-.31a2.15,2.15,0,0,0,.76-1.05,4.18,4.18,0,0,0,.26-1.56,4.33,4.33,0,0,0-.25-1.56,2.2,2.2,0,0,0-.75-1,2,2,0,0,0-1.21-.36,2,2,0,0,0-1.22.37,2.26,2.26,0,0,0-.76,1,4.27,4.27,0,0,0-.25,1.53,4.18,4.18,0,0,0,.26,1.54,2.32,2.32,0,0,0,.76,1.06,2.06,2.06,0,0,0,2.4,0Z"/><path class="cls-4" d="M1351.64,131.25h1.66v8.49h-1.64v-1.47h-.08a2.6,2.6,0,0,1-.56.82,2.67,2.67,0,0,1-.86.56,3.18,3.18,0,0,1-2.58-.16,2.5,2.5,0,0,1-1-1.09,4,4,0,0,1-.35-1.75v-5.4h1.67v5.2a2.26,2.26,0,0,0,.22,1,1.69,1.69,0,0,0,.61.66,1.77,1.77,0,0,0,.9.23,2,2,0,0,0,.95-.24,2,2,0,0,0,.75-.72,2.17,2.17,0,0,0,.3-1.17Z"/><path class="cls-4" d="M1355.66,129.8a1.12,1.12,0,0,1-.39-.36.86.86,0,0,1-.15-.49.89.89,0,0,1,.15-.5,1.12,1.12,0,0,1,.39-.36,1,1,0,0,1,.52-.13,1.06,1.06,0,0,1,.52.13,1,1,0,0,1,.38.36.88.88,0,0,1,.14.5.85.85,0,0,1-.14.49,1,1,0,0,1-.38.36,1,1,0,0,1-.52.14A1,1,0,0,1,1355.66,129.8Zm-.33,1.45H1357v8.49h-1.67Z"/><path class="cls-4" d="M1360.39,139.38a3.52,3.52,0,0,1-1.27-1.53,5.46,5.46,0,0,1-.46-2.34,5.61,5.61,0,0,1,.46-2.34,3.54,3.54,0,0,1,1.28-1.51,3.3,3.3,0,0,1,1.84-.52,2.81,2.81,0,0,1,1.15.21,2.29,2.29,0,0,1,.75.51,4.32,4.32,0,0,1,.48.66l0,0,0,.05h.09v-4.21h1.67v11.33h-1.63v-1.32h-.13a.21.21,0,0,1,0,.07,3.63,3.63,0,0,1-.5.68,2.31,2.31,0,0,1-.75.52,2.75,2.75,0,0,1-1.17.22A3.25,3.25,0,0,1,1360.39,139.38Zm3.4-1.27a2.21,2.21,0,0,0,.76-1.05,4.4,4.4,0,0,0,.26-1.56,4.32,4.32,0,0,0-.26-1.56,2.2,2.2,0,0,0-.75-1,2,2,0,0,0-1.2-.36,2,2,0,0,0-1.23.37,2.25,2.25,0,0,0-.75,1,4.27,4.27,0,0,0-.26,1.53,4.4,4.4,0,0,0,.26,1.54,2.4,2.4,0,0,0,.76,1.06,2.08,2.08,0,0,0,2.41,0Z"/><path class="cls-4" d="M1368.93,129.8a1,1,0,0,1-.38-.36.86.86,0,0,1-.15-.49.89.89,0,0,1,.15-.5,1,1,0,0,1,.38-.36,1.07,1.07,0,0,1,.53-.13,1.08,1.08,0,0,1,.52.13,1,1,0,0,1,.38.36.88.88,0,0,1,.14.5.85.85,0,0,1-.14.49,1,1,0,0,1-.38.36,1,1,0,0,1-.52.14A1,1,0,0,1,1368.93,129.8Zm-.32,1.45h1.67v8.49h-1.67Z"/><path class="cls-4" d="M1376.29,132.58h-4.65v-1.33h4.65Zm-1.73-3.37v8a1.45,1.45,0,0,0,.13.7.78.78,0,0,0,.36.34,1.18,1.18,0,0,0,.52.1c.15,0,.43,0,.83,0v1.44a6.33,6.33,0,0,1-1,.07,3,3,0,0,1-1.24-.25,2,2,0,0,1-.9-.76,2.18,2.18,0,0,1-.34-1.25v-8.38Z"/><path class="cls-4" d="M1378.05,142.9v-1.4h.75a2.06,2.06,0,0,0,.54-.06.85.85,0,0,0,.41-.3,2.55,2.55,0,0,0,.4-.75l.21-.55-3.12-8.61H1379l2.14,6.59h.09l2.15-6.59h1.79l-3.51,9.62a3.17,3.17,0,0,1-1,1.54,2.7,2.7,0,0,1-1.71.52Q1378.38,142.93,1378.05,142.9Z"/><path class="cls-4" d="M1325.19,147.64h4a4.58,4.58,0,0,1,2.15.47,3.15,3.15,0,0,1,1.33,1.3,4.32,4.32,0,0,1,0,3.8,3.23,3.23,0,0,1-1.33,1.31,4.48,4.48,0,0,1-2.16.48h-2.78v-1.47h2.61a2.76,2.76,0,0,0,1.33-.28,1.73,1.73,0,0,0,.78-.78,2.51,2.51,0,0,0,.26-1.16,2.47,2.47,0,0,0-.26-1.15,1.71,1.71,0,0,0-.78-.77,2.93,2.93,0,0,0-1.34-.27h-2.14V159h-1.72Z"/><path class="cls-4" d="M1334.83,150.47h1.62v1.36h.09a2.1,2.1,0,0,1,.47-.79,2.07,2.07,0,0,1,.75-.52,2.4,2.4,0,0,1,.93-.17c.26,0,.49,0,.71,0V152a2.14,2.14,0,0,0-.39-.07l-.47,0a2.26,2.26,0,0,0-1,.24,1.75,1.75,0,0,0-.72.68,1.89,1.89,0,0,0-.27,1V159h-1.67Z"/><path class="cls-4" d="M1341.88,158.59a3.59,3.59,0,0,1-1.39-1.54,5,5,0,0,1-.49-2.29,5.13,5.13,0,0,1,.49-2.31,3.71,3.71,0,0,1,1.39-1.54,4.23,4.23,0,0,1,4.17,0,3.71,3.71,0,0,1,1.39,1.54,5.13,5.13,0,0,1,.49,2.31,5,5,0,0,1-.49,2.29,3.59,3.59,0,0,1-1.39,1.54,4.23,4.23,0,0,1-4.17,0Zm3.35-1.24a2.44,2.44,0,0,0,.76-1.08,4.54,4.54,0,0,0,0-3,2.47,2.47,0,0,0-.76-1.09,2,2,0,0,0-1.26-.4,2,2,0,0,0-1.26.4,2.43,2.43,0,0,0-.77,1.09,4.54,4.54,0,0,0,0,3,2.46,2.46,0,0,0,.77,1.08,2.18,2.18,0,0,0,2.52,0Z"/><path class="cls-4" d="M1353.48,159h-1.78l-3.08-8.5h1.79l2.14,6.53h.09l2.14-6.53h1.79Z"/><path class="cls-4" d="M1358.26,149a1.12,1.12,0,0,1-.39-.36,1,1,0,0,1-.14-.49,1,1,0,0,1,.14-.51,1,1,0,0,1,.39-.35,1.06,1.06,0,0,1,.52-.13,1,1,0,0,1,.52.13.94.94,0,0,1,.39.35,1,1,0,0,1,.14.51,1,1,0,0,1-.14.49,1.12,1.12,0,0,1-.91.5A1.07,1.07,0,0,1,1358.26,149Zm-.32,1.44h1.67V159h-1.67Z"/><path class="cls-4" d="M1363,158.61a3.62,3.62,0,0,1-1.26-1.53,5.52,5.52,0,0,1-.46-2.34,5.46,5.46,0,0,1,.46-2.34,3.55,3.55,0,0,1,1.27-1.52,3.4,3.4,0,0,1,1.84-.52,2.7,2.7,0,0,1,1.16.22,2.13,2.13,0,0,1,.74.5,4.71,4.71,0,0,1,.49.66l0,.06,0,0h.09v-4.21h1.67V159h-1.63v-1.32h-.13l0,.07a3.6,3.6,0,0,1-.49.68,2.31,2.31,0,0,1-.75.52,3,3,0,0,1-1.17.22A3.3,3.3,0,0,1,1363,158.61Zm3.4-1.27a2.33,2.33,0,0,0,.77-1.05,4.41,4.41,0,0,0,.26-1.57,4.3,4.3,0,0,0-.26-1.55,2.18,2.18,0,0,0-.75-1,2,2,0,0,0-1.21-.36,2,2,0,0,0-1.22.38,2.26,2.26,0,0,0-.76,1,4.21,4.21,0,0,0-.25,1.52,4.11,4.11,0,0,0,.26,1.54,2.35,2.35,0,0,0,.76,1.07,2.11,2.11,0,0,0,2.4,0Z"/><path class="cls-4" d="M1372.73,158.6a3.64,3.64,0,0,1-1.41-1.52,5.64,5.64,0,0,1,0-4.6,3.75,3.75,0,0,1,1.38-1.56,3.83,3.83,0,0,1,2.06-.56,4,4,0,0,1,1.89.45,3.25,3.25,0,0,1,1.37,1.4,5,5,0,0,1,.52,2.42v.59h-6.77V154h5.13a2.53,2.53,0,0,0-.26-1.15,2,2,0,0,0-.75-.8,2.14,2.14,0,0,0-1.11-.29,2.1,2.1,0,0,0-1.19.34,2.26,2.26,0,0,0-.81.87,2.72,2.72,0,0,0-.29,1.2v1a3.19,3.19,0,0,0,.3,1.44,2.18,2.18,0,0,0,.84.91,2.52,2.52,0,0,0,1.27.32,2.66,2.66,0,0,0,.82-.12,1.93,1.93,0,0,0,.62-.33,1.57,1.57,0,0,0,.4-.49h1.69a2.81,2.81,0,0,1-.67,1.22,3.18,3.18,0,0,1-1.22.81,4.63,4.63,0,0,1-1.66.28A4.16,4.16,0,0,1,1372.73,158.6Z"/><path class="cls-4" d="M1380.19,150.47h1.62v1.36h.09a2.1,2.1,0,0,1,.47-.79,2.16,2.16,0,0,1,.75-.52,2.4,2.4,0,0,1,.93-.17c.26,0,.49,0,.72,0V152a2.47,2.47,0,0,0-.4-.07l-.47,0a2.26,2.26,0,0,0-1.05.24,1.81,1.81,0,0,0-.72.68,1.88,1.88,0,0,0-.26,1V159h-1.68Z"/><path class="cls-4" d="M72,124.78h1.72v9.85h5.13v1.48H72Z"/><path class="cls-4" d="M80.83,126.17a1.12,1.12,0,0,1-.39-.36,1,1,0,0,1-.14-.5,1,1,0,0,1,.14-.5,1.12,1.12,0,0,1,.39-.36,1.18,1.18,0,0,1,.52-.13,1.14,1.14,0,0,1,.52.13,1,1,0,0,1,.39.36,1,1,0,0,1,.14.5,1,1,0,0,1-.14.5,1.12,1.12,0,0,1-.91.5A1.07,1.07,0,0,1,80.83,126.17Zm-.32,1.44h1.67v8.5H80.51Z"/><path class="cls-4" d="M90,134.79h-.09l0,.07a4,4,0,0,1-.49.68,2.29,2.29,0,0,1-.75.51,2.81,2.81,0,0,1-1.17.22,3.23,3.23,0,0,1-1.84-.53,3.53,3.53,0,0,1-1.26-1.52,5.52,5.52,0,0,1-.46-2.34,5.46,5.46,0,0,1,.46-2.34A3.55,3.55,0,0,1,85.57,128a3.32,3.32,0,0,1,1.84-.52,2.7,2.7,0,0,1,1.16.22,2.13,2.13,0,0,1,.74.5,4.71,4.71,0,0,1,.49.66l0,.06,0,.05H90v-1.38h1.63V139.3H90Zm-1-.31a2.33,2.33,0,0,0,.77-1,4.45,4.45,0,0,0,.26-1.57,4.3,4.3,0,0,0-.26-1.55,2.18,2.18,0,0,0-.75-1,2,2,0,0,0-1.21-.36,2,2,0,0,0-1.22.38,2.26,2.26,0,0,0-.76,1,4.21,4.21,0,0,0-.25,1.52,4.15,4.15,0,0,0,.26,1.54,2.35,2.35,0,0,0,.76,1.07,2,2,0,0,0,1.21.38A1.92,1.92,0,0,0,89,134.48Z"/><path class="cls-4" d="M99.05,127.61h1.66v8.5H99.08v-1.47H99a2.72,2.72,0,0,1-.56.82,2.54,2.54,0,0,1-.86.55,2.9,2.9,0,0,1-1.12.21,2.78,2.78,0,0,1-1.46-.37,2.51,2.51,0,0,1-1-1.09,4,4,0,0,1-.35-1.74v-5.41h1.67v5.2a2.14,2.14,0,0,0,.23,1,1.54,1.54,0,0,0,.6.66,1.68,1.68,0,0,0,.9.23,2,2,0,0,0,1-.24,1.85,1.85,0,0,0,.75-.72,2.13,2.13,0,0,0,.3-1.16Z"/><path class="cls-4" d="M103.07,126.17a1.12,1.12,0,0,1-.39-.36.89.89,0,0,1-.15-.5.91.91,0,0,1,.15-.5,1.12,1.12,0,0,1,.39-.36,1.14,1.14,0,0,1,.52-.13,1.18,1.18,0,0,1,.52.13,1,1,0,0,1,.38.36.91.91,0,0,1,.15.5.89.89,0,0,1-.15.5,1,1,0,0,1-.38.36,1.07,1.07,0,0,1-.52.14A1,1,0,0,1,103.07,126.17Zm-.33,1.44h1.67v8.5h-1.67Z"/><path class="cls-4" d="M107.8,135.74a3.55,3.55,0,0,1-1.27-1.52,5.68,5.68,0,0,1-.46-2.34,5.61,5.61,0,0,1,.46-2.34,3.57,3.57,0,0,1,1.28-1.52,3.3,3.3,0,0,1,1.84-.52,2.73,2.73,0,0,1,1.16.22,2.34,2.34,0,0,1,.74.5,5.6,5.6,0,0,1,.48.66l0,.06,0,.05h.09v-4.21h1.67v11.33h-1.63v-1.32h-.13a.43.43,0,0,1,0,.07,4,4,0,0,1-.5.68,2.29,2.29,0,0,1-.75.51,2.75,2.75,0,0,1-1.17.22A3.17,3.17,0,0,1,107.8,135.74Zm3.4-1.26a2.31,2.31,0,0,0,.76-1,4.45,4.45,0,0,0,.26-1.57,4.3,4.3,0,0,0-.26-1.55,2.12,2.12,0,0,0-.75-1,2,2,0,0,0-1.2-.36,2,2,0,0,0-1.23.38,2.25,2.25,0,0,0-.75,1,4.21,4.21,0,0,0-.26,1.52,4.36,4.36,0,0,0,.26,1.54,2.43,2.43,0,0,0,.76,1.07,2,2,0,0,0,1.22.38A1.94,1.94,0,0,0,111.2,134.48Z"/><path class="cls-4" d="M116.34,126.17a1,1,0,0,1-.38-.36.89.89,0,0,1-.15-.5.91.91,0,0,1,.15-.5,1,1,0,0,1,.38-.36,1.19,1.19,0,0,1,.53-.13,1.21,1.21,0,0,1,.52.13,1,1,0,0,1,.38.36.9.9,0,0,1,.14.5.88.88,0,0,1-.14.5,1,1,0,0,1-.38.36,1.1,1.1,0,0,1-.52.14A1.08,1.08,0,0,1,116.34,126.17Zm-.32,1.44h1.67v8.5H116Z"/><path class="cls-4" d="M123.7,128.94h-4.65v-1.33h4.65ZM122,125.57v8a1.38,1.38,0,0,0,.14.7.76.76,0,0,0,.35.34,1.36,1.36,0,0,0,.53.09l.82,0v1.44a6.33,6.33,0,0,1-1,.07,3,3,0,0,1-1.24-.26,2,2,0,0,1-.9-.76,2.16,2.16,0,0,1-.34-1.25v-8.38Z"/><path class="cls-4" d="M125.46,139.26l0-1.4h.74a2.11,2.11,0,0,0,.54,0,.82.82,0,0,0,.41-.31,2.6,2.6,0,0,0,.4-.74l.21-.55-3.12-8.62h1.79l2.14,6.59h.09l2.15-6.59h1.79l-3.5,9.63a3.35,3.35,0,0,1-1.05,1.54,2.76,2.76,0,0,1-1.71.52C126,139.3,125.68,139.28,125.46,139.26Z"/><path class="cls-4" d="M72.6,144h4.05a4.58,4.58,0,0,1,2.15.47,3.12,3.12,0,0,1,1.33,1.31,4.32,4.32,0,0,1,0,3.8,3.15,3.15,0,0,1-1.33,1.3,4.48,4.48,0,0,1-2.16.48H73.86V149.9h2.61a2.76,2.76,0,0,0,1.33-.29,1.73,1.73,0,0,0,.78-.78,2.67,2.67,0,0,0,0-2.3,1.66,1.66,0,0,0-.78-.77,2.78,2.78,0,0,0-1.34-.28H74.32v9.85H72.6Z"/><path class="cls-4" d="M82.24,146.84h1.62v1.35H84a2.19,2.19,0,0,1,.47-.79,2.13,2.13,0,0,1,.75-.51,2.41,2.41,0,0,1,.93-.18,5.48,5.48,0,0,1,.72,0v1.59l-.4-.07-.47,0a2.14,2.14,0,0,0-1,.25,1.81,1.81,0,0,0-.72.68,1.83,1.83,0,0,0-.26,1v5.17H82.24Z"/><path class="cls-4" d="M89.29,155a3.71,3.71,0,0,1-1.39-1.54,5.64,5.64,0,0,1,0-4.6,3.67,3.67,0,0,1,1.39-1.55,4.3,4.3,0,0,1,4.17,0,3.67,3.67,0,0,1,1.39,1.55,5.64,5.64,0,0,1,0,4.6A3.71,3.71,0,0,1,93.46,155a4.23,4.23,0,0,1-4.17,0Zm3.35-1.25a2.33,2.33,0,0,0,.76-1.08,4.23,4.23,0,0,0,.26-1.51,4.33,4.33,0,0,0-.26-1.52,2.44,2.44,0,0,0-.76-1.08,2.18,2.18,0,0,0-2.52,0,2.35,2.35,0,0,0-.77,1.08,4.33,4.33,0,0,0-.26,1.52,4.23,4.23,0,0,0,.26,1.51,2.35,2.35,0,0,0,.77,1.08,2.18,2.18,0,0,0,2.52,0Z"/><path class="cls-4" d="M100.89,155.33H99.11L96,146.84h1.79l2.14,6.52h.09l2.15-6.52H104Z"/><path class="cls-4" d="M105.67,145.4a1,1,0,0,1-.38-.37.86.86,0,0,1-.15-.49.89.89,0,0,1,.15-.5,1,1,0,0,1,.38-.36,1.07,1.07,0,0,1,.53-.13,1.08,1.08,0,0,1,.52.13,1,1,0,0,1,.38.36,1,1,0,0,1,.14.5.93.93,0,0,1-.14.49,1,1,0,0,1-.38.37,1.08,1.08,0,0,1-.52.13A1.07,1.07,0,0,1,105.67,145.4Zm-.32,1.44H107v8.49h-1.67Z"/><path class="cls-4" d="M110.4,155a3.56,3.56,0,0,1-1.26-1.53,6.18,6.18,0,0,1,0-4.68,3.52,3.52,0,0,1,1.27-1.51,3.32,3.32,0,0,1,1.84-.52,2.86,2.86,0,0,1,1.16.21,2.14,2.14,0,0,1,.74.51,3.77,3.77,0,0,1,.49.66l0,0,0,.05h.09V144h1.67v11.33h-1.63V154h-.13s0,.06,0,.07a4,4,0,0,1-.49.69,2.46,2.46,0,0,1-.75.51,2.81,2.81,0,0,1-1.17.22A3.3,3.3,0,0,1,110.4,155Zm3.4-1.26a2.31,2.31,0,0,0,.77-1.06,4.4,4.4,0,0,0,.26-1.56,4.32,4.32,0,0,0-.26-1.56,2.2,2.2,0,0,0-.75-1,2,2,0,0,0-1.21-.36,2,2,0,0,0-1.22.37,2.32,2.32,0,0,0-.76,1,4.27,4.27,0,0,0-.25,1.53,4.18,4.18,0,0,0,.26,1.54,2.32,2.32,0,0,0,.76,1.06,1.91,1.91,0,0,0,1.21.39A2,2,0,0,0,113.8,153.71Z"/><path class="cls-4" d="M120.14,155a3.6,3.6,0,0,1-1.41-1.53,5.16,5.16,0,0,1-.49-2.3,5.29,5.29,0,0,1,.49-2.3,3.7,3.7,0,0,1,1.39-1.56,3.77,3.77,0,0,1,2-.55,4,4,0,0,1,1.89.44,3.37,3.37,0,0,1,1.37,1.4A5,5,0,0,1,126,151v.59h-6.77v-1.25h5.13a2.57,2.57,0,0,0-.26-1.16,2,2,0,0,0-.75-.79,2,2,0,0,0-1.1-.29,2.18,2.18,0,0,0-2,1.21,2.56,2.56,0,0,0-.3,1.19v1a3.17,3.17,0,0,0,.3,1.43,2.2,2.2,0,0,0,.84.92,2.52,2.52,0,0,0,1.27.31,2.66,2.66,0,0,0,.82-.12,1.93,1.93,0,0,0,.62-.33,1.65,1.65,0,0,0,.4-.48h1.69a2.78,2.78,0,0,1-.67,1.21,3.18,3.18,0,0,1-1.22.81,4.63,4.63,0,0,1-1.66.29A4.16,4.16,0,0,1,120.14,155Z"/><path class="cls-4" d="M127.61,146.84h1.61v1.35h.09a2.19,2.19,0,0,1,.47-.79,2.08,2.08,0,0,1,.76-.51,2.32,2.32,0,0,1,.92-.18,5.48,5.48,0,0,1,.72,0v1.59l-.4-.07-.47,0a2.14,2.14,0,0,0-1.05.25,1.81,1.81,0,0,0-.72.68,1.83,1.83,0,0,0-.26,1v5.17h-1.67Z"/><g class="cls-9"><g class="cls-10"><line class="cls-11" x1="1215.32" y1="29.07" x2="1004.67" y2="249.42"/><line class="cls-11" x1="1210.76" y1="29.09" x2="1000.11" y2="249.44"/><line class="cls-11" x1="1206.2" y1="29.11" x2="995.55" y2="249.45"/><line class="cls-11" x1="1201.64" y1="29.13" x2="990.98" y2="249.47"/><line class="cls-11" x1="1197.08" y1="29.15" x2="986.42" y2="249.49"/><line class="cls-11" x1="1192.52" y1="29.17" x2="981.86" y2="249.51"/><line class="cls-11" x1="1187.96" y1="29.18" x2="977.3" y2="249.53"/><line class="cls-11" x1="1183.4" y1="29.2" x2="972.74" y2="249.54"/><line class="cls-11" x1="1178.84" y1="29.22" x2="968.18" y2="249.56"/><line class="cls-11" x1="1174.28" y1="29.24" x2="963.62" y2="249.58"/><line class="cls-11" x1="1169.72" y1="29.26" x2="959.06" y2="249.6"/><line class="cls-11" x1="1165.16" y1="29.27" x2="954.5" y2="249.62"/><line class="cls-11" x1="1160.6" y1="29.29" x2="949.94" y2="249.63"/><line class="cls-11" x1="1156.04" y1="29.31" x2="945.38" y2="249.65"/><line class="cls-11" x1="1151.48" y1="29.33" x2="940.82" y2="249.67"/><line class="cls-11" x1="1146.92" y1="29.35" x2="936.26" y2="249.69"/><line class="cls-11" x1="1142.36" y1="29.36" x2="931.7" y2="249.71"/><line class="cls-11" x1="1137.8" y1="29.38" x2="927.14" y2="249.72"/><line class="cls-11" x1="1133.24" y1="29.4" x2="922.58" y2="249.74"/><line class="cls-11" x1="1128.68" y1="29.42" x2="918.02" y2="249.76"/><line class="cls-11" x1="1124.12" y1="29.44" x2="913.46" y2="249.78"/><line class="cls-11" x1="1119.56" y1="29.45" x2="908.9" y2="249.8"/><line class="cls-11" x1="1115" y1="29.47" x2="904.34" y2="249.82"/><line class="cls-11" x1="1110.44" y1="29.49" x2="899.78" y2="249.83"/><line class="cls-11" x1="1105.88" y1="29.51" x2="895.22" y2="249.85"/><line class="cls-11" x1="1101.32" y1="29.53" x2="890.66" y2="249.87"/><line class="cls-11" x1="1096.76" y1="29.55" x2="886.1" y2="249.89"/><line class="cls-11" x1="1092.2" y1="29.56" x2="881.54" y2="249.91"/><line class="cls-11" x1="1087.64" y1="29.58" x2="876.98" y2="249.92"/><line class="cls-11" x1="1083.08" y1="29.6" x2="872.42" y2="249.94"/><line class="cls-11" x1="1078.52" y1="29.62" x2="867.86" y2="249.96"/><line class="cls-11" x1="1073.96" y1="29.64" x2="863.3" y2="249.98"/><line class="cls-11" x1="1069.4" y1="29.65" x2="858.74" y2="250"/><line class="cls-11" x1="1064.84" y1="29.67" x2="854.18" y2="250.01"/><line class="cls-11" x1="1060.28" y1="29.69" x2="849.62" y2="250.03"/><line class="cls-11" x1="1055.72" y1="29.71" x2="845.06" y2="250.05"/><line class="cls-11" x1="1051.16" y1="29.73" x2="840.5" y2="250.07"/><line class="cls-11" x1="1046.6" y1="29.74" x2="835.94" y2="250.09"/><line class="cls-11" x1="1042.04" y1="29.76" x2="831.38" y2="250.1"/><line class="cls-11" x1="1037.48" y1="29.78" x2="826.82" y2="250.12"/><line class="cls-11" x1="1032.92" y1="29.8" x2="822.26" y2="250.14"/><line class="cls-11" x1="1028.36" y1="29.82" x2="817.7" y2="250.16"/><line class="cls-11" x1="1023.8" y1="29.83" x2="813.14" y2="250.18"/><line class="cls-11" x1="1019.24" y1="29.85" x2="808.58" y2="250.2"/><line class="cls-11" x1="1014.68" y1="29.87" x2="804.02" y2="250.21"/><line class="cls-11" x1="1010.12" y1="29.89" x2="799.46" y2="250.23"/><line class="cls-11" x1="1005.56" y1="29.91" x2="794.9" y2="250.25"/><line class="cls-11" x1="1000.99" y1="29.93" x2="790.34" y2="250.27"/><line class="cls-11" x1="996.43" y1="29.94" x2="785.78" y2="250.29"/><line class="cls-11" x1="991.87" y1="29.96" x2="781.22" y2="250.3"/><line class="cls-11" x1="987.31" y1="29.98" x2="776.66" y2="250.32"/><line class="cls-11" x1="982.75" y1="30" x2="772.1" y2="250.34"/><line class="cls-11" x1="978.19" y1="30.02" x2="767.54" y2="250.36"/><line class="cls-11" x1="973.63" y1="30.03" x2="762.98" y2="250.38"/><line class="cls-11" x1="969.07" y1="30.05" x2="758.42" y2="250.39"/><line class="cls-11" x1="964.51" y1="30.07" x2="753.86" y2="250.41"/><line class="cls-11" x1="959.95" y1="30.09" x2="749.3" y2="250.43"/><line class="cls-11" x1="955.39" y1="30.11" x2="744.74" y2="250.45"/><line class="cls-11" x1="950.83" y1="30.12" x2="740.17" y2="250.47"/><line class="cls-11" x1="946.27" y1="30.14" x2="735.61" y2="250.48"/><line class="cls-11" x1="941.71" y1="30.16" x2="731.05" y2="250.5"/><line class="cls-11" x1="937.15" y1="30.18" x2="726.49" y2="250.52"/><line class="cls-11" x1="932.59" y1="30.2" x2="721.93" y2="250.54"/><line class="cls-11" x1="928.03" y1="30.21" x2="717.37" y2="250.56"/><line class="cls-11" x1="923.47" y1="30.23" x2="712.81" y2="250.58"/><line class="cls-11" x1="918.91" y1="30.25" x2="708.25" y2="250.59"/><line class="cls-11" x1="914.35" y1="30.27" x2="703.69" y2="250.61"/><line class="cls-11" x1="909.79" y1="30.29" x2="699.13" y2="250.63"/><line class="cls-11" x1="905.23" y1="30.31" x2="694.57" y2="250.65"/><line class="cls-11" x1="900.67" y1="30.32" x2="690.01" y2="250.67"/><line class="cls-11" x1="896.11" y1="30.34" x2="685.45" y2="250.68"/><line class="cls-11" x1="891.55" y1="30.36" x2="680.89" y2="250.7"/><line class="cls-11" x1="886.99" y1="30.38" x2="676.33" y2="250.72"/><line class="cls-11" x1="882.43" y1="30.4" x2="671.77" y2="250.74"/><line class="cls-11" x1="877.87" y1="30.41" x2="667.21" y2="250.76"/></g></g><path class="cls-4" d="M905.65,117.3h3v14.4h7.49v2.57H905.65Z"/><path class="cls-4" d="M919.14,119.51a1.73,1.73,0,0,1-.64-.59,1.43,1.43,0,0,1-.24-.81,1.51,1.51,0,0,1,.24-.82,1.65,1.65,0,0,1,.64-.59,1.87,1.87,0,0,1,1.72,0,1.65,1.65,0,0,1,.64.59,1.59,1.59,0,0,1,.23.82,1.5,1.5,0,0,1-.23.81,1.73,1.73,0,0,1-.64.59,1.79,1.79,0,0,1-1.72,0Zm-.64,2h3v12.73h-3Z"/><path class="cls-4" d="M932.86,132.27h-.12a.35.35,0,0,1-.07.12,4.4,4.4,0,0,1-.75,1,3.44,3.44,0,0,1-1.13.76,4.19,4.19,0,0,1-1.7.32,4.8,4.8,0,0,1-2.7-.78,5.26,5.26,0,0,1-1.87-2.26,8.48,8.48,0,0,1-.68-3.53,8.34,8.34,0,0,1,.69-3.54,5.21,5.21,0,0,1,1.88-2.25,4.9,4.9,0,0,1,2.69-.76,4.15,4.15,0,0,1,1.69.31,3.29,3.29,0,0,1,1.12.76,5.31,5.31,0,0,1,.74,1l.05.07a.36.36,0,0,0,0,.09h.17v-2.1h2.93v17.51h-3Zm-1.32-.73a3.24,3.24,0,0,0,1-1.45,6.31,6.31,0,0,0,.35-2.18,6.21,6.21,0,0,0-.35-2.17,3,3,0,0,0-1-1.41,2.73,2.73,0,0,0-1.64-.5,2.6,2.6,0,0,0-1.65.52,3.07,3.07,0,0,0-1,1.43,6.1,6.1,0,0,0-.35,2.13,6,6,0,0,0,.36,2.15,3.31,3.31,0,0,0,1,1.46,2.54,2.54,0,0,0,1.64.53A2.64,2.64,0,0,0,931.54,131.54Z"/><path class="cls-4" d="M946.84,121.54h3v12.73h-2.88V132h-.13a3.71,3.71,0,0,1-.84,1.26,3.63,3.63,0,0,1-1.3.85,4.35,4.35,0,0,1-1.69.31,4.27,4.27,0,0,1-2.22-.57,3.83,3.83,0,0,1-1.49-1.64,5.71,5.71,0,0,1-.54-2.58v-8.11h3v7.65a3.1,3.1,0,0,0,.3,1.4,2.36,2.36,0,0,0,.85.92,2.46,2.46,0,0,0,1.26.32,2.7,2.7,0,0,0,1.32-.34,2.57,2.57,0,0,0,1-1,3.07,3.07,0,0,0,.39-1.59Z"/><path class="cls-4" d="M953.33,119.51a1.78,1.78,0,0,1-.63-.59,1.43,1.43,0,0,1-.24-.81,1.51,1.51,0,0,1,.24-.82,1.7,1.7,0,0,1,.63-.59,1.81,1.81,0,0,1,.87-.21,1.85,1.85,0,0,1,.86.21,1.7,1.7,0,0,1,.63.59,1.59,1.59,0,0,1,.23.82,1.5,1.5,0,0,1-.23.81,1.78,1.78,0,0,1-.63.59,1.75,1.75,0,0,1-.86.22A1.71,1.71,0,0,1,953.33,119.51Zm-.63,2h3v12.73h-3Z"/><path class="cls-4" d="M960.58,133.72a5.26,5.26,0,0,1-1.87-2.26,8.48,8.48,0,0,1-.68-3.53,8.34,8.34,0,0,1,.69-3.54,5.16,5.16,0,0,1,1.89-2.25,4.85,4.85,0,0,1,2.68-.76,4.11,4.11,0,0,1,1.69.31,3.29,3.29,0,0,1,1.12.76,4.92,4.92,0,0,1,.74,1l0,.07,0,.09h.12V117.3h3v17h-2.92v-2h-.18a.67.67,0,0,1-.06.12,5.06,5.06,0,0,1-.75,1,3.6,3.6,0,0,1-1.14.76,4.18,4.18,0,0,1-1.69.32A4.83,4.83,0,0,1,960.58,133.72Zm5.15-2.18a3.24,3.24,0,0,0,1-1.45,6.31,6.31,0,0,0,.35-2.18,6,6,0,0,0-.35-2.17,3,3,0,0,0-1-1.41,2.7,2.7,0,0,0-1.63-.5,2.63,2.63,0,0,0-1.66.52,3.14,3.14,0,0,0-1,1.43,6.1,6.1,0,0,0-.35,2.13,6,6,0,0,0,.36,2.15,3.31,3.31,0,0,0,1,1.46,2.55,2.55,0,0,0,1.65.53A2.61,2.61,0,0,0,965.73,131.54Z"/><path class="cls-4" d="M973.69,119.51a1.78,1.78,0,0,1-.63-.59,1.43,1.43,0,0,1-.24-.81,1.51,1.51,0,0,1,.24-.82,1.7,1.7,0,0,1,.63-.59,1.89,1.89,0,0,1,1.73,0,1.7,1.7,0,0,1,.63.59,1.59,1.59,0,0,1,.23.82,1.5,1.5,0,0,1-.23.81,1.78,1.78,0,0,1-.63.59,1.81,1.81,0,0,1-1.73,0Zm-.63,2h3v12.73h-3Z"/><path class="cls-4" d="M985.25,123.85H978v-2.31h7.29Zm-2.5-5.35v11.94a1.91,1.91,0,0,0,.18.91,1.07,1.07,0,0,0,.47.45,1.83,1.83,0,0,0,.71.14c.23,0,.67,0,1.31-.06v2.44a9.6,9.6,0,0,1-1.69.13,5.1,5.1,0,0,1-2.05-.39,3.23,3.23,0,0,1-1.41-1.17,3.52,3.52,0,0,1-.51-1.95V118.5Z"/><path class="cls-4" d="M987.8,139v-2.4l.25,0h.25l.76,0a3.13,3.13,0,0,0,.75-.08,1.27,1.27,0,0,0,.57-.39,3.06,3.06,0,0,0,.52-.95l.26-.68-4.62-13h3.16l2.95,9.63h.13l3-9.63h3.17l-5.1,14.28a5.11,5.11,0,0,1-1.65,2.4,4.52,4.52,0,0,1-2.82.83A15.1,15.1,0,0,1,987.8,139Z"/><path class="cls-4" d="M929.07,146.1h6.35a6.81,6.81,0,0,1,3.25.72,4.84,4.84,0,0,1,2,2,6,6,0,0,1,.69,2.91,5.92,5.92,0,0,1-.7,2.92,4.9,4.9,0,0,1-2.05,2,7,7,0,0,1-3.27.71h-4.22v-2.51H935a4,4,0,0,0,1.86-.39,2.63,2.63,0,0,0,1.1-1.09,3.92,3.92,0,0,0,0-3.24,2.58,2.58,0,0,0-1.1-1.07,4.19,4.19,0,0,0-1.88-.38h-2.84v14.42h-3Z"/><path class="cls-4" d="M945.89,162.5a5.51,5.51,0,0,1-2.13-2.3,8.29,8.29,0,0,1,0-6.89,5.53,5.53,0,0,1,2.13-2.31,6.73,6.73,0,0,1,6.44,0,5.45,5.45,0,0,1,2.12,2.31,8.29,8.29,0,0,1,0,6.89,5.42,5.42,0,0,1-2.12,2.3,6.73,6.73,0,0,1-6.44,0Zm4.91-2.12a3.23,3.23,0,0,0,1-1.5,6.18,6.18,0,0,0,.34-2.13,6.3,6.3,0,0,0-.34-2.15,3.34,3.34,0,0,0-1-1.5,2.6,2.6,0,0,0-1.68-.56,2.64,2.64,0,0,0-1.7.56,3.35,3.35,0,0,0-1,1.5,6.06,6.06,0,0,0-.36,2.15,6,6,0,0,0,.36,2.14,3.27,3.27,0,0,0,1,1.49,2.64,2.64,0,0,0,1.7.56A2.6,2.6,0,0,0,950.8,160.38Z"/><path class="cls-4" d="M959.87,162.5a5.51,5.51,0,0,1-2.13-2.3,8.29,8.29,0,0,1,0-6.89,5.53,5.53,0,0,1,2.13-2.31,6.73,6.73,0,0,1,6.44,0,5.45,5.45,0,0,1,2.12,2.31,8.29,8.29,0,0,1,0,6.89,5.42,5.42,0,0,1-2.12,2.3,6.73,6.73,0,0,1-6.44,0Zm4.91-2.12a3.23,3.23,0,0,0,1-1.5,6.18,6.18,0,0,0,.34-2.13,6.3,6.3,0,0,0-.34-2.15,3.34,3.34,0,0,0-1-1.5,2.6,2.6,0,0,0-1.68-.56,2.64,2.64,0,0,0-1.7.56,3.35,3.35,0,0,0-1,1.5,6.06,6.06,0,0,0-.36,2.15,6,6,0,0,0,.36,2.14,3.27,3.27,0,0,0,1,1.49,2.64,2.64,0,0,0,1.7.56A2.6,2.6,0,0,0,964.78,160.38Z"/><path class="cls-4" d="M974.5,163.07h-3v-17h3Z"/><path class="cls-7" d="M874.58,73a102,102,0,0,0-16.17,25.36m0,0A102.14,102.14,0,1,0,967.88,39.06a103.78,103.78,0,0,0-16.17-1.27A101.89,101.89,0,0,0,874.58,73"/><g class="cls-5"><line class="cls-6" x1="1061.97" y1="150.33" x2="1237.51" y2="150.33"/><polygon class="cls-4" points="1236.05 155.32 1244.69 150.33 1236.05 145.35 1236.05 155.32"/></g><g class="cls-5"><line class="cls-6" x1="1069.15" y1="137.81" x2="1244.69" y2="137.81"/><polygon class="cls-4" points="1070.61 142.8 1061.97 137.81 1070.61 132.83 1070.61 142.8"/></g><path class="cls-4" d="M1106.31,156h1.39v8h4.16v1.2h-5.55Z"/><path class="cls-4" d="M1113.29,156h3.29a3.65,3.65,0,0,1,1.75.38,2.49,2.49,0,0,1,1.07,1.06,3.47,3.47,0,0,1,0,3.08,2.54,2.54,0,0,1-1.07,1.06,3.66,3.66,0,0,1-1.76.39h-2.26v-1.19h2.12a2.35,2.35,0,0,0,1.09-.23,1.55,1.55,0,0,0,.63-.64,2,2,0,0,0,.2-.93,2,2,0,0,0-.2-.94,1.51,1.51,0,0,0-.63-.62,2.35,2.35,0,0,0-1.09-.22h-1.74v8h-1.4Z"/><path class="cls-4" d="M1124,156h7.12v1.2h-2.86v8h-1.39v-8H1124Z"/><path class="cls-4" d="M1132.59,164.86a3,3,0,0,1-1.13-1.26,4,4,0,0,1-.4-1.86,4.15,4.15,0,0,1,.4-1.87,3,3,0,0,1,1.13-1.25,3.47,3.47,0,0,1,3.38,0,2.92,2.92,0,0,1,1.13,1.25,4.15,4.15,0,0,1,.4,1.87,4,4,0,0,1-.4,1.86,2.94,2.94,0,0,1-1.13,1.26,3.47,3.47,0,0,1-3.38,0Zm2.72-1a2,2,0,0,0,.62-.88,3.88,3.88,0,0,0,0-2.46,2,2,0,0,0-.62-.88,1.76,1.76,0,0,0-2,0,2,2,0,0,0-.62.88,3.71,3.71,0,0,0,0,2.46,2,2,0,0,0,.62.88,1.8,1.8,0,0,0,2,0Z"/><path class="cls-4" d="M1138.84,156h1.36v9.19h-1.36Zm1.24,5.21h.23l2.74-2.91h1.62l-3.13,3.32h-.22l-1.23,1.24Zm.66.71.93-.95,3.19,4.22h-1.66Z"/><path class="cls-4" d="M1146.68,164.86a2.83,2.83,0,0,1-1.14-1.23,4.12,4.12,0,0,1-.4-1.87,4.18,4.18,0,0,1,.4-1.87,2.92,2.92,0,0,1,1.12-1.26,3.07,3.07,0,0,1,1.67-.45,3.25,3.25,0,0,1,1.52.36,2.63,2.63,0,0,1,1.12,1.14,4.07,4.07,0,0,1,.42,2v.48h-5.49v-1h4.16a1.92,1.92,0,0,0-.22-.94,1.57,1.57,0,0,0-.6-.65,1.77,1.77,0,0,0-.9-.23,1.79,1.79,0,0,0-1,.27,1.85,1.85,0,0,0-.65.71,2.13,2.13,0,0,0-.23,1V162a2.66,2.66,0,0,0,.24,1.17,1.74,1.74,0,0,0,.68.74,2,2,0,0,0,1,.26,2.3,2.3,0,0,0,.67-.1,1.76,1.76,0,0,0,.51-.27,1.66,1.66,0,0,0,.32-.39h1.37a2.31,2.31,0,0,1-.54,1,2.57,2.57,0,0,1-1,.66,3.82,3.82,0,0,1-1.35.23A3.36,3.36,0,0,1,1146.68,164.86Z"/><path class="cls-4" d="M1154.09,165.16h-1.36v-6.89H1154v1.12h.08a2,2,0,0,1,.45-.64,1.76,1.76,0,0,1,.68-.43,2.81,2.81,0,0,1,.91-.14,2.43,2.43,0,0,1,1.23.29,2,2,0,0,1,.82.88,3.1,3.1,0,0,1,.29,1.42v4.39h-1.35v-4.22a1.87,1.87,0,0,0-.18-.85,1.17,1.17,0,0,0-.5-.55,1.48,1.48,0,0,0-.78-.19,1.73,1.73,0,0,0-.83.2,1.45,1.45,0,0,0-.56.59,1.94,1.94,0,0,0-.21.93Z"/><path class="cls-4" d="M1163.43,156h3.28a3.89,3.89,0,0,1,1.76.36,2.44,2.44,0,0,1,1.07,1,3.33,3.33,0,0,1,0,3,2.3,2.3,0,0,1-1.07,1,4,4,0,0,1-1.76.35h-2.49v-1.2h2.35a2.62,2.62,0,0,0,1.09-.2,1.23,1.23,0,0,0,.63-.55,1.86,1.86,0,0,0,.2-.89,2,2,0,0,0-.2-.91,1.26,1.26,0,0,0-.63-.57,2.52,2.52,0,0,0-1.1-.2h-1.74v8h-1.39Zm6.82,9.19h-1.59l-2.24-4.15H1168Z"/><path class="cls-4" d="M1172.47,164.86a2.83,2.83,0,0,1-1.14-1.23,4.12,4.12,0,0,1-.4-1.87,4.18,4.18,0,0,1,.4-1.87,3,3,0,0,1,1.12-1.26,3.09,3.09,0,0,1,1.67-.45,3.26,3.26,0,0,1,1.53.36,2.66,2.66,0,0,1,1.11,1.14,4.06,4.06,0,0,1,.43,2v.48h-5.5v-1h4.16a2,2,0,0,0-.21-.94,1.57,1.57,0,0,0-.6-.65,1.8,1.8,0,0,0-.9-.23,1.75,1.75,0,0,0-1,.27,2,2,0,0,0-.66.71,2.13,2.13,0,0,0-.23,1V162a2.66,2.66,0,0,0,.24,1.17,1.74,1.74,0,0,0,.68.74,2,2,0,0,0,1,.26,2.28,2.28,0,0,0,.66-.1,1.76,1.76,0,0,0,.51-.27,1.45,1.45,0,0,0,.32-.39h1.38a2.44,2.44,0,0,1-.55,1,2.57,2.57,0,0,1-1,.66,3.8,3.8,0,0,1-1.34.23A3.39,3.39,0,0,1,1172.47,164.86Z"/><path class="cls-4" d="M1178,158.27h1.4l1.34,5h.07l1.35-5h1.4l1.33,5h.07l1.34-5h1.4l-2,6.89h-1.38l-1.4-5h-.1l-1.39,5H1180Z"/><path class="cls-4" d="M1192.18,162.09l-.93.06a2.15,2.15,0,0,0-1.07.32.88.88,0,0,0-.38.76.9.9,0,0,0,.17.55,1,1,0,0,0,.46.34,2.19,2.19,0,0,0,1.62-.1,1.62,1.62,0,0,0,.61-.58,1.46,1.46,0,0,0,.21-.77V160.5a1.38,1.38,0,0,0-.16-.67,1.1,1.1,0,0,0-.48-.42,2,2,0,0,0-.77-.14,2,2,0,0,0-.68.11,1.33,1.33,0,0,0-.48.31,1,1,0,0,0-.26.46h-1.35a2,2,0,0,1,.43-1,2.34,2.34,0,0,1,1-.7,3.71,3.71,0,0,1,1.42-.25,3.88,3.88,0,0,1,1.27.2,2.11,2.11,0,0,1,1,.74,2.32,2.32,0,0,1,.42,1.46v4.58h-1.32v-.94h-.06a1.69,1.69,0,0,1-.41.53,2,2,0,0,1-.67.4,2.61,2.61,0,0,1-1,.16,2.8,2.8,0,0,1-1.18-.24,2,2,0,0,1-.84-.72,2.11,2.11,0,0,1-.3-1.14,1.67,1.67,0,0,1,.72-1.52,4.08,4.08,0,0,1,1.85-.54l.74,0,.8,0,.35,0,0,1Z"/><path class="cls-4" d="M1195.85,158.27h1.31v1.1h.08a1.77,1.77,0,0,1,.38-.65,1.69,1.69,0,0,1,.61-.41,1.93,1.93,0,0,1,.75-.15,5.22,5.22,0,0,1,.58,0v1.3l-.32-.06a2.48,2.48,0,0,0-.38,0,1.8,1.8,0,0,0-.85.19,1.51,1.51,0,0,0-.59.56,1.54,1.54,0,0,0-.21.8v4.2h-1.36Z"/><path class="cls-4" d="M1201.45,164.86a2.86,2.86,0,0,1-1-1.23,4.51,4.51,0,0,1-.37-1.9,4.44,4.44,0,0,1,.37-1.9,2.82,2.82,0,0,1,1-1.23,2.68,2.68,0,0,1,1.49-.42,2.23,2.23,0,0,1,.94.17,1.76,1.76,0,0,1,.6.41,3.74,3.74,0,0,1,.39.54l0,0,0,0h.07V156h1.36v9.19H1205v-1.07h-.1l0,.06a3.42,3.42,0,0,1-.41.55,1.72,1.72,0,0,1-.61.42,2.24,2.24,0,0,1-1,.18A2.6,2.6,0,0,1,1201.45,164.86Zm2.76-1a1.87,1.87,0,0,0,.61-.85,3.62,3.62,0,0,0,.21-1.28,3.47,3.47,0,0,0-.2-1.26,1.81,1.81,0,0,0-.61-.83,1.69,1.69,0,0,0-1-.29,1.62,1.62,0,0,0-1,.3,1.87,1.87,0,0,0-.62.85,3.6,3.6,0,0,0-.2,1.23,3.45,3.45,0,0,0,.21,1.25,1.93,1.93,0,0,0,.61.87,1.56,1.56,0,0,0,1,.31A1.6,1.6,0,0,0,1204.21,163.84Z"/><path class="cls-4" d="M1085.23,107.42h1.4v8h4.16v1.2h-5.56Z"/><path class="cls-4" d="M1092.37,108.55a.86.86,0,0,1-.31-.29.75.75,0,0,1-.12-.4.73.73,0,0,1,.12-.41.86.86,0,0,1,.31-.29.92.92,0,0,1,.43-.11.88.88,0,0,1,.42.11.79.79,0,0,1,.31.29.73.73,0,0,1,.12.41.75.75,0,0,1-.12.4.79.79,0,0,1-.31.29.88.88,0,0,1-.42.11A.92.92,0,0,1,1092.37,108.55Zm-.26,1.17h1.36v6.89h-1.36Z"/><path class="cls-4" d="M1099.77,115.54h-.07a.15.15,0,0,1,0,.06,2.88,2.88,0,0,1-.4.55,1.93,1.93,0,0,1-.61.42,2.27,2.27,0,0,1-1,.18,2.63,2.63,0,0,1-1.49-.43,2.87,2.87,0,0,1-1-1.24,4.94,4.94,0,0,1,0-3.8,2.92,2.92,0,0,1,1-1.23,2.72,2.72,0,0,1,1.49-.42,2.19,2.19,0,0,1,.94.18,1.63,1.63,0,0,1,.6.41,2.73,2.73,0,0,1,.4.53l0,0,0,0h.1v-1.12h1.32v9.48h-1.35Zm-.8-.25a1.83,1.83,0,0,0,.62-.85,3.56,3.56,0,0,0,.21-1.27,3.47,3.47,0,0,0-.21-1.26,1.77,1.77,0,0,0-.61-.84,1.65,1.65,0,0,0-1-.29,1.62,1.62,0,0,0-1,.31,1.84,1.84,0,0,0-.61.84,3.39,3.39,0,0,0-.21,1.24,3.52,3.52,0,0,0,.21,1.25,2,2,0,0,0,.62.86,1.56,1.56,0,0,0,1,.32A1.58,1.58,0,0,0,1099,115.29Z"/><path class="cls-4" d="M1107.15,109.72h1.35v6.89h-1.32v-1.19h-.08a1.85,1.85,0,0,1-.45.66,1.94,1.94,0,0,1-.69.46,2.47,2.47,0,0,1-.92.16,2.37,2.37,0,0,1-1.18-.29,2,2,0,0,1-.8-.89,3.21,3.21,0,0,1-.28-1.42v-4.38h1.35v4.22a1.73,1.73,0,0,0,.18.81,1.37,1.37,0,0,0,.5.54,1.43,1.43,0,0,0,.72.18,1.66,1.66,0,0,0,.78-.19,1.64,1.64,0,0,0,.84-1.53Z"/><path class="cls-4" d="M1110.41,108.55a.86.86,0,0,1-.31-.29.75.75,0,0,1-.12-.4.73.73,0,0,1,.12-.41.86.86,0,0,1,.31-.29.92.92,0,0,1,.43-.11.88.88,0,0,1,.42.11.79.79,0,0,1,.31.29.73.73,0,0,1,.12.41.75.75,0,0,1-.12.4.79.79,0,0,1-.31.29.88.88,0,0,1-.42.11A.92.92,0,0,1,1110.41,108.55Zm-.26,1.17h1.36v6.89h-1.36Z"/><path class="cls-4" d="M1114.25,116.32a2.94,2.94,0,0,1-1-1.24,4.94,4.94,0,0,1,0-3.8,2.92,2.92,0,0,1,1-1.23,2.72,2.72,0,0,1,1.49-.42,2.19,2.19,0,0,1,.94.18,1.76,1.76,0,0,1,.61.41,3.16,3.16,0,0,1,.39.53s0,0,0,0l0,0h.07v-3.42h1.35v9.19h-1.32v-1.07h-.1a.15.15,0,0,1,0,.06,2.88,2.88,0,0,1-.4.55,1.82,1.82,0,0,1-.61.42,2.27,2.27,0,0,1-1,.18A2.63,2.63,0,0,1,1114.25,116.32Zm2.76-1a1.83,1.83,0,0,0,.62-.85,3.56,3.56,0,0,0,.21-1.27,3.47,3.47,0,0,0-.21-1.26,1.77,1.77,0,0,0-.61-.84,1.77,1.77,0,0,0-2,0,1.84,1.84,0,0,0-.61.84,3.39,3.39,0,0,0-.21,1.24,3.52,3.52,0,0,0,.21,1.25,2,2,0,0,0,.62.86,1.67,1.67,0,0,0,2,0Z"/><path class="cls-4" d="M1121.19,108.55a.89.89,0,0,1-.32-.29.75.75,0,0,1-.12-.4.73.73,0,0,1,.12-.41.89.89,0,0,1,.32-.29.86.86,0,0,1,.84,0,.76.76,0,0,1,.43.7.83.83,0,0,1-.11.4.82.82,0,0,1-.32.29.86.86,0,0,1-.84,0Zm-.26,1.17h1.35v6.89h-1.35Z"/><path class="cls-4" d="M1127.16,110.8h-3.77v-1.08h3.77Zm-1.41-2.73v6.52a1.21,1.21,0,0,0,.11.56.6.6,0,0,0,.29.28,1.1,1.1,0,0,0,.43.08l.67,0v1.17a5.34,5.34,0,0,1-.84,0,2.4,2.4,0,0,1-1-.2,1.68,1.68,0,0,1-1-1.64v-6.79Z"/><path class="cls-4" d="M1128.59,119.17V118h.6a1.78,1.78,0,0,0,.44,0,.8.8,0,0,0,.34-.25,2.06,2.06,0,0,0,.31-.6l.17-.45-2.52-7h1.45l1.73,5.35h.08l1.74-5.35h1.45l-2.84,7.81a2.65,2.65,0,0,1-.85,1.25,2.2,2.2,0,0,1-1.38.42A6.65,6.65,0,0,1,1128.59,119.17Z"/><path class="cls-4" d="M1143.5,109.12a1.6,1.6,0,0,0-.66-.46,2.72,2.72,0,0,0-.94-.16,2.43,2.43,0,0,0-1,.18,1.45,1.45,0,0,0-.64.48,1.17,1.17,0,0,0-.23.7,1,1,0,0,0,.47.89,3.91,3.91,0,0,0,1.2.5l.89.23a6.29,6.29,0,0,1,1.29.47,2.65,2.65,0,0,1,1,.82,2.11,2.11,0,0,1,.39,1.3,2.5,2.5,0,0,1-.41,1.4,2.61,2.61,0,0,1-1.17,1,5,5,0,0,1-3.61,0,2.85,2.85,0,0,1-1.19-.93,2.77,2.77,0,0,1-.47-1.44h1.4a1.4,1.4,0,0,0,.32.81,1.64,1.64,0,0,0,.72.5,2.87,2.87,0,0,0,1,.16,2.64,2.64,0,0,0,1-.19,1.65,1.65,0,0,0,.73-.52,1.23,1.23,0,0,0,.26-.77,1,1,0,0,0-.22-.65,1.67,1.67,0,0,0-.59-.43,6.36,6.36,0,0,0-.94-.32l-1.08-.29a4,4,0,0,1-1.77-.91,2,2,0,0,1-.63-1.52,2.35,2.35,0,0,1,.43-1.38,2.85,2.85,0,0,1,1.17-.93,4.08,4.08,0,0,1,1.67-.33,3.92,3.92,0,0,1,1.65.32,2.73,2.73,0,0,1,1.14.91,2.32,2.32,0,0,1,.42,1.31h-1.35A1.36,1.36,0,0,0,1143.5,109.12Z"/><path class="cls-4" d="M1151,109.72h1.35v6.89h-1.33v-1.19H1151a2.15,2.15,0,0,1-.45.66,1.9,1.9,0,0,1-.7.46,2.6,2.6,0,0,1-2.09-.13,2,2,0,0,1-.8-.89,3.21,3.21,0,0,1-.29-1.42v-4.38H1148v4.22a1.73,1.73,0,0,0,.18.81,1.35,1.35,0,0,0,.49.54,1.46,1.46,0,0,0,.73.18,1.62,1.62,0,0,0,.77-.19,1.57,1.57,0,0,0,.61-.59,1.73,1.73,0,0,0,.24-.94Z"/><path class="cls-4" d="M1154,109.72h1.32v1.12h.12l0,0s0,0,0,0a2.73,2.73,0,0,1,.4-.53,1.63,1.63,0,0,1,.6-.41,2.22,2.22,0,0,1,.94-.18,2.72,2.72,0,0,1,1.49.42,2.92,2.92,0,0,1,1,1.23,5.06,5.06,0,0,1,0,3.8,2.8,2.8,0,0,1-1,1.24,2.63,2.63,0,0,1-1.49.43,2.13,2.13,0,0,1-1-.19,1.82,1.82,0,0,1-.61-.42,3.08,3.08,0,0,1-.41-.57h0v0h-.08v3.66H1154Zm1.54,4.72a1.82,1.82,0,0,0,.61.85,1.7,1.7,0,0,0,2,0,2,2,0,0,0,.61-.86,3.52,3.52,0,0,0,.21-1.25,3.62,3.62,0,0,0-.2-1.24,1.79,1.79,0,0,0-.62-.84,1.77,1.77,0,0,0-2,0,1.84,1.84,0,0,0-.61.84,3.47,3.47,0,0,0-.21,1.26A3.56,3.56,0,0,0,1155.58,114.44Z"/><path class="cls-4" d="M1161.7,109.72H1163v1.12h.11l0,0s0,0,0,0a2.73,2.73,0,0,1,.4-.53,1.63,1.63,0,0,1,.6-.41,2.17,2.17,0,0,1,.93-.18,2.73,2.73,0,0,1,1.5.42,2.92,2.92,0,0,1,1,1.23,5.19,5.19,0,0,1,0,3.8,2.87,2.87,0,0,1-1,1.24,2.65,2.65,0,0,1-1.49.43,2.13,2.13,0,0,1-1-.19,2,2,0,0,1-.62-.42,3.59,3.59,0,0,1-.4-.57h0v0h-.08v3.66h-1.35Zm1.54,4.72a1.82,1.82,0,0,0,.61.85,1.6,1.6,0,0,0,1,.31,1.57,1.57,0,0,0,1-.32,1.9,1.9,0,0,0,.62-.86,3.52,3.52,0,0,0,.21-1.25,3.39,3.39,0,0,0-.21-1.24,1.77,1.77,0,0,0-.61-.84,1.65,1.65,0,0,0-1-.31,1.62,1.62,0,0,0-1,.29,1.77,1.77,0,0,0-.61.84,3.47,3.47,0,0,0-.21,1.26A3.56,3.56,0,0,0,1163.24,114.44Z"/><path class="cls-4" d="M1170.71,116.61h-1.35v-9.19h1.35Z"/><path class="cls-4" d="M1172.47,119.17V118h.61a1.75,1.75,0,0,0,.43,0,.74.74,0,0,0,.34-.25,2,2,0,0,0,.32-.6l.17-.45-2.53-7h1.45l1.74,5.35h.07l1.75-5.35h1.45l-2.85,7.81a2.65,2.65,0,0,1-.85,1.25,2.18,2.18,0,0,1-1.38.42A6.91,6.91,0,0,1,1172.47,119.17Z"/><path class="cls-4" d="M1185.78,110.8H1182v-1.08h3.77Zm-1.4-2.73v6.52a1.09,1.09,0,0,0,.11.56.56.56,0,0,0,.29.28,1,1,0,0,0,.42.08l.67,0v1.17a5.21,5.21,0,0,1-.83,0,2.37,2.37,0,0,1-1-.2,1.7,1.7,0,0,1-.73-.62,1.75,1.75,0,0,1-.28-1v-6.79Z"/><path class="cls-4" d="M1188.6,116.61h-1.35v-9.19h1.34v3.43h.08a2.06,2.06,0,0,1,.44-.66,2,2,0,0,1,.68-.42,2.87,2.87,0,0,1,.92-.14,2.59,2.59,0,0,1,1.25.29,2,2,0,0,1,.83.88,3.25,3.25,0,0,1,.29,1.43v4.38h-1.36v-4.22a1.91,1.91,0,0,0-.18-.86,1.14,1.14,0,0,0-.5-.54,1.52,1.52,0,0,0-.79-.19,1.7,1.7,0,0,0-.85.21,1.38,1.38,0,0,0-.58.59,1.82,1.82,0,0,0-.22.92Z"/><path class="cls-4" d="M1194.72,109.72H1196v1.1h.07a1.65,1.65,0,0,1,.38-.64,1.8,1.8,0,0,1,.61-.42,1.94,1.94,0,0,1,.76-.14,5.35,5.35,0,0,1,.58,0v1.29a2,2,0,0,0-.32,0l-.39,0a1.84,1.84,0,0,0-.85.2,1.4,1.4,0,0,0-.58.55,1.48,1.48,0,0,0-.22.8v4.2h-1.35Z"/><path class="cls-4" d="M1200.44,116.31a2.92,2.92,0,0,1-1.13-1.25,4.55,4.55,0,0,1,0-3.73,2.94,2.94,0,0,1,1.13-1.26,3.47,3.47,0,0,1,3.38,0,3,3,0,0,1,1.13,1.26,4.65,4.65,0,0,1,0,3.73,3,3,0,0,1-1.13,1.25,3.47,3.47,0,0,1-3.38,0Zm2.71-1a2,2,0,0,0,.62-.88,3.37,3.37,0,0,0,.21-1.23,3.45,3.45,0,0,0-.21-1.23,2,2,0,0,0-.62-.88,1.65,1.65,0,0,0-1-.32,1.58,1.58,0,0,0-1,.32,2,2,0,0,0-.63.88,3.45,3.45,0,0,0-.21,1.23,3.37,3.37,0,0,0,.21,1.23,2,2,0,0,0,.63.88,1.58,1.58,0,0,0,1,.32A1.59,1.59,0,0,0,1203.15,115.3Z"/><path class="cls-4" d="M1211.06,109.72h1.35v6.89h-1.33v-1.19H1211a2,2,0,0,1-.45.66,1.9,1.9,0,0,1-.7.46,2.6,2.6,0,0,1-2.09-.13,2,2,0,0,1-.8-.89,3.21,3.21,0,0,1-.28-1.42v-4.38H1208v4.22a1.73,1.73,0,0,0,.18.81,1.35,1.35,0,0,0,.49.54,1.46,1.46,0,0,0,.73.18,1.6,1.6,0,0,0,.77-.19,1.67,1.67,0,0,0,.62-.59,1.82,1.82,0,0,0,.23-.94Z"/><path class="cls-4" d="M1215.43,119.1a2.38,2.38,0,0,1-1-.71,2,2,0,0,1-.44-1.11h1.38a1,1,0,0,0,.28.54,1.25,1.25,0,0,0,.56.33,2.76,2.76,0,0,0,.8.11,2,2,0,0,0,1.3-.38,1.41,1.41,0,0,0,.46-1.17v-1.35h-.09l0,0a3.74,3.74,0,0,1-.39.54,1.85,1.85,0,0,1-.62.4,2.37,2.37,0,0,1-1,.18,2.76,2.76,0,0,1-1.48-.4,2.81,2.81,0,0,1-1-1.17,4.2,4.2,0,0,1-.38-1.84,4.26,4.26,0,0,1,.38-1.86,2.71,2.71,0,0,1,1-1.2,2.81,2.81,0,0,1,1.5-.41,2.2,2.2,0,0,1,.93.18,1.9,1.9,0,0,1,.61.4,3.86,3.86,0,0,1,.4.53.31.31,0,0,1,.05.1h.09v-1.12h1.33v7a2.5,2.5,0,0,1-.4,1.44,2.26,2.26,0,0,1-1.1.86,4.25,4.25,0,0,1-1.61.28A4.47,4.47,0,0,1,1215.43,119.1Zm2.49-4a1.66,1.66,0,0,0,.61-.78,3.17,3.17,0,0,0,.21-1.22,3.56,3.56,0,0,0-.2-1.23,1.85,1.85,0,0,0-.62-.82,1.64,1.64,0,0,0-1-.29,1.56,1.56,0,0,0-1,.31,1.81,1.81,0,0,0-.62.83,3.21,3.21,0,0,0-.21,1.2,3.09,3.09,0,0,0,.21,1.19,1.86,1.86,0,0,0,.62.8,1.67,1.67,0,0,0,1,.28A1.7,1.7,0,0,0,1217.92,115.12Z"/><path class="cls-4" d="M1223.08,116.61h-1.36v-9.19h1.34v3.43h.08a2.06,2.06,0,0,1,.44-.66,2,2,0,0,1,.68-.42,2.87,2.87,0,0,1,.92-.14,2.59,2.59,0,0,1,1.25.29,2,2,0,0,1,.83.88,3.25,3.25,0,0,1,.29,1.43v4.38h-1.36v-4.22a1.91,1.91,0,0,0-.18-.86,1.14,1.14,0,0,0-.5-.54,1.52,1.52,0,0,0-.79-.19,1.7,1.7,0,0,0-.85.21,1.38,1.38,0,0,0-.58.59,1.92,1.92,0,0,0-.21.92Z"/><path class="cls-4" d="M1077.72,123l2.91,7.12h.11l2.91-7.12h1.71v9.19H1084v-6.63h-.08l-2.71,6.62h-1.1l-2.7-6.63h-.08v6.64H1076V123Z"/><path class="cls-4" d="M1086.53,132.21l3.3-9.19h1.62l3.3,9.19h-1.48l-2.6-7.51h-.07l-2.59,7.51Zm6.5-3.6v1.18h-4.78v-1.18Z"/><path class="cls-4" d="M1098.33,130.5h.1L1101,123h1.5l-3.3,9.19h-1.62l-3.3-9.19h1.51Z"/><path class="cls-4" d="M1106.38,123h7.12v1.2h-2.85v8h-1.4v-8h-2.87Z"/><path class="cls-4" d="M1115,131.91a2.92,2.92,0,0,1-1.13-1.25,4.55,4.55,0,0,1,0-3.73,2.94,2.94,0,0,1,1.13-1.26,3.47,3.47,0,0,1,3.38,0,3,3,0,0,1,1.13,1.26,4.65,4.65,0,0,1,0,3.73,3,3,0,0,1-1.13,1.25,3.47,3.47,0,0,1-3.38,0Zm2.71-1a2,2,0,0,0,.62-.88,3.37,3.37,0,0,0,.21-1.23,3.45,3.45,0,0,0-.21-1.23,2,2,0,0,0-.62-.88,1.65,1.65,0,0,0-1-.32,1.58,1.58,0,0,0-1,.32,2,2,0,0,0-.63.88,3.45,3.45,0,0,0-.21,1.23,3.37,3.37,0,0,0,.21,1.23,2,2,0,0,0,.63.88,1.63,1.63,0,0,0,1,.32A1.65,1.65,0,0,0,1117.74,130.9Z"/><path class="cls-4" d="M1121.28,123h1.35v9.19h-1.35Zm1.23,5.21h.24l2.73-2.91h1.62l-3.13,3.33h-.21l-1.24,1.23Zm.66.72.93-1,3.19,4.22h-1.66Z"/><path class="cls-4" d="M1129.11,131.92a3,3,0,0,1-1.14-1.24,4.55,4.55,0,0,1,0-3.73,3,3,0,0,1,1.12-1.27,3.09,3.09,0,0,1,1.67-.45,3.26,3.26,0,0,1,1.53.36,2.66,2.66,0,0,1,1.11,1.14,4,4,0,0,1,.43,2v.49h-5.5v-1h4.16a2.06,2.06,0,0,0-.21-.94,1.54,1.54,0,0,0-.6-.64,1.68,1.68,0,0,0-.9-.24,1.75,1.75,0,0,0-1,.27,1.81,1.81,0,0,0-.65.72,2,2,0,0,0-.24,1v.79a2.58,2.58,0,0,0,.24,1.16,1.74,1.74,0,0,0,.68.74,2,2,0,0,0,1,.26,2,2,0,0,0,.66-.1,1.38,1.38,0,0,0,.51-.27,1.08,1.08,0,0,0,.32-.39h1.38a2.48,2.48,0,0,1-.55,1,2.55,2.55,0,0,1-1,.65,3.59,3.59,0,0,1-1.34.23A3.41,3.41,0,0,1,1129.11,131.92Z"/><path class="cls-4" d="M1136.52,132.21h-1.35v-6.89h1.3v1.13h.09a2.13,2.13,0,0,1,.44-.65,2,2,0,0,1,.68-.42,2.59,2.59,0,0,1,.91-.15,2.47,2.47,0,0,1,1.24.3,2,2,0,0,1,.82.88,3.21,3.21,0,0,1,.29,1.42v4.38h-1.36V128a2,2,0,0,0-.17-.85,1.27,1.27,0,0,0-.5-.55,1.5,1.5,0,0,0-.78-.19,1.7,1.7,0,0,0-.83.2,1.5,1.5,0,0,0-.57.6,1.92,1.92,0,0,0-.21.92Z"/><path class="cls-4" d="M1147,131.91a3,3,0,0,1-1.13-1.25,4.55,4.55,0,0,1,0-3.73,3.07,3.07,0,0,1,1.13-1.26,3.29,3.29,0,0,1,1.7-.44,3.25,3.25,0,0,1,1.69.44,3,3,0,0,1,1.12,1.26,4.55,4.55,0,0,1,0,3.73,3,3,0,0,1-1.12,1.25,3.16,3.16,0,0,1-1.69.44A3.19,3.19,0,0,1,1147,131.91Zm2.72-1a2,2,0,0,0,.62-.88,3.37,3.37,0,0,0,.21-1.23,3.45,3.45,0,0,0-.21-1.23,2.1,2.1,0,0,0-.62-.88,1.65,1.65,0,0,0-1-.32,1.56,1.56,0,0,0-1,.32,2,2,0,0,0-.63.88,3.45,3.45,0,0,0-.21,1.23A3.37,3.37,0,0,0,1147,130a2,2,0,0,0,.63.88,1.61,1.61,0,0,0,1,.32A1.65,1.65,0,0,0,1149.69,130.9Z"/><path class="cls-4" d="M1153.22,125.32h1.31v1.1h.08a1.65,1.65,0,0,1,.38-.64,1.63,1.63,0,0,1,.61-.42,1.86,1.86,0,0,1,.75-.14,5.22,5.22,0,0,1,.58,0v1.29a1.8,1.8,0,0,0-.32-.05l-.38,0a1.7,1.7,0,0,0-.85.2,1.42,1.42,0,0,0-.59.55,1.57,1.57,0,0,0-.21.8v4.2h-1.36Z"/><path class="cls-4" d="M1162.33,131.91a3,3,0,0,1-1.13-1.25,4.55,4.55,0,0,1,0-3.73,3.07,3.07,0,0,1,1.13-1.26,3.29,3.29,0,0,1,1.7-.44,3.25,3.25,0,0,1,1.69.44,3,3,0,0,1,1.12,1.26,4.55,4.55,0,0,1,0,3.73,3,3,0,0,1-1.12,1.25,3.16,3.16,0,0,1-1.69.44A3.19,3.19,0,0,1,1162.33,131.91Zm2.72-1a2,2,0,0,0,.62-.88,3.37,3.37,0,0,0,.21-1.23,3.45,3.45,0,0,0-.21-1.23,2,2,0,0,0-.62-.88,1.65,1.65,0,0,0-1-.32,1.58,1.58,0,0,0-1,.32,2,2,0,0,0-.63.88,3.45,3.45,0,0,0-.21,1.23,3.37,3.37,0,0,0,.21,1.23,2,2,0,0,0,.63.88,1.63,1.63,0,0,0,1,.32A1.65,1.65,0,0,0,1165.05,130.9Z"/><path class="cls-4" d="M1171.81,126.4H1168v-1.08h3.77Zm-1.41-2.73v6.52a1.21,1.21,0,0,0,.11.56.6.6,0,0,0,.29.28,1.1,1.1,0,0,0,.43.08l.67,0v1.17a6.78,6.78,0,0,1-.84.05,2.56,2.56,0,0,1-1-.2,1.83,1.83,0,0,1-.73-.62,1.85,1.85,0,0,1-.27-1v-6.79Z"/><path class="cls-4" d="M1174.63,132.21h-1.36V123h1.34v3.43h.09a2.06,2.06,0,0,1,.44-.66,1.87,1.87,0,0,1,.68-.42,2.82,2.82,0,0,1,.92-.14,2.59,2.59,0,0,1,1.25.29,2,2,0,0,1,.82.88,3.25,3.25,0,0,1,.29,1.43v4.38h-1.35V128a1.91,1.91,0,0,0-.18-.86,1.19,1.19,0,0,0-.5-.54,1.54,1.54,0,0,0-.79-.19,1.78,1.78,0,0,0-.85.2,1.55,1.55,0,0,0-.59.6,1.92,1.92,0,0,0-.21.92Z"/><path class="cls-4" d="M1182,131.92a3,3,0,0,1-1.14-1.24,4.55,4.55,0,0,1,0-3.73,3,3,0,0,1,1.12-1.27,3.09,3.09,0,0,1,1.67-.45,3.26,3.26,0,0,1,1.53.36,2.74,2.74,0,0,1,1.12,1.14,4.09,4.09,0,0,1,.42,2v.49h-5.5v-1h4.16a2.06,2.06,0,0,0-.21-.94,1.54,1.54,0,0,0-.6-.64,1.68,1.68,0,0,0-.9-.24,1.75,1.75,0,0,0-1,.27,1.81,1.81,0,0,0-.65.72,2,2,0,0,0-.24,1v.79a2.58,2.58,0,0,0,.24,1.16,1.77,1.77,0,0,0,.69.74,2,2,0,0,0,1,.26,2,2,0,0,0,.67-.1,1.42,1.42,0,0,0,.5-.27,1.08,1.08,0,0,0,.32-.39h1.38a2.26,2.26,0,0,1-.55,1,2.55,2.55,0,0,1-1,.65,3.59,3.59,0,0,1-1.34.23A3.41,3.41,0,0,1,1182,131.92Z"/><path class="cls-4" d="M1188,125.32h1.31v1.1h.07a1.67,1.67,0,0,1,.39-.64,1.63,1.63,0,0,1,.61-.42,1.86,1.86,0,0,1,.75-.14,5.22,5.22,0,0,1,.58,0v1.29a2,2,0,0,0-.32-.05,2.66,2.66,0,0,0-.39,0,1.68,1.68,0,0,0-.84.2,1.42,1.42,0,0,0-.59.55,1.57,1.57,0,0,0-.21.8v4.2H1188Z"/><path class="cls-4" d="M1195.58,123h7.12v1.2h-2.86v8h-1.4v-8h-2.86Z"/><path class="cls-4" d="M1204.22,131.91a3,3,0,0,1-1.13-1.25,4.55,4.55,0,0,1,0-3.73,3,3,0,0,1,1.13-1.26,3.47,3.47,0,0,1,3.38,0,2.94,2.94,0,0,1,1.13,1.26,4.55,4.55,0,0,1,0,3.73,2.92,2.92,0,0,1-1.13,1.25,3.47,3.47,0,0,1-3.38,0Zm2.71-1a2,2,0,0,0,.63-.88,3.6,3.6,0,0,0,.2-1.23,3.69,3.69,0,0,0-.2-1.23,2,2,0,0,0-.63-.88,1.79,1.79,0,0,0-2,0,2,2,0,0,0-.62.88,3.45,3.45,0,0,0-.21,1.23,3.37,3.37,0,0,0,.21,1.23,2,2,0,0,0,.62.88,1.66,1.66,0,0,0,1,.32A1.6,1.6,0,0,0,1206.93,130.9Z"/><path class="cls-4" d="M1210.47,123h1.36v9.19h-1.36Zm1.24,5.21h.23l2.74-2.91h1.62l-3.13,3.33H1213l-1.23,1.23Zm.65.72.94-1,3.19,4.22h-1.66Z"/><path class="cls-4" d="M1218.31,131.92a3,3,0,0,1-1.15-1.24,4.65,4.65,0,0,1,0-3.73,3,3,0,0,1,1.13-1.27,3.07,3.07,0,0,1,1.67-.45,3.25,3.25,0,0,1,1.52.36,2.63,2.63,0,0,1,1.12,1.14,4.09,4.09,0,0,1,.42,2v.49h-5.49v-1h4.16a2,2,0,0,0-.22-.94,1.54,1.54,0,0,0-.6-.64,1.68,1.68,0,0,0-.9-.24,1.77,1.77,0,0,0-1.62,1,2.2,2.2,0,0,0-.24,1v.79a2.58,2.58,0,0,0,.25,1.16,1.74,1.74,0,0,0,.68.74,2,2,0,0,0,1,.26,2,2,0,0,0,.67-.1,1.38,1.38,0,0,0,.51-.27,1.34,1.34,0,0,0,.32-.39h1.37a2.34,2.34,0,0,1-.54,1,2.55,2.55,0,0,1-1,.65,3.61,3.61,0,0,1-1.35.23A3.35,3.35,0,0,1,1218.31,131.92Z"/><path class="cls-4" d="M1225.72,132.21h-1.36v-6.89h1.3v1.13h.09a2,2,0,0,1,.45-.65,1.87,1.87,0,0,1,.68-.42,2.54,2.54,0,0,1,.9-.15,2.45,2.45,0,0,1,1.24.3,1.9,1.9,0,0,1,.82.88,3.21,3.21,0,0,1,.29,1.42v4.38h-1.35V128a1.9,1.9,0,0,0-.18-.85,1.21,1.21,0,0,0-.5-.55,1.5,1.5,0,0,0-.78-.19,1.73,1.73,0,0,0-.83.2,1.5,1.5,0,0,0-.57.6,2,2,0,0,0-.2.92Z"/><path class="cls-4" d="M1235.21,126.54a1.43,1.43,0,0,0-.87-.24,1.79,1.79,0,0,0-.68.12,1.14,1.14,0,0,0-.48.33.75.75,0,0,0-.17.47.68.68,0,0,0,.26.53,2,2,0,0,0,.82.35l1.1.25a2.9,2.9,0,0,1,1.42.68,1.6,1.6,0,0,1,.47,1.19,1.91,1.91,0,0,1-.34,1.1,2.24,2.24,0,0,1-1,.76,3.86,3.86,0,0,1-1.5.27,4,4,0,0,1-1.42-.23,2.09,2.09,0,0,1-1.38-1.79h1.38a1,1,0,0,0,.44.7,1.68,1.68,0,0,0,1,.24,2.22,2.22,0,0,0,.77-.12,1.1,1.1,0,0,0,.5-.33.75.75,0,0,0,.18-.5.71.71,0,0,0-.26-.55,1.93,1.93,0,0,0-.81-.34l-1.07-.24a2.75,2.75,0,0,1-1.41-.69,1.63,1.63,0,0,1-.48-1.2,1.84,1.84,0,0,1,.33-1.08,2.18,2.18,0,0,1,.94-.73,3.6,3.6,0,0,1,1.4-.26,3.38,3.38,0,0,1,1.32.24,2.09,2.09,0,0,1,.9.69,2.12,2.12,0,0,1,.4,1h-1.31A1.07,1.07,0,0,0,1235.21,126.54Z"/><g class="cls-9"><g class="cls-12"><line class="cls-13" x1="1667.86" y1="149.08" x2="1457.47" y2="369.14"/><line class="cls-13" x1="1663.3" y1="149.1" x2="1452.92" y2="369.16"/><line class="cls-13" x1="1658.75" y1="149.12" x2="1448.36" y2="369.18"/><line class="cls-13" x1="1654.2" y1="149.14" x2="1443.81" y2="369.2"/><line class="cls-13" x1="1649.64" y1="149.15" x2="1439.25" y2="369.21"/><line class="cls-13" x1="1645.09" y1="149.17" x2="1434.7" y2="369.23"/><line class="cls-13" x1="1640.53" y1="149.19" x2="1430.14" y2="369.25"/><line class="cls-13" x1="1635.98" y1="149.21" x2="1425.59" y2="369.27"/><line class="cls-13" x1="1631.42" y1="149.23" x2="1421.04" y2="369.29"/><line class="cls-13" x1="1626.87" y1="149.24" x2="1416.48" y2="369.31"/><line class="cls-13" x1="1622.32" y1="149.26" x2="1411.93" y2="369.32"/><line class="cls-13" x1="1617.76" y1="149.28" x2="1407.37" y2="369.34"/><line class="cls-13" x1="1613.21" y1="149.3" x2="1402.82" y2="369.36"/><line class="cls-13" x1="1608.65" y1="149.32" x2="1398.26" y2="369.38"/><line class="cls-13" x1="1604.1" y1="149.33" x2="1393.71" y2="369.4"/><line class="cls-13" x1="1599.54" y1="149.35" x2="1389.15" y2="369.41"/><line class="cls-13" x1="1594.99" y1="149.37" x2="1384.6" y2="369.43"/><line class="cls-13" x1="1590.44" y1="149.39" x2="1380.05" y2="369.45"/><line class="cls-13" x1="1585.88" y1="149.41" x2="1375.49" y2="369.47"/></g></g></svg>