<svg xmlns="http://www.w3.org/2000/svg" viewBox="0 0 270 270"><defs><style>.cls-1{fill:#fff;}</style></defs><g id="레이어_2" data-name="레이어 2"><g id="레이어_1-2" data-name="레이어 1"><path class="cls-1" d="M135,5a130,130,0,0,1,91.92,221.92A130,130,0,1,1,43.08,43.08,129.12,129.12,0,0,1,135,5m0-5A135,135,0,1,0,270,135,135,135,0,0,0,135,0Z"/><path class="cls-1" d="M194.94,73.74l-134.76,52a5.06,5.06,0,0,0,.25,9.52l34,11.2,14.88,45.91,0,.05v0a.35.35,0,0,0,.08.13,1.54,1.54,0,0,0,2.41.4l23.21-21.9,36.07,26.5a5.05,5.05,0,0,0,8-3.1L201.72,79.43A5.06,5.06,0,0,0,194.94,73.74ZM112.7,154.42l-2.44,29.06L98.75,148l67.63-42.89Z"/></g></g></svg>